<?xml version="1.0" encoding="UTF-8"?>
<svg id="a" data-name="Layer_1" xmlns="http://www.w3.org/2000/svg" viewBox="0 0 400 300">
  <defs>
    <style>
      .c {
        fill: #fff;
      }
    </style>
  </defs>
  <path class="c" d="M335.25,173.93h24.65l-11.1-19.41c-.23.81-.5,1.61-.77,2.37-.45,1.28-.95,2.51-1.5,3.65l-.22.45-.45-.23c-1.26-.67-2.48-1.36-3.62-2.05-8.99-5.44-16.18-13.75-18.75-16.93l-5.19,9.06c2.29,2.78,9.42,10.93,18.08,15.97,1.23.71,2.49,1.4,3.75,2.02l.59.29-.45.48c-.97,1.01-2,1.97-3.05,2.84-.62.51-1.28,1.01-1.96,1.5h0Z"/>
  <path class="c" d="M326.29,136.88c1.86,2.49,3.95,4.85,6.21,7.04,2.26-2.19,4.34-4.55,6.21-7.04l-6.22-10.84-6.21,10.84h0Z"/>
  <path class="c" d="M305.09,173.97h24.65c-.68-.48-1.33-.98-1.96-1.5-1.05-.87-2.08-1.83-3.05-2.84l-.45-.48.59-.29c1.25-.62,2.51-1.3,3.75-2.02.73-.42,1.48-.89,2.25-1.4-2.64-1.93-5.3-4.2-7.95-6.79-.05.03-.11.07-.16.1-1.14.69-2.36,1.38-3.62,2.05l-.45.23-.22-.45c-.55-1.14-1.05-2.37-1.5-3.65-.26-.76-.53-1.55-.77-2.37l-11.1,19.41h0Z"/>
  <path class="c" d="M333.85,150.03c2.66,2.4,5.32,4.48,7.94,6.19,1.75-1.77,3.3-3.51,4.79-5.32l-5.19-9.06c-1.71,2.13-4.17,4.98-7.54,8.19h0Z"/>
  <path class="c" d="M67.31,132.14h-10.53l-16.69,38.49h10.34l11.76-26.93,5.11,11.48h-10.04l3.79,8.51h9.97l3.04,6.94h9.96l-16.73-38.49Z"/>
  <path class="c" d="M219.01,132.14h-10.52l-16.69,38.49h10.34l11.76-26.93,5.11,11.48h-10.04l3.79,8.51h9.97l3.05,6.94h9.96l-16.73-38.49Z"/>
  <path class="c" d="M249.26,132.06h-9.41v38.58h9.41v-38.58Z"/>
  <path class="c" d="M266.49,150.96h9.63c3.09,0,4.64-2.32,4.69-5.11-.05-3.12-1.4-5.36-5-5.36h-9.33v10.48h0ZM257.06,170.64v-38.58h21.57c3.52.15,6.39,1.36,8.61,3.62,2.22,2.26,3.34,5.26,3.34,9.03-.12,6.37-2.99,10.31-8.6,11.83l9.5,14.11h-11.46l-13.57-19.76v19.76h-9.39Z"/>
  <path class="c" d="M161.27,170.57v-38.53h9.36v30.16h20.08l-3.76,8.37h-25.68Z"/>
  <path class="c" d="M153.58,161.67h-11.07c-5.71,0-9.63-3.25-9.63-9.56v-1.71c.03-6.26,3.96-9.54,9.63-9.54h10.94l3.85-8.83h-16.08c-10.1,0-17.08,5.98-17.11,18.38v1.7c0,12.45,6.99,18.46,17.11,18.46h16.25l-3.87-8.89h0Z"/>
  <path class="c" d="M111.46,132.06v21.04c0,5.58-3.21,9.42-9.46,9.42s-9.52-3.84-9.52-9.42v-21.04h-8.73v21.77c0,9.9,5.94,16.75,18.26,16.75s18.26-6.84,18.26-16.75v-21.77h-8.8Z"/>
</svg>