<?xml version="1.0" encoding="UTF-8"?>
<svg id="a" data-name="Layer_1" xmlns="http://www.w3.org/2000/svg" viewBox="0 0 400 300">
  <defs>
    <style>
      .c {
        fill: #fff;
      }
    </style>
  </defs>
  <path class="c" d="M262.43,185.02c-41.17-7.09-83.34-7.09-124.64,0-1.62.25-2.86,1.62-2.86,3.36v28.49c0,1.62,1.24,3.11,2.86,3.36,20.52,3.61,41.42,5.35,62.32,5.35s41.67-1.74,62.32-5.35c1.62-.25,2.86-1.74,2.86-3.36v-28.49c-.12-1.62-1.24-2.99-2.86-3.36ZM166.27,208.65l-4.1-5.47-1.87,1.87v3.48h-2.11v-11.94h2.11v6.1l5.72-6.1h2.61l-4.98,5.1,5.22,6.84-2.61.12ZM184.93,208.65h-1.74l-6.72-8.58v8.58h-1.99v-11.94h1.99l6.34,8.33v-8.33h2.11v11.94ZM194.39,208.65h-2.11v-11.94h2.11v11.94ZM207.2,208.78h-1.87l-4.98-12.07h2.36l3.61,9.2,3.61-9.2h2.24l-4.98,12.07ZM226.98,208.65h-8.96v-11.94h8.83v1.87h-6.84v3.11h5.97v1.87h-5.97v3.23h6.84l.12,1.87ZM242.03,205.29c0,2.24-1.74,3.61-4.23,3.61-1.87,0-3.61-.62-4.98-1.87l1.24-1.49c1,1,2.36,1.49,3.73,1.62,1.37,0,2.11-.62,2.11-1.49h0c0-.87-.5-1.37-2.74-1.87-2.49-.62-3.98-1.37-3.98-3.61h0c0-1.99,1.74-3.48,4.1-3.48,1.62,0,3.11.5,4.35,1.49l-1.12,1.62c-.87-.75-2.11-1.24-3.23-1.24-1.24,0-1.99.62-1.99,1.37h0c0,1,.5,1.37,2.86,1.87,2.36.5,3.73,1.49,3.86,3.48h0Z"/>
  <path class="c" d="M297.26,127.3h-.87v1.12h.87c.5,0,.75-.25.75-.62s-.25-.5-.75-.5Z"/>
  <path class="c" d="M132.31,145.96h-9.45v14.43h9.45c5.1,0,9.33-2.86,9.33-7.21s-4.23-7.21-9.33-7.21Z"/>
  <path class="c" d="M139.16,136.25c0-4.1-3.23-6.34-8.46-6.34h-7.96v12.56h7.96c4.98,0,8.46-2.74,8.46-6.22Z"/>
  <path class="c" d="M297.13,125.31c-1.87,0-3.36,1.49-3.36,3.36h0c0,1.87,1.49,3.36,3.23,3.36h.12c1.87,0,3.36-1.49,3.36-3.36s-1.49-3.48-3.36-3.36h0ZM298,130.53l-.87-1.24h-.75v1.24h-.87v-3.98h1.87c.5,0,.87.12,1.24.37.25.25.37.5.37.87h0c0,.62-.37,1.12-.87,1.24l1,1.49h-1.12Z"/>
  <path class="c" d="M313.3,88.61c-38.81-9.45-76.63-14.18-112.57-14.18h-1.24c-35.82,0-73.76,4.73-112.57,14.18-1.62.37-2.74,1.87-2.74,3.48v97.52c0,1.62,1.12,3.11,2.74,3.48,15.8,3.86,31.35,6.97,46.65,9.2v-13.93c0-2.36,1.62-4.23,3.86-4.73,41.42-7.09,83.72-7.09,125.01,0,2.24.37,3.98,2.36,3.98,4.73v13.93c15.42-2.36,30.97-5.35,46.65-9.2,1.62-.37,2.74-1.87,2.74-3.48v-97.52c.25-1.62-.87-3.11-2.49-3.48ZM252.85,111.13s.12,0,.12-.12l1.37-1.24c.62-.62,1.24-1.12,1.74-1.87.25-.25.37-.62.37-.87,0-.5-.37-1-.87-1h-.12c-.75,0-1.12.5-1.12,1.37h-1.49c0-.5.12-1,.37-1.37.5-.75,1.37-1.12,2.24-1,1.62,0,2.61.75,2.61,2.11,0,1-.25,1.37-2.24,3.11-.5.5-1,1-1.62,1.37h2.61v-1.12h1.24v2.11h-5.35l.12-1.49ZM234.19,104.91c.87,0,1.62.37,2.11,1,.5.75.75,1.74.75,2.74,0,2.74-1,4.1-2.99,4.1-1.12.12-2.11-.62-2.24-1.74v-.25h1.49c0,.62.37,1,.87,1s1-.37,1.12-.87c.25-.62.37-1.37.37-1.99-.25.75-.87,1.24-1.74,1.12-1.24,0-2.24-1-2.24-2.24v-.25c-.12-1.24.87-2.49,2.11-2.49.12-.12.25-.12.37-.12h0ZM225.36,111.5h1v1h-3.73v-1h1.12v-4.98c-.62.5-1.24,1-1.87,1.37v-1.37c.62-.37,1.24-.87,1.87-1.37h1.49l.12,6.34h0ZM178.09,111h1.49v1.49h-1.49v-1.49ZM168.14,105.03h7.09v2.61h-1.24v-1.49h-1.49v5.35h1.12v1h-3.73v-1h1.12v-5.35h-1.49v1.49h-1.24l-.12-2.61ZM159.68,104.91c.75-.12,1.49.25,1.87.87v-.75h1.24v2.36h-1.24c.12-.75-.37-1.37-1.12-1.49h-.37c-.75,0-1.24.37-1.24,1s.25.62,1.12,1l1.37.5c.62.12,1.12.5,1.49,1,.25.37.37.75.37,1.12,0,1.37-1,2.24-2.61,2.24-1,0-1.62-.25-1.99-1v.75h-1.24v-2.49h1.37c.12,1.12.62,1.62,1.62,1.62s1.37-.37,1.37-1-.25-.75-1.12-1.12l-1.37-.5c-1.37-.5-1.87-1-1.87-1.99-.12-1.37.75-2.11,2.36-2.11h0ZM145,111.5h1v-5.47h-1v-1h6.72v2.24h-1.24v-1.24h-2.99v2.11h1.24v-.87h1.12v2.74h-1.12v-.87h-1.24v2.24h2.99v-1.24h1.24v2.36h-6.72v-1ZM135.05,163.87h-22.02v-33.71c-.12-1.62-1.12-2.99-2.49-3.73h24.88c7.96,0,13.81,3.98,13.81,9.08,0,3.48-3.11,6.72-8.96,8.09,6.97,1,11.94,4.98,11.94,9.7,0,6.22-7.59,10.57-17.17,10.57h0ZM196,130.16v20.03c0,8.09-8.33,14.43-18.78,14.43s-18.91-6.47-18.91-14.43v-20.03c-.12-1.62-1.12-2.99-2.49-3.73h14.68c-1.49.75-2.36,2.11-2.49,3.73v20.03c0,6.34,5.22,9.33,11.57,9.33s11.57-4.23,11.57-9.33v-20.03c0-1.99-.75-2.61-2.24-3.73h9.2c-1.37,1.12-2.11,1.74-2.11,3.73ZM194.88,110.88c-.75,0-1.24.5-1.24,1.24v.5h-5.85v-3.48c1.99-1,3.36-3.11,3.36-5.35,0-2.49-2.36-2.99-3.48-3.23v-2.36h-6.72v-6.34h27.74v1.74h4.6v1.49h11.82c-1.99,3.61-7.46,4.6-12.44,5.47-1.12.25-3.48.62-3.48,3.23,0,2.24,1.37,4.35,3.36,5.35v3.48h-5.85v-.37c0-.75-.5-1.24-1.12-1.24h-.12l-10.57-.12ZM242.15,135.26c-1.62-3.23-7.59-5.85-12.69-5.85-10.08,0-15.3,6.47-15.3,15.8s5.72,15.67,15.18,15.67c5.1,0,9.95-2.36,12.81-4.1v3.86c-3.61,1.37-7.71,4.1-16.17,4.1-12.94,0-22.64-7.59-22.64-19.53,0-13.56,9.45-19.53,23.63-19.53,6.59,0,11.07,1.62,15.18,2.86v6.72ZM247,111.63c-.5.62-1.24,1-1.99,1-1.74,0-2.74-1.37-2.74-3.98,0-1,.12-1.87.62-2.74.87-1.12,2.49-1.37,3.61-.5.25.25.5.5.62.75.37.75.5,1.62.5,2.49.25,1.12-.12,2.11-.62,2.99h0ZM283.57,163.87c-4.73,0-5.47-.62-8.46-3.61l-13.68-13.43v17.04h-9.83v-33.71c-.12-1.62-1.12-2.99-2.49-3.73h14.68c-1.49.75-2.36,2.11-2.49,3.73v14.31l18.29-15.55c1.24-1.12,1.37-1.62.5-2.49h8.83l-19.16,16.3,16.54,16.3c1.87,1.99,3.98,3.61,6.34,4.85h-9.08ZM300.86,128.67c0,2.11-1.74,3.86-3.86,3.86s-3.86-1.74-3.86-3.86,1.74-3.86,3.86-3.86h0c2.11,0,3.86,1.74,3.86,3.86Z"/>
  <path class="c" d="M202.35,100.93c1.62-.37,2.36-1.24,2.36-2.11,0-1.37-1.49-2.36-3.61-2.36h-6.59c.37.25.62.62.62,1v8.96h5.85c2.61,0,4.6-1.12,4.6-2.86,0-1.24-1.37-2.36-3.23-2.61ZM200.85,97.32c1.37,0,2.24.62,2.24,1.74s-.87,1.62-2.24,1.62h0c1.12-.12,1.87-.87,1.87-1.62s-.62-1.62-1.87-1.74h0ZM197.74,97.32h2.11c1.37,0,2.24.62,2.24,1.74s-1,1.62-2.24,1.62h-2.11v-3.36ZM196.13,106.03h-.37v-8.58c0-.25-.12-.5-.25-.62h.37c.12.12.25.37.25.62v8.58ZM200.36,105.41h-2.49v-3.86h2.49c1.37,0,2.49.75,2.49,1.99s-1.24,1.87-2.49,1.87ZM201.23,105.41h0c1.12-.12,2.11-.87,2.11-1.87-.12-1.12-1-1.87-1.99-1.87h0c1.37,0,2.49.75,2.49,1.99s-1.24,1.74-2.61,1.74Z"/>
  <path class="c" d="M234.19,108.89c.75,0,1.24-.5,1.24-1.24v-.12c0-.87-.5-1.49-1.12-1.49s-1.12.62-1.12,1.49.37,1.37,1,1.37Z"/>
  <path class="c" d="M245.01,106.03c-.75,0-1.24.87-1.24,2.86s.37,2.74,1.24,2.74,1.24-.87,1.24-2.86-.5-2.74-1.24-2.74Z"/>
</svg>