<?xml version="1.0" encoding="UTF-8"?>
<svg id="a" data-name="Layer_1" xmlns="http://www.w3.org/2000/svg" viewBox="0 0 400 300">
  <defs>
    <style>
      .c {
        fill: #fff;
      }
    </style>
  </defs>
  <path class="c" d="M49.97,152.63h18.5v-6.14s-15.18,0-17.2,0c-9.08.02-14.75,5.81-14.74,13.96.01,8.14,6.08,13.89,15.15,13.87h16.79v-6.1h-18.73c-2.72,0-6.24-3.41-6.24-7.79s3.53-7.8,6.47-7.8"/>
  <path class="c" d="M152.92,174.33h-6.86v-34.8h6.86v34.8Z"/>
  <path class="c" d="M156.14,153.07c1.1-.35,4.36-2.16,9.28-1.21,4.92.97,8.25,6.57,1.85,20.86-1.04,1.94,1.88,2.21,1.88,2.21l4.7-.56s7.87-16.57,1.7-23.6c-6.17-7.02-18.85-4.2-19.69-3.67-1.74,1.11-.82,6.3.29,5.97"/>
  <path class="c" d="M276.19,146.5h-9.6v-5.21h-6.97v5.21h-6.02v6.4h6.02v21.44h6.97v-21.44h9.6v-6.4Z"/>
  <path class="c" d="M303.15,146.5h-9.6v-5.21h-6.97v5.21h-6.02v6.4h6.02v21.44h6.97v-21.44h9.6v-6.4Z"/>
  <path class="c" d="M108.65,155.46c0-4.08-3.51-8.98-10.34-8.98h-22.37v6.15h22.32c2.17,0,3.42,1.18,3.42,2.75v12.82h-19.81c-2.08,0-3.41-1.29-3.41-2.84s1.24-2.75,3.41-2.75h17.38v-5.87s-12.71-.02-17.39-.02c-6.83,0-10.35,4.9-10.35,8.97.01,5.16,4.74,8.64,10.46,8.63h26.69v-18.86Z"/>
  <path class="c" d="M217.51,155.46c0-4.08-3.51-8.98-10.34-8.98h-22.37v6.15h22.32c2.17,0,3.42,1.18,3.42,2.75v12.82h-19.81c-2.08,0-3.41-1.29-3.41-2.84s1.24-2.75,3.41-2.75h17.38v-5.87s-12.71-.02-17.4-.02c-6.83,0-10.35,4.9-10.35,8.97.01,5.16,4.74,8.64,10.46,8.63h26.69v-18.86Z"/>
  <path class="c" d="M119.9,174.33h-6.9v-27.84h6.9v27.84Z"/>
  <path class="c" d="M123.07,153.15c1.1-.35,2.79-2.16,7.71-1.21,3.14.62,5.05,2.85,4.84,8.29-.06,1.48,6.57.96,6.58-.17.03-4.45.58-7.63-3.23-11.15-4.7-4.32-15.34-2.27-16.18-1.74-1.74,1.11-.82,6.3.29,5.97"/>
  <path class="c" d="M228.76,174.33h-6.9v-27.84h6.9v27.84Z"/>
  <path class="c" d="M231.93,153.15c1.1-.35,2.79-2.16,7.71-1.21,3.14.62,5.05,2.85,4.83,8.29-.06,1.48,6.57.96,6.58-.17.04-4.45.59-7.63-3.23-11.15-4.7-4.32-15.34-2.27-16.18-1.74-1.73,1.11-.82,6.3.29,5.97"/>
  <path class="c" d="M344.35,147.61c-4.5-1.37-6.99-6.32-5.55-11.08.5-1.65,1.4-3.06,2.56-4.14,0,0,3.01-2.95,7.75-1.31-.05,0-.1,0-.16,0-2.86,0-5.19,2.56-5.19,5.73s2.33,5.73,5.19,5.73c2.26,0,4.19-1.6,4.89-3.83h0s.17-.49.27-1.27c.01-.13.03-.29.03-.29.17-2-.17-5.53-4.06-8.34-5.3-3.73-12.74-3.35-12.74-3.35-13.21,0-23.93,10.95-23.93,24.46s10.72,24.45,23.93,24.45h17.76v-32.9c-1.44,4.76-6.25,7.51-10.76,6.15"/>
  <path class="c" d="M360.17,171.44h.52c.44,0,.84-.02.84-.52,0-.42-.36-.49-.7-.49h-.66v1.01ZM359.67,170.03h1.23c.76,0,1.12.3,1.12.91s-.37.82-.84.87l.91,1.41h-.53l-.87-1.37h-.52v1.37h-.5v-3.19ZM360.74,173.95c1.26,0,2.24-1.01,2.24-2.34s-.98-2.32-2.24-2.32-2.26,1-2.26,2.32.98,2.34,2.26,2.34M360.74,168.9c1.49,0,2.74,1.17,2.74,2.71s-1.25,2.74-2.74,2.74-2.76-1.18-2.76-2.74,1.25-2.71,2.76-2.71"/>
</svg>