<?xml version="1.0" encoding="UTF-8"?>
<svg id="a" data-name="Layer_1" xmlns="http://www.w3.org/2000/svg" viewBox="0 0 400 300">
  <defs>
    <style>
      .c {
        fill: #fff;
        fill-rule: evenodd;
      }
    </style>
  </defs>
  <path class="c" d="M360,121.17c-5.31-.49-10.5,1.74-13.81,5.92v-5.32h-11.76v51.13h11.76v-28.21c-.17-3.42,1.11-6.76,3.54-9.18s5.77-3.7,9.19-3.51h1.08v-10.83ZM286.95,141.19c2.36-5.79,7.98-9.57,14.23-9.57s11.88,3.78,14.23,9.57h-28.47ZM301.17,121.17c-9.35.06-17.95,5.1-22.57,13.23-4.62,8.12-4.56,18.1.17,26.16,4.72,8.06,13.39,12.99,22.74,12.93,12.73,0,23.07-6.85,26.31-16.11h-13.92c-1.75,3.27-6.14,5.47-12.39,5.47-7.09.17-13.33-4.69-14.88-11.61h41.42c.23-1.29.34-2.6.33-3.91-.13-7.07-3.07-13.8-8.18-18.69-5.11-4.89-11.96-7.54-19.02-7.36v-.11ZM242.86,162.66c-4.12.15-8.11-1.42-11.03-4.32-2.92-2.91-4.5-6.89-4.38-11.01.4-8.24,7.21-14.72,15.46-14.72s15.06,6.48,15.46,14.72c.13,4.14-1.47,8.14-4.42,11.05-2.94,2.91-6.97,4.46-11.1,4.28ZM243.38,121.17c15.96,0,26.53,10.2,26.53,26.05s-10.57,26.05-26.53,26.05c-5.8.18-11.45-1.9-15.74-5.81v30.89l-11.76,1.19v-77.77h11.76v5.32c4.3-3.9,9.93-6.02,15.74-5.92ZM192.25,121.17c6.29.2,12.03,3.63,15.18,9.08l-9.56,4.39c-1.21-2-3.35-3.26-5.69-3.35-2.42,0-4.87,1.15-4.87,3.98s3.46,4.32,9.75,6.55c8.74,3.13,12.91,7.44,12.91,15.11s-7.07,16.6-18.9,16.6c-9.59.56-17.91-6.55-18.83-16.11h11.42c.63,3.56,3.83,6.09,7.44,5.88,1.78.16,3.55-.44,4.86-1.65,1.32-1.21,2.06-2.92,2.06-4.71,0-2.34-.82-4.91-8.22-6.85-7.96-2.08-13.66-6.36-13.66-14.88.22-4.02,2.05-7.78,5.09-10.42,3.04-2.64,7.01-3.94,11.02-3.61ZM140.45,162.66c-8.47,0-15.33-6.86-15.33-15.33s6.86-15.33,15.33-15.33,15.33,6.86,15.33,15.33-6.86,15.33-15.33,15.33ZM140.04,121.17c-7.08-.32-13.97,2.3-19.05,7.23-5.09,4.93-7.91,11.74-7.81,18.82-.1,7.08,2.73,13.89,7.81,18.82,5.09,4.93,11.98,7.54,19.05,7.23,5.68.23,11.2-1.87,15.29-5.81v5.32h11.91v-51.02h-11.91v5.32c-4.09-3.95-9.61-6.09-15.29-5.92ZM77.78,100.48c-13.35-.43-25.88,6.46-32.68,17.95-6.8,11.5-6.8,25.79,0,37.29,6.8,11.5,19.33,18.38,32.68,17.95,12.97.17,25.1-6.43,32-17.42l-11.16-5.95c-4.23,7.5-12.27,12.03-20.88,11.76-6.61.08-12.98-2.52-17.64-7.22-9.62-9.89-9.62-25.64,0-35.54,4.65-4.71,11.02-7.32,17.64-7.22,5.21-.13,10.32,1.48,14.51,4.58,3.46,2.86,7.79,4.47,12.28,4.54,7.6.08,14.24-5.14,15.96-12.54l-11.54-2.34c-.38,2.15-2.25,3.72-4.43,3.72-1.56,0-2.53-.6-5.02-2.42-6.15-4.91-13.87-7.44-21.73-7.14Z"/>
</svg>