<?xml version="1.0" encoding="UTF-8"?>
<svg id="a" data-name="Layer_1" xmlns="http://www.w3.org/2000/svg" viewBox="0 0 400 300">
  <defs>
    <style>
      .c {
        fill: #fff;
      }
    </style>
  </defs>
  <path class="c" d="M258.57,201.66h0c.42-.21.83-.21,1.26-.42,2.72-1.05,4.19-2.72,4.4-5.23h0v-.63c0-3.98-2.72-6.81-7.02-6.81h-16.24v5.23h2.51v15.82h-2.51v5.23h11.63v-5.23h-2.09v-5.98h2.09l3.57,5.98h-1.26v5.23h10.58v-5.23h-2.09l-4.82-7.97h0ZM253.34,199.36h-2.72v-5.45h2.72c2.51,0,3.57.83,3.57,2.72s-1.26,2.72-3.57,2.72h0Z"/>
  <path class="c" d="M231.54,201.03c3.35-.83,4.82-2.72,4.82-5.45,0-4.4-2.94-7.02-8.7-7.02h-13.1v5.23h2.72v15.82h-2.72v5.23h14.15c5.45,0,8.49-2.72,8.49-7.44.21-3.46-1.68-5.55-5.66-6.39h.01ZM224.31,193.91h2.09c2.09,0,3.14.83,3.14,2.51s-1.05,2.51-3.14,2.51h-2.09v-5.03h0ZM226.4,209.73h-2.09v-6.39h2.09c2.51,0,3.77,1.05,3.77,3.14.1,2.21-1.26,3.25-3.77,3.25Z"/>
  <path class="c" d="M290.95,191.29c-2.51-2.09-5.66-3.35-9.33-3.35s-6.81,1.05-9.33,3.35c-1.46,1.26-2.72,2.94-3.57,4.61-.83,1.68-1.26,3.77-1.26,5.66s.42,3.98,1.26,5.66c.83,1.68,2.09,3.35,3.57,4.61,2.51,2.09,5.66,3.35,9.33,3.35s6.81-1.05,9.33-3.35c1.46-1.26,2.72-2.94,3.57-4.61.83-1.68,1.26-3.77,1.26-5.66s-.42-3.77-1.26-5.66c-.83-1.78-2.09-3.25-3.57-4.61h0ZM281.62,209.1c-3.77,0-6.81-2.94-6.81-7.44,0-4.19,2.94-7.44,6.81-7.44s6.81,2.94,6.81,7.44-3.04,7.44-6.81,7.44Z"/>
  <path class="c" d="M312.53,198.31l-2.31-.42c-2.51-.42-3.57-1.26-3.57-2.51s1.26-2.31,2.72-2.31c1.89,0,3.35,1.26,4.82,3.77h5.66v-8.27h-5.66l.21,2.31c-1.46-1.89-3.57-2.94-6.18-2.94-5.03,0-8.9,3.57-8.9,8.49,0,4.61,2.94,7.23,9.12,8.27l2.72.42c2.09.42,3.14,1.26,3.14,2.51s-1.05,2.31-2.94,2.31c-2.31,0-3.98-1.26-5.98-3.98h-6.18v8.9h5.66l-.21-2.72c1.89,2.09,4.4,3.14,7.65,3.14,5.45,0,9.12-3.57,9.12-8.7.1-4.5-2.82-7.02-8.9-8.27h0Z"/>
  <path class="c" d="M298.7,91.54l-37.2,10.58v6.39l37.2-14.56v-2.41h0Z"/>
  <path class="c" d="M176.53,146.55c-3.98-3.35-8.9-4.61-14.56-3.57-3.57.63-7.02,2.09-9.75,4.19h0c-2.31,1.68-4.4,3.57-6.18,5.98-4.4,5.45-6.61,11.42-6.61,17.82,0,5.98,1.89,10.58,5.98,13.93,3.98,3.35,8.9,4.61,14.56,3.57,6.18-1.26,11.63-4.4,15.82-9.95,4.4-5.45,6.61-11.42,6.61-17.82.1-5.98-1.89-10.58-5.86-14.15h-.01ZM166.16,176.52c-3.77,2.31-9.33-.83-11.84-7.02-2.72-6.18-1.89-12.89,2.09-15.19,3.77-2.31,9.33.83,11.84,7.02,2.82,6.08,1.89,12.89-2.09,15.19Z"/>
  <path class="c" d="M145.62,144.97l61.51-22v6.39l32.38-12.67v-8.7l-23.05,6.61,1.46-8.9-57.74,21.17,1.46-9.53-25.77,10.58v-30.07l-14.98,4.82v31.85l-13.73,5.66v-45.05l-19.91,5.66v8.27l4.82-1.46v38.46l-28.5,12.05v2.94l28.5-7.86v47.57c13.1-4.19,14.98-13.73,14.98-19.91v-31.75l13.73-3.77v49.67c13.1-4.19,14.98-13.73,14.98-15.41v-38.46l9.95-2.72-.1,6.61v-.03Z"/>
  <path class="c" d="M304.88,146.55v13.3c13.1-4.19,14.98-13.73,14.98-19.7v-32.58c-13.1,4.19-14.98,13.73-14.98,19.7v7.65c-1.05,2.72-2.51,5.23-4.19,7.86-.14.14-.28.28-.42.42-.42.63-1.05,1.26-1.68,1.89l-.21.21c-5.45,5.66-12.26,7.65-16.87,3.57,12.26-7.23,18.65-14.15,18.65-20.74,0-3.77-1.89-6.61-5.98-8.49-3.57-1.68-7.44-2.09-11.21-1.26-5.98,1.05-11.01,4.19-15.19,9.33-4.19,5.03-6.39,10.79-6.39,16.66,0,6.18,2.09,11.01,6.18,14.78,3.98,3.57,9.12,4.82,15.19,3.77,5.66-1.05,11.01-3.77,15.82-8.27,2.09-2.21,4.4-5.13,6.29-8.07v-.02ZM278.89,143.93c-2.09,0-3.35-3.57-2.72-8.27.63-4.72,2.94-8.7,5.03-8.7s3.35,3.57,2.72,8.27c-.42,4.72-2.72,8.7-5.03,8.7h0Z"/>
  <path class="c" d="M328.56,105.9c-5.23,1.05-7.44,6.61-6.81,11.21.42,4.19,3.14,7.65,7.65,6.81,4.4-.83,7.02-5.66,7.02-10.16-.21-4.93-3.25-8.9-7.86-7.86h-.01Z"/>
  <path class="c" d="M220.54,176.94c9.53-1.68,14.35-9.33,14.35-22.85.83-.21,1.46-.21,2.09-.42,2.09-.42,3.98-1.26,5.98-2.51v20.96c13.1-4.19,14.98-13.73,14.98-19.91v-67.48l-19.91,5.66v8.27l4.82-1.46v47.99c-1.05,1.46-2.09,2.31-3.35,2.51-3.14.63-4.82-1.05-4.82-5.03v-5.03c0-3.35-1.26-4.61-3.57-4.19-1.89.42-3.57,1.46-4.61,3.35s-1.68,3.98-1.68,6.18c0,4.61,1.46,7.65,4.19,9.53v2.51c0,4.19-1.46,6.61-4.19,7.02-2.09.42-3.35-1.46-3.35-5.45v-23.05l-14.15,4.82v21.17c0,3.98-1.26,6.18-3.57,6.61-2.51.42-3.98-1.26-3.98-5.45v-28.61l-19.91,5.66v8.27l5.66-1.68v3.77h0v19.7c0,3.98.83,7.23,2.51,9.95,2.09,3.14,4.82,4.4,8.7,3.77,5.98-1.05,10.16-4.82,12.26-11.21,1.78,5.35,5.76,7.65,11.52,6.61h.03Z"/>
</svg>