<?xml version="1.0" encoding="UTF-8"?>
<svg id="a" data-name="Layer_1" xmlns="http://www.w3.org/2000/svg" viewBox="0 0 400 300">
  <defs>
    <style>
      .e {
        fill: #fff;
      }
    </style>
  </defs>
  <g id="b" data-name="b0a72fbc-68ff-4865-946b-4f163bf55622">
    <g id="c" data-name="beb3c7a3-11ec-44c6-8a7d-220cf8b675ad">
      <path class="e" d="M299.74,157.75c-1.82,1.83-4.78,1.83-6.61,0,0,0,0,0,0,0-.89-.87-1.38-2.07-1.36-3.32,0-2.58,2.09-4.67,4.67-4.67s4.67,2.09,4.67,4.67c.02,1.25-.48,2.45-1.37,3.32ZM293.58,151.61c-.76.75-1.19,1.78-1.17,2.85-.02,1.07.4,2.11,1.16,2.87,1.57,1.57,4.12,1.57,5.69,0,0,0,0,0,0,0,.77-.75,1.19-1.79,1.17-2.87.02-2.21-1.76-4.02-3.97-4.04-1.08,0-2.12.42-2.88,1.19ZM296.33,151.87c.48-.02.95.04,1.41.18.52.21.85.74.79,1.3.03.4-.17.79-.5,1.01-.23.13-.48.22-.74.25.35.03.67.22.88.5.17.23.27.51.28.79v.37c0,.13,0,.25,0,.38,0,.09.01.18.04.27l.03.06h-.85s0-.03,0-.05c0-.02,0-.04,0-.06v-.57c.06-.45-.12-.9-.49-1.17-.32-.13-.67-.18-1.01-.14h-.71v2.04h-.9v-5.19h1.77ZM297.31,152.68c-.34-.15-.72-.22-1.09-.19h-.77v1.84h.82c.29.01.58-.03.86-.12.46-.22.66-.77.44-1.23-.06-.13-.15-.24-.26-.33v.02Z"/>
      <path class="e" d="M146.21,131.46v6.11h16.15v-6.05s-2.58-.12-2.76-.12-1.2.18-1.08-.41l.3-.78h11.73l.48.9s-.18.36-.84.36l-3.4.06v6.06h21.05v-1.61c3.09,2.23,6.8,3.44,10.61,3.46,15.01.12,15.79-11.99,15.79-11.99h-5.76c-1.44,3-4.32,5.04-7.68,4.8-3.71-.26-6.72-3.36-6.72-8.04,0-5.28,3.59-7.1,6.6-7.09,3.48,0,5.28,2.28,6.11,4.81h5.64v-11.05h-5.17l-.84.68c-.8-.59-4.33-1.93-7.98-1.96-9.47-.07-16.98,6.53-16.98,14.86.01,2.37.67,4.69,1.89,6.72-.63-.1-1.19-.45-1.57-.96l-10.97-19.47h-10.19l-11.18,19.99c-.42.72-1.68.72-3.25.72ZM164.7,119.75l2.64,4.81-5.22-.06,2.58-4.75Z"/>
      <path class="e" d="M233.97,131.52h-2.16c-1.03,0-1.09-.54-1.09-.78v-.6l2.3-2.34,8.95,9.78h11.08v-6.06s-3.54.06-4.86-.54l-9.13-9.92,3.4-3.61c.63-.25,1.31-.35,1.98-.3h5.82v-6.28h-16.18v6.3l-4.62,4.75v-4.69l3.12-.06v-6.31h-17.7v6.36c2.1.18,3.71,1.56,3.71,2.64v10.33c0,1.14-.84,1.2-1.44,1.2h-2.27v6.25h19.09v-6.12Z"/>
      <path class="e" d="M262.48,127.8c2,.54,10.06.9,10.03,2.46-.04,1.98-5.22,1.92-8.35.48-.6-.27-1.08-.76-1.36-1.36h-7.88v8.2h4.98l.41-.9s3.79,2.12,10.02,1.98c5.47-.12,14.46-2.4,15.07-8.64.75-7.58-7.47-10.04-15.9-10.38-2.04-.09-4.07-.3-4.07-1.32,0-1.26,1.85-1.54,4.14-1.44,1.81.23,3.52.97,4.92,2.15h8.52v-8.15h-4.26l-1.8.96c-4.1-1.3-8.39-1.91-12.68-1.8-8.88.22-11.84,5.47-11.83,8.35.04,5.7,5.14,8.11,10.04,9.42Z"/>
      <path class="e" d="M303.9,109.88c-12.58,0-17.88,6.54-17.88,14.26,0,8.43,6.02,14.74,18,14.86,11.62.11,18.06-7.02,17.99-14.86-.03-8.32-5.96-14.26-18.12-14.26ZM303.84,131.08c-3.21.04-4.5-2.76-4.5-6.47s1.23-6.27,4.5-6.27,4.5,2.58,4.5,6.28-1.24,6.42-4.5,6.46Z"/>
      <path class="e" d="M344.54,110.87v6.3h2.52c1.86.06,1.32,2.46,1.32,2.46v5.43l-10.93-14.2h-15.55v6.36s4.86-.18,4.86,1.98v10.47c0,1.36-1.44,1.77-2.94,1.77h-2.46v6.11h16.3v-6.11h-2.4c-.81-.01-1.45-.68-1.44-1.49,0,0,0,0,0,0v-6.06l10.62,13.69h11.41v-18.19c0-.41-.12-2.22,1.14-2.16h2.82v-6.36h-15.28Z"/>
      <path class="e" d="M189.82,183.12v-26.59c0-1.5,2.4-2.82,4.44-2.82v-7.92h-24.55v7.86c3.4,0,4.69,1.02,4.69,2.82v8.64h-11.58v-8.64c0-1.81,1.32-2.76,4.68-2.76v-7.86h-21.42v-29.05c.09-1.42,1.22-2.55,2.64-2.63,1.35-.18,2.71-.26,4.07-.24v-7.8h-31.69v8.64h6.01c1.92,0,2.76.84,2.76,2.04v37.1c-.12,2.76-3.06,4.62-5.76,4.62-1.79-.04-3.49-.77-4.75-2.04,5.05-2.78,6.9-9.12,4.12-14.17-2.78-5.05-9.12-6.9-14.17-4.12-3.86,2.12-5.97,6.44-5.28,10.79,1.17,12.12,12.22,17.46,20.96,17.35,8.74-.12,20.87-4.62,21.05-12.55.68.23,1.63.89,1.63,2.76v26.56c0,1.81-1.32,2.49-4.68,2.49v8.28h24.55v-8.22c-2.04,0-4.44-.96-4.44-2.46v-9.61h11.29v9.55c0,1.81-1.32,2.46-4.69,2.46v8.28h24.55v-8.22c-2.02,0-4.41-1.02-4.41-2.52Z"/>
      <path class="e" d="M256.44,156.93c1.68,0,4.75.78,4.75,2.04v9.55c0,1.36-2.04,1.96-3.68,2.04v-4.2h-5.43c0,3.18-1.51,4.2-2.59,4.2h-5.4c-.68,0-1.03-1.2-1.03-2.04v-9.55c0-1.44,2.17-1.98,3.72-1.98v-6.96h-18.94v6.96h1.68c.78,0,2.1.84,2.1,1.98v9.51c0,1.5-1.68,2.04-3.84,2.1v6.24h61.11v-10.52h-6.24c-.36,1.26-1.36,2.88-2.34,2.88h-7.67v-2.46h6.72v-6.66h-6.79v-2.46h7.14c1.26,0,2.04.54,2.76,1.92h6.55v-9.51h-32.59v6.93Z"/>
      <path class="e" d="M209.94,149.15c-12.58,0-17.88,6.55-17.88,14.26,0,8.43,6.02,14.74,17.99,14.86,11.62.11,18-7.02,18-14.86-.02-8.41-5.98-14.26-18.12-14.26ZM209.88,170.36c-3.21.04-4.5-2.76-4.5-6.47s1.24-6.28,4.5-6.28,4.5,2.58,4.5,6.28-1.26,6.43-4.52,6.47h.02Z"/>
      <path class="e" d="M95.95,128.11c-.63-1.17-1.74-2.01-3.04-2.3-1.07.03-2.11.41-2.96,1.07.12-1.03.43-2.13-.68-3.21s-1.83-.82-2.91-.74c.29-2.75-1.52-4.69-3.7-5.75-1.38-.64-2.97-.64-4.35,0-1.28.49-2.04,1.56-3.12,2.3-1.11-.99-2.59-1.85-4.07-1.28-1.43.42-2.47,1.65-2.67,3.12-2.34-.54-5.1-.24-6.86,1.52-2.55,2.1-2.55,5.76-2.04,8.83-.86-.29-1.91-.8-3.16-.17-1.06.48-1.89,1.36-2.31,2.45-1.33-1.92-3.51-3.06-5.84-3.08-4.21.26-3.65,1.77-5.34,2.79-.52-.62-1.34-.91-2.13-.75l-.56.55v-27.35h55.76v21.99Z"/>
      <path class="e" d="M40.18,149.1c.87-.48,1.62-1.15,2.19-1.96,1.89-.21,1.93-2.38,3.08-3.4,1-.92,1.41-2.53,2.87-3.06.33-1.4,2.09-.2,2.67-1.11.82,0,.82,1.07,1.4,1.4.33-.08.68-.5.98-.12.5.86,1.28,1.52,1.77,2.42.54.53,1.44,1.03,1.49,1.85.29.37.78.74,1.19.37.68-.5,1.72-.68,1.6-1.77.52-.99,1.27-1.85,2.18-2.51.54.24.98.68,1.68.58.24-1.07,1.64-.94,1.85-1.98.45-.68,1.23-.58,1.93-.68,1.56-.98,1.28-2.72,3.04-3.33,2.04.5,2.1-1.89,3.74-2.22,1.72.08,4.03-1.85,5.06.54.82,1.97.24,4.75,2.72,5.83,1.36-.45,1.85,1.48,3.21.62.29.08.62.04.82.37-.16.45.37.45.68.57,1.72.29,2.34-2.46,4.07-1.27.57,1.19,1.36.08,2.13.53,1.07.95,1.03,3.91,3.25,2.76l.16.04v50.3h-21.73c-.3-2.23-1.07-4.33-.93-6.65.68-2.53-.42-5.34.71-7.66.35-.26.74-.68,1.26-.42.52.77.22,1.91.49,2.78,0,.81.09,1.61.29,2.39-.19,1.04.75,1.45.62,2.46s-1.91,1.36-1.68,2.72c.41.31.7.76.81,1.26,2.13.65,2.88-1.68,4.62-2.14,2.1,0,2.26-3.23,4.59-2.81-.22-.77-1.1-1.26-.77-2.26.19-.42.61-.26.94-.29.06-.65-.36-1.09-.29-1.75-.68-.68-.49-1.75-.36-2.55,0-.29.1-.94-.45-.68-.34-.08-.56-.4-.52-.75.9-.58-.23-.97,0-1.68-.58-.07-.52-.78-1.07-1.07-.04-.36.03-.72.19-1.04-.46.04-.93-.04-1.36-.22-.2-.26-.39-.55-.29-.84s.52-.35.87-.32c-.32-.68-1.29-.97-1.16-1.94l-1.07.13c-.62-.2-.23-1.03-.52-1.45-.81.55-.62-.77-1.23-.81-.84.45-1.45-.33-2.1-.68-.24-.5-.17-1.1.2-1.52.48-.37,1.07-.57,1.68-.58-.13-.62-.96-.26-1.36-.52-.23-.55.16-1.3.52-1.81-.2,0-.33.29-.52.35s-.68.07-.81-.29c-.29-1.91-.68-3.85-.84-5.69-.39-.97-1.71-1.87-1.03-2.97.71.05,1.39-.32,1.75-.94.68-.16.81-.84,1.45-1,.39-.42,0-.94-.13-1.36-.68-.62-1.17-1.43-2.26-1.1-.84.29-1.13,1.16-1.68,1.87-.42.29-.87-.1-1.16-.35s-.1-.55-.29-.71c.06.84-.94.84-1.23,1.45-.32.11-.67.05-.94-.16-.55-.68-1.1-1.23-1.03-2.17.19-1.36,1.55-1.97,2.49-2.72,1.65-.39,3.33-.77,4.62-1.94-.62-.45-1.45-.1-2.23-.29-.48-.35-.22-1.07-.68-1.45-.41-.24-.89-.34-1.36-.29-.88,0-1,1-1.55,1.45l-2.81.94c0,.45.48.62.77.81,1.43,1.32-.68,2.55-1.13,3.78-.78,1.75,1.13,2.97,1.94,4.3s-.22,2.97-.06,4.43c-.55,1.36,1.49,3.56-.94,3.56-.13.26-.13.87-.68.81-1.65-.77-3.4-1.55-5.34-1.55-.42-.27-.73-.68-.87-1.16-.16-1.36-.29-2.88-1-4.07-.33-.68-1.13-.81-1.84-.84-1.68.68-1.94,2.53-2.33,4.07h.22c-.22.97-.19,2.04-.77,2.81h.2c.26.68-.13,1.36-.2,2.1h.35c-.1,1.09,0,2.26-.45,3.2,2.04-.94,2.13-3.4,2.72-5.34.74-.52.54-1.81,1.71-1.75.45,0,.58.52.68.88.35,1.13-.77,1.58-1.36,2.32-2.09,2.38-.24,5.77-.79,8.76-.49,1.04-2.59,1.72-1.59,3.04.76.69,1.62,1.26,2.56,1.68.54.74-.58,1.55.06,2.26.9.43,1.73.99,2.46,1.68,1.1,1.3,2.17,2.72,2.36,4.5.68.48,1.3,1.49,2.3,1.03.13-.76-.14-1.53-.71-2.04-.58-2.26-2.32-3.55-3.65-5.43.14-.21.36-.36.61-.41.84.8,1.49,1.77,2.81,1.64.16-.81-.52-1.26-.68-1.94.13-1.13-1.49-.78-1.68-1.78-.16-.52.23-.81.58-1.16,1.07-.84.94-2.23,1.91-2.97.35.77-.2,1.68.22,2.42,1.13.13,1.17,1.36,1.94,2.04.58.39,1.36.19,2.1.32.49.13.75.68.91,1.13.08,1.56.27,3.12.58,4.65.62.68.62,1.72.84,2.62,1.03,2.04.13,4.56.97,6.63-.16.32-.13.71.07,1h-32.21s0-44.75,0-44.75Z"/>
    </g>
  </g>
</svg>