<?xml version="1.0" encoding="UTF-8"?>
<svg id="a" data-name="Layer_1" xmlns="http://www.w3.org/2000/svg" viewBox="0 0 400 300">
  <defs>
    <style>
      .c {
        fill: #fff;
      }
    </style>
  </defs>
  <path class="c" d="M165.65,121.52l6.04,20.42h6.04l6.04-20.42v20.42h5.09v-26.53h-8.19l-5.9,20.57-5.9-20.57h-8.33v26.53h5.1v-20.42Z"/>
  <path class="c" d="M202.42,142.48c5.82,0,9.9-3.96,9.9-10.08s-4.04-10.08-9.9-10.08-9.91,3.96-9.91,10.08,4.01,10.08,9.91,10.08ZM202.42,126.69c2.69,0,4.58,2.04,4.58,5.67s-1.93,5.75-4.62,5.75-4.59-2.08-4.59-5.72,1.93-5.71,4.66-5.71h-.03Z"/>
  <path class="c" d="M222.03,142.48c1.19.03,2.38-.26,3.41-.85,1.04-.59,1.9-1.45,2.48-2.49v2.8h5.06v-19.07h-5.06v9.79c0,3.31-1.27,5.38-4.08,5.38-2.22,0-3.39-1.49-3.39-4.55v-10.63h-5.06v12.23c0,4.77,2.51,7.39,6.62,7.39Z"/>
  <path class="c" d="M242.42,132.29c0-3.34,1.34-5.53,4.22-5.53,2.43,0,3.44,1.5,3.44,4.55v10.63h5.06v-12.23c0-4.77-2.48-7.39-6.66-7.39-1.22-.03-2.43.28-3.49.88-1.06.61-1.93,1.49-2.53,2.56v-2.9h-5.06v19.07h5.06l-.04-9.65Z"/>
  <path class="c" d="M260.55,136.81c0,3.97,2.14,5.16,5.27,5.16h3.5v-4.2h-1.53c-1.68,0-2.18-.4-2.18-2.29v-8.42h3.71v-4.19h-3.71v-5.61h-5.06v5.61h-2.88v4.19h2.88v9.75Z"/>
  <path class="c" d="M281.72,130.25l-3.39.52c-4.8.72-6.59,2.8-6.59,6.02s2.7,5.71,6.48,5.71c1.2.07,2.39-.18,3.45-.73,1.07-.54,1.97-1.36,2.63-2.36,0,.87.11,1.74.33,2.58h4.69c-.41-1.69-.59-3.42-.51-5.16v-7.01c0-4.95-2.84-7.5-8.01-7.5-5.46,0-8.22,3.09-8.44,6.77h5.13c.02-.43.13-.85.31-1.23.18-.39.45-.73.77-1.02.32-.29.69-.5,1.1-.64.41-.14.83-.2,1.26-.17,1.72,0,2.84,1.02,2.84,2.44-.02.95-.6,1.55-2.05,1.78ZM283.91,132.83v1.72c-.04,1.12-.51,2.18-1.31,2.96-.8.78-1.87,1.22-2.99,1.23-1.56,0-2.58-.81-2.58-2.3s1.34-2.33,3.38-2.69l1.2-.22c.8-.12,1.57-.37,2.3-.72v.03Z"/>
  <path class="c" d="M298.03,122.87h-5.06v19.07h5.06v-19.07Z"/>
  <path class="c" d="M298.1,115.4h-5.24v4.66h5.24v-4.66Z"/>
  <path class="c" d="M307.46,132.29c0-3.34,1.34-5.53,4.22-5.53,2.43,0,3.44,1.5,3.44,4.55v10.63h5.06v-12.23c0-4.77-2.48-7.39-6.66-7.39-1.22-.03-2.43.28-3.49.88-1.06.61-1.93,1.49-2.53,2.56v-2.9h-5.06v19.07h5.06l-.04-9.65Z"/>
  <path class="c" d="M180.5,170.37h-14.7v-6.48h13.43v-4.69h-13.43v-5.89h14.34v-4.74h-19.59v26.53h19.95v-4.73Z"/>
  <path class="c" d="M197.36,172.3v10.09h5.06v-26.35h-5.06v2.8c-.62-1.06-1.52-1.93-2.59-2.52-1.08-.59-2.29-.88-3.52-.83-4.84,0-8.6,4.12-8.6,10.23,0,5.67,3.24,9.93,8.49,9.93,1.24.06,2.48-.22,3.57-.81,1.1-.59,2.01-1.46,2.65-2.53ZM187.97,165.64c0-3.64,2.15-5.79,4.84-5.79s4.63,2.12,4.63,5.72-2.04,5.71-4.74,5.71c-2.84.02-4.73-2.25-4.73-5.64h0Z"/>
  <path class="c" d="M219.13,172.3v2.8h5.06v-19.07h-5.06v9.79c0,3.31-1.28,5.38-4.08,5.38-2.22,0-3.38-1.5-3.38-4.55v-10.63h-5.06v12.23c0,4.77,2.52,7.39,6.63,7.39,1.19.03,2.37-.27,3.41-.85,1.04-.59,1.9-1.45,2.48-2.49h0Z"/>
  <path class="c" d="M233.68,148.57h-5.24v4.66h5.24v-4.66Z"/>
  <path class="c" d="M233.61,156.03h-5.06v19.07h5.06v-19.07Z"/>
  <path class="c" d="M249.22,175.64c4.92,0,8.48-3.85,8.48-10.08s-3.53-10.09-8.4-10.09c-1.25-.06-2.49.23-3.59.82-1.1.59-2.02,1.47-2.67,2.54v-2.8h-5.09v26.35h5.06v-10.09c.64,1.07,1.55,1.94,2.64,2.53,1.09.59,2.32.87,3.56.82ZM242.96,165.57c0-3.6,2.04-5.72,4.77-5.72s4.69,2,4.69,5.68-2.04,5.74-4.74,5.74-4.73-2.07-4.73-5.71h0Z"/>
  <path class="c" d="M290.31,175.1v-12.41c0-4.76-2.3-7.17-6.23-7.17-1.32-.05-2.63.27-3.78.94-1.15.66-2.08,1.64-2.69,2.81-.86-2.51-2.8-3.75-5.72-3.75-1.2-.03-2.38.28-3.42.89-1.03.61-1.88,1.49-2.44,2.55v-2.87h-5.06v19.07h5.06v-9.71c0-3.34,1.16-5.53,3.93-5.53,2.44,0,3.16,1.63,3.16,4.69v10.48h5.02v-9.65c0-3.34,1.17-5.53,3.93-5.53,2.44,0,3.17,1.63,3.17,4.69v10.48h5.06Z"/>
  <path class="c" d="M312.55,165.57c0-6.15-3.85-10.09-9.46-10.09s-9.68,3.77-9.68,10.09,3.93,10.08,9.83,10.08c4.51,0,7.79-2.36,8.88-6.33h-5.16c-.36.72-.93,1.31-1.63,1.7-.7.39-1.5.57-2.3.52-2.58,0-4.22-1.53-4.59-4.48h14.02c.06-.33.09-.92.09-1.49ZM298.58,163.38c.55-2.36,2-3.9,4.66-3.9s3.9,1.72,4.19,3.9h-8.85Z"/>
  <path class="c" d="M328.53,175.1h5.06v-12.23c0-4.77-2.48-7.39-6.65-7.39-1.22-.03-2.43.28-3.49.89-1.06.61-1.94,1.49-2.53,2.55v-2.91h-5.06v19.07h5.06v-9.62c0-3.34,1.35-5.53,4.22-5.53,2.43,0,3.44,1.49,3.44,4.55l-.04,10.63Z"/>
  <path class="c" d="M347.79,160.22v-4.19h-3.71v-5.61h-5.06v5.61h-2.87v4.19h2.87v9.75c0,3.96,2.15,5.16,5.28,5.16h3.49v-4.19h-1.5c-1.67,0-2.18-.4-2.18-2.29v-8.41l3.68-.03Z"/>
  <path class="c" d="M172.21,203.86c-4.4,0-7.57-3.44-7.57-8.88s3.16-8.85,7.57-8.85c3.31,0,5.46,1.56,6.44,4.69h5.39c-.95-6.07-5.35-9.64-11.83-9.64-7.74,0-13.1,5.56-13.1,13.76s5.36,13.83,13.1,13.83c6.66,0,11.07-3.78,11.9-9.82h-5.38c-.88,3.12-2.98,4.91-6.52,4.91Z"/>
  <path class="c" d="M196.38,188.65c-5.79,0-9.9,3.96-9.9,10.08s4,10.08,9.9,10.08,9.9-3.96,9.9-10.08-4.04-10.08-9.9-10.08ZM196.38,204.45c-2.69,0-4.63-2.08-4.63-5.72s1.93-5.72,4.66-5.72,4.58,2.04,4.58,5.68-1.93,5.75-4.62,5.75Z"/>
  <path class="c" d="M232.66,188.65c-1.32-.05-2.63.27-3.78.93s-2.08,1.64-2.69,2.81c-.86-2.51-2.8-3.74-5.72-3.74-1.2-.03-2.38.28-3.42.88-1.03.61-1.88,1.49-2.44,2.56v-2.87h-5.04v19.05h5.06v-9.65c0-3.34,1.16-5.53,3.93-5.53,2.43,0,3.16,1.63,3.16,4.69v10.48h5.04v-9.65c0-3.34,1.17-5.53,3.93-5.53,2.44,0,3.16,1.63,3.16,4.69v10.48h5.06v-12.45c-.04-4.75-2.34-7.16-6.27-7.16Z"/>
  <path class="c" d="M254.39,188.65c-1.25-.06-2.49.23-3.59.81-1.1.59-2.02,1.46-2.67,2.53v-2.8h-5.02v26.35h5.06v-10.09c.64,1.06,1.55,1.94,2.64,2.52,1.09.59,2.32.87,3.55.82,4.91,0,8.48-3.85,8.48-10.08s-3.57-10.08-8.44-10.08ZM252.79,204.45c-2.69,0-4.73-2.08-4.73-5.72s2.04-5.72,4.76-5.72,4.69,2,4.69,5.68-2.04,5.75-4.73,5.75Z"/>
  <path class="c" d="M282.31,196.14c0-4.94-2.84-7.49-8.01-7.49-5.46,0-8.23,3.09-8.44,6.77h5.09c.02-.43.13-.85.31-1.23.18-.39.44-.73.77-1.02.32-.28.69-.5,1.1-.64.41-.14.84-.2,1.26-.17,1.72,0,2.84,1.02,2.84,2.44,0,.95-.58,1.56-2.04,1.78l-3.38.51c-4.81.73-6.59,2.8-6.59,6.02s2.69,5.71,6.48,5.71c1.19.07,2.39-.18,3.45-.73,1.07-.54,1.97-1.36,2.62-2.36,0,.87.12,1.74.33,2.58h4.69c-.4-1.69-.57-3.42-.51-5.16l.02-7.01ZM277.39,200.88c-.03,1.12-.5,2.18-1.3,2.96-.8.78-1.88,1.22-3,1.22-1.56,0-2.58-.8-2.58-2.29s1.35-2.33,3.39-2.69l1.2-.22c.82-.12,1.62-.36,2.36-.72l-.07,1.75Z"/>
  <path class="c" d="M297.55,188.65c-1.22-.03-2.43.28-3.49.88-1.06.61-1.93,1.49-2.53,2.56v-2.91h-5.06v19.09h5.06v-9.65c0-3.34,1.34-5.53,4.22-5.53,2.43,0,3.44,1.49,3.44,4.55v10.63h5.06v-12.23c-.03-4.77-2.51-7.39-6.7-7.39Z"/>
  <path class="c" d="M315.76,202.48l-4.4-13.28h-5.31l7.13,19.51-.28.77c-.52,1.34-1.24,1.89-2.48,1.89h-2.95v4.19h3.64c3.21,0,4.91-1.13,5.97-3.94l8.44-22.42h-5.35l-4.4,13.28Z"/>
  <path class="c" d="M105.28,115.4l-53.06,92.86h92.86v-123.82l-27.32,47.81-12.48-16.85Z"/>
</svg>