<?xml version="1.0" encoding="UTF-8"?>
<svg id="a" data-name="Layer_1" xmlns="http://www.w3.org/2000/svg" viewBox="0 0 400 300">
  <defs>
    <style>
      .c {
        fill: #fff;
      }
    </style>
  </defs>
  <path class="c" d="M169.99,127.78l-14.09,17.47-14.15-17.47h-9.37l18.8,23.22-18.74,23.22h9.31l14.15-17.41,14.03,17.41h9.49l-18.86-23.22,18.92-23.22h-9.49Z"/>
  <path class="c" d="M121.14,127.78h-7.62v46.43h7.62v-46.43Z"/>
  <path class="c" d="M91.58,161.4l-27.27-33.62h-6.89v46.43h7.62v-33.62l27.27,33.62h6.89v-46.43h-7.62v33.62Z"/>
  <path class="c" d="M273.56,161.4l-27.33-33.62h-6.83v46.43h7.62v-33.62l27.27,33.62h6.83v-46.43h-7.56v33.62Z"/>
  <path class="c" d="M206.21,127.54c-12.94,0-23.46,10.52-23.46,23.46s10.52,23.52,23.46,23.52,23.52-10.52,23.52-23.52-10.52-23.46-23.52-23.46ZM206.21,166.9c-8.77,0-15.9-7.13-15.9-15.9s7.13-15.9,15.9-15.9,15.9,7.13,15.9,15.9-7.13,15.9-15.9,15.9Z"/>
  <path class="c" d="M325.37,121.37c0,4.53,0,23.22-.06,29.38,0,3.33,1.09,5.08,2.84,6.59,3.69,3.08,5.5,4.53,7.14,6.71,3.39,4.53-3.75,10.16-12.09,10.16s-15.42-5.68-12.09-10.16c1.63-2.18,3.44-3.63,7.13-6.71,1.81-1.51,2.9-3.26,2.84-6.59v-29.38s-25.45,30.77-14.39,49.7c2.84,4.53,8.34,7.56,16.57,7.56s13.72-3.08,16.56-7.56c11.01-18.98-14.45-49.7-14.45-49.7Z"/>
</svg>