<?xml version="1.0" encoding="UTF-8"?>
<svg id="a" data-name="Layer_1" xmlns="http://www.w3.org/2000/svg" viewBox="0 0 400 300">
  <defs>
    <style>
      .c {
        fill: #fff;
      }
    </style>
  </defs>
  <path class="c" d="M135.89,146.59h15.56c1.63.03,3.26-.03,4.88-.19.9-.11,1.77-.39,2.57-.82,2.76-1.95,3.42-5.77,1.47-8.53-.4-.57-.9-1.07-1.47-1.47-.79-.46-1.67-.76-2.57-.88-1.62-.15-3.25-.21-4.88-.18h-15.56v12.07ZM135.89,154.24v15.36c-.02.57.14,1.12.47,1.59.47.42,1.03.73,1.65.88v1.06h-14.39v-1.06c.63-.14,1.21-.45,1.69-.88.33-.44.5-.98.47-1.53v-39.27c.03-.57-.13-1.13-.47-1.59-.47-.45-1.06-.75-1.69-.88v-1.06h28.89c2.79-.06,5.58.13,8.33.59,1.92.35,3.76,1.07,5.41,2.12,1.77,1.17,3.16,2.83,4,4.77.83,1.97,1.25,4.1,1.23,6.24,0,7.53-4.17,11.94-12.58,13.25l8.99,12.76c1.04,1.54,2.22,2.98,3.53,4.3.75.66,1.7,1.03,2.69,1.06v1.06h-16.74v-1.06c1.18-.18,1.7-.59,1.7-1.23-.33-1.08-.87-2.08-1.59-2.94l-9.3-13.6h-12.31v.06Z"/>
  <path class="c" d="M210.3,159.65l12.34-27.13c.42-.83.68-1.73.76-2.66,0-.94-.76-1.59-2.26-1.88v-1.18h15.96v1.06c-.77.02-1.5.31-2.07.82-.83,1.15-1.51,2.39-2.02,3.71l-16.08,34.66c-.51.89-.85,1.87-1.01,2.89,0,1.18.72,1.82,2.14,2.06v1.06h-16.08v-1.06c1.42-.18,2.14-.88,2.14-2.06-.21-.99-.55-1.94-1.01-2.83l-16.14-34.54c-.51-1.32-1.19-2.57-2.02-3.71-.58-.5-1.31-.79-2.07-.82v-1.18h16.55v1.06c-1.48.29-2.26.94-2.26,1.88.07.93.33,1.84.78,2.66l12.34,27.18Z"/>
  <path class="c" d="M253.52,168.44v-38.14c.04-.55-.16-1.09-.55-1.48-.56-.45-1.22-.75-1.93-.87v-1.08h16.32v1.03c-.72.08-1.39.38-1.93.86-.39.41-.59.97-.55,1.54v38.14c-.04.57.16,1.14.55,1.55.55.42,1.19.72,1.87.86v1.03h-16.34v-1.03c.71-.13,1.37-.42,1.94-.86.44-.39.66-.97.61-1.55Z"/>
  <path class="c" d="M330.66,168.05c2.25-2.36,3.51-5.49,3.53-8.76.02-2.05-.49-4.08-1.48-5.88-.95-1.79-2.33-3.31-4.02-4.43-1.78-1.12-3.72-1.97-5.75-2.53-2.8-.7-5.65-1.19-8.52-1.45l-5.88-.58c-2.62-.17-5.24-.52-7.82-1.03-2.43-.69-3.67-1.95-3.67-3.85.03-1.21.54-2.35,1.42-3.17,1.04-.99,2.29-1.72,3.67-2.13,2.33-.66,4.74-.97,7.16-.92,5.61-.13,11.14,1.37,15.93,4.31,1.54.93,2.35,1.85,2.35,2.7v.47l.76.4,5.98-10.82-.76-.4c-.54.45-1.21.71-1.9.74-.95-.17-1.88-.44-2.77-.8-3.46-1.4-7.03-2.53-10.66-3.4-3.01-.64-6.09-.96-9.17-.93-7.76,0-13.67,1.73-17.63,5.12-2.93,2.43-4.61,6.05-4.55,9.86-.05,2.26.57,4.48,1.77,6.39,1.26,2.04,3.12,3.65,5.32,4.61,1.54.71,3.14,1.25,4.8,1.61,2.72.49,5.47.84,8.23,1.03l5.79.58c2.65.15,5.27.59,7.82,1.33,1.89.69,2.9,1.89,2.9,3.53-.02,1.15-.47,2.26-1.25,3.11-.86,1.03-1.96,1.83-3.2,2.35-2.74,1.1-5.68,1.63-8.64,1.55-3.33-.04-6.63-.55-9.83-1.49-2.77-.68-5.38-1.88-7.7-3.53-1.01-.7-1.64-1.83-1.72-3.06v-.34l-.82-.35-5.45,11.35.83.4c.44-.41,1-.67,1.6-.75.91.19,1.79.5,2.61.93,6.33,2.92,13.21,4.45,20.18,4.49,3.59.03,7.17-.4,10.65-1.27,4.55-.93,7.8-2.71,9.87-5.02Z"/>
  <path class="c" d="M74.5,134.98c-2.01.72-3.89,1.78-5.56,3.11-1.66,1.39-3.02,3.1-4.01,5.03-1.04,2.12-1.57,4.45-1.54,6.82-.05,4.58,2,8.93,5.55,11.81,1.64,1.38,3.53,2.44,5.56,3.11,4.01,1.47,8.41,1.47,12.41,0,2.01-.72,3.89-1.78,5.56-3.11,1.66-1.39,3.02-3.1,4.01-5.03,1.04-2.12,1.57-4.45,1.54-6.82.06-4.59-1.99-8.95-5.55-11.85-1.64-1.38-3.53-2.44-5.56-3.11-4.01-1.47-8.41-1.47-12.41,0v.04ZM90.35,127.12c3.22.96,6.24,2.49,8.92,4.51,2.71,2.06,4.96,4.66,6.62,7.63,3.46,6.83,3.46,14.89,0,21.72-1.64,2.99-3.89,5.59-6.62,7.63-2.68,2-5.7,3.48-8.92,4.4-3.13.9-6.38,1.37-9.64,1.39-3.26-.02-6.5-.49-9.64-1.39-3.22-.9-6.25-2.39-8.92-4.4-2.69-2.06-4.92-4.66-6.56-7.63-3.46-6.83-3.46-14.89,0-21.72,1.64-2.99,3.89-5.59,6.62-7.63,2.69-2.01,5.72-3.54,8.93-4.51,3.1-.97,6.32-1.47,9.57-1.5,3.27.03,6.51.54,9.64,1.5Z"/>
  <path class="c" d="M342.21,132.84v-1.33h.88c.45,0,.95.13.95.63,0,.69-.51.69-1.07.69h-.76ZM342.21,133.41h.76l1.18,1.89h.76l-1.27-1.89c.65,0,1.18-.53,1.18-1.18,0-.88-.51-1.18-1.52-1.18h-1.63v4.35h.62l-.08-2ZM343.03,136.93c2.07.12,3.85-1.47,3.97-3.54.12-2.07-1.47-3.85-3.54-3.97-.14,0-.28,0-.42,0-2.07-.12-3.85,1.47-3.97,3.54-.12,2.07,1.47,3.85,3.54,3.97.14,0,.28,0,.42,0ZM339.94,133.15c.06-1.67,1.47-2.98,3.15-2.91,1.67.06,2.98,1.47,2.91,3.15-.06,1.63-1.4,2.91-3.03,2.91-1.69-.01-3.05-1.39-3.04-3.08,0-.04,0-.09,0-.13v.06Z"/>
</svg>