<?xml version="1.0" encoding="UTF-8"?>
<svg id="a" data-name="Layer_1" xmlns="http://www.w3.org/2000/svg" viewBox="0 0 400 300">
  <defs>
    <style>
      .c {
        fill: #fff;
        fill-rule: evenodd;
      }
    </style>
  </defs>
  <path class="c" d="M207.07,93.18c.19-.41.29-.86.3-1.31-.06-.43-.06-.87,0-1.31.18-.83,1.35-1.11.92-1.92-.34-.57-.52-.4-.48-1.18,0-.58.09-1.11.09-1.66-.07-.48-.07-.96,0-1.44.17-.43.95-.83,1.31-1.22-.31-.49-.7-.44-.88-1.11-.15-.54-.2-1.1-.13-1.65.21-.67.38-1.36.52-2.05,0-.57.49-1.11.53-1.75-.04-.54-.13-1.08-.27-1.61,0-.65.13-1.23.13-1.84.09-1.65-1.22-1.61-2.5-1.7-.61,0-1.22-.13-1.87-.18-.26-1.11.88-.79,1.53-.96s.52-.26,1.11,0c.33.12.65.27.96.43.8.17,1.62.26,2.44.27.41,0,.81.09,1.19.26.3.18.43.52.87.43.35-.87.79-.08,1.19.13.7.44.65,0,1.22-.34.92-.44,2.22.43,3.27.39.57-.1,1.15-.07,1.71.09.61.24,1.23.41,1.87.52.65.09,1.22-.09,1.79.22s.79.79,1.23,1.05c.24.11.48.21.73.3.24.15.46.33.67.52.39.28.68.67.87,1.11.27.57.52.74.31,1.31-.13.34-.52.65-.65,1,.51.13,1.05.13,1.56,0,.3.73.37,1.54.22,2.32-.22,1.11-1.22.13-1.65.92.34.3.95.43,1.11.82s-.27,1.01-.39,1.35c-.29.86-.75,1.65-1.35,2.32-.4.28-.77.61-1.11.96-.27.3-.3.91-.65,1.18-.52.34-2.62-1.11-2.22.7,1.19.48-.57,1.35-.87,1.7.26.4.65.65.87,1.11.2.44.44.86.7,1.26.13.22.13.61.27.74s.52.26.65.48c.52.83-.65.61,0,1.26.52.49.83.31.95,1.19s.18.74.65,1.35c.13.21.13.48.27.7s.43.3.61.52c.34.45.55.97.61,1.53.25.52.56,1,.92,1.44.26.61.6,1.18,1.01,1.7.48.48,1.11.52,1.61,1.01.22.21.22.48.48.61s.53-.13.83.13c.15.21.28.43.4.65l.65.39c.61.18,1.18-.27,1.74.13s.52.95-.18,1.04c-.48,0-.82-.26-1.4-.13-.62.17-1.29.06-1.83-.3-.43-.18-.3-.31-.83-.27-.26,0-.39.31-.78.18s-.79-.92-1.44-.92c-.35,0-.49.31-.79.35s-.49-.13-.74-.22c-.63-.15-1.2-.5-1.62-1-.34-.44-.79-.79-1.11-1.23s-.44-.91-.83-1.26c-.41-.32-.76-.72-1.01-1.18-.39-.92-.87-1.62-1.26-2.48-.29-.46-.6-.9-.95-1.31-.4-.62,0-.62,0-1.23-1.62-.17-.79-1.44.17-1.92-.21-.43-1.26,0-1.65-.34s-.43-1.01-.65-1.44c-.14-.28-.25-.58-.35-.88-.09-.27-.09-.57-.34-.7-.54-.14-1.11-.18-1.66-.13-.52,0-1.11-.18-1.61-.22-.27,0-.65.13-.88.09s-.4-.39-.57-.39c-1.11-.18-.31.39-.27.92,0,.34-.18.57-.22.87-.02.29-.02.58,0,.88.09.56-.03,1.14-.34,1.62-.27.26-1.18.26-1.22.74s.74.57,1,.87c.44.53,0,1.19,0,1.75s.13,1.11,0,1.74c-.12.5-.19,1.02-.21,1.53,0,.7-.18,1.11.3,1.57.31.3,1.05.48.7,1.26s-1.49,0-2.22,0c-.52,0-.83.34-1.31,0s-.34-.74-.34-1.31c-.49-.18-.74.57-1.19.79s-1.04-.09-1.61,0c-.26.08-.52.14-.79.17-.35,0-.52-.21-.79-.3-.65-.18-1.31.43-1.83.26-.92-.3,1.44-1.31,2.14-1.11s.95.65,1.26-.13c.09-.26,0-.65,0-.87.1-.31.24-.61.43-.88.22-.25.42-.51.61-.79.22-.48-.09-.48-.22-.96-.17-.78-.12-1.59.13-2.35.35-.65,1.8-.61,1.57-1.57-.21-.71-1.86-.93-1.12-2.07ZM213.4,83.2c-.31.61-1.57,1-1.4,1.74.08.35.61.61.78.88s0,.61-.08,1.04c-.07.43.04.88.3,1.23.35.48.48.34.96.52.26.09.39.39.61.48s.57-.09.88,0c.49.14.98.26,1.47.35.53.15,1.07.2,1.62.17.43-.08.88-.52,1.26-.7.42-.09.79-.32,1.05-.65.2-.37.44-.72.7-1.04.21-.27.21-.31.57-.4.18,0,.52.09.65,0s-.27-.83-.27-1.11c.05-.42.17-.84.35-1.22.13-.43,0-.74.34-1.11.61.48.52-.27.4-.62-.18-.36-.35-.73-.49-1.11-.12-.39-.26-.96.09-1.26s.7-.18.22-.74c-.65-.74-.52-1.26-.83-2.22-.31-.71-.76-1.37-1.31-1.92-.57-.74-1.62-.88-2.44-1.22s-.83-1.53-1.8-.83c-.39.31-.43.39-.91.31-.43-.16-.87-.26-1.32-.31-.4-.01-.77.23-.91.61-.31.52-.09.61,0,1.11.03.45-.03.9-.18,1.32,0,.43.09.87,0,1.31-.14.88-.22,1.77-.22,2.66.18.92.14,1.87-.12,2.77v-.03ZM213.4,104.8c-.27.65.87.65,1.56.83.44.09,1.62.48,1.4-.52s-2.62-1.19-2.96-.28v-.03Z"/>
  <path class="c" d="M207.07,93.18c.19-.41.29-.86.3-1.31-.06-.43-.06-.87,0-1.31.18-.83,1.35-1.11.92-1.92-.34-.57-.52-.4-.48-1.18,0-.58.09-1.11.09-1.66-.07-.48-.07-.96,0-1.44.17-.43.95-.83,1.31-1.22-.31-.49-.7-.44-.88-1.11-.15-.54-.2-1.1-.13-1.65.21-.67.38-1.36.52-2.05,0-.57.49-1.11.53-1.75-.04-.54-.13-1.08-.27-1.61,0-.65.13-1.23.13-1.84.09-1.65-1.22-1.61-2.5-1.7-.61,0-1.22-.13-1.87-.18-.26-1.11.88-.79,1.53-.96s.52-.26,1.11,0c.33.12.65.27.96.43.8.17,1.62.26,2.44.27.41,0,.81.09,1.19.26.3.18.43.52.87.43.35-.87.79-.08,1.19.13.7.44.65,0,1.22-.34.92-.44,2.22.43,3.27.39.57-.1,1.15-.07,1.71.09.61.24,1.23.41,1.87.52.65.09,1.22-.09,1.79.22s.79.79,1.23,1.05c.24.11.48.21.73.3.24.15.46.33.67.52.39.28.68.67.87,1.11.27.57.52.74.31,1.31-.13.34-.52.65-.65,1,.51.13,1.05.13,1.56,0,.3.73.37,1.54.22,2.32-.22,1.11-1.22.13-1.65.92.34.3.95.43,1.11.82s-.27,1.01-.39,1.35c-.29.86-.75,1.65-1.35,2.32-.4.28-.77.61-1.11.96-.27.3-.3.91-.65,1.18-.52.34-2.62-1.11-2.22.7,1.19.48-.57,1.35-.87,1.7.26.4.65.65.87,1.11.2.44.44.86.7,1.26.13.22.13.61.27.74s.52.26.65.48c.52.83-.65.61,0,1.26.52.49.83.31.95,1.19s.18.74.65,1.35c.13.21.13.48.27.7s.43.3.61.52c.34.45.55.97.61,1.53.25.52.56,1,.92,1.44.26.61.6,1.18,1.01,1.7.48.48,1.11.52,1.61,1.01.22.21.22.48.48.61s.53-.13.83.13c.15.21.28.43.4.65l.65.39c.61.18,1.18-.27,1.74.13s.52.95-.18,1.04c-.48,0-.82-.26-1.4-.13-.62.17-1.29.06-1.83-.3-.43-.18-.3-.31-.83-.27-.26,0-.39.31-.78.18s-.79-.92-1.44-.92c-.35,0-.49.31-.79.35s-.49-.13-.74-.22c-.63-.15-1.2-.5-1.62-1-.34-.44-.79-.79-1.11-1.23s-.44-.91-.83-1.26c-.41-.32-.76-.72-1.01-1.18-.39-.92-.87-1.62-1.26-2.48-.29-.46-.6-.9-.95-1.31-.4-.62,0-.62,0-1.23-1.62-.17-.79-1.44.17-1.92-.21-.43-1.26,0-1.65-.34s-.43-1.01-.65-1.44c-.14-.28-.25-.58-.35-.88-.09-.27-.09-.57-.34-.7-.54-.14-1.11-.18-1.66-.13-.52,0-1.11-.18-1.61-.22-.27,0-.65.13-.88.09s-.4-.39-.57-.39c-1.11-.18-.31.39-.27.92,0,.34-.18.57-.22.87-.02.29-.02.58,0,.88.09.56-.03,1.14-.34,1.62-.27.26-1.18.26-1.22.74s.74.57,1,.87c.44.53,0,1.19,0,1.75s.13,1.11,0,1.74c-.12.5-.19,1.02-.21,1.53,0,.7-.18,1.11.3,1.57.31.3,1.05.48.7,1.26s-1.49,0-2.22,0c-.52,0-.83.34-1.31,0s-.34-.74-.34-1.31c-.49-.18-.74.57-1.19.79s-1.04-.09-1.61,0c-.26.08-.52.14-.79.17-.35,0-.52-.21-.79-.3-.65-.18-1.31.43-1.83.26-.92-.3,1.44-1.31,2.14-1.11s.95.65,1.26-.13c.09-.26,0-.65,0-.87.1-.31.24-.61.43-.88.22-.25.42-.51.61-.79.22-.48-.09-.48-.22-.96-.17-.78-.12-1.59.13-2.35.35-.65,1.8-.61,1.57-1.57-.21-.71-1.86-.93-1.12-2.07ZM213.4,83.2c-.31.61-1.57,1-1.4,1.74.08.35.61.61.78.88s0,.61-.08,1.04c-.07.43.04.88.3,1.23.35.48.48.34.96.52.26.09.39.39.61.48s.57-.09.88,0c.49.14.98.26,1.47.35.53.15,1.07.2,1.62.17.43-.08.88-.52,1.26-.7.42-.09.79-.32,1.05-.65.2-.37.44-.72.7-1.04.21-.27.21-.31.57-.4.18,0,.52.09.65,0s-.27-.83-.27-1.11c.05-.42.17-.84.35-1.22.13-.43,0-.74.34-1.11.61.48.52-.27.4-.62-.18-.36-.35-.73-.49-1.11-.12-.39-.26-.96.09-1.26s.7-.18.22-.74c-.65-.74-.52-1.26-.83-2.22-.31-.71-.76-1.37-1.31-1.92-.57-.74-1.62-.88-2.44-1.22s-.83-1.53-1.8-.83c-.39.31-.43.39-.91.31-.43-.16-.87-.26-1.32-.31-.4-.01-.77.23-.91.61-.31.52-.09.61,0,1.11.03.45-.03.9-.18,1.32,0,.43.09.87,0,1.31-.14.88-.22,1.77-.22,2.66.18.92.14,1.87-.12,2.77v-.03ZM213.4,104.8c-.27.65.87.65,1.56.83.44.09,1.62.48,1.4-.52s-2.62-1.19-2.96-.28v-.03Z"/>
  <path class="c" d="M242.25,106.74c.37-.34.8-.62,1.26-.82,0-.31-.18-.61-.13-.83s.09-.4.13-.7c.12-.7.31-1.39.57-2.05.22-.48.52-1.11.79-1.62s1.26-1.11,1.31-1.49-.65-.87-.7-1.47c.07-.66.28-1.31.61-1.89.18-.52.18-1.35.57-1.79s1.11-.4,1.53-.7c-.35-.57-1.11-.96-1.18-1.71s.7-1.56.87-2.22c.13-.88.35-1.75.65-2.58.44-.91,1.11-.34,1.66-1-.22-.4-.74-.48-.96-.96-.04-.52-.04-1.04,0-1.56.22-.65,2.14-1.11.88-1.75,0,0,0,.09-.09.13,0-.39.44-.65.49-.96s-.31-.61-.27-.95c.13-1.11,1.62-1.11.57-1.96-.22-.22-.57-.18-.83-.35s-.48-.48-.83-.65c-.65-.36-1.39-.54-2.13-.52-.13-1.01,1.35-.48,1.87-.35.34.13.69.22,1.04.27.31,0,.83-.13,1.11,0s.26.74.48.92c.36.2.77.27,1.18.21.82,0,1.63.13,2.41.4.61.18,1.21.42,1.79.7.69.33,1.46.47,2.22.39,1.92.13,3.58,1.53,5.46,1.75.3.07.61.1.92.08.3,0,.61-.34.95-.34.65,0,1.49.39,1.4,1.18,0,.44-.87,1.05-1.04,1.66s-.31,1.26-.48,1.87-.09,1.31-.74,1.8c-1.11.73-.44-.62-.58-1.28-.08-.43-.87-1.18-.65-1.7.13-.35.83-.74,1.28-1.11.21.27.43.18.7.31.43-.48.21-.57,0-.88-.09-.09-.62,0-.74-.09s-.22-.39-.35-.52-.48-.65-.83-.57-.34.74-.08,1.11c-.67.96-.88.35-1.57,0s-1.53-.12-2.22-.39c-.65-.33-1.28-.7-1.87-1.11-.22-.08-.61-.57-.88-.52s-.27.65-.7.92c-.61-.43-.61-1.11-1.4-1.53-.65.61.31.92.31,1.49s-.62.83-.83,1.4c-.44,1.11,0,2.53-.57,3.67-.18.45-.32.92-.4,1.4-.18.57-.18,1-.34,1.56s-.74.92-.79,1.31c-.09.7.39,1.11-.22,1.66,1.35.48,1.66,0,.79,1.49.48.26,1.31-.27,1.74-.52.18.26.44.48.62.7.61-.7.74-.31,1.43-.13.65.08,1.29.19,1.93.34.58.33,1.25.47,1.92.4.43-.09,1.18-.74,1.65-.4.67.49-.12,1.11-.39,1.57-.19.56-.35,1.12-.48,1.7-.22.56-.37,1.15-.44,1.75-.08.74-.61,1.11-.7,1.87-1.26.09-.21-2.14-1.44-2.35.06-.58-.13-1.15-.52-1.57-.18-.21-.37-.42-.57-.61-.27-.27-.27-.57-.7-.7-.74-.22-.88.3-1.62-.22-.43-.3-.61-.79-1.04-1.11-.83.79-.57.74-1.62.39-.7-.34-1.54-.14-2.01.48-.39.65-.21,3.02-.26,3.76-.09,1.26-2.84-.7-2.88-.35-.13.79,2.48,2.5,2.22,3.33s-.61,1.22-.83,1.92,0,1.49-.22,2.22-.91,1.31-.39,2.05,1.26.13,1.96.65c.27.18.39.65.7.79s.88-.09,1.26,0,.7.61,1.11.7.92,0,1.23,0c.73.17,1.47.29,2.22.34.88,0,2.75-2.44,3.33-.7.26.83-1.11,3.23-1.8,3.76-.39.24-.8.46-1.22.65-.52-.53.27-1.8-.22-2.22-.61-.65-1,.92-1.44,1.22-.91.57-1.04-.34-1.7-.61-.4-.13-.92,0-1.31-.09s-.7-.39-1.11-.52c-.87-.34-1.56-.34-2.44-.61-.91-.38-1.8-.82-2.66-1.31-1.35-.52-2.79-.74-4.28-1.22-.43-.13-5.02.26-4.44-1.11.34-.15.69-.26,1.05-.34.61-.18.3-.44,1-.09.49.21,0,.52.7.48.41-.08.79-.26,1.11-.52.08-.16.14-.33.18-.5Z"/>
  <path class="c" d="M242.25,106.74c.37-.34.8-.62,1.26-.82,0-.31-.18-.61-.13-.83s.09-.4.13-.7c.12-.7.31-1.39.57-2.05.22-.48.52-1.11.79-1.62s1.26-1.11,1.31-1.49-.65-.87-.7-1.47c.07-.66.28-1.31.61-1.89.18-.52.18-1.35.57-1.79s1.11-.4,1.53-.7c-.35-.57-1.11-.96-1.18-1.71s.7-1.56.87-2.22c.13-.88.35-1.75.65-2.58.44-.91,1.11-.34,1.66-1-.22-.4-.74-.48-.96-.96-.04-.52-.04-1.04,0-1.56.22-.65,2.14-1.11.88-1.75,0,0,0,.09-.09.13,0-.39.44-.65.49-.96s-.31-.61-.27-.95c.13-1.11,1.62-1.11.57-1.96-.22-.22-.57-.18-.83-.35s-.48-.48-.83-.65c-.65-.36-1.39-.54-2.13-.52-.13-1.01,1.35-.48,1.87-.35.34.13.69.22,1.04.27.31,0,.83-.13,1.11,0s.26.74.48.92c.36.2.77.27,1.18.21.82,0,1.63.13,2.41.4.61.18,1.21.42,1.79.7.69.33,1.46.47,2.22.39,1.92.13,3.58,1.53,5.46,1.75.3.07.61.1.92.08.3,0,.61-.34.95-.34.65,0,1.49.39,1.4,1.18,0,.44-.87,1.05-1.04,1.66s-.31,1.26-.48,1.87-.09,1.31-.74,1.8c-1.11.73-.44-.62-.58-1.28-.08-.43-.87-1.18-.65-1.7.13-.35.83-.74,1.28-1.11.21.27.43.18.7.31.43-.48.21-.57,0-.88-.09-.09-.62,0-.74-.09s-.22-.39-.35-.52-.48-.65-.83-.57-.34.74-.08,1.11c-.67.96-.88.35-1.57,0s-1.53-.12-2.22-.39c-.65-.33-1.28-.7-1.87-1.11-.22-.08-.61-.57-.88-.52s-.27.65-.7.92c-.61-.43-.61-1.11-1.4-1.53-.65.61.31.92.31,1.49s-.62.83-.83,1.4c-.44,1.11,0,2.53-.57,3.67-.18.45-.32.92-.4,1.4-.18.57-.18,1-.34,1.56s-.74.92-.79,1.31c-.09.7.39,1.11-.22,1.66,1.35.48,1.66,0,.79,1.49.48.26,1.31-.27,1.74-.52.18.26.44.48.62.7.61-.7.74-.31,1.43-.13.65.08,1.29.19,1.93.34.58.33,1.25.47,1.92.4.43-.09,1.18-.74,1.65-.4.67.49-.12,1.11-.39,1.57-.19.56-.35,1.12-.48,1.7-.22.56-.37,1.15-.44,1.75-.08.74-.61,1.11-.7,1.87-1.26.09-.21-2.14-1.44-2.35.06-.58-.13-1.15-.52-1.57-.18-.21-.37-.42-.57-.61-.27-.27-.27-.57-.7-.7-.74-.22-.88.3-1.62-.22-.43-.3-.61-.79-1.04-1.11-.83.79-.57.74-1.62.39-.7-.34-1.54-.14-2.01.48-.39.65-.21,3.02-.26,3.76-.09,1.26-2.84-.7-2.88-.35-.13.79,2.48,2.5,2.22,3.33s-.61,1.22-.83,1.92,0,1.49-.22,2.22-.91,1.31-.39,2.05,1.26.13,1.96.65c.27.18.39.65.7.79s.88-.09,1.26,0,.7.61,1.11.7.92,0,1.23,0c.73.17,1.47.29,2.22.34.88,0,2.75-2.44,3.33-.7.26.83-1.11,3.23-1.8,3.76-.39.24-.8.46-1.22.65-.52-.53.27-1.8-.22-2.22-.61-.65-1,.92-1.44,1.22-.91.57-1.04-.34-1.7-.61-.4-.13-.92,0-1.31-.09s-.7-.39-1.11-.52c-.87-.34-1.56-.34-2.44-.61-.91-.38-1.8-.82-2.66-1.31-1.35-.52-2.79-.74-4.28-1.22-.43-.13-5.02.26-4.44-1.11.34-.15.69-.26,1.05-.34.61-.18.3-.44,1-.09.49.21,0,.52.7.48.41-.08.79-.26,1.11-.52.08-.16.14-.33.18-.5Z"/>
  <path class="c" d="M176.29,73.47c-.44-.57-.74-1.18-1.66-1.35-.48-.09-.88.13-1.35.09s-.79-.35-1.26-.35c.21-.57,1.26-.61,1.83-.48h.83c.32.07.65.03.93-.12.63-.26,1.3-.4,1.97-.43.95,0,.74.52,1.35,1s.95-.13,1.52-.57c.46-.4,1.05-.62,1.66-.61.61,0,1.11.27,1.71.22s1.35-.13,2.01-.27c.67-.29,1.43-.32,2.13-.09.31.09.62.4,1.01.44.39-.03.78-.03,1.18,0,.61.08,1.11.57,1.71.82s1.31.22,1.92.61c.79.53.65,1.05,1.11,1.66s.92.96,1.28,1.53c.31.6.52,1.25.61,1.92.09.28.12.58.09.88-.09.26-.58.43-.58.83-.02.04-.02.08,0,.12.35.27.7.61.58,1.11-.64.06-1.22.43-1.53,1,.26.27.79.18,1.18.18.17.58.04,1.2-.34,1.66-.18.26-.49.39-.65.61s-.35.74-.53.91c-.78.62-.7-.65-1.44-.34s0,1.11-.08,1.62c-.18,1.22-2.14,1.47-3.06,2.1-.48.3-.83.78-1.35.91-.83.27-1.79-.26-2.62-.09-.18,0-1.8,1.11-1.44,0,.09-.3,1.49-.43,1.83-.65,1.03-.64,2.01-1.35,2.93-2.14.41-.42.92-.73,1.49-.91,1.11-.49.48-.65.26-1.35-.02-.61.12-1.21.4-1.75.34-.95.22-.95-.22-1.87-.2-.37-.35-.76-.43-1.18-.09-.61.18-1.01.18-1.53-.2-.83-.58-1.61-1.11-2.27-.34-.3-.88-.09-.91-.7s.91-.52.39-1.11-.88.26-1.35.26c-.65.09-.4-.57-.43-1.11-.74-.34-1.71.83-2.1-.09-.58.04-1.17.04-1.75,0-.52-.09-1.31-.18-1.7.31s-.27,1.31-.35,1.87c0,.31-.22.31-.18.65s.35.61.4.92c.09.3.09.61,0,.91,0,.27-.4.65-.44.83-.08.52,0,.35.27.7s.31.13.43.7c.18.74-.26,1.57-.26,2.22,0,.92.74,1.22.79,2.05.09,1.35-.58,2.71-.31,4.06.09.26.16.52.22.79-.09.3-.49.43-.52.74-.02.68.05,1.35.21,2.01.13.7.49,1.22.35,1.83s-.44.65-.4,1.11.53.65.65,1c.31,1.31.31,2.67,0,3.97-.23.77-.28,1.57-.17,2.36.21.74,1.4.96,1.11,1.74.39-.3,1.22-.17,1.79,0,.27.08.53.34.74.34.61,0,1.11-.57,1.75-.43,1.22.21.13.74-.49.87-.75.28-1.56.38-2.35.27-1.45-.16-2.91-.19-4.37-.09-.75-.06-1.5.02-2.22.22-.92.3-1.32-.09-2.22,0s-2.27,1.22-2.97.57c-1-.96,1.4-1.53,1.96-1.44s.79.43,1.26-.18c.13-.21,0-.48.18-.65s.35-.3.43-.48c.44-.96-.3-2.01.22-3.02.44-.12,1.11-.48.92-1-.61-.18-1.11-.22-1.26-.88s.26-1.44.09-2.1-.53-.95-.4-1.7c.18-.61.28-1.25.31-1.89-.19-.03-.32-.2-.29-.39.02-.12.09-.22.2-.26.18-.13.65.22.91.18.74-.18.7-1.22.18-1.62s-1.11-.08-1.4-.87c-.22-.66-.08-1.39.35-1.93.57-1.04.26-.78-.31-1.7-.35-.69-.41-1.48-.18-2.22.36-.7.47-1.5.31-2.27-.31-.78-.61-.82-.48-1.7.03-.46.13-.92.3-1.35.32-.04.6-.23.74-.52-.65-.58-1.35-.44-1.26-1.62,0-.39.43-.92.34-1.35-.27-.2-.53-.43-.75-.68Z"/>
  <path class="c" d="M176.29,73.47c-.44-.57-.74-1.18-1.66-1.35-.48-.09-.88.13-1.35.09s-.79-.35-1.26-.35c.21-.57,1.26-.61,1.83-.48h.83c.32.07.65.03.93-.12.63-.26,1.3-.4,1.97-.43.95,0,.74.52,1.35,1s.95-.13,1.52-.57c.46-.4,1.05-.62,1.66-.61.61,0,1.11.27,1.71.22s1.35-.13,2.01-.27c.67-.29,1.43-.32,2.13-.09.31.09.62.4,1.01.44.39-.03.78-.03,1.18,0,.61.08,1.11.57,1.71.82s1.31.22,1.92.61c.79.53.65,1.05,1.11,1.66s.92.96,1.28,1.53c.31.6.52,1.25.61,1.92.09.28.12.58.09.88-.09.26-.58.43-.58.83-.02.04-.02.08,0,.12.35.27.7.61.58,1.11-.64.06-1.22.43-1.53,1,.26.27.79.18,1.18.18.17.58.04,1.2-.34,1.66-.18.26-.49.39-.65.61s-.35.74-.53.91c-.78.62-.7-.65-1.44-.34s0,1.11-.08,1.62c-.18,1.22-2.14,1.47-3.06,2.1-.48.3-.83.78-1.35.91-.83.27-1.79-.26-2.62-.09-.18,0-1.8,1.11-1.44,0,.09-.3,1.49-.43,1.83-.65,1.03-.64,2.01-1.35,2.93-2.14.41-.42.92-.73,1.49-.91,1.11-.49.48-.65.26-1.35-.02-.61.12-1.21.4-1.75.34-.95.22-.95-.22-1.87-.2-.37-.35-.76-.43-1.18-.09-.61.18-1.01.18-1.53-.2-.83-.58-1.61-1.11-2.27-.34-.3-.88-.09-.91-.7s.91-.52.39-1.11-.88.26-1.35.26c-.65.09-.4-.57-.43-1.11-.74-.34-1.71.83-2.1-.09-.58.04-1.17.04-1.75,0-.52-.09-1.31-.18-1.7.31s-.27,1.31-.35,1.87c0,.31-.22.31-.18.65s.35.61.4.92c.09.3.09.61,0,.91,0,.27-.4.65-.44.83-.08.52,0,.35.27.7s.31.13.43.7c.18.74-.26,1.57-.26,2.22,0,.92.74,1.22.79,2.05.09,1.35-.58,2.71-.31,4.06.09.26.16.52.22.79-.09.3-.49.43-.52.74-.02.68.05,1.35.21,2.01.13.7.49,1.22.35,1.83s-.44.65-.4,1.11.53.65.65,1c.31,1.31.31,2.67,0,3.97-.23.77-.28,1.57-.17,2.36.21.74,1.4.96,1.11,1.74.39-.3,1.22-.17,1.79,0,.27.08.53.34.74.34.61,0,1.11-.57,1.75-.43,1.22.21.13.74-.49.87-.75.28-1.56.38-2.35.27-1.45-.16-2.91-.19-4.37-.09-.75-.06-1.5.02-2.22.22-.92.3-1.32-.09-2.22,0s-2.27,1.22-2.97.57c-1-.96,1.4-1.53,1.96-1.44s.79.43,1.26-.18c.13-.21,0-.48.18-.65s.35-.3.43-.48c.44-.96-.3-2.01.22-3.02.44-.12,1.11-.48.92-1-.61-.18-1.11-.22-1.26-.88s.26-1.44.09-2.1-.53-.95-.4-1.7c.18-.61.28-1.25.31-1.89-.19-.03-.32-.2-.29-.39.02-.12.09-.22.2-.26.18-.13.65.22.91.18.74-.18.7-1.22.18-1.62s-1.11-.08-1.4-.87c-.22-.66-.08-1.39.35-1.93.57-1.04.26-.78-.31-1.7-.35-.69-.41-1.48-.18-2.22.36-.7.47-1.5.31-2.27-.31-.78-.61-.82-.48-1.7.03-.46.13-.92.3-1.35.32-.04.6-.23.74-.52-.65-.58-1.35-.44-1.26-1.62,0-.39.43-.92.34-1.35-.27-.2-.53-.43-.75-.68Z"/>
  <path class="c" d="M150.75,76.38c1.01-.51,2.08-.91,3.18-1.19.65.09.92.44,1.62.53.58.08,1.16.24,1.7.48.52.1,1.03.23,1.53.39.83.61-.13.74-.13,1.4,0,.88,1.11,1.66,1.31,2.66.27,0,.53-.13.7-.34.18-.79-.34-1.71-.3-2.53.13-.93.13-1.87,0-2.79-.11-.75-.48-1.43-1.05-1.93-1.04-.61-1.44.67-2.35.53s-1.35-.74-2.22-.74c-.82.06-1.63.22-2.41.48-.82.18-1.61-.13-2.35.31s-1.05,1-1.71,1.35c-.77.25-1.48.65-2.1,1.18-.34.39-.26.7-.48,1.04s-.65.58-.74.83c-.18.49.09.57,0,.96-.08.42-.19.82-.34,1.22-.17.91-.29,1.83-.35,2.75.22.73.39,1.47.52,2.22.31.74.69,1.46,1.11,2.14.52.91.39,1.31,1.53,1.11.48-.09,2.22-1.92,1.96-1.31-.35.71-.63,1.45-.83,2.22.22,1.31.52.95,1.49,1.52.74.4,1.4.96,2.14,1.4s1.56,1.11,2.44,1.49c.62.45,1.3.82,2.01,1.11.83.13,2.14-1.35,3.02-.27-.65,1.05-1.92,1.11-.49,2.41.9.76,1.57,1.75,1.93,2.87.32.95.24,1.99-.22,2.88-.35.79-1.57,1.62-1.71,2.32,1.53.52-.73,2.05-1.52,2.05.34-1.57-2.27-.88-3.15-.88-1.53,0-2.35.18-3.84-.65-1.26-.74-1.05-1.83-1.75-2.93-.3-.48-.78-.65-1.11-1.11s0-1.26-.88-1.26c0,.65.13,1.11.18,1.74,0,.49-.34,1.4-.22,1.8.22.7,1.44.39,1.49,1.11,0,.27-.92,1.05-1.04,1.11.17.09.09.18.09.4v.22s0,0,.13.08c0,1.66.79,2.32,2.41,2.1.61-.08.91-.61,1.65-.57.27,0,.53.49.79.52.43.05.87-.03,1.26-.21.49-.18.79-.57,1.4-.61.37,0,.74.04,1.11.09.7-.03,1.39-.17,2.05-.4,1.53-.39,2.48-1.7,4.06-2.27,0,.4,1.57-2.96,1.65-3.18.22-.61,1.44-2.44,1.23-3.67-.13-1.21-.36-2.4-.7-3.57-.25-.63-.63-1.19-1.11-1.66-.48-.27-1.4,0-2.01,0-.26-.79.31-1.71-.39-2.44-.52-.58-1.31-.58-1.8-1.23-.93-1.09-2.12-1.95-3.45-2.48-.82-.39-1.56-.27-2.35-.88s-1.18-1.22-1.92-1.56c-.44-.11-.86-.26-1.28-.44-.39-.26-.43-.65-.69-.95-.67-.62-1.53-.53-1.49-1.57.13-.45.29-.88.48-1.31.13-.44.22-1.11.39-1.49s.7-.7.92-1.05c.34-.6.21-1.21,1-1.51Z"/>
  <path class="c" d="M150.75,76.38c1.01-.51,2.08-.91,3.18-1.19.65.09.92.44,1.62.53.58.08,1.16.24,1.7.48.52.1,1.03.23,1.53.39.83.61-.13.74-.13,1.4,0,.88,1.11,1.66,1.31,2.66.27,0,.53-.13.7-.34.18-.79-.34-1.71-.3-2.53.13-.93.13-1.87,0-2.79-.11-.75-.48-1.43-1.05-1.93-1.04-.61-1.44.67-2.35.53s-1.35-.74-2.22-.74c-.82.06-1.63.22-2.41.48-.82.18-1.61-.13-2.35.31s-1.05,1-1.71,1.35c-.77.25-1.48.65-2.1,1.18-.34.39-.26.7-.48,1.04s-.65.58-.74.83c-.18.49.09.57,0,.96-.08.42-.19.82-.34,1.22-.17.91-.29,1.83-.35,2.75.22.73.39,1.47.52,2.22.31.74.69,1.46,1.11,2.14.52.91.39,1.31,1.53,1.11.48-.09,2.22-1.92,1.96-1.31-.35.71-.63,1.45-.83,2.22.22,1.31.52.95,1.49,1.52.74.4,1.4.96,2.14,1.4s1.56,1.11,2.44,1.49c.62.45,1.3.82,2.01,1.11.83.13,2.14-1.35,3.02-.27-.65,1.05-1.92,1.11-.49,2.41.9.76,1.57,1.75,1.93,2.87.32.95.24,1.99-.22,2.88-.35.79-1.57,1.62-1.71,2.32,1.53.52-.73,2.05-1.52,2.05.34-1.57-2.27-.88-3.15-.88-1.53,0-2.35.18-3.84-.65-1.26-.74-1.05-1.83-1.75-2.93-.3-.48-.78-.65-1.11-1.11s0-1.26-.88-1.26c0,.65.13,1.11.18,1.74,0,.49-.34,1.4-.22,1.8.22.7,1.44.39,1.49,1.11,0,.27-.92,1.05-1.04,1.11.17.09.09.18.09.4v.22s0,0,.13.08c0,1.66.79,2.32,2.41,2.1.61-.08.91-.61,1.65-.57.27,0,.53.49.79.52.43.05.87-.03,1.26-.21.49-.18.79-.57,1.4-.61.37,0,.74.04,1.11.09.7-.03,1.39-.17,2.05-.4,1.53-.39,2.48-1.7,4.06-2.27,0,.4,1.57-2.96,1.65-3.18.22-.61,1.44-2.44,1.23-3.67-.13-1.21-.36-2.4-.7-3.57-.25-.63-.63-1.19-1.11-1.66-.48-.27-1.4,0-2.01,0-.26-.79.31-1.71-.39-2.44-.52-.58-1.31-.58-1.8-1.23-.93-1.09-2.12-1.95-3.45-2.48-.82-.39-1.56-.27-2.35-.88s-1.18-1.22-1.92-1.56c-.44-.11-.86-.26-1.28-.44-.39-.26-.43-.65-.69-.95-.67-.62-1.53-.53-1.49-1.57.13-.45.29-.88.48-1.31.13-.44.22-1.11.39-1.49s.7-.7.92-1.05c.34-.6.21-1.21,1-1.51Z"/>
  <path class="c" d="M271.89,116.62c.47-.46.8-1.05.92-1.7.11-.55.44-1.03.92-1.32.17-.08,1.7,0,1.74-.08-.25-.46-.38-.97-.39-1.49.14-.54.39-1.05.74-1.49.19-.24.41-.46.65-.65.39-.44.3-.31.48-.92.1-.39.25-.76.43-1.11.05-.11.11-.21.18-.31,0-.65-.13-1.4.35-1.92.43-.26.9-.44,1.4-.52,0-.49-.53-.35-.74-.7s.09-.92.12-1.18c.18-.83,0-.96-.3-1.75-.29-.62-.32-1.32-.09-1.96.27-.52,1.11-1.11.92-1.66-.49-.12-.53-.95-.61-1.4-.18-.51-.26-1.06-.22-1.61.15-.54.21-1.1.18-1.66.03-1.17-.03-2.34-.18-3.49-.27-1.11.39-2.22-.13-3.23-.26-.48-.7-.88-.92-1.31s-.78-1.11-.78-1.49c-1.23-.43-.62-1.31.3-1.11.4.08.52.52.83.73s.7.31.96.53c.3.23.59.48.87.74.13.12.13.39.31.52s.34.09.57.18c.52.3.52.21.43.87,0,.44-.26.88,0,1.19.41-.2.72-.54.88-.96.61.09,1.18.83,1.75,1.11s2.05.21,2.22,1.18-1.11.26-1.61.61-.57,1.22-.96,1.74c-.43,0-1.57.35-.92.79.22.18.62,0,.88.18s.27.39.31.7c.11.65.11,1.31,0,1.96-.18.65-.52.74-.96,1.18.44.4.31.58.44,1.11s.48.83.48,1.11c.09.96-1.11,1.4-.96,2.32.72.25,1.1,1.02.88,1.74-.13.7-1.18,1.11-1.11,1.75.91.48.82.57.48,1.31-.21.51-.33,1.06-.35,1.61.44-.26.53-.48,1.05-.48s.65.35,1.11,0,.49-.79,1.01-1.11.88-.74,1.4-1.11c.87-.61,1.53-1.56,2.48-1.26s.92.49,1.11-.43c.18-.74.13-.83.88-1.11,1.13-.3,2.12-.98,2.79-1.93,1,.04,1.9-.63,2.14-1.61.27-.61.65-.92.39-1.66-.17-.48-.57-.74-.17-1.26.73.28,1.38.74,1.87,1.35.39.48.34.74.88.92.09,0,.34-.13.52,0,.19.07.35.19.48.34.37.31.83.49,1.31.52.39.06.76.23,1.05.49.7.48,1.18,1,1.83,1.53.18-.13.35-.22.4-.49.61.13.82,1.71-.22,1.53-.83-.13-1.31-1.11-2.22-1.22-.88,0-1.75.17-2.57.48-.43.13-.79.52-1.26.61s-.83-.21-1.19-.13-1,1.4-1.11,1.53c-.7-.57-1.31-1.11-2.22-.88,0,.58,1.19.49.88,1.44-.82.14-1.61.39-2.36.74-.82.4-1.26,1.22-2.1,1.62s-.95-.22-1.56,0-.83.83-1.22,1.11c-.83.61-1.66,1.19-2.54,1.71-.48.3-.7.83-1.11,1.11s-.96.22-1.35.48c-1.11.7-.22.74-.27,1.49,0,.31-.74,1.11-.95,1.35-.61,1.01-1.31,1.96-1.93,2.93-.62,1.04-1.17,2.12-1.65,3.23-.27.48-.43,1.02-.48,1.57.08.61.57.83.82,1.31s.57,1.11.88,1.66c.13.21.57.39.27.74s-.61.13-.83,0c-.48-.31-.61-.83-1.18-1.11-.48-.28-.98-.52-1.49-.74-.92-.26-.92,0-1.26-.95s-.62-.88-1.44-.88c-1.23,0-1.96-.74-3.11-1.26-.57-.27-.83-.31-1.11-.96-.18-.34-.52-1.18-.4-1.49.96-.17,1.23,1.28,2.22,1.28.08-.9.69-.77,1.16-1.12Z"/>
  <path class="c" d="M271.89,116.62c.47-.46.8-1.05.92-1.7.11-.55.44-1.03.92-1.32.17-.08,1.7,0,1.74-.08-.25-.46-.38-.97-.39-1.49.14-.54.39-1.05.74-1.49.19-.24.41-.46.65-.65.39-.44.3-.31.48-.92.1-.39.25-.76.43-1.11.05-.11.11-.21.18-.31,0-.65-.13-1.4.35-1.92.43-.26.9-.44,1.4-.52,0-.49-.53-.35-.74-.7s.09-.92.12-1.18c.18-.83,0-.96-.3-1.75-.29-.62-.32-1.32-.09-1.96.27-.52,1.11-1.11.92-1.66-.49-.12-.53-.95-.61-1.4-.18-.51-.26-1.06-.22-1.61.15-.54.21-1.1.18-1.66.03-1.17-.03-2.34-.18-3.49-.27-1.11.39-2.22-.13-3.23-.26-.48-.7-.88-.92-1.31s-.78-1.11-.78-1.49c-1.23-.43-.62-1.31.3-1.11.4.08.52.52.83.73s.7.31.96.53c.3.23.59.48.87.74.13.12.13.39.31.52s.34.09.57.18c.52.3.52.21.43.87,0,.44-.26.88,0,1.19.41-.2.72-.54.88-.96.61.09,1.18.83,1.75,1.11s2.05.21,2.22,1.18-1.11.26-1.61.61-.57,1.22-.96,1.74c-.43,0-1.57.35-.92.79.22.18.62,0,.88.18s.27.39.31.7c.11.65.11,1.31,0,1.96-.18.65-.52.74-.96,1.18.44.4.31.58.44,1.11s.48.83.48,1.11c.09.96-1.11,1.4-.96,2.32.72.25,1.1,1.02.88,1.74-.13.7-1.18,1.11-1.11,1.75.91.48.82.57.48,1.31-.21.51-.33,1.06-.35,1.61.44-.26.53-.48,1.05-.48s.65.35,1.11,0,.49-.79,1.01-1.11.88-.74,1.4-1.11c.87-.61,1.53-1.56,2.48-1.26s.92.49,1.11-.43c.18-.74.13-.83.88-1.11,1.13-.3,2.12-.98,2.79-1.93,1,.04,1.9-.63,2.14-1.61.27-.61.65-.92.39-1.66-.17-.48-.57-.74-.17-1.26.73.28,1.38.74,1.87,1.35.39.48.34.74.88.92.09,0,.34-.13.52,0,.19.07.35.19.48.34.37.31.83.49,1.31.52.39.06.76.23,1.05.49.7.48,1.18,1,1.83,1.53.18-.13.35-.22.4-.49.61.13.82,1.71-.22,1.53-.83-.13-1.31-1.11-2.22-1.22-.88,0-1.75.17-2.57.48-.43.13-.79.52-1.26.61s-.83-.21-1.19-.13-1,1.4-1.11,1.53c-.7-.57-1.31-1.11-2.22-.88,0,.58,1.19.49.88,1.44-.82.14-1.61.39-2.36.74-.82.4-1.26,1.22-2.1,1.62s-.95-.22-1.56,0-.83.83-1.22,1.11c-.83.61-1.66,1.19-2.54,1.71-.48.3-.7.83-1.11,1.11s-.96.22-1.35.48c-1.11.7-.22.74-.27,1.49,0,.31-.74,1.11-.95,1.35-.61,1.01-1.31,1.96-1.93,2.93-.62,1.04-1.17,2.12-1.65,3.23-.27.48-.43,1.02-.48,1.57.08.61.57.83.82,1.31s.57,1.11.88,1.66c.13.21.57.39.27.74s-.61.13-.83,0c-.48-.31-.61-.83-1.18-1.11-.48-.28-.98-.52-1.49-.74-.92-.26-.92,0-1.26-.95s-.62-.88-1.44-.88c-1.23,0-1.96-.74-3.11-1.26-.57-.27-.83-.31-1.11-.96-.18-.34-.52-1.18-.4-1.49.96-.17,1.23,1.28,2.22,1.28.08-.9.69-.77,1.16-1.12Z"/>
  <path class="c" d="M104.34,90c.39-.58.9-1.07,1.49-1.44.61-.18.92.52,1.53.34,1-.3.43-1.26.7-1.83.3-.74,1.44-1,2.01-1.31s1.35-.96,2.05-1.26c.26-.09.88-.35,1.11-.27.52.13.31.31.7.65,2.1,1.84,2.1-1.4,3.63-1.49.52,0,.83.53,1.49.35s1-1.11,1.65-.52c.44.39-.12.95.65,1.22s1.28-.43,1.62-1.01c.39,0,.79.09,1.18.09.13.57.83.49,1.23.65.12,0,.57.44.78.57.28.17.57.32.88.44,1.18.61,2.57.88,2.75,2.22,0,.21-.48.3-.18.65.18.17.7-.09.88,0,.56.14,1.1.37,1.57.7,1.11.83,1.49,2.57,2.22,3.7-.58.21-1.09.6-1.44,1.11.82.39,1.47-.13,2.14.57.58.62.78,1.51.52,2.32-.44,1.11-1.05,1.04-.31,2.05.51.5.92,1.09,1.22,1.74.19.67.25,1.36.18,2.05.05.96,0,1.93-.18,2.88-.12.34-.48.39-.61.79s0,.74-.12,1.18-.27.61-.31.92c-.02.35-.08.7-.18,1.04-.21.52-.83.88-1.11,1.4s-.57,1.11-1.01,1.75c-.39.53-.82,1.03-1.31,1.47-.58.6-1.24,1.11-1.96,1.53-.65.4-1,1.11-1.57,1.53-.74.61-.87.22-1.7.18-1.05-.09-1.26.65-1.92,1.26-.63.55-1.4.93-2.22,1.11-.78.33-1.63.48-2.48.44-.54-.13-1.11-.16-1.66-.09-.4.1-.82.03-1.18-.18-.27-.43,0-1.11-.18-1.11s-.7.87-.92.82c-1.11-.08-1.26.4-1.83.49-.64.13-1.3.04-1.87-.27-.44-.18-.74-.48-1.19-.61-.45-.23-.92-.44-1.4-.61-1.2-.42-2.25-1.16-3.05-2.14-.79-.88-3.02-3.23-3.33-3.72-.65-1.11-2.36-2.66-1.53-3.97.26,0,.79-.13.83-.43.12-.61-.44-.4-.83-.49-.96-.21-1.11-.39-1.4-1.31-.26-.69-.4-1.41-.43-2.14,0-.82.7-.87.78-1.56.18-.88-.91-.88-1.18-1.4s.18-1.44.43-2.1c.06-.34.18-.67.35-.96.27-.26.52-.17.83-.48.7-.7.21-1.01,0-1.66-.27-1.26.61-1.87,1.22-2.92.24-.58.53-1.14.88-1.66.35-.57.92-.83,1.1-1.31ZM106.61,91.57c-.57.39-.7,1.11-1.11,1.61s-1.11.74-.82,1.66c.21.74.79.79.82,1.56s0,1.49,0,2.05c-.15.59-.34,1.18-.57,1.75-.17,1.22.35.7,1.01,1.49.42.71.49,1.58.18,2.35,1.04.27.82,3.15,1.47,4.03.35.48,1.11.61,1.35,1.22.11.68-.1,1.37-.57,1.87-.39.57-1.11.83-1.4,1.44-.39.79-.17,1.35.74,1s2.22-2.01,3.4-1.43c.57.3.53,1.22,1.11,1.52.39.22.95,0,1.4.18.27.32.51.66.74,1.01.64.64,1.49,1.01,2.4,1.04.53-.01,1.05.01,1.57.09.39.13.52.43.91.48.67,0,1.35-.43,2.14-.26s1.01,1.52,1.75,1.26c.52-.22.7-1.44,1.22-1.84s1.31-.61,1.96-1c1.11-.65,2.1-1.35,3.23-2.1.92-.57.74-1.11,1.05-2.01.38-.78.66-1.6.83-2.45.17-1.4-.92-3.93.21-5.06.49-.48,2.67-.48,1.57-1.22-.65-.44-1.79.08-2.48-.31.07-.52.07-1.05,0-1.57-.13-.48-.48-.91-.61-1.4-.16-.42-.16-.89,0-1.31.17-.48.61-.65.57-1.18-2.41.09-2.53-2.22-3.67-3.76-.94-1.23-2.11-2.27-3.45-3.05-.79-.4-1.53-.35-2.05-1.22-.39-.65-.3-1.66-1.44-1.19-.34.13-.52.7-.95.7s-.44-.3-.74-.43c-.67-.33-1.4-.51-2.14-.52-1.52.17-3.01.54-4.44,1.11-1.45.48-2.74,1.35-3.75,2.5-.4.54-.9,1.01-1.46,1.38h0Z"/>
  <path class="c" d="M104.34,90c.39-.58.9-1.07,1.49-1.44.61-.18.92.52,1.53.34,1-.3.43-1.26.7-1.83.3-.74,1.44-1,2.01-1.31s1.35-.96,2.05-1.26c.26-.09.88-.35,1.11-.27.52.13.31.31.7.65,2.1,1.84,2.1-1.4,3.63-1.49.52,0,.83.53,1.49.35s1-1.11,1.65-.52c.44.39-.12.95.65,1.22s1.28-.43,1.62-1.01c.39,0,.79.09,1.18.09.13.57.83.49,1.23.65.12,0,.57.44.78.57.28.17.57.32.88.44,1.18.61,2.57.88,2.75,2.22,0,.21-.48.3-.18.65.18.17.7-.09.88,0,.56.14,1.1.37,1.57.7,1.11.83,1.49,2.57,2.22,3.7-.58.21-1.09.6-1.44,1.11.82.39,1.47-.13,2.14.57.58.62.78,1.51.52,2.32-.44,1.11-1.05,1.04-.31,2.05.51.5.92,1.09,1.22,1.74.19.67.25,1.36.18,2.05.05.96,0,1.93-.18,2.88-.12.34-.48.39-.61.79s0,.74-.12,1.18-.27.61-.31.92c-.02.35-.08.7-.18,1.04-.21.52-.83.88-1.11,1.4s-.57,1.11-1.01,1.75c-.39.53-.82,1.03-1.31,1.47-.58.6-1.24,1.11-1.96,1.53-.65.4-1,1.11-1.57,1.53-.74.61-.87.22-1.7.18-1.05-.09-1.26.65-1.92,1.26-.63.55-1.4.93-2.22,1.11-.78.33-1.63.48-2.48.44-.54-.13-1.11-.16-1.66-.09-.4.1-.82.03-1.18-.18-.27-.43,0-1.11-.18-1.11s-.7.87-.92.82c-1.11-.08-1.26.4-1.83.49-.64.13-1.3.04-1.87-.27-.44-.18-.74-.48-1.19-.61-.45-.23-.92-.44-1.4-.61-1.2-.42-2.25-1.16-3.05-2.14-.79-.88-3.02-3.23-3.33-3.72-.65-1.11-2.36-2.66-1.53-3.97.26,0,.79-.13.83-.43.12-.61-.44-.4-.83-.49-.96-.21-1.11-.39-1.4-1.31-.26-.69-.4-1.41-.43-2.14,0-.82.7-.87.78-1.56.18-.88-.91-.88-1.18-1.4s.18-1.44.43-2.1c.06-.34.18-.67.35-.96.27-.26.52-.17.83-.48.7-.7.21-1.01,0-1.66-.27-1.26.61-1.87,1.22-2.92.24-.58.53-1.14.88-1.66.35-.57.92-.83,1.1-1.31ZM106.61,91.57c-.57.39-.7,1.11-1.11,1.61s-1.11.74-.82,1.66c.21.74.79.79.82,1.56s0,1.49,0,2.05c-.15.59-.34,1.18-.57,1.75-.17,1.22.35.7,1.01,1.49.42.71.49,1.58.18,2.35,1.04.27.82,3.15,1.47,4.03.35.48,1.11.61,1.35,1.22.11.68-.1,1.37-.57,1.87-.39.57-1.11.83-1.4,1.44-.39.79-.17,1.35.74,1s2.22-2.01,3.4-1.43c.57.3.53,1.22,1.11,1.52.39.22.95,0,1.4.18.27.32.51.66.74,1.01.64.64,1.49,1.01,2.4,1.04.53-.01,1.05.01,1.57.09.39.13.52.43.91.48.67,0,1.35-.43,2.14-.26s1.01,1.52,1.75,1.26c.52-.22.7-1.44,1.22-1.84s1.31-.61,1.96-1c1.11-.65,2.1-1.35,3.23-2.1.92-.57.74-1.11,1.05-2.01.38-.78.66-1.6.83-2.45.17-1.4-.92-3.93.21-5.06.49-.48,2.67-.48,1.57-1.22-.65-.44-1.79.08-2.48-.31.07-.52.07-1.05,0-1.57-.13-.48-.48-.91-.61-1.4-.16-.42-.16-.89,0-1.31.17-.48.61-.65.57-1.18-2.41.09-2.53-2.22-3.67-3.76-.94-1.23-2.11-2.27-3.45-3.05-.79-.4-1.53-.35-2.05-1.22-.39-.65-.3-1.66-1.44-1.19-.34.13-.52.7-.95.7s-.44-.3-.74-.43c-.67-.33-1.4-.51-2.14-.52-1.52.17-3.01.54-4.44,1.11-1.45.48-2.74,1.35-3.75,2.5-.4.54-.9,1.01-1.46,1.38h0Z"/>
  <path class="c" d="M210.07,185.34c-.3.74-.57.83-1.18,1.31-.43.35-1.11.79-1,1.26,0,.31.34.27.39.61-.05.25-.16.49-.31.7-.21.35-.39.49-.43.83s0,.65-.09,1.01c-.22.65-.83,1.26-1,1.92s.48,1.22.3,1.57c-.13.17-.52.12-.7.3s-.21.52-.26.88,0,.39-.22.52c.74-.12,1.44.39,1.56,1.14.01.09.02.17.02.26-.13.7-1.11,1.35-1.44,2.1-.04-.51-.39-.95-.88-1.11-.35.57,0,1.26-.13,1.87-.15.44-.37.85-.65,1.22-.18.27-.13.49-.22.74-.38,1.24-1.04,2.38-1.92,3.33.18.4-.26.61-.34,1.01s0,1-.09,1.35c0,1,.13,1.57-.83,2.27-.71-.59-1.21-1.38-1.44-2.27-.2-.5-.51-.95-.92-1.31-.42-.5-.76-1.06-1-1.66-.39-.87-.31-1.79-.96-2.4-.4-.34-.75-.74-1.04-1.19-.18-.77-.18-1.58,0-2.35-.79-.18-1.71-2.01-1.87-2.75s-.35-1.87-1.05-2.14-1,.18-1.49-.74c-.7-1.26.44-2.35-.3-3.54-.13-.18-.22-.48-.4-.61s-.52-.09-.74-.34-.26-1.19-.26-1.66,0-.39-.48-.92c-.26-.24-.48-.52-.67-.82-.37-.72-.65-1.48-.82-2.27,0,0,0-.13-.09-.18.26.01.53.04.79.09.43,0,.39-.13.82-.27.62-.14,1.28-.11,1.89.09.62.22,1.28.27,1.92.13.61-.27,1-1.11,1.66-.79s.57.83,1.31.96c.45.09.91.09,1.35,0,.36-.11.75-.11,1.11,0,1.21.4,2.51.46,3.76.18.82-.27,1.22,0,1.96.12.38-.02.76-.11,1.11-.26.41-.02.81-.02,1.22,0,.68-.21,1.39-.34,2.1-.4.87.06,1.72.24,2.54.53.08.49-.4,1.23-.58,1.66ZM204.09,222.49c.31.39-.13.96.13,1.4.43.79,1.87,1.04,1.79,2.22-.79-.4-1.49.09-2.31,0-1.11-.13-1.53-.57-2.54.13s-.91.17-1.92-.27c-.7-.31-1.18.43-1.87.61-.13-.83,1.18-1.74,1.7-2.22s.65-.61.49-1.11-.7-.48-.18-1.11c.34-.4.79-.35.96-.96.12-.43-.18-.74-.09-1.26.12-.83.87-1.75.87-2.57.36.13.62.44.7.82.12.4.3.77.53,1.11.52.83.26,1.74.7,2.57.28.55.7.23,1.04.64ZM192.13,178.13c.35-.62.63-1.29.83-1.97.13-.34.09-.52.22-.91s.18-.31.43-.61c.61-.7.31-.92.27-1.71,0-.61.52-1.26.7-1.79s-.22-1.4.09-1.75c.23-.12.46-.22.7-.3.57-.4.74-1.11,0-1.49.17-.57.82-.65,1.11-1.11s-.13-1.01.35-1.19c.08-.9.32-1.77.73-2.57.72-.47,1.55-.74,2.41-.79-.16.61-.25,1.24-.27,1.87-.12,1.19-.91,2.32-1.18,3.49s-.34,2.1-.65,3.15c-.18.57-.48,1.04-.61,1.61-.07.6-.07,1.2,0,1.8-.07.26-.12.52-.13.79,0,.21.09.57.09.74-.09.7-.61.87-1.01,1.35.35.43,0,1.35-.08,1.83s-.09,1.11-.35,1.49c-.75-.18-1.53-.18-2.27,0-.48,0-.57-.22-.91-.27s-.61.22-.96,0c-.5-.58.24-1.32.5-1.71v.03ZM200.51,165.85c.44-.18.89-.32,1.35-.43.65-.3,1.62.31,1.96.92.35.7.35,1.52,0,2.22-.12.48-.21.73-.65.95-.39.18-.8.3-1.22.35-.68-.05-1.33-.29-1.87-.7-.34-.4-.52-.91-.52-1.44.04-.74.39-1.43.95-1.91v.03ZM205.27,163.55c.15-.5.36-.98.61-1.44.14-.56.18-1.14.13-1.71.65.22,1.01-.21,1.53-.39s1.31.13,1.71-.18c.12.49-.13.74-.35,1.11-.09.12-.34.39-.34.57,0,.39.3.21.39.48.13.46.13.94,0,1.4-.09.48-.13,1.11-.27,1.57-.1,1-.45,1.96-1,2.79-.18.17-.65.26-.7.52-.13.48.22.27.34.48.22.49.09.57,0,1.19,0,.5-.17.99-.48,1.39-.36.69-.41,1.49-.13,2.22.13,1.08-.12,2.18-.7,3.11-.23.49-.36,1.02-.39,1.56,0,.44.3,1.35,0,1.62-.65.57-2.71-.48-3.49-.27,0-.34.39-.61.52-.91.18-.32.22-.7.13-1.05,0-.95.05-1.9.18-2.84.06-1.32.33-2.61.82-3.84.53-1.28.82-2.64.88-4.01.18-1.12.31-2.22.61-3.39v.03ZM209.7,157.82c.92-1.11,3.49-.13,2.44,1.35-.52.74-1,.52-1.74.18s-1.29-.87-.72-1.6l.02.07ZM300.16,123.64c-.91.27-1.04,1.18-1.44,1.87-.5.69-.92,1.44-1.26,2.22-.45,1.65-1.26,3.18-2.35,4.49-.49.58-1.11,1.01-1.53,1.57s0,1.49-.7,2.01c-1.16.81-2.17,1.81-2.97,2.97.57,1.11-1.11,1.53-1.61,2.1-.27.3-.31.7-.62,1s-.78.65-1.11,1.01c-.35.25-.6.62-.7,1.04-.09.4,0,.79-.43.96s-.61-.09-1.01.22-.74.95-1.22,1.31-.65.39-.96.7c-.52.52-1.18.82-1.74,1.31-.36.24-.73.46-1.11.65-.64.53-1.24,1.12-1.8,1.74-.4.29-.82.54-1.26.74-.34.22-1.11.35-1.35.61s-.13.74-.31,1.05-.7.39-1.11,0c-.3.18-.7.18-1.04.39-.37.29-.71.61-1.01.96-.52.39-1.35.91-1.26,1.65-.43.09-.96-.34-1.4-.48-.33.36-.68.7-1.05,1.01-.44.29-.82.67-1.11,1.11-.39.52-.39.79-1.11.96-.74.21-1.44.57-2.05,1.04.3.43-1.01.7-.92.35-.47.15-.93.36-1.35.61-.66.22-1.3.48-1.92.79-.51.27-1.03.51-1.57.7-.82.31-1.59.75-2.27,1.31-.34.26-.7.3-1.11.57-.88.52-1.22,1.11-2.41,1.11-.56-.06-1.13.06-1.61.35-.27.21-.48.61-.74.82-.65.62-.96.53-1.83.62-.5.04-.99.17-1.44.39-.92.39-1.62,1.31-2.54,1.62s-1.92.3-2.57.87c-.52.63-1.32.96-2.14.88-.54-.04-1.07-.04-1.61,0-.44.09-.65.52-.79.88s-.18.74-.49.88c-.3-.09-.43-.35-.74-.44s-.39.09-.73.31c-.28.2-.57.37-.88.52-.4.1-.81.16-1.22.18-.34.13-.68.27-1.01.43-.43.18-.83.09-1.22.27s-.65.43-1.05.57-.87.09-1.31.22l-1.04.39c-.4.13-.74.27-1.11.43-.43.16-.85.38-1.22.65-.39.27-.74.22-1.18.4-.37.2-.76.33-1.18.39-.57,0-.92.09-1.23.49-.28.43-.82.62-1.31.48-.33-.09-.67-.09-1,0-.44.18-.83.65-1.4.65-.37-.06-.75-.03-1.11.09-.31.09-.58.22-.92.3-.74.13-1.35.31-2.14.44-.35,0-.74.26-1.11.3-.4.02-.79.02-1.19,0-.67-.05-1.34-.02-2.01.09-.21-.89-.13-1.82.22-2.66.07-.53.07-1.07,0-1.61.03-.53.21-1.05.52-1.49-.48-.61-.65-1.11-.13-1.75.46-.41.71-1,.7-1.61.02-.38.08-.75.18-1.11.15-.32.28-.66.39-1,.06-.35.06-.71,0-1.05-.13-.39-.67-.48-.83-.87.28-.16.54-.37.74-.62.34-.39.17-.7.3-1.11,0-.18.27-.27.35-.43.15-.35.25-.73.3-1.11,0-.52-.21-.65,0-1.11.44-.7,1.11-1.22,1.49-1.96.22-.32.5-.58.83-.79.21-.18.48-.65.83-.7s1.11.43,1.44.57.87.48,1.31.65l.08-.09c-.26-.82-1.04-1.26-1.61-1.96-.54-.63-1.23-1.12-2.01-1.4-.09-.24-.23-.46-.4-.65-.7.09-1.26-.7-1.92-.83-.83-.12-1.62.83-2.1,1.4s-1.11,1.4-1.87,1.44c-.97.1-1.93.34-2.84.7-.75.33-1.57.5-2.4.49-1.11-.13-1.4.48-2.22.91-.52.18-1.08.22-1.62.13-.18-.04-.36,0-.52.09-.18.1-.37.17-.57.22-.43.06-.85.14-1.26.26-.65.18-.53.27-.53.88,0,1.11-1.18,1.83-1.26,2.79.1.94-.06,1.9-.48,2.75-.27.34-.65.57-.92.91-.25.44-.44.91-.57,1.4-.18.83.27,1.75-.27,2.5s-1.11.92-1.04,1.83c0,.44-.13.88-.35,1.26-.17.35-.17.74-.34,1.11s-.52.57-.65,1c0,.21-.04.41-.09.61-.13.22-.34.35-.48.58s-.35.61-.57.95c-.13.18,0,.31-.22.4-.09,0-.48-.13-.61-.13-.4,0-.79.07-1.18.18-.44,0-.83-.31-1.19-.53-.43-.25-.91-.41-1.4-.48-.22.03-.44.09-.65.18q-.3,0-.57-.18c-.47-.04-.93-.17-1.35-.39-.52-.35-.74-.27-1.35-.44-.41-.17-.86-.23-1.31-.18-.52.13-.74.35-1.26.13-.24-.12-.49-.22-.74-.3-.25-.05-.5-.13-.74-.22-.38-.26-.77-.49-1.18-.7-.4-.13-.88,0-1.23,0-.38-.08-.75-.19-1.11-.34-.35-.18-.52-.53-.83-.74-.46-.28-.99-.43-1.53-.44-.39.02-.78.02-1.18,0-.31-.1-.63-.17-.95-.21h-.58c-.22,0-.52-.53-.82-.74-.49-.31-.79,0-1.23-.18s-.48-.48-.82-.65c-.41-.14-.84-.22-1.28-.22-.79-.2-1.56-.46-2.31-.79-.83-.21-1.59-.63-2.22-1.22-.4-.34-.52-.65-1.11-.61-.63.18-1.3.18-1.93,0-.57-.22-.78-.48-1.47-.39s-.58.12-.92-.49c-.22-.34-.52-.79-1.05-.79-.26,0-.52.31-.82.27-.13,0-.44-.34-.58-.39-.34-.27-.43-.62-.91-.62s-1.19.53-1.89.35-1.31-1.22-1.96-1.62c-.65-.57-1.4-1-2.22-1.26-.96-.19-1.89-.53-2.75-1-.36-.19-.73-.35-1.11-.49-.35-.03-.7-.09-1.04-.17-.18-.09-.13-.31-.27-.44-.74-.79-2.14-.3-2.93-.87-.41-.42-.86-.79-1.35-1.11-.17-.09-.39-.09-.57-.22-.48-.26-.95-.61-1.44-.87s-1.26-.49-1.92-.74-1.49-1.05-2.35-1.05c-.18,0-.62.09-.74,0s-.22-.52-.27-.65c-.21-.5-.6-.9-1.11-1.11-.52-.11-1.03-.3-1.49-.57-.18-.18-.22-.49-.49-.61s-.52,0-.74-.13c-.39-.18-.61-.57-1-.79-.79-.43-1.83-.48-2.57-.96-.49-.34-.53-.79-.79-1.22s-.74-.61-1.4-.79c-.48-.13-.83-.34-1.26-.48-.46-.06-.92-.18-1.35-.35-.73-.54-1.39-1.17-1.96-1.87-.26-.32-.56-.61-.88-.88-.4-.17-.7-.08-1.11-.34s-.7-.31-.82-.83c-.22-.79-.7-1-1.31-1.57s-1.57-.82-1.93-1.47c-.19-.51-.6-.92-1.11-1.11-.49-.17-.93-.47-1.26-.88-.48-.42-.93-.87-1.35-1.35-.31-.26-.65-.39-.96-.65-.65-.61-1.26-1.79-2.22-2.13-.26.21.09.61.13.87s.09.88.09,1.22c-.09.81.28,1.61.96,2.05.36.25.65.6.82,1.01.18.35.27.92.53,1.18.7.7,1.74.53,2.35,1.4.68.75,1.65,1.18,2.66,1.19,0,.57-.17.91.31,1.26.42.26.83.55,1.22.87.35.35.57.58.27.92-.36.3-.8.48-1.26.52-.53,0-.96-.43-1.49-.43s-.88.22-1.35.22c-.54.01-1.08.13-1.57.34-.52.13-1.11.13-1.66.27s-2.48.43-2.79,1.11c.49.13.92-.13,1.4-.22.46-.08.93-.08,1.4,0,.44.1.88.21,1.31.35.53.09,1.11,0,1.62.09.83.09,1.71.48,2.53.57.58,0,.92-.31,1.49-.13.35.13.65.4,1.01.52,1.35.44,1.96-1,3.33-.61.34,1.23,1.44.88,2.4,1.4.46.3.9.62,1.32.96.52.24,1,.55,1.43.92l-1.11.34c-.38.12-.72.33-1,.61-.27.31-.31.52-.7.74-.38.15-.75.32-1.11.52-.39.27-.57.83-.96,1.11s-1,.09-1.43.18-.83.39-1.32.52-.91.18-1.35.3c-.8.13-1.51.59-1.96,1.26.98.13,1.97.09,2.93-.12.89-.28,1.83-.37,2.75-.27.57.18.74.31,1.31.09.39-.24.8-.46,1.22-.65.44-.09.92,0,1.35,0s1.11-.35,1.57-.48c.83-.18,1.62-.49,2.45-.7.37-.14.78-.2,1.18-.18.48.09,1,.39,1.49.52.85.2,1.65.58,2.35,1.11.5.78,1.35,1.27,2.27,1.31-.4.61-.94,1.12-1.57,1.47-.52.35-1,.18-1.53.27-.4.12-.79.27-1.18.43-1.61.7-3.14,1.97-4.89,2.22-1.04.18-2.57,0-3.4.74-.57.52-.95,1.11-1.49,1.71s-1.52.91-1.56,1.49c.39.17.91-.13,1.26-.27.57-.22,1.18-.43,1.74-.61.45-.22.91-.4,1.4-.52.65-.09,1.26.12,1.92-.18.98-.48,2.03-.79,3.12-.89.56.02,1.12-.02,1.66-.13.4-.16.8-.35,1.18-.57.34-.25.71-.46,1.11-.61.44-.13.96-.18,1.4-.31s1.05-.61,1.57-.74c.47-.02.94.02,1.4.13.48,0,.95.09,1.44.09.74,0,1-.48,1.61-.79.79-.39,1.75.7,2.22,1.22.47.53,1.14.83,1.84.83.34,0,.39-.27.78-.09s.35.35.58.52c-.51.43-1.07.81-1.66,1.11-.53.38-1.02.82-1.44,1.31-.27.29-.52.59-.74.92-.34.57-.3.74-.95,1s-1.4.4-1.97.7c-.36.29-.7.61-1,.96-.35.3-.79.48-1.18.74-.43.34-.9.63-1.4.87-.4.22-1.05.44-1.05.92-.3-.09-.83-.22-1.11-.34-.83.82-1.05,1.87-2.22,2.35-.67.27-1.24.73-1.66,1.31-.34.49-.87.88-1.22,1.35,1.11,0,1.96-.74,2.97-1.11.31-.07.62-.16.92-.27.26-.13.39-.43.7-.61.49-.23,1.02-.38,1.56-.43.67-.08,1.3-.34,1.84-.74.66-.39,1.38-.67,2.13-.83.79-.27.88-1.35,1.84-1.53.61-.09,1.74.18,2.27-.12.24-.12.34-.41.22-.65-.05-.1-.13-.18-.22-.22-.09,0-.49,0-.58-.09-.2-.08-.4-.14-.61-.18-.43,0,1.26-1.4,1.57-1.49s.27-.26.48-.26c.61,0,.35.57.57.87.13.13.4.18.53.31.57-.31,1.11-.7,1.7-1.04s1.53-.44,2.22-.88.96-1.01,1.57-1.31c.83-.44,1.35.21,2.1.61.53-.39,1.23-.46,1.83-.18.57.18,1.11.96,1.79,1.01-.3.35-.53.75-.7,1.18v.7c0,.18-.39.39-.61.61-.48.43-.12.65-.3,1.11s-1.22.7-1.62.96c-.81.59-1.58,1.23-2.31,1.92-.83.69-1.51,1.55-1.97,2.53-.4.57-.87,1.08-1.4,1.53-.23.35-.49.69-.78,1.01-.31.26-.44.18-.83.34-.54.32-.94.83-1.11,1.44-.04.65-.38,1.24-.91,1.62-.36.16-.66.42-.88.74-.13.3-.13.61-.39.87s-1.23.74-1.11,1.23c.92,0,1.75-.79,2.41-1.26.37-.28.76-.53,1.18-.74.3-.13.74-.09,1-.27s.22-.43.35-.61.52-.43.74-.7.57-.74.88-1.11c.27-.33.59-.61.95-.82.52-.22,1.22,0,1.57-.4s.3-1,.57-1.4.57-.57,1.11-.79c.72-.3,1.36-.78,1.84-1.4.47-.55,1.03-1.02,1.65-1.39.35-.12.68-.3.96-.53l.79-.91-.09.08c.34-.3.39-.7.74-1,.35-.23.72-.43,1.11-.61.19-.1.36-.23.49-.4.21-.21.17-.48.34-.65.27-.3.56-.57.88-.82.34-.4.48-.49,1-.31.4.16.77.38,1.11.65.35.22.72.41,1.11.57.4.22.7.57,1.11.79.19.1.4.17.61.22-.61.79-1.75,1.4-2.05,2.35-.09.6-.09,1.2,0,1.8,0,.74-.22.83-.58,1.49-.55.99-.93,2.06-1.11,3.18-.18,1.04-.6,2.03-1.22,2.88-.54.84-.87,1.8-.96,2.79-.34,1.07-.98,2.02-1.83,2.75-.69.8-1.21,1.74-1.53,2.75-.55,1.09-.84,2.28-.88,3.49.58,0,.88-.74,1.11-1.11.33-.51.7-.99,1.11-1.44.74-.79,1.35-1.74,2.05-2.53.44-.48,1.11-.88,1.31-1.49.09-.3,0-.74,0-.95s.44-.22.7-.44c.46-.58.84-1.23,1.11-1.92.14-.23.24-.48.3-.74.13-.52-.21-.34.35-.61s.65,0,.95-.57c.22-.35,0-.88.13-1.11s.74-.34.96-.52c.29-.31.47-.69.52-1.11.13-.7,0-1.35.39-1.92s1.57-1.11.92-1.62c.27-.35.7-.4,1.11-.61s.48-.52.65-.92.57-1.83,1.11-2.05,1.66.43,2.14.65c.7.4,1.44.71,2.22.92.17.79-.58,1-.83,1.65s.18,1.11,0,1.62c-.27.74-1.05.88-.88,1.75.13.57.4.91.13,1.56-.59,1.02-.97,2.15-1.11,3.33.15,1.33-.02,2.68-.49,3.94-.21.43-.34.87-.57,1.26-.32.47-.57.99-.74,1.53-.19,1.02-.19,2.07,0,3.09.14,1,.04,2.02-.3,2.97-.11.43-.24.85-.4,1.26-.21.43-.65.88-.34,1.35.79-.27,1.22-1.57,1.61-2.22.53-.62.91-1.35,1.11-2.14.21-.92.53-1.82.95-2.66.27-.43.61-.74.4-1.26s-.83-.7-.92-1.26c.64-.49,1.31-.94,2.01-1.35.44-.31.52-.27.61-.83s-.17-1.11.18-1.57c-.07.02-.15.02-.22,0,.22-.82.55-1.61.96-2.35.27-.31.43-.7.48-1.11,0-.43-.43-.73-.39-1.26h-.18c.27-.52.79-.79,1.11-1.26.23-.54.42-1.1.57-1.66.21-.52.34-1.11.57-1.61s.27-1.26.48-1.71c.69,0,1.37.05,2.05.13.65.21,1.27.47,1.87.79.7-1.22,2.22-.39,2.22.88,0,.61-.26,1.11-.3,1.65s.13,1.22.09,1.89c-.07.65-.07,1.31,0,1.96.08.48.43,1,.39,1.44-.09.65-.57.87-.48,1.61.13.57.31,1.12.52,1.66.26.93.44,1.88.52,2.84.14.49.03,1.01-.3,1.4-.31.52-.18.52,0,1.04s.12.88.21,1.26c.13.43.23.87.31,1.31.09.88-.22,2.54.3,3.33-.35.41-.43.98-.21,1.47.39.53.95-.21,1.11-.61.11-.56.16-1.13.13-1.7.13-.56.22-1.13.27-1.71-.12-.54-.19-1.1-.22-1.65.05-.56.26-1.09.61-1.53.39-.7.22-1.11.39-1.75.09-.39.31-.43.22-.87s-.43-.4-.43-.65.48-.53.57-.79,0-.7,0-1.05c.09-.79,1-.95,1-1.79-.05-.36-.15-.72-.3-1.05-.05-.43-.08-.87-.09-1.31-.22-.59-.22-1.24,0-1.83-.04.02-.09.02-.13,0,.09-.48.4-.79.44-1.26s-.53-.92-.44-1.49c0,0,.13-.09.13-.13s.18-.13.27-.17c.22-.1.46-.13.7-.09.09,0,.18.03.26.09.27.08.4.61.52.82s.58.4.65.61,0,.65.13.88c.08.27.19.53.31.79,1.04.31.52,1.53,1.65,1.83.18.49-1.18,1.05-.12,1.35.07.51.2,1.01.39,1.49.13.5.35.98.65,1.4.18.18.26.44.22.7,0,.4-.31.61,0,.92s.48.18.65.39c.19.26.32.56.39.88.27.13.13.39.18.65,0,.48.27.57.52.88s.13.21.13.61,0,.3.31.65.26,1,.52,1.26,1.44.18,1.83.09c.31.43,0,1.11-.21,1.62s-.79.87-.22,1.22c.39.26.83.43,1.26.74.88.61-.31,1.26.39,2.05.22.26.74.3.92.61s0,.74.09,1.11c.19.41.44.78.74,1.11.57.61,1.04,1.18,1.65,1.74.31.31.74.61.79,1.01.13.65-.09.95.35,1.52.13.18.13.27.3.4-.26.38-.58.72-.95,1-.27.22-.7.4-.88.74s-.09.44-.31.7c-.37.39-.76.76-1.18,1.11-.31.3-.69.53-1.11.65-.09-.27.39-1.01.52-1.26s.83-.74.88-1.19c-.35-.09-.96.4-1.26.53-.53.26-.83.78-1.31.95s-.88.09-1.32.4-.43.65-.7.91c-.48.52-.73.52-1.47.61s-.7.31-1.11.61c-.45.3-.96.51-1.49.62-.82.12-.61-.27-.78-.83-.28-.52-.61-1.01-.98-1.46-.27-.52-.49-.27-.96-.44-.34-.15-.59-.45-.65-.82-.13-.49.27-.7.22-1.11s-.49-.87-.65-1.31c-.1-.48-.45-.86-.92-1-.69-.37-1.24-.96-1.57-1.66-.26-.39-.79-1.87-1.4-1.92-.34,0-.61.48-.79.65-.3.3-.62.58-.95.83-.27.21-.79.65-.83,1s.13.31,0,.52-.43.35-.61.49c-.52.3-.44.48-.79.91-.22.27-.57.4-.74.7-.09.31-.14.64-.13.96,0,.34-.26.7-.18,1.04.53-.17,1.11-1.22,1.53-1.65.21-.27.45-.51.7-.74.4-.35.88-.31,1.35-.57s1.44-.57,1.8.3v.58c0,.39.17.43.39.78s.22.79.39,1.11c-.87.1-1.74.13-2.62.09-.83,0-1.11.95-1.53,1.56s-.08.44-.12.96-.61.92-.7,1.35-.13.88-.27,1.31-.48.92-.65,1.4c-.09.24-.13.49-.13.74.83,0,1.18.22,1.62-.61.13-.27.18-.48.3-.74s.35-.48.53-.83.57-.95.91-1.44c.22-.3.44-.34.44-.7s-.18-.61-.18-.91c.42.12.87.17,1.31.12.43-.11.87-.15,1.31-.12.4.12.48.61.83.78s.74,0,1.11.09.18.13.35.35c.7.74.7,1.57,1.35,2.31.44.6.76,1.29.92,2.02.17.48.69.43.91.82.09.18,0,.31,0,.53s.13.26.22.43c.37.56.57,1.21.57,1.87,0,.48.39,1.18-.27,1.4s-1.4-.26-2.22.18c-.57.43-1.26.67-1.97.7-.65,0-1.4.09-1.61.79.81.18,1.65.25,2.48.21.55.04,1.11.04,1.66,0,.48,0,.87-.39,1.35-.48.42-.04.85,0,1.26.09.57,0,1.11-.09,1.66,0s1.11.43,1.47,0c.17-.15.18-.41.03-.58,0-.01-.02-.02-.03-.03-.09-.09-.26,0-.39-.13s0-.18-.13-.31c-.25-.29-.36-.67-.3-1.04,0-.22.39-.39.3-.65s-.52-.22-.65-.35c-.57-.48-.13-.73-.22-1.26s-.61-.74-.82-1.11-1.35-1.53-1.11-2.1c.13-.27.57-.48.79-.65.43-.31.43-.27.92-.22s1.04.18,1.35-.21c.3.26.91.48,1.22.08h-.13c.79-.34,1.18-1.22,1.96-1.56s1.4.12,2.14-.22c.63-.36,1.21-.82,1.71-1.35.26-.27.39-.7.7-.88s.65.09,1.04,0c.52.74-.26,1.44-.7,1.96-.28.26-.48.59-.57.96,0,.39.13.88,0,1.22s-.48.52-.65.88,0,.65,0,1.04c0,.74-.65,1.53-.61,2.36s.13,1.04-.4,1.65c-.4.5-.75,1.05-1.04,1.62.79.13,1.53.31,2.27.48.48.13.74-.12,1.11-.08s.7.3,1.01.43c.55.16,1.13.2,1.7.13.52,0,.61-.4,1.05-.53s.7.27,1.11.13.57-.48.95-.57.7.22,1.11.18.61-.31,1.04-.35c.44.04.87.04,1.31,0,.37-.19.7-.42,1.01-.7.39-.26,2.1-.48,2.05-.82,0-.18-.65-.7-.79-.88-.27-.3-.52-.62-.74-.96-.21-.34-.21-.74-.48-.95s-.61-.13-.88-.49c-.16-.36-.29-.73-.39-1.11-.18-.43-.27-.83-.44-1.26-.3-.65-1.18-.96-1.26-1.71,0-.36-.05-.71-.18-1.04-.21-.44-.52-.7-.73-1.11-.22-.34-.39-.71-.49-1.11.1-.07.2-.13.31-.18.62.44,1.34.71,2.1.79.43,0,.79,0,1.04.4s.09.78.44,1.04c.57.39,1.7,0,2.35.27.32.18.57.47.7.82.27.62.27.4.83.58.39.12.39.52.65.7s.83,0,1.22-.09c.44,0,.88-.04,1.31-.13.31-.09.88-.27,1.11,0,.09.36.09.75,0,1.11-.09.27-.4.49-.53.74-.26.72-.44,1.46-.57,2.22-.13.39,0,.79-.26,1.11s-.53.4-.62.62,0,.39,0,.57c-.27.61-.92,1.22-.88,1.92.91.13,1.79-.27,2.71-.09.67.04,1.34.13,2.01.27.69.24,1.45.24,2.14,0,.76-.2,1.55-.2,2.31,0,.58-.4-1.04-1.44-1.43-1.35s-.62.34-1.11.26c-.39-.12-.76-.28-1.11-.48-.46-.17-.92-.32-1.4-.43-.44-.13-.61-.22-.52-.7.08-.72.26-1.42.52-2.1,0-.13.21-.22.26-.4s-.08-.39-.08-.61c0-.43.3-.52.57-.88.18-.3.39-.59.61-.87.3-.27.43-.35.52-.74.13-.74,0-1.49.61-2.14.44-.48,1.35-.52,1.96-.7.7-.32,1.34-.76,1.89-1.31.27-.25.63-.38,1-.35.43.13.48.7.74,1.11.18.32.38.62.61.91.27.27.65.4.79.79s.22.7.35,1.05,0,.95.43,1.11c.52-.39.13-2.27,0-2.84h0c.13-.43.22-.65,0-1.04s-.52-.49-.65-.79h-.09c0-.35-.39-.57-.48-.88-.09-.33-.09-.67,0-1,0-.53-.18-.49-.49-.92s-.13-.74-.7-.7-1.4.79-1.92,1.04c-.7.35-.96.74-1.74.88.38-.69.82-1.35,1.31-1.96.11-.35.19-.7.26-1.05.18-.3.37-.59.58-.87.12-.27.21-.65.61-.65.28.38.67.66,1.11.82.48.22.88.53,1.35.74.54.14,1.05.36,1.53.65.39.31.57.79,1,1.05.44-.52-.26-1.57-.61-1.96-.24-.3-.5-.58-.79-.83-.3-.31-.91-.48-1.18-.83s-.18-.83-.34-1.18-.53-.57-.88-.88-1.31-1.53-1.92-1.4-.7,1.49-.79,1.87c-.28.61-.68,1.16-1.18,1.62-.27.27-.67.31-.83.61s0,.79-.18,1.11c-.22.34-.52.62-.88.82-.3.22-.83.22-.91.65s.12.79.12,1.11c.02.41-.06.81-.26,1.18-.22.4-.52.79-.79,1.18s-.4.88-.74,1.11c-.24-.27-.57-.45-.92-.52-.61-.13-.82.21-1.11-.4s-.13-.65-.83-.79c-.39-.06-.8-.03-1.18.09-.96.13-1.11-.79-1.8-1.22s-1.4-.57-1.83-1.05c-.22-.26-.18-.61-.43-.82-.28-.25-.61-.43-.96-.53-.34-.12-.79-.21-1.11-.3-.4-.02-.79-.02-1.19,0-.37-.56-.84-1.05-1.39-1.44-.53-.35.21-1.44-.22-1.79.26-.35.61-.62.65-1.01,0-.22-.13-.52-.09-.7.13-.52.79-.79.92-1.31.03-.47.08-.94.17-1.4.42-.75.92-1.45,1.49-2.1.36-.57.53-1.24.49-1.92v-.48c0-.21-.4-.31-.4-.44s.49-.7.65-.92c.26-.33.46-.7.57-1.11,0-.57-.17-1.11.09-1.62.4-.56.74-1.15,1.01-1.79.13-.65.79-1.57.7-2.27,0-.17-.27-.26-.22-.48s.31-.43.35-.57c.33-.42.6-.89.78-1.4.13-.39.22-.79.35-1.11.03-.42.1-.83.22-1.23.12-.21.57-.43.79-.65.18-.19.33-.41.43-.65.22-.41.4-.83.57-1.26.04-.38.13-.75.27-1.11.26-.44.48-.31.95-.52.27-.13.65-.44,1.01-.4s.65.52.74.96c.17.82,1,1.44.95,2.35s-.3,1.71.27,2.54c.22.3.61.48.79.78.2.33.29.72.26,1.11-.03.54,0,1.08.09,1.61.14.38.3.75.49,1.11.3.91-.09,1.79,0,2.66.06.4.15.79.26,1.18,0,.57.22.65.49,1.18s0,1.05.17,1.62c.19.51.43,1.01.7,1.49.31.48.27,1.01.49,1.49.29.52.67.99,1.11,1.4.13-.79-.48-1.4-.31-2.27.18-.49.22-1.02.13-1.53-.12-.4-.19-.81-.21-1.22.1-.81.15-1.62.17-2.44-.03-.35-.15-.68-.34-.96-.35-.48-.61-.48-.35-1.11.23-.35.44-.72.61-1.11.07-.46.07-.93,0-1.4v-.61c0-.18.09-.39.09-.61-.02-.44-.07-.88-.17-1.31-.13-.52-.92-1.31-.79-1.87s.65-.57.79-1.01c0-.45-.12-.89-.35-1.26-.22-.52-.22-1.11-.39-1.66s-.74-1.11-.65-1.65c.3-.31.91,0,1.35-.13s.82-.39,1.22-.52c.57-.22,1.7-.27,1.65-1.11-.38-.01-.76.06-1.11.22-.09-.52-.92-.39-1.26-.22-.57.35-.7.7-1.4.74-.48-.57.18-1.44.65-1.79.67-.39,1.46-.52,2.22-.35.81.13,1.59.4,2.31.79.4.12.75.38.96.74.23.37.55.69.92.92.31.28.52.64.61,1.04.17.36.3.73.39,1.11-.02.43.06.86.22,1.26.16.35.28.73.34,1.11.24.79.56,1.55.96,2.27.11.46.2.93.27,1.4.21.7.65.79,1.26,1.04s.43.44.48,1.01c.28.77.52,1.56.7,2.36.27.44.6.85.96,1.22.43.48.17.34,0,.83-.12.38-.04.8.21,1.11.54.74,1.04,1.52,1.49,2.32.22.48.18,1.04.65,1.39.22.18.49.18.7.31s.27.35.44.48c-.08-.83-.25-1.64-.49-2.44-.17-.96-.61-1.92-.79-2.93-.08-.48.13-.92.09-1.4-.1-.51-.3-1-.57-1.44-.15-.34-.28-.69-.39-1.04-.25-.38-.46-.77-.65-1.18-.07-.49-.19-.97-.35-1.44-.15-.48-.21-.98-.18-1.49.13-.94.05-1.9-.26-2.79-.09-.23-.21-.45-.35-.65-.17-.22-.52-.22-.74-.44s-.21-.87-.39-1.26c-.36-.83-.66-1.69-.88-2.57-.09-.48,0-1.04-.09-1.49s-.34-.48-.39-.83c.49-.28,1-.52,1.53-.7.18-.06.38-.06.57,0,.3.13.13.4.52.27.22,0,.22-.27.4-.39s.43-.18.61-.31c.39-.27.52-.7.91-.92.45.53.84,1.1,1.19,1.71.39.61,1.26,1.11,1.47,1.74.13.44-.12.83.18,1.19s.92.61,1.26,1c.35.36.62.79.79,1.26.13.58,0,.65.44,1.11s.57.7,1.4.7c.16.73.4,1.43.73,2.1.28.62.66,1.19,1.11,1.7.43.5.8,1.04,1.11,1.62.12.25.26.49.44.7.21.3.3.3.65.52.14-.36.14-.75,0-1.11-.27-.57-.31-.57-.13-1.18.31-.91.13-1.92-.48-2.67-.49-.74-1.01-1.11-1.28-1.92-.12-.4-.12-.82,0-1.22.09-.61-.21-.74-.65-1.11-.63-.51-1.17-1.13-1.56-1.84-.48-.67-.92-1.37-1.31-2.1-.21-.68-.5-1.32-.88-1.92-.4-.43-1.05-.96-1.05-1.62.31-.08.44,0,.65-.21s.44-.44.65-.61c.44-.31.92-.65,1.4-.96.92-.52,2.05-.22,2.97-.83,0,0,0,.13-.09.22.35.22.74.39,1.11.61s.79.79,1.22.79c.39-.08.77-.23,1.11-.43.4-.09.79-.31,1.11-.35.17.57-.65,1.96-1.11,2.36.29.22.62.38.96.48.43.28.88.53,1.35.74.39.1.77.26,1.11.48.22.22.4.48.61.7.86.57,1.78,1.04,2.75,1.4.4.22,1.11.31,1.28.7s-.09.88.17,1.35c.53,1.01,1.62.79,2.54,1.22.46.28.88.64,1.22,1.05.32.25.58.58.74.95.55.77,1.32,1.36,2.22,1.66.17.09.95.52,1.04.27s-.65-.79-.79-.92c-.32-.39-.67-.76-1.04-1.11-.61-.52-.35-.87-.61-1.56-.41-.93-.99-1.78-1.71-2.5-.31-.3-.65-.52-.96-.82s-.95-.44-1.35-.79-.48-.83-.78-1.19c-.44-.52-1.35-.34-1.89-.87-.26-.22-.39-.61-.65-.83-.22-.19-.45-.37-.7-.52-.47-.57-1-1.1-1.56-1.57-.56-.45-.93-1.08-1.05-1.79-.27-.7-.64-1.35-1.11-1.93.65-.23,1.25-.57,1.79-1,0,0,0,.13-.09.21.13-.21.7-.21.88-.48.09-.09,0-.3.09-.48.12-.19.28-.36.48-.48.35-.18.74.08,1.11.21.82.31,1.7.61,2.57.92.38.07.73.25,1,.52.18.29.46.51.79.61.43.07.85.16,1.26.27.35.15.69.34,1.01.57.62.51,1.42.76,2.22.7.37-.08.76.02,1.04.27.37.32.8.57,1.26.74.88.26,1.44,1,2.27,1.4s1.79.61,2.62.87,1.84.49,2.71.83c.87.38,1.78.67,2.71.88-.82-1.22-2.22-2.84-3.84-2.75-.54.11-1.08-.14-1.35-.61-.25-.33-.54-.63-.88-.88-.31-.21-.64-.37-1-.48-.42-.28-.79-.62-1.11-1.01-.28-.29-.6-.54-.95-.74-.4-.21-.96-.3-1.4-.52-.46-.19-.85-.53-1.11-.96-.3-.48-.57-.52-1.11-.65-.87-.16-1.68-.54-2.36-1.11-.43-.52-1.26-.92-1.65-1.49-.09-.09-.18-.13-.18-.27.39-.12.52-.57.88-.7s.39-.12.61-.26.34-.31.52-.44c.7-.5,1.51-.83,2.36-.95.36-.11.73-.2,1.11-.27h1.4c.87-.11,1.75-.11,2.62,0,1.05.27,2.14.36,3.23.27,0,.43.44.7.79.83.27.05.55.07.83.08.36.11.73.17,1.11.18.08.57-.22.83.43,1.19.34-.3.77-.47,1.22-.49.43,0,.79.31,1.18.31.38-.06.75-.17,1.11-.31.34-.09.61-.34.95-.34.18-.74-1.22-1.92-1.83-2.22-.95-.51-1.99-.83-3.06-.96-.65.06-1.3-.08-1.87-.39-.34-.27-.61-.61-.91-.83-.84-.38-1.76-.53-2.67-.43h-.57c.4-.4.96-.35,1.4-.57.44-.2.86-.43,1.26-.7.33-.23.61-.53.83-.88.65-.65,1.75-.57,2.45-1.18.39-.35.39-.67.95-.67.43.06.84.2,1.22.4.88.39,1.84.43,2.75.79.88.26,1.82.26,2.71,0,.91-.15,1.84-.15,2.75,0,1.28.22,2.63.13,3.94.27.46.09.93.11,1.4.08.57-.08.61-.3.09-.48-.95-.2-1.88-.46-2.79-.79-.48-.32-1.02-.55-1.57-.7-.32-.09-.65-.09-.96,0-.21,0-.34.18-.57.18-.95-.14-1.84-.55-2.57-1.18-.43-.35-.52-.53-1.11-.61l-1.71-.27c-.27,0-.35,0-.52-.13.54-.61,1.26-1.03,2.05-1.22.69-.19,1.31-.58,1.79-1.11,1.22-1.57,3.19-1.53,5.02-1.93l.88-.26-.09.09c.91-.4,1.74-.92,2.53.12.22-.21,0-.57.22-.73s.74-.18,1-.18c.81.16,1.63.19,2.45.09.57-.33,1.17-.61,1.79-.83.72-.22,1.47-.35,2.22-.4-.87-.44-1.82-.66-2.79-.65-.89-.1-1.77-.29-2.62-.57-.95-.28-1.96-.32-2.93-.09-.92.22-1.7.74-2.75.44h-.31c1.01-1.01,2.22-1.89,3.11-2.93.66-.87,1.38-1.7,2.14-2.48.3-.22.54-.5.7-.83.09-.18,0-.52.18-.7.3-.35.74-.22,1.04-.7.39-.74.83-1.4,1.22-2.14.18-.31.31-.65.49-.96s.61-.57.82-.91c.14-.25.26-.51.35-.79,0-.27-.13-.7-.09-.96s.52-.39.79-.65c.18-.17.29-.41.3-.65.32-.24.62-.52.88-.83.44-.7-.34-1.61,0-2.22.22-.4.74-.58.88-1.11.04-.46.04-.93,0-1.4.09-.31.65-1.01.52-1.71l.02.03Z"/>
  <path class="c" d="M97.39,134.09c-.13-.22,0-.4-.09-.61-.05-.19-.15-.36-.3-.49-.62-.62-.95-1.47-.92-2.35.04-.72-.29-1.42-.88-1.84-.3-.12-.48.74-.48,1.11-.04.42-.04.84,0,1.26.09.34.4.57.52.96s.18.78.31,1.11.18.7.3,1.04c.16.33.34.65.53.96.18.36.34.73.48,1.11.09.27.09.96.57.88s.44-.79.57-1c.3-.34.41-.79.31-1.23-.13-.44-.7-.54-.92-.92Z"/>
  <path class="c" d="M286.69,165.79c-.31-.19-.58-.44-.79-.74-.09-.16-.21-.31-.34-.44-.18-.08-.38-.14-.58-.17-.26.02-.53.02-.79,0l-.39-.12c-.52-.22-1.44-.27-1.66.39-.12.39.7.27.58.48s-.27.09-.4.18c-.07.1-.1.23-.09.35,0,.12.09.17.27.21h0c.13,0,.22,0,.34.09.18-.02.36-.02.53,0,.44.11.88.24,1.31.4.16.08.34.11.52.08.18,0,.35-.17.52-.17.44,0,.79.3,1.22.17.18,0,.31-.21.27-.34s-.34-.28-.52-.35Z"/>
</svg>