<?xml version="1.0" encoding="UTF-8"?>
<svg id="a" data-name="Layer_1" xmlns="http://www.w3.org/2000/svg" viewBox="0 0 400 300">
  <defs>
    <style>
      .c {
        fill: #fff;
      }
    </style>
  </defs>
  <path class="c" d="M136,160.6c0-.54-.54-.27-.54-.27-.82.54-1.09.54-2.17.54s-2.99-.54-2.99-2.72v-20.93s0-.27.27-.27h4.89s.27.27.27-.27,1.09-5.16,1.09-5.16c0,0,0-.27-.27-.27h-6.25s-.27,0-.27-.27v-2.72c0-1.63,0-3.8.54-5.44,0,0,.27-.27-.27-.27s-3.53-.54-3.8-.54-.54.27-.54.27c-2.45,5.16-7.34,8.97-13.05,10.6,0,0-.27,0-.27.27v3.26c0,.54.27.27.27.27h3.26c.27,0,.27.27.27.27v21.47c0,6.25,2.72,9.78,9.51,9.78,6.25,0,6.52-.27,11.41-3.53,0,0,.27,0,.27-.54-.27,0-1.63-2.99-1.63-3.53ZM59.9,130.16c-3.26,0-5.71,1.36-8.97,3.53,0,0-.27.27-.27-.27v-2.72c-.27-.54-.54-.27-.54-.27l-15.76,4.08s-.27,0-.27.27v3.8c0,.54.27.27.27.27l1.9-.54s.54,0,.54.27v35.06s0,.54-.54.54h-1.63s-.54,0-.54.54v3.53c0,.54.54.54.54.54h20.38s.27,0,.27-.54v-3.53c0-.54-.54-.54-.54-.54h-3.8c-.54,0-.54-.54-.54-.54v-6.25c0-.27.27-.27.27-.27,1.9,1.09,4.89,1.36,7.07,1.36,11.14,0,17.67-10.33,17.67-20.66s-6.79-17.67-15.49-17.67ZM55.28,162.77c-3.8,0-4.89-2.72-4.89-5.98v-17.94c0-.54.54-.54.54-.54l1.9-.27c2.45,0,8.97.54,8.97,13.86-.27,8.15-2.17,10.87-6.52,10.87ZM309.93,130.16c3.8,0,9.78-1.63,9.78-6.25,0-3.8-3.53-4.62-6.79-4.62s-8.15,2.72-8.15,6.25c0,2.99,2.17,4.62,5.16,4.62Z"/>
  <path class="c" d="M113.71,163.05h-1.63c-.27,0-.27-.82-.27-.54v-20.11c0-8.7-5.71-12.23-14.13-12.23-2.99,0-5.71.54-8.7,1.63,0,0-.54.27-.27-.54.27-.27.27-.82.27-.82,0,0,.27-.27-.27-.54s-3.26-1.09-3.8-1.36c-.27,0-.27.27-.27.27,0,0-4.35,10.87-4.62,11.14-.27.54,0,.54,0,.54,0,0,3.53,1.36,4.08,1.36.27.27.54,0,.54,0,1.9-2.45,4.08-4.08,8.15-4.08,3.26,0,4.89,1.36,4.89,4.35v1.63l-10.33.27c-6.79,0-12.23,4.89-12.23,13.32,0,6.79,5.16,11.14,11.96,11.14,4.08,0,7.34-1.63,10.06-4.08,0,0,.54-.82.54,0s.27,1.63.54,2.72c0,.54.27.27.27.27h14.4s.54.27.54-.27v-3.53c.82-.27.82-.54.27-.54ZM97.95,155.44c0,2.72-.54,5.44-4.08,5.44-3.8,0-4.62-3.26-4.62-5.98,0-3.8,2.72-6.25,6.52-6.25h1.9c.54,0,.27.27.27.27,0,0,0,6.52,0,6.52ZM364.56,124.18c-1.09-.82-2.17-1.36-3.53-1.36s-2.45.54-3.26,1.36c-.82.82-1.36,2.17-1.36,3.26,0,1.36.54,2.45,1.36,3.53s2.17,1.36,3.26,1.36c1.36,0,2.45-.54,3.53-1.36.82-1.09,1.36-2.17,1.36-3.53s-.27-2.45-1.36-3.26ZM364.29,130.43c-.82.82-1.9,1.36-2.99,1.36s-2.17-.54-2.99-1.36c-.82-.82-1.09-1.9-1.09-2.99s.27-2.17,1.09-2.99,1.9-1.09,2.99-1.36c1.09,0,2.17.54,2.99,1.36.82.82,1.09,1.9,1.09,2.99,0,1.36-.27,2.17-1.09,2.99ZM175.95,162.77h-1.63c-.27,0-.27-.54-.27-.54v-19.84c0-8.7-5.71-12.23-14.13-12.23-2.99,0-5.71.54-8.7,1.63,0,0-.54.27-.27-.54.27-.27.27-.82.27-.82,0,0,.27-.27-.27-.54s-3.26-1.09-3.8-1.36c-.27,0-.27.27-.27.27,0,0-4.35,10.6-4.62,11.14-.27.54,0,.54,0,.54,0,0,3.53,1.36,4.08,1.36.27.27.54,0,.54,0,1.9-2.45,4.08-4.08,8.15-4.08,3.26,0,4.89,1.36,4.89,4.35v1.63l-10.33.27c-6.79,0-12.23,4.89-12.23,13.32,0,6.79,5.16,11.14,11.96,11.14,4.08,0,7.34-1.63,10.06-4.08,0,0,.54-.82.54,0s.27,1.63.54,2.72c0,.54.27.27.27.27h14.4s.54.27.54-.27v-3.53c.82-.27.82-.82.27-.82ZM160.18,148.64v6.79c0,2.72-.54,5.44-4.08,5.44-3.8,0-4.62-3.26-4.62-5.98,0-3.8,2.72-6.25,6.52-6.25h1.9c.27-.27.27,0,.27,0ZM359.94,162.77h-1.63c-.27,0-.27-.54-.27-.54v-19.84c0-8.7-5.71-12.23-14.13-12.23-2.99,0-5.71.54-8.7,1.63,0,0-.54.27-.27-.54.27-.27.27-.82.27-.82,0,0,.27-.27-.27-.54s-3.26-1.09-3.8-1.36c-.27,0-.27.27-.27.27,0,0-4.35,10.6-4.62,11.14s0,.54,0,.54c0,0,3.53,1.36,4.08,1.36.27.27.54,0,.54,0,1.9-2.45,4.08-4.08,8.15-4.08,3.26,0,4.89,1.36,4.89,4.35v1.63l-10.33.27c-6.79,0-12.23,4.89-12.23,13.32,0,6.79,5.16,11.14,11.96,11.14,4.08,0,7.34-1.63,10.06-4.08,0,0,.54-.82.54,0s.27,1.63.54,2.72c0,.54.27.27.27.27h14.4s.54.27.54-.27v-3.53c.82-.27.82-.82.27-.82ZM344.18,148.64v6.79c0,2.72-.54,5.44-4.08,5.44-3.8,0-4.62-3.26-4.62-5.98,0-3.8,2.72-6.25,6.52-6.25h1.9c.27-.27.27,0,.27,0Z"/>
  <path class="c" d="M363.48,126.36c0-.54-.27-1.09-.82-1.36-.27,0-.82-.27-1.36-.27h-1.9v5.44h.82v-2.17h.82c.54,0,.82,0,1.09.27s.54.54.54,1.09v.82h.82v-1.09c0-.27,0-.54-.27-.82s-.54-.54-.82-.54c.27,0,.54,0,.82-.27,0-.27.27-.54.27-1.09ZM361.84,127.17h-1.63v-1.63h.82c.54,0,.82,0,1.09.27.27,0,.27.27.27.82,0,.27,0,.54-.54.54ZM321.62,163.32c0-.54-.27-.27-.27-.27h-1.9c-.54,0-.27-.27-.27-.27v-32.07c0-.54-.27-.27-.27-.27l-15.76,4.35s-.27,0-.27.27v3.53c0,.54.54.27.54.27,0,0,1.09-.27,1.9-.27.54,0,.27.27.27.54v23.37s0,.27-.27.27h-2.17s-.27,0-.27.27v3.8c0,.54.27.27.27.27h18.48c.54,0,.27-.27.27-.27v-3.53h-.27ZM299.88,163.05h-2.17c-.27,0-.27-.27-.27-.27v-21.74c0-4.08-1.36-10.33-10.87-10.33-5.16,0-8.7,2.72-12.5,5.71,0,0-.27.54-.27,0v-5.71c-.27-.54-.54-.27-.54-.27l-16.04,4.35s-.27,0-.27.27v3.8c0,.27.27.27.27.27,0,0,1.36-.27,1.9-.54.82-.27.54,0,.54,0v23.92s0,.27-.27.27h-2.17s-.27-.27-.27.27v3.8c0,.54.27.27.27.27h18.75s.27,0,.27-.27v-3.8c.27-.27-.27-.27-.27-.27h-2.17c-.27,0-.27-.27-.27-.27v-20.11c0-.27.27-.54.27-.54,1.63-1.36,3.53-2.72,5.98-2.72,1.9,0,4.08,1.09,4.08,3.26v20.38s0,.27-.27.27h-2.17s-.27,0-.27.27v3.8c0,.27.27.27.27.27h18.48s.27,0,.54-.27v-3.8c-.27-.54-.54-.27-.54-.27ZM213.18,144.84c0-8.7-7.07-10.87-7.07-12.23,0-.82.54-1.63,1.36-1.63q1.63,0,2.45.54s.27.27.27,0,1.36-5.71,1.36-5.98c.27-.82-.27-.82-.27-.82h-2.45c-4.08,0-5.44,1.09-6.25,3.8,0,0-.54,1.9-.82,2.45,0,.54-.54.27-.54.27-1.9-.27-4.08-1.09-7.88-1.09-8.15,0-16.85,4.62-16.85,14.95,0,7.34,5.98,11.69,12.5,12.77,0,0,1.09,0,0,.54-1.9.54-5.71,2.99-10.33,3.53,0,0-.54,0-.27.54,0,.27,1.36,3.53,1.63,3.8,0,.27.54.27.54.27,2.17-.54,8.15,0,9.24.27.82,0,0,.27,0,.27-2.99.54-6.79,2.72-6.79,6.25,0,5.98,6.79,7.34,13.32,7.34,4.62,0,15.49-1.9,15.49-9.78s-12.23-9.51-18.48-10.06c-1.09,0,0-.27,0-.27,9.24-2.17,19.84-4.62,19.84-15.76ZM194.7,169.02c.27-.27.54-.27.54-.27,2.45,1.36,4.35,2.72,4.35,5.98,0,1.9-1.09,2.72-2.99,2.72-2.17,0-2.99-1.9-2.99-3.8,0-1.63.54-4.08,1.09-4.62ZM188.99,139.67c0-3.53,1.09-4.89,3.8-4.89,5.71,0,7.88,11.14,7.88,14.95,0,3.53-1.09,4.89-3.8,4.89-5.71.27-7.88-10.87-7.88-14.95Z"/>
  <path class="c" d="M235.74,130.16c-11.96,0-21.2,7.34-21.2,19.02s9.24,19.02,21.2,19.02,21.47-7.34,21.47-19.02-9.24-19.02-21.47-19.02ZM238.19,162.77c-7.61,0-9.78-13.32-9.78-18.75,0-2.72,0-8.15,5.16-8.15,7.61,0,9.78,13.32,9.78,18.75,0,3.8-1.09,8.15-5.16,8.15Z"/>
</svg>