<?xml version="1.0" encoding="UTF-8"?>
<svg id="a" data-name="Layer_1" xmlns="http://www.w3.org/2000/svg" viewBox="0 0 400 300">
  <defs>
    <style>
      .c {
        fill: #fff;
      }
    </style>
  </defs>
  <path class="c" d="M80.7,141.25l-1.49-1.63-1.56-1.19-.97-.9-.74-.74-.75-.82-.37-.52h-.07l-.3-.75-.15-.89v-.85l.15-1.07.67-1.93.75-2.3.36-1.42.15-1.48-.15-1.27-.36-.96-.6-.82-.67-.75-1.07-.81-2.13-.9-2.6-.67-1.93-.15-4.02-.22-2.23.07-2.53.52-1.86.52-2.39,1.07-1.78,1.26-1.71,1.49-1.87,2.13-1.33,2.01-1.49,3.13-1.07,2.83-.6,2.3-.37.75-1.07,1.41-.51.9-.45.97-.45,1.48-.15,1.07v1.07l.15.67.22.52.22.3v.07l.37.3.3.07h.36l.37-.15.3-.37.07-.6.07-1.07v-1.07l.3-.6.37-.22h.9l.66.15.9.37.9.52,1.07.89.82.75,1.27,1.49.74,1.07.75,1.34.6,1.56-.07.45-.6.82-1.41,1.63-1.07.9-.9.6-.74.07h-.75l-.75-.22-1.07-.6-.81-.6-.6-.67-.45-.66-.3-.67-.15-.67.04-1.01-.07-.6-.3-.3-.36-.07-.45.15-.3.37-.22.45-.07.44v1.49l.22,1.07.37.97.45.9.59.81.67.82,1.07.97,1.18.97,1.27,1.07,1.07,1.12,1.12,1.33,1.07,1.79.66,1.18.75,1.49.07.51.67.97.75.67,1.07.6,1.49.22h.74l.82.07.3.15.22.21.15.45v1.07l.22.37.45.07.74-.07.52-.3.22-.45.07-.45.07-.67.07-.51.07-.22.15-.15h.75l.15.22.07.37.07,1.07.3.6.36.3.15.07h1.49l.75-.37h.06l.45-.67.3-.97v-.06l.07-1.12.22-1.07.15-.45h.07l4.17-2.38,3.64-2.38,1.94-1.56,1.63-1.42,1.19-1.26c0-.07.07-.07.07-.15l1.56-2.13.97-1.93.51-1.07.3-1.19.22-1.56v-2.61l-.74-2.89-.91-1.66ZM61.36,161.26l-.45.37-.52.07.07-.07-.45-.07-.22-.07-.89-.82-1.19-.52-.97-.07h-2.23l-.6.15-.66.22h-.45l-.45-.15-.22-.22-.15-.29-.07-1.34.22-.9.67-1.93.89-2.01.52-.97.52-.67,6.7,8.48c.09.27.06.57-.07.82ZM69.69,155.98c-4.34.02-7.87-3.47-7.89-7.81-.02-4.34,3.47-7.87,7.81-7.89,4.34-.02,7.87,3.47,7.89,7.81,0,0,0,0,0,.01,0,4.33-3.48,7.85-7.81,7.88Z"/>
  <path class="c" d="M119.74,148.39c-2.18-1.53-4.66-2.57-7.28-3.05l-7.37-1.72c-1.91-.38-3.78-.95-5.58-1.71-1.27-.63-2.08-1.93-2.08-3.35-.07-1.56.73-3.02,2.08-3.8,1.69-.98,3.63-1.45,5.58-1.33,1.79-.06,3.58.31,5.2,1.07,2.05,1,3.37,3.05,3.42,5.33h8.53c-.15-4.47-1.78-7.89-4.98-10.27-3.35-2.35-7.36-3.58-11.45-3.49-5.33,0-9.45,1.26-12.2,3.71-2.69,2.37-4.21,5.79-4.16,9.38,0,4.16,1.41,7.14,4.27,9.08,1.72,1.18,4.77,2.23,9.23,3.2l4.53,1.07c2.01.38,3.97,1.02,5.8,1.93,1.16.64,1.88,1.87,1.87,3.2,0,2.37-1.27,4.01-3.8,4.92-1.66.51-3.39.74-5.13.66-3.57,0-6.03-.89-7.47-2.6-.9-1.26-1.46-2.73-1.63-4.27h-8.47c-.18,4.01,1.59,7.86,4.76,10.33,3.2,2.45,7.47,3.72,13.1,3.72s9.6-1.27,12.56-3.8c2.9-2.33,4.56-5.88,4.47-9.6,0-3.79-1.27-6.69-3.8-8.62Z"/>
  <polygon class="c" points="153.81 138.35 143.69 138.35 133.43 150.03 133.43 127.34 125.4 127.34 125.4 169.29 133.43 169.29 133.43 159.48 136.78 155.98 144.29 169.29 154.18 169.29 142.65 149.95 153.81 138.35"/>
  <path class="c" d="M175.3,155.08h0c0,1.65-.3,3.29-.9,4.83-.98,2.21-3.25,3.55-5.65,3.35-2.13,0-3.64-.81-4.38-2.38-.46-1.28-.67-2.65-.6-4.01v-18.75h-8.33v18.75c-.14,2.77.32,5.53,1.34,8.11,1.56,3.34,4.68,4.98,9.29,4.98,1.41-.01,2.81-.21,4.17-.6,1.38-.52,2.64-1.3,3.72-2.3.41-.37.77-.8,1.07-1.27.3-.44.52-.74.6-.89v4.38h7.88v-31.09h-8.26v16.88h.04Z"/>
  <rect class="c" x="186.91" y="127.27" width="8.11" height="42.02"/>
  <rect class="c" x="198.43" y="127.27" width="8.11" height="42.02"/>
  <path class="c" d="M224.17,144.3c1.65-.16,3.26.54,4.27,1.86.61.95,1.02,2.01,1.19,3.13h8.4c-.45-4.46-1.94-7.47-4.39-9.29s-5.65-2.6-9.6-2.6c-4.62,0-8.18,1.48-10.78,4.46s-3.95,7.14-3.95,12.49c-.18,4.14,1.09,8.21,3.57,11.53,2.38,2.98,6.03,4.47,11.08,4.47s8.78-1.79,11.31-5.33c1.54-2.03,2.47-4.46,2.68-7h-8.33c-.09,1.46-.61,2.86-1.49,4.02-1.04,1.14-2.55,1.71-4.08,1.56-2.51.14-4.78-1.46-5.5-3.86-.6-1.77-.88-3.63-.82-5.5-.06-1.94.21-3.88.82-5.73,1.01-2.73,2.88-4.19,5.63-4.19Z"/>
  <path class="c" d="M267.15,167.09c-.34-.66-.52-1.39-.51-2.13-.07-1.42-.07-2.6-.07-3.57v-14.26c0-3.72-1.34-6.32-4.02-7.66-2.82-1.4-5.93-2.09-9.08-2.02-5.28,0-9,1.34-11.16,4.1-1.42,1.95-2.22,4.29-2.3,6.7h7.81c.13-1.04.54-2.01,1.19-2.83.82-.97,2.13-1.42,4.16-1.42,1.36-.09,2.71.17,3.95.75.95.5,1.49,1.54,1.34,2.6-.02,1.06-.71,1.98-1.72,2.3-1.05.4-2.15.65-3.27.75l-2.75.3c-2.51.17-4.97.86-7.21,2.01-2.98,1.71-4.47,4.46-4.47,8.33-.17,2.58.84,5.1,2.75,6.85,1.95,1.65,4.45,2.5,7,2.38,2.08.04,4.14-.48,5.95-1.49,1.45-.82,2.75-1.88,3.86-3.13.07.75.15,1.34.22,1.87.14.6.31,1.2.52,1.78h8.81v-1.13c-.41-.27-.76-.64-1-1.07ZM258.46,157.19c-.07,2.68-.82,4.54-2.31,5.58-1.42,1.04-3.14,1.59-4.91,1.57-1.01.01-2.01-.3-2.83-.9-.83-.76-1.26-1.86-1.18-2.98-.08-1.42.67-2.76,1.93-3.42,1.17-.56,2.43-.93,3.72-1.07l1.86-.37c.73-.12,1.45-.32,2.13-.6.55-.21,1.07-.49,1.57-.81l.02,3Z"/>
  <path class="c" d="M295.27,139.99c-2.2-1.78-4.98-2.68-7.81-2.54-2.25-.06-4.46.6-6.32,1.87-1.17.98-2.17,2.13-2.98,3.42v-4.54h-7.87v31.09h8.11v-16.81c-.06-1.63.22-3.25.82-4.76.94-2.26,3.21-3.67,5.65-3.5,2.23,0,3.72.82,4.53,2.38.52,1.19.75,2.5.67,3.8v18.89h8.33v-20.97c-.09-3.87-1.12-6.7-3.14-8.33Z"/>
  <path class="c" d="M352.47,138.05v.15l-6.4,22.91-6.76-22.91h-8.53v-10.93h-8.33v14.93c-1.78-3-5.04-4.82-8.53-4.76-3.81-.13-7.45,1.55-9.82,4.53-2.45,3.05-3.64,7.21-3.64,12.56-.17,4.09,1.15,8.11,3.71,11.31,2.19,2.82,5.58,4.45,9.15,4.39,1.94.07,3.86-.37,5.58-1.27,1.63-.99,2.99-2.36,3.95-4.01v4.27h7.88v-29.68l10.93,31.09c-.06.65-.24,1.27-.52,1.86-.21.8-.68,1.5-1.33,2.01-.56.38-1.2.61-1.87.67-.76.1-1.54.13-2.3.07l-1.07-.07v6.55c.9.07,1.57.07,1.94.07h1.71c3.57,0,6.03-.75,7.22-2.13s2.83-5.06,4.91-11.01l10.67-30.57-8.53-.03ZM320.85,160.81c-1.16,1.71-3.14,2.68-5.2,2.53-2.06.13-4.02-.86-5.13-2.6-1.23-2.09-1.82-4.49-1.71-6.91-.07-2.34.49-4.65,1.63-6.7,1.11-1.78,3.11-2.81,5.2-2.68,1.5,0,2.95.52,4.1,1.48,1.93,1.64,2.9,4.39,2.9,8.19.11,2.36-.52,4.7-1.79,6.69h0Z"/>
  <path class="c" d="M358.57,167.36c0-.67-.37-.97-1.19-.97h-1.33v3.42h.52v-1.49h.59l.9,1.49h.6l-.97-1.49c.5,0,.9-.41.9-.92,0-.01,0-.03,0-.04ZM357.15,167.88h-.47v-1.12h.66c.37,0,.75.07.75.52s-.49.6-.94.6Z"/>
  <path class="c" d="M357.22,165.13c-1.61-.03-2.95,1.25-2.98,2.87,0,.01,0,.02,0,.03-.02,1.63,1.28,2.96,2.9,2.99s2.96-1.28,2.99-2.9c.02-1.63-1.28-2.96-2.9-2.99,0,0,0,0-.01,0ZM357.22,170.56c-1.38.06-2.55-1-2.61-2.38-.06-1.38,1-2.55,2.38-2.61s2.55,1,2.61,2.38c0,.03,0,.05,0,.08.08,1.32-.93,2.45-2.25,2.52-.04,0-.09,0-.13,0Z"/>
</svg>