<?xml version="1.0" encoding="UTF-8"?>
<svg id="a" data-name="Layer_1" xmlns="http://www.w3.org/2000/svg" viewBox="0 0 400 300">
  <defs>
    <style>
      .c {
        fill: #fff;
      }
    </style>
  </defs>
  <path class="c" d="M269.18,162.74v-4.3c-1.95,1.71-6,1.79-9.57,2.43-3.57.73-6.81,1.95-6.81,6.17s3.32,5.35,7.05,5.35c9.01,0,9.33-7.14,9.33-9.65ZM120.1,153.49h18.74c-1.05-5.84-3.57-8.92-9.17-8.92-7.3,0-9.41,5.68-9.57,8.92ZM161.41,153.49h18.74c-1.06-5.84-3.57-8.92-9.17-8.92-7.3,0-9.41,5.68-9.57,8.92ZM243.06,151.79h-11.27c-.72-4.71-3.73-7.22-8.52-7.22-7.38,0-9.82,7.47-9.82,13.63s2.36,13.22,9.57,13.22c5.36,0,8.44-3.41,9.17-8.51h9.79c1.97-5.68,7.77-7.32,13.56-8.12,7.06-1.05,13.63-.81,13.63-5.52,0-4.94-3.41-5.68-7.47-5.68-4.37,0-7.21,3.65-7.62,8.19h-11.03ZM359.94,160.79h-30.25c.32,7.31,3.89,10.63,10.3,10.63,4.62,0,8.35-2.84,9.09-5.43h10.14c-3.25,9.88-10.14,14.11-19.63,14.11-10.23,0-17.45-5.44-20.19-13.91-.4,10.49-9.76,13.91-19.13,13.91s-18.18-3.25-19.55-12.97v2.51c0,3.81.41,7.62,1.46,9.32h-11.69c-.41-1.29-.73-2.67-.81-4.05-3.64,3.81-9,5.19-14.12,5.19-7.27,0-13.18-3.33-14.14-10.48-3.19,6.82-9.75,10.48-18.3,10.48-10.77,0-18.53-6.46-20.61-16.14v15h-11.52v-18.17h-29.57c.32,7.31,3.89,10.63,10.31,10.63,4.62,0,8.35-2.84,9.08-5.43h10.14c-3.25,9.88-10.14,14.11-19.63,14.11-12.26,0-20.2-7.81-21.29-19.31h-29.92c.32,7.31,3.9,10.63,10.3,10.63,4.62,0,8.35-2.84,9.09-5.43h10.14c-3.25,9.88-10.14,14.11-19.63,14.11-13.22,0-21.41-9.09-21.41-22.07s8.68-22.14,21.41-22.14c11.91,0,18.69,8.35,20.13,18.6,1.47-10.78,9.67-18.6,21.18-18.6s17.54,7.05,19.67,16.14v-30.98h11.52v31.75c2-10.01,9.34-16.91,20.86-16.91,9.14,0,17.58,4.43,19.39,13.53,1.42-11.06,10.73-13.53,19.55-13.53,8.35,0,18.41,1.87,18.41,11.93v17.52h10.78c.08,5.02,4.3,7.05,8.85,7.05,3.32,0,7.54-1.29,7.54-5.35,0-3.49-4.79-4.71-13.06-6.49-6.65-1.46-13.3-3.81-13.3-11.2,0-10.7,9.25-13.47,18.25-13.47s17.61,3.08,18.5,13.38h-10.95c-.32-4.45-3.74-5.68-7.86-5.68-2.6,0-6.41.5-6.41,3.9,0,4.14,6.49,4.7,13.06,6.25,5.05,1.15,10.02,2.81,12.18,6.87-.09-.84-.11-1.7-.11-2.58,0-12.57,8.68-22.14,21.41-22.14,14.28,0,21.17,12,20.36,24.9ZM329.68,153.49h18.73c-1.06-5.84-3.56-8.92-9.16-8.92-7.3,0-9.41,5.68-9.57,8.92ZM102.04,124.45v12.58h8.43v6.68h-8.43v21.79c0,3.89.97,4.87,4.86,4.87,1.22,0,2.35-.08,3.57-.32v9c-1.95.33-4.46.4-6.73.4-7.06,0-13.22-1.62-13.22-9.98v-25.76h-16.04v-5.38c-.41-6.97-5.36-8.75-11.44-8.75-4.06,0-8.76,1.7-8.76,6.56,0,4.45,2.76,5.03,17.28,8.77,4.22,1.06,17.2,3.73,17.2,16.86,0,10.63-8.35,18.57-24.09,18.57-12.82,0-24.82-6.33-24.66-20.6h12.33c0,7.71,6,10.71,12.82,10.71,4.46,0,11.27-1.29,11.27-7.22,0-6.25-8.68-7.31-17.19-9.57-8.6-2.27-17.28-5.6-17.28-16.46,0-11.84,11.2-17.52,21.66-17.52,11.69,0,22.47,4.93,23.16,17.36h3.75v-12.58h11.52Z"/>
</svg>