<?xml version="1.0" encoding="UTF-8"?>
<svg id="b" data-name="Layer_2" xmlns="http://www.w3.org/2000/svg" viewBox="0 0 400 300">
  <defs>
    <style>
      .c {
        fill: #fff;
      }
    </style>
  </defs>
  <path class="c" d="M76.41,144.27l-16.99-23.53-16.99,23.53v-34.25h38.46l-13.08,18.11,11.66,16.14M108.2,144.27l-24.74-34.25h44.07v34.57c-8.62,2.23-37.86,11.99,0,34.93v10.46h-13.18c-2.3-1.34-4.57-2.72-6.79-4.17-2.78-1.8-5.47-3.7-8.01-5.75-2.53-2.05-4.9-4.27-6.9-6.69-1.95-2.43-3.54-5.13-3.92-7.89-.47-2.75.52-5.49,2.44-7.87.95-1.19,2.11-2.27,3.37-3.27,1.26-1,2.63-1.9,4.05-2.73,2.85-1.66,5.92-3.02,9.07-4.2,3.15-1.17,6.38-2.17,9.67-2.94l-.06-.38c-3.4.31-6.78.86-10.14,1.61-3.36.75-6.71,1.71-9.99,3.05-1.64.68-3.26,1.45-4.85,2.39-1.59.93-3.16,1.99-4.62,3.34-.75.65-1.44,1.42-2.1,2.24-.62.85-1.21,1.77-1.66,2.79-.5,1-.75,2.12-.97,3.23-.13,1.12-.2,2.27-.06,3.37.23,2.21.9,4.25,1.76,6.07.87,1.82,1.92,3.47,3.07,4.97,2.33,2.97,4.91,5.53,7.66,7.8,2.17,1.79,4.4,3.46,6.68,5.03h-32.07c-36.04-32.08,27.59-44.08,37.42-45.71M35.43,196.98h99.11v-93.96H35.43v93.96ZM122.17,124.42c0-4.21-3.41-7.63-7.63-7.63s-7.63,3.41-7.63,7.63,3.41,7.63,7.63,7.63,7.63-3.41,7.63-7.63M167.54,154.93v-20.37h8.03v-5.89h-23.52v5.89h8.06v20.37h7.43ZM227.96,145.72c-.63,1.14-1.48,2.02-2.55,2.64-1.08.63-2.28.94-3.6.94s-2.53-.31-3.6-.94c-1.08-.62-1.93-1.51-2.55-2.64-.63-1.14-.94-2.44-.94-3.92s.31-2.78.94-3.92c.62-1.14,1.48-2.02,2.55-2.64,1.07-.62,2.28-.94,3.6-.94s2.53.31,3.6.94c1.08.63,1.93,1.51,2.55,2.64.63,1.14.94,2.44.94,3.92s-.31,2.78-.94,3.92M234.51,148.82c1.26-2.07,1.89-4.41,1.89-7.01s-.63-4.94-1.89-7.01c-1.26-2.07-3-3.7-5.21-4.88-2.21-1.17-4.71-1.76-7.48-1.76s-5.27.59-7.48,1.76c-2.21,1.18-3.95,2.8-5.21,4.88-1.26,2.08-1.89,4.41-1.89,7.01s.63,4.94,1.89,7.01c1.26,2.08,3,3.7,5.21,4.88,2.21,1.18,4.71,1.76,7.48,1.76s5.27-.59,7.48-1.76c2.21-1.17,3.95-2.8,5.21-4.88M185.77,144.69h10.13v10.24h7.43v-26.25h-7.43v9.86h-10.13v-9.86h-7.43v26.25h7.43v-10.24h0ZM255.31,141.22c-.77.66-1.93.99-3.45.99h-4.13v-7.69h4.13c1.52,0,2.68.34,3.45,1.01.77.67,1.16,1.63,1.16,2.85s-.39,2.17-1.16,2.83M258.83,146.68c1.65-.8,2.92-1.91,3.81-3.32.89-1.41,1.33-3.07,1.33-4.97s-.47-3.69-1.43-5.16c-.95-1.46-2.3-2.59-4.05-3.38-1.75-.79-3.81-1.18-6.19-1.18h-12v26.26h7.43v-6.98h1.88c2.17,0,2.76.86,3.65,2.17l3.28,4.81h7.95l-5.66-8.25ZM165.83,169.65c-.42.19-.88.29-1.36.29s-.93-.11-1.31-.32c-.38-.22-.68-.52-.89-.9-.21-.39-.32-.82-.32-1.32,0-.77.23-1.39.7-1.85.47-.46,1.08-.69,1.84-.69.84,0,1.56.33,2.16.99l1.6-1.45c-.44-.53-.99-.93-1.65-1.21-.66-.28-1.41-.42-2.24-.42-.95,0-1.8.2-2.56.59-.75.39-1.34.94-1.77,1.65-.42.7-.64,1.5-.64,2.39s.21,1.69.64,2.39,1.01,1.25,1.75,1.65c.75.39,1.58.59,2.52.59.66,0,1.32-.1,1.98-.29.66-.19,1.25-.47,1.75-.84v-3.69h-2.23v2.44h0ZM173.92,169.61c.27-.29.41-.7.41-1.21s-.14-.91-.41-1.2c-.27-.29-.62-.43-1.04-.43s-.77.14-1.04.43c-.27.29-.41.69-.41,1.2s.14.92.41,1.21c.27.29.62.44,1.04.44s.77-.15,1.04-.44M170.88,171.51c-.59-.3-1.06-.73-1.39-1.27-.33-.54-.5-1.16-.5-1.84s.17-1.29.5-1.83c.33-.54.8-.96,1.39-1.26.59-.3,1.26-.45,2-.45s1.42.15,2.01.45,1.06.72,1.39,1.26c.33.54.5,1.15.5,1.84s-.17,1.3-.5,1.84c-.33.54-.79.97-1.39,1.27-.59.3-1.26.46-2.01.46s-1.4-.15-2-.46M183.94,169.9v-1.63h3.95v-1.88h-3.95v-1.5h4.49v-1.95h-6.98v8.9h7.15v-1.95h-4.65ZM194.68,164.96l-1.74,4.21-1.65-4.21h-2.48l2.84,6.89h2.49l2.85-6.89h-2.3,0ZM199.72,166.88c-.25.21-.41.5-.48.86h2.82c-.07-.36-.23-.65-.48-.86-.25-.21-.56-.32-.93-.32s-.68.11-.94.32M204.29,169.01h-5.01c.1.36.3.63.59.82.29.19.66.29,1.1.29.33,0,.62-.05.86-.14.24-.09.48-.25.73-.46l1.27,1.32c-.67.75-1.65,1.12-2.94,1.12-.8,0-1.51-.15-2.12-.46-.61-.3-1.08-.73-1.42-1.27-.33-.54-.5-1.16-.5-1.84s.16-1.29.49-1.82c.33-.54.78-.96,1.35-1.26.58-.3,1.22-.46,1.95-.46s1.31.14,1.87.43c.56.28,1,.69,1.33,1.23.33.54.49,1.18.49,1.91,0,.02-.01.22-.04.6M208.58,165.08c-.39.16-.71.39-.96.71v-.83h-2.3v6.89h2.42v-3.17c0-.58.15-1,.44-1.28.29-.28.7-.42,1.21-.42.14,0,.33.01.55.04v-2.17c-.51,0-.96.08-1.35.24M215.98,164.96l-1.7,4.21-1.69-4.21h-2.48l2.95,6.98c-.1.2-.23.35-.38.44-.15.09-.34.14-.57.14-.19,0-.39-.04-.58-.11-.19-.07-.35-.17-.49-.3l-.84,1.69c.23.19.53.34.9.45.37.11.74.17,1.1.17.72,0,1.33-.17,1.83-.52.5-.34.92-.94,1.27-1.79l2.98-7.17h-2.3ZM227.85,164.96l-1.46,4.21-1.42-4.21h-2.06l-1.46,4.17-1.41-4.17h-2.29l2.45,6.89h2.34l1.35-3.75,1.3,3.75h2.34l2.45-6.89h-2.12ZM237.14,165.61c-.52-.51-1.21-.76-2.07-.76-.41,0-.79.06-1.14.19-.36.13-.67.31-.93.56v-3.18h-2.42v9.43h2.42v-3.33c0-.54.13-.95.38-1.22.25-.27.58-.41,1-.41.75,0,1.13.47,1.13,1.41v3.55h2.42v-3.94c0-1.03-.26-1.79-.78-2.3M241.84,166.88c-.25.21-.41.5-.48.86h2.82c-.07-.36-.23-.65-.48-.86-.25-.21-.56-.32-.93-.32s-.68.11-.93.32M246.41,169.01h-5.01c.1.36.3.63.59.82.29.19.66.29,1.1.29.33,0,.62-.05.86-.14.24-.09.48-.25.73-.46l1.27,1.32c-.67.75-1.65,1.12-2.94,1.12-.81,0-1.51-.15-2.12-.46-.61-.3-1.08-.73-1.42-1.27-.33-.54-.5-1.16-.5-1.84s.16-1.29.49-1.82c.33-.54.78-.96,1.35-1.26.58-.3,1.22-.46,1.95-.46s1.31.14,1.87.43c.56.28,1,.69,1.33,1.23.33.54.49,1.18.49,1.91,0,.02-.01.22-.04.6M250.7,165.08c-.39.16-.71.39-.96.71v-.83h-2.3v6.89h2.42v-3.17c0-.58.15-1,.44-1.28.29-.28.7-.42,1.21-.42.14,0,.33.01.55.04v-2.17c-.51,0-.96.08-1.35.24M255.29,166.88c-.25.21-.41.5-.48.86h2.82c-.07-.36-.23-.65-.48-.86-.25-.21-.56-.32-.93-.32s-.68.11-.94.32M259.86,169.01h-5.01c.1.36.3.63.59.82.29.19.66.29,1.1.29.33,0,.62-.05.86-.14.24-.09.48-.25.73-.46l1.27,1.32c-.67.75-1.65,1.12-2.94,1.12-.8,0-1.51-.15-2.12-.46-.61-.3-1.08-.73-1.42-1.27-.33-.54-.5-1.16-.5-1.84s.16-1.29.49-1.82c.33-.54.78-.96,1.35-1.26.58-.3,1.22-.46,1.95-.46s1.31.14,1.87.43c.56.28,1,.69,1.33,1.23.33.54.49,1.18.49,1.91,0,.02-.01.22-.04.6M260.88,171.56c.28.27.62.41,1.03.41s.76-.14,1.04-.41c.28-.27.41-.61.41-1.03s-.14-.77-.41-1.03c-.27-.26-.62-.39-1.04-.39s-.76.13-1.04.39c-.28.26-.41.61-.41,1.03s.14.76.42,1.03M269.15,171.64c.62.21,1.27.31,1.94.31.75,0,1.39-.11,1.91-.34.52-.22.9-.53,1.16-.91.25-.39.38-.81.38-1.28,0-.56-.15-1-.44-1.33-.29-.33-.64-.58-1.05-.74-.41-.16-.95-.32-1.61-.48-.52-.12-.93-.23-1.23-.34-.3-.11-.55-.25-.76-.44s-.3-.44-.3-.74c0-.42.18-.75.54-1.02.36-.26.9-.39,1.62-.39.41,0,.82.06,1.25.18.42.12.82.3,1.19.54l.42-1.02c-.36-.25-.8-.45-1.31-.58-.51-.14-1.03-.2-1.55-.2-.75,0-1.39.11-1.89.34-.51.23-.89.53-1.14.91-.25.38-.38.81-.38,1.28,0,.57.15,1.02.44,1.35.29.33.64.58,1.06.74.41.16.95.32,1.62.48.53.13.95.24,1.24.34.29.1.54.25.74.44.2.19.3.44.3.74,0,.42-.18.75-.55,1-.36.25-.92.38-1.65.38-.56,0-1.1-.1-1.63-.29-.53-.19-.96-.44-1.3-.74l-.47.99c.36.33.85.6,1.47.81M279.49,170.58c-.26.21-.58.32-.95.32-.34,0-.6-.1-.78-.29-.18-.19-.27-.47-.27-.84v-3.65h1.93v-1h-1.93v-1.47h-1.22v1.47h-1.14v1h1.14v3.7c0,.68.19,1.2.56,1.56.37.36.9.55,1.58.55.28,0,.55-.04.81-.12.26-.08.48-.2.66-.35l-.38-.88h0ZM284.6,170.67c.34-.21.58-.5.74-.88v-.94h-1.88c-1.03,0-1.55.35-1.55,1.04,0,.34.13.61.39.8.26.19.63.29,1.09.29s.87-.1,1.21-.31M285.82,165.73c.5.46.74,1.14.74,2.05v4.07h-1.16v-.89c-.2.31-.49.55-.87.72-.38.17-.82.25-1.34.25-.75,0-1.36-.18-1.81-.55-.45-.36-.68-.84-.68-1.44s.22-1.07.65-1.43c.43-.36,1.12-.54,2.06-.54h1.93v-.24c0-.53-.15-.93-.46-1.21-.31-.28-.76-.42-1.35-.42-.4,0-.79.07-1.17.2-.38.13-.7.31-.97.53l-.51-.92c.35-.28.76-.49,1.25-.64.48-.15,1-.22,1.54-.22.93,0,1.65.23,2.14.69M293.34,165.11l-2.33,5.39-2.35-5.39h-1.27l2.97,6.73-.22.47c-.16.38-.34.65-.54.81-.2.16-.45.24-.74.24-.46,0-.86-.17-1.21-.5l-.52.92c.2.2.46.36.77.46.31.11.63.16.96.16.54,0,1.01-.14,1.39-.42.39-.28.72-.76,1.01-1.45l3.27-7.41h-1.2ZM304.25,168.61l-1.92-4.36-1.92,4.36h3.84ZM304.69,169.62h-4.73l-.98,2.22h-1.31l4.03-8.9h1.26l4.04,8.9h-1.33l-.98-2.22h0ZM313.66,165.79c-.5-.5-1.18-.74-2.04-.74-.53,0-1.01.09-1.43.28-.42.19-.75.45-1,.8v-1.02h-1.17v6.74h1.22v-3.47c0-.72.19-1.27.57-1.66.38-.39.9-.58,1.56-.58.58,0,1.03.17,1.35.5.31.33.47.82.47,1.47v3.74h1.22v-3.88c0-.96-.25-1.68-.76-2.18M321.19,165.11l-2.33,5.39-2.35-5.39h-1.27l2.97,6.73-.22.47c-.16.38-.34.65-.54.81-.2.16-.45.24-.74.24-.46,0-.86-.17-1.21-.5l-.52.92c.2.2.46.36.77.46.31.11.63.16.96.16.54,0,1.01-.14,1.39-.42.39-.28.72-.76,1.01-1.45l3.27-7.41h-1.2,0ZM332.41,165.11l-2.01,5.39-2-5.39h-1.03l-2.03,5.37-1.96-5.37h-1.16l2.51,6.74h1.17l1.97-5.11,1.95,5.11h1.17l2.52-6.74h-1.09,0ZM340.25,165.79c-.5-.5-1.18-.74-2.04-.74-.51,0-.97.09-1.38.27-.41.18-.74.43-1,.75v-3.65h-1.22v9.43h1.22v-3.47c0-.72.19-1.27.57-1.66.38-.39.9-.58,1.56-.58.58,0,1.03.17,1.35.5.31.33.47.82.47,1.47v3.74h1.22v-3.88c0-.96-.25-1.68-.76-2.18M344.47,166.61c-.39.36-.63.82-.69,1.4h4.32c-.07-.57-.3-1.03-.69-1.39-.39-.36-.88-.54-1.47-.54s-1.07.18-1.47.53M349.24,168.89h-5.47c.08.59.34,1.07.78,1.43.44.36,1,.54,1.66.54.81,0,1.45-.27,1.95-.81l.67.79c-.3.36-.68.63-1.14.81-.45.19-.96.28-1.52.28-.71,0-1.34-.15-1.89-.44-.55-.29-.98-.7-1.28-1.23-.3-.53-.45-1.12-.45-1.78s.15-1.24.44-1.77c.29-.53.69-.93,1.21-1.23.51-.29,1.09-.44,1.74-.44s1.22.15,1.72.44c.5.29.9.7,1.18,1.23.28.53.43,1.13.43,1.81,0,.09,0,.22-.03.37M352.94,165.35c-.42.2-.73.5-.94.89v-1.13h-1.17v6.74h1.22v-3.36c0-.73.19-1.29.57-1.68.38-.39.9-.59,1.56-.59.12,0,.21,0,.28.01v-1.18c-.59,0-1.1.1-1.51.3M357.05,166.61c-.39.36-.63.82-.69,1.4h4.32c-.07-.57-.3-1.03-.69-1.39-.39-.36-.88-.54-1.47-.54s-1.07.18-1.47.53M361.83,168.89h-5.47c.08.59.34,1.07.78,1.43.44.36,1,.54,1.66.54.81,0,1.45-.27,1.95-.81l.67.79c-.3.36-.68.63-1.14.81-.45.19-.96.28-1.52.28-.71,0-1.34-.15-1.89-.44-.55-.29-.98-.7-1.28-1.23-.3-.53-.45-1.12-.45-1.78s.15-1.24.44-1.77c.29-.53.69-.93,1.21-1.23.51-.29,1.09-.44,1.74-.44s1.22.15,1.72.44c.5.29.9.7,1.18,1.23.28.53.43,1.13.43,1.81,0,.09,0,.22-.03.37M363.1,171.68c.17.17.37.25.61.25s.43-.08.59-.25c.17-.17.25-.38.25-.63s-.08-.46-.24-.62c-.16-.16-.36-.24-.6-.24s-.44.08-.61.25c-.17.17-.25.37-.25.62s.08.46.25.63M363.91,162.58c.2.12.37.28.48.49.12.21.18.43.18.67s-.06.46-.18.67c-.12.21-.28.37-.49.49s-.43.18-.68.18-.47-.06-.68-.18c-.2-.12-.37-.29-.48-.49-.12-.21-.18-.43-.18-.67s.06-.46.18-.67c.12-.21.28-.37.48-.49.2-.12.43-.18.68-.18s.47.06.68.18h0ZM363.78,164.69c.17-.1.3-.23.4-.4.1-.17.14-.35.14-.54s-.05-.38-.14-.54c-.1-.16-.23-.3-.39-.39-.17-.1-.35-.15-.55-.15s-.38.05-.55.15c-.17.1-.3.23-.4.4-.1.17-.14.35-.14.54s.05.38.14.54c.1.16.23.3.39.39.17.1.35.15.55.15s.39-.05.56-.15ZM363.74,163.77c-.05.07-.11.13-.2.16l.29.44h-.29l-.23-.39h-.34v.39h-.25v-1.31h.54c.17,0,.3.04.4.12.09.08.14.19.14.33,0,.1-.02.19-.07.26h0ZM362.97,163.77h.29c.1,0,.17-.02.22-.07.05-.05.08-.11.08-.19s-.03-.14-.08-.19c-.05-.04-.13-.06-.22-.06h-.29v.51h0Z"/>
</svg>