<?xml version="1.0" encoding="UTF-8"?>
<svg id="a" data-name="Layer_1" xmlns="http://www.w3.org/2000/svg" viewBox="0 0 400 300">
  <defs>
    <style>
      .c {
        fill: #fff;
      }
    </style>
  </defs>
  <path class="c" d="M134.73,200.39s-.19-.1-1.46-.38c-.24-.05-.57-.19-.71-.47-.05-.05-.05-.14-.1-.19-.71-1.42-1.42-2.88-2.18-4.26-3.03-5.53-6.39-10.17-7.48-11.69-.1-.1-.05-.24.1-.29,1.46-.71,2.79-1.51,3.97-2.36,1.36-.99,2.51-2.22,3.41-3.64.85-1.42,1.33-3.03,1.33-4.83,0-1.51-.39-3-1.14-4.31-.78-1.33-1.87-2.45-3.17-3.26-1.99-1.33-4.83-1.99-8.42-1.99h-18.97c-.3-.02-.56.22-.57.52,0,.02,0,.03,0,.05v1.28c0,.85.19,1.28.71,1.37.33.05.8.19,2.22.38.29.06.51.31.52.61v32.46c0,.31-.22.57-.52.61-1.37.24-1.85.33-2.22.38-.52.1-.71.47-.71,1.37v1.28c0,.33.24.57.57.57h11.36c.31,0,.57-.26.57-.57v-1.23c0-.71-.14-1.23-.61-1.37,0,0-.43-.1-2.32-.43-.29-.05-.48-.28-.52-.57v-12.92c0-.14.1-.28.24-.33,1.37-.24,7.71-1.37,7.71-1.37.71-.19.76-.05,1.13.52.38.57,2.55,3.6,4.54,6.96,3.03,5.02,3.78,6.81,3.78,7.29,0,.19-.24.33-.47.38-1.37.24-1.61.33-1.94.38-.52.1-.71.48-.71,1.37v1.28c0,.29.24.52.52.57h11.64c.31,0,.57-.26.57-.57v-1.28c-.05-.66-.19-1.23-.66-1.32ZM114.81,181.6c-1.04.24-3.03.57-6.01,1.04-.19.05-.38-.09-.38-.33v-15.52c.06-.21.25-.37.47-.37h5.2c7.48,0,11.26,1.99,11.26,6.43,0,1.79-.61,3.26-1.7,4.5-1.51,1.66-4.16,3.31-8.85,4.26ZM341.38,200.39s-.19-.1-1.47-.38c-.24-.05-.57-.19-.71-.47-.05-.05-.05-.14-.1-.19-.71-1.42-1.42-2.88-2.18-4.26-3.03-5.53-6.39-10.17-7.48-11.69-.1-.1-.05-.24.1-.29,1.39-.67,2.72-1.46,3.97-2.36,1.36-.99,2.51-2.22,3.41-3.64.85-1.42,1.33-3.03,1.33-4.83,0-1.52-.38-2.98-1.14-4.31-.78-1.33-1.87-2.45-3.17-3.26-1.99-1.33-4.83-1.99-8.42-1.99h-18.97c-.3-.02-.56.22-.57.52,0,.02,0,.03,0,.05v1.28c0,.85.19,1.28.71,1.37.33.05.8.19,2.22.38.29.06.51.31.52.61v32.46c0,.31-.22.57-.52.61-1.37.24-1.85.33-2.22.38-.52.1-.71.47-.71,1.37v1.28c0,.33.24.57.57.57h11.36c.31,0,.57-.26.57-.57v-1.23c0-.71-.14-1.23-.61-1.37,0,0-.43-.1-2.32-.43-.29-.05-.48-.28-.52-.57v-12.92c0-.14.1-.28.24-.33,1.37-.24,7.71-1.37,7.71-1.37.71-.19.76-.05,1.13.52s2.55,3.6,4.54,6.96c3.03,5.02,3.78,6.81,3.78,7.29,0,.19-.24.33-.47.38-1.37.24-1.61.33-1.94.38-.52.1-.71.48-.71,1.37v1.28c0,.29.24.52.52.57h11.5c.31,0,.57-.26.57-.57v-1.28c.05-.66-.1-1.23-.52-1.32h0ZM321.45,181.6c-1.04.24-3.03.57-6.01,1.04-.19.05-.38-.09-.38-.33v-15.52c.06-.21.25-.37.47-.37h5.2c7.48,0,11.26,1.99,11.26,6.43,0,1.79-.61,3.26-1.7,4.5-1.51,1.66-4.16,3.31-8.85,4.26ZM262.78,182.68h-14.48c-.31,0-.56.25-.57.57v1.28c0,.71.14,1.23.61,1.37.48.14,4.69.71,5.25.85.61.1.71.57.71.85v8.04s-.05,1.52-2.08,3.12c-.9.71-2.13,1.23-3.69,1.66-1.52.38-3.03.57-4.45.57-2.32,0-4.5-.47-6.58-1.37-2.04-.87-3.87-2.17-5.35-3.83-2.84-3.17-4.26-7.1-4.26-11.78,0-2.32.37-4.64,1.13-6.86.65-2.18,1.71-4.22,3.12-6.01,1.37-1.8,3.03-3.17,5.02-4.21,2.04-1.06,4.32-1.59,6.62-1.56,2.94,0,5.59.71,7.76,2.08l.1.05c1.37.85,2.79,2.51,3.55,4.35.28.76.33,1.23.37,1.7.1.52.48.71,1.38.71h1.28c.3.01.55-.22.57-.52,0-.02,0-.03,0-.05v-11.03c.01-.3-.22-.56-.52-.57-.02,0-.03,0-.05,0h-1.28c-.85,0-1.04.1-1.19.61-.09.57-.24,1.04-.47,1.33-.04.05-.14.1-.19.14-.12.05-.26.05-.38,0-1.49-.67-3.04-1.17-4.64-1.51-2.05-.45-4.15-.69-6.25-.71-3.92-.03-7.79.97-11.21,2.89-3.35,1.87-6.14,4.6-8.09,7.9-1.94,3.38-2.95,7.22-2.93,11.12,0,2.93.57,5.82,1.7,8.51,1.11,2.65,2.81,5.02,4.97,6.91,1.42,1.18,2.98,2.18,4.64,2.93,1.7.76,3.5,1.37,5.3,1.7,1.84.38,3.71.57,5.59.57,3.45,0,7.14-.76,10.93-2.22,3.83-1.61,5.68-3.03,5.68-4.5v-10.55c0-.24,0-.47.24-.61.28-.14,1.79-.62,1.79-.62.38-.19.8-.47.85-1.37v-1.28c.05-.38-.19-.66-.52-.66h0ZM94.23,169.72l-1.04-6.44s-.05-.09-.05-.09c-.05-.19-.17-.36-.33-.47-.05-.05-.19-.05-.19-.05h-32.84c-.33,0-.57.33-.57.57l-1.09,6.53c-.09.38.1.71.62.71h1.28c1.18,0,1.66,0,1.89-.61,0,0,.52-1.33.99-2.08.17-.31.4-.58.66-.81.8-.61,1.61-.76,3.59-.76h5.87c.26,0,.47.21.47.47v32.65c0,.47-.47.61-.52.61l-2.22.38c-.52.09-.71.47-.71,1.37v1.28c0,.28.24.61.71.61h11.07c.38,0,.71-.33.71-.61v-1.28c0-.85-.19-1.28-.71-1.37-.33-.05-.85-.19-2.22-.38-.31-.04-.53-.31-.52-.62v-32.65c0-.26.21-.47.48-.47h5.72c1.99,0,2.79.19,3.6.76.24.19.43.48.66.8.47.76.99,2.08.99,2.08.24.61.71.61,1.89.61h1.28c.43-.05.61-.52.52-.76ZM299.54,195.28h-1.28c-1.18,0-1.66,0-1.89.61,0,0-.76,1.85-1.28,2.6-.17.31-.39.58-.66.81-.47.37-1.37.76-2.84.76h-13.86c-.34,0-.61-.28-.61-.61v-14.48c0-.33.28-.61.61-.61h12.21c.14,0,.28.04.33.19,0,0,.48,1.13.48,1.18.19.48.47.71,1.37.71h1.32c.48,0,.61-.24.61-.71v-6.29c0-.37-.14-.71-.61-.71h-1.32c-.85,0-1.13.24-1.37.71-.05.04-.47,1.13-.52,1.13-.09.1-.19.19-.33.24h-12.16c-.36,0-.65-.27-.66-.63,0-.01,0-.02,0-.03v-13.34c0-.33.29-.61.61-.61h11.45c1.99,0,2.51.09,3.31.71.24.19.43.47.66.8.47.76.99,2.08.99,2.08.24.62.71.62,1.89.62h1.28c.52,0,.71-.47.62-.71l-1.09-6.53c-.05-.19-.17-.36-.33-.47-.05-.04-.19-.04-.19-.04h-27.64c-.33,0-.57.33-.57.57v1.28c0,.71.14,1.23.61,1.37l2.13.38c.57.1.71.24.71.62v32.46c0,.28-.2.53-.48.57-1.37.24-1.94.38-2.27.43-.57.1-.76.57-.76,1.42v1.23c0,.38.37.61.71.61h29.86c.24,0,.48-.33.48-.52l1.09-7.05c.1-.28-.1-.71-.61-.71h0ZM217.64,195.27h-1.28c-1.18,0-1.66,0-1.89.62,0,0-.76,1.85-1.28,2.6-.17.31-.4.58-.66.8-.47.38-1.37.76-2.84.76h-13.91c-.34,0-.61-.28-.61-.62v-14.48c0-.33.28-.61.61-.61h12.21c.14,0,.29.04.33.19,0,0,.47,1.13.47,1.18.19.47.47.71,1.37.71h1.32c.48,0,.62-.24.62-.71v-6.29c0-.37-.14-.71-.61-.71h-1.33c-.85,0-1.13.24-1.37.71-.04.05-.47,1.14-.52,1.14-.1.09-.19.19-.33.24h-12.16c-.36,0-.65-.28-.66-.63,0-.01,0-.02,0-.03v-13.34c0-.33.28-.61.61-.61h11.5c1.99,0,2.51.09,3.31.71.24.19.43.47.66.8.47.76.99,2.08.99,2.08.24.61.71.61,1.89.61h1.28c.52,0,.71-.47.61-.71l-1.09-6.53c-.05-.19-.17-.36-.33-.47-.05-.05-.19-.05-.19-.05h-27.63c-.33,0-.57.33-.57.57v1.28c0,.71.14,1.23.61,1.37,0,0,.24.05,2.13.38.19.05.43.1.57.24l.05.05c.05.09.1.19.1.28v32.46c0,.28-.19.53-.47.57-1.37.24-1.94.38-2.27.43-.57.1-.76.57-.76,1.42v1.23c0,.38.38.61.71.61h29.86c.24,0,.47-.33.47-.52l1.09-7.05c.09-.24-.1-.66-.62-.66ZM180.77,200.29c-.24-.05-.28-.05-.76-.14l-.99-.19s-.24,0-.33-.19c-.09-.1-1.75-4.54-1.8-4.73-4.78-12.54-5.49-14.01-14.29-32.17-.38-.71-1.04-1.14-1.7-1.14-.74.01-1.41.46-1.7,1.14-.19.33-10.08,23.28-13.87,32.13l-1.52,3.45-.33.71s-.14.33-.24.43c-.1.08-.21.15-.33.19-1.37.24-1.94.33-2.22.38-.52.1-.71.47-.71,1.37v1.28c0,.28.24.61.71.61h11.07c.38,0,.71-.33.71-.61v-1.28c0-.85-.19-1.28-.71-1.37-.33-.05-1.32-.28-2.7-.52-.09-.05-.14-.05-.19-.1-.33-.14-.48-.47-.38-.71,0,0,.99-2.75,1.42-3.74.52-1.28,1.14-2.65,1.52-3.74.24-.57.38-1.04.57-1.42.15-.37.5-.61.9-.61h14.86c.33,0,.9-.05,1.04.47.05.19,1.37,3.6,2.18,6.06.19.61.43,1.51.61,2.22.05.24.19.66.24.85.14.43.1.71-.14.9-.05.05-.1.05-.1.05-1.37.24-1.51.24-1.84.33-.52.1-.71.47-.71,1.37v1.28c0,.28.24.61.71.61h11.07c.57,0,.71-.33.71-.61v-1.28c-.1-.76-.29-1.14-.76-1.28ZM166.58,185.95h-12.54c-.24,0-.47-.24-.33-.52l6.15-15.05c3.6,7.48,5.53,11.5,7,14.95.05.1.05.14.05.14.1.19-.05.48-.33.48h0ZM161.7,106.32l15.14,8.66s.09.05.14,0c.85-.57,10.03-7.43,23.9-16.8,0,0,1.89-1.23,3.55-.05l24.84,17.37c.1.1.24.1.37.05l15.48-6.49c.64-.25,1.36-.18,1.94.19,3.5,2.18,17.13,10.83,18.64,11.73,1.04.62.33,1.66-.57,1.19-1.61-.85-16.99-8.99-17.93-9.47-.99-.47-1.18-.52-2.32,0,0,0-9.47,4.45-10.46,4.92-.99.47-.43,1.61,1.18.9,1.61-.71,8.14-3.31,9.37-3.83,1.23-.52,2.22.09,1.42,1.28-.85,1.18-1.89,2.6-2.75,3.74-.85,1.19.24,1.37,1.85,1.28,1.61-.09,1.42,1.56-.33,1.99-1.8.43-2.22.57-2.22,1.75s2.65,2.79,6.01,4.16c3.36,1.37,23.47,9.7,23.47,9.7,1.8.62,1.04,2.18-.19,1.8-1.13-.33-26.92-8.8-31.23-11.59-4.31-2.79-13.34-9.32-37.29-24.99,0,0-1.19-.76-2.32-.09l-20.35,13.2s-4.26,2.93-5.25,3.59c-.8.57-.1,1.8,2.32.33l21.87-12.78s2.27-1.23,1.94,1.13c0,0-.66,5.68-.85,7.19-.19,1.51-.85,4.35,1.66,4.21,0,0,3.12-.33,1.51,2.18-.09.14-13.77,19.45-14.19,19.78-.8.62-1.94.14-1.66-1.42,0,0,2.51-9.84,2.55-10.13.33-1.52-.85-2.08-2.03-.9-1.23,1.18-9.65,9.27-10.65,10.22-.99.99-2.22.1-1.66-1.04.57-1.18,5.44-10.41,6.06-11.64.66-1.23-.61-2.13-1.8-.99-1.18,1.13-12.11,10.69-12.11,10.69-4.21,3.45-15.19,2.6-30.76,12.92-2.22,1.37-2.94-.57-1.75-1.56,1.86-1.56,3.69-3.15,5.49-4.78.9-.85.76-2.27-1.56-1.7-5.12,1.21-10.25,2.41-15.38,3.6,0,0-5.21,1.42-5.59.19-.28-.99,1.52-1.61,1.52-1.61,0,0,25.46-7.57,52.33-26.55.1-.04.05-.19,0-.19l-10.79-6.62c-.56-.3-1.24-.3-1.8,0,0,0-13.58,7.52-14.43,7.95-.8.47-.33,1.37,1.28.61,1.09-.57,7.52-3.74,9.46-4.68,2.18-1.09,4.02-.33,2.79,1.37-1.14,1.46-7.62,10.17-8.57,11.4-.9,1.18-2.93,1.18-2.18-1.09.76-2.27.38-1.32.61-2.08.24-.76-.33-1.47-1.27-.38-1.94,2.13-3.89,4.26-5.82,6.39-1.65,1.8-2.32.76-1.99-.19.43-1.13.57-1.42.76-1.99.24-.81-.57-1.04-.99-.48-.48.57-6.53,7.95-7.38,9.09-.85,1.14-2.32.57-.9-2.18,1.51-2.88-4.26-1.23-6.11-.8-1.84.38-24.89,7.57-28.81,8.38-1.37.43-1.94-1.04-.38-1.7,1.56-.61,8.51-3.03,9.7-3.45,1.18-.43.9-1.19-.52-1.04-1.09.14-17.22,1.37-19.97,1.56-1.13.1-1.42-1.13.14-1.32,2.08-.24,25.65-3.93,36.1-9.6,8.42-4.54,38.14-20.63,38.14-20.63,0,0,.9-.28,1.56.14ZM300.63,135.18c-.38-.19-3.08-1.61-4.35-3.69,0,0,1.8.85,3.03,1.18,1.42.43,1.94-1.28.9-1.66-.76-.29-4.02-2.13-4.21-3.46,0,0,1.8,1.42,2.89,1.56.76.1,1.37-1.04.24-1.56-.66-.33-2.65-1.56-3.17-2.88,0,0,1.56.71,2.08.61.72-.09.95-1.23-.19-1.61-.84-.27-1.54-.85-1.99-1.61-.05-.05-.1-.24-.1-.33,0,0,.28.24,1.28.61.99.33,1.04-.9.47-1.28s-2.22-1.37-2.51-1.8c.05,0,1.89,1.14,2.18.52.28-.61-.52-1.04-1.14-1.42-.85-.57-1.28-1.56-1.18-1.56.24.1,1.42.99,1.66.19.05-.28-.1-.47-.33-.61-.57-.29-.85-.61-1.23-1.46s-.24-1.85-.76-2.46c-.19-.19-.8-.29-.99.57-.19.85-.24,1.7-.85,2.22s-1.56.9-1.19,1.56c.24.38,1.09-.05,1.42-.29.05-.04.05.62-.47,1.04-.52.52-1.89.85-1.94,1.56-.04.71.99.61,2.18.09-.19.66-2.08,1.7-2.55,1.89-.95.47-.29,1.46.42,1.37.71-.1,1.8-.76,1.85-.76.1.05-.09.33-.14.33-.24.33-.57.61-.85.9-.38.38-.81.85-1.37,1.04-.31.08-.59.24-.81.47-.09.19-.14.38-.09.57.1.33.43.61.8.66.52.09,1.04-.1,1.52-.29.24-.09.61-.43.9-.47-.19.62-.52,1.14-.94,1.61-.53.57-1.18,1.02-1.89,1.32-.38.19-.76.43-.9.85-.05.1-.05.24-.05.38.05.24.24.38.43.52.38.15.79.18,1.18.1.19-.05,2.18-.71,2.13-.95.04.24-.29.57-.38.71-.32.37-.67.72-1.04,1.04-.43.37-.9.71-1.37,1.04-.47.33-.99.48-1.46.76-.22.13-.38.33-.48.57-.09.24-.05.51.1.71.1.09.24.19.38.19.85.24,2.08-.33,2.84-.71.19-.1,1.09-.61,1.09-.61-.1.24-.57,1.42-2.61,2.13-.71.24-1.46.43-2.13.71-.2.06-.38.18-.52.33-.16.14-.23.36-.19.57.05.24.24.38.43.47.24.1.57.14.85.14,2.08,0,4.35-1.19,4.35-1.19-.12.08-.23.18-.33.28-.75.68-1.59,1.24-2.51,1.66-.61.28-1.37.33-1.89.71-.33.19-.48.66-.24.99.29.47.99.47,1.46.38.48-.05.95-.24,1.42-.38.71-.24,1.42-.47,2.13-.76l-.05.05c-.33.33-.61.66-.95.99-.45.42-.96.77-1.52,1.04-.47.24-.33.85.1,1.04.24.14.57.14.85.09.85-.14,1.61-.61,2.32-1.04.05-.05.38-.19.38-.24.14,1.85-.52,4.87-.85,4.83-.64-.17-1.27-.36-1.89-.57-5.01-1.66-8.18-3.03-8.18-3.03-1.13-.37-1.85,1.33-.47,1.8-.05-.05,3.41,1.23,8.51,2.75,2.89.85,8.24,2.22,8.47,2.27,1.19.24,1.52-.8.48-1.14-.1-.04-1.61-.47-3.41-.99-.24-.05-.62-1.56-.57-5.73,0,.1.33.33.37.33.33.24.62.47.99.71.57.33,1.33.66,1.94.33.33-.19.61-.71.24-.99-.38-.33-2.37-1.13-2.89-2.79-.05-.05,1.7,1.61,3.88,1.99.99.24,1.42-.9.76-1.46-.62-.57-3.5-1.8-4.17-3.6.05,0,1.85,1.33,3.64,1.56.24.05.71.09.95-.33.33-.43.33-.99-.19-1.23h0ZM286.53,127.28c-.52-.76-5.59-2.65-6.15-4.5.05,0,1.37,1.09,4.07,1.8,2.08.57,2.46-1.56,1.13-1.99-3.93-1.28-5.59-4.73-5.63-4.83,0,0,2.79,2.18,4.21,2.36.76.1,1.33.1,1.7-.33.85-1.37-1.13-1.89-2.51-2.7-2.18-1.28-3.6-3.36-3.74-3.83.19.05,3.12,2.08,4.78,1.66.5-.13.8-.65.67-1.15-.05-.2-.17-.38-.34-.51-.47-.28-2.6-1.18-3.93-2.55-1.37-1.37-1.66-1.94-1.66-2.04.14-.05,1.94.95,2.98,1.14,1.04.19,1.75-1.14.71-1.66-.66-.24-3.69-1.99-3.93-2.88,1.66.71,3.6,1.23,3.55.05-.05-.9-2.08-1.42-2.79-2.08-.71-.62-1.09-1.47-1.04-1.42.47.33,1.85.85,2.27.28.61-.85-.71-1.32-1.52-1.99-.8-.66-1.13-2.7-1.42-3.84-.33-1.13-1.23-.8-1.28-.43-.05.05-.19,2.55-.76,3.69-.57,1.13-1.56,1.7-2.37,2.08-.37.19-.57.43-.52.8.09.71,1.04.48,1.51.33.47-.19.61-.24,1.04-.48.33-.14-.57,1.52-1.8,2.08-.85.38-1.7.8-1.42,1.66.33.9,2.75-.09,2.79-.09-.43.57-3.12,2.27-3.93,2.79-.71.33-.57,1.7,1.09,1.37,1.18-.19,2.5-.99,2.5-.99.48-.19-1.89,2.22-4.44,3.55-.71.43-.62.9-.52,1.19.19.43.71.66,1.42.47,1.04-.29,3.12-1.19,3.55-1.52-.14.9-4.59,3.74-5.49,4.26-.57.38-.71.9-.48,1.33.19.42.85.71,2.18.04.33-.14,3.03-1.51,3.03-1.51-.43.9-3.03,3.31-6.15,5.39-.38.33-.61.76-.47,1.19.19.57.61.85,1.7.47.99-.29,3.84-1.8,3.84-1.8-1.85,2.74-5.35,5.16-5.87,5.49-.61.48-.76,1.04-.38,1.56.33.52,1.04.47,1.42.43,2.55-.33,5.4-2.89,5.44-2.89-.33.76-1.66,2.89-5.44,5.06-.76.47-.57,1.13-.37,1.37.24.37.76.37,1.04.37,2.84-.24,4.92-1.84,4.87-1.75-.43,1.28-2.51,2.88-3.08,3.41s-.05,1.7,1.7,1.42c1.18-.1,3.03-1.85,3.03-1.85,0,0-.1,4.54-.1,5.06,0,.8-.09,2.22-.28,3.12-.19.85-1.42,1.99-1.42,1.99-.85.66.1.71.99.38,1.56-.47,2.22.71,3.31.66,1.37.09.43-.76,1.32-.62,1.42.61,2.18.66,3.17.24,1.42-.57-3.12-.05-3.26-3.69-.05-.61-.24-3.93-.29-6.2.33.38.99,1.09,2.08,1.46,1.51.48,2.27.24,2.46-.24.15-.52-.09-1.07-.57-1.32-1.04-.57-1.94-1.18-2.69-3.08-.05-.24.61.66,3.03,1.75,2.41,1.09,2.51-.38,2.51-.57-.05-.76-1.37-.9-2.37-1.66-1.66-1.18-1.66-1.7-1.66-1.7,0,0,2.51,1.42,3.6.95.61-.28.85-1.18-.47-1.7-1.13-.43-3.17-1.52-3.45-2.18,1.56.52,3.55,1.47,4.59,1.42,1.04,0,1.23-.76.66-1.61Z"/>
</svg>