<?xml version="1.0" encoding="UTF-8"?>
<svg id="a" data-name="Layer_1" xmlns="http://www.w3.org/2000/svg" viewBox="0 0 310.57 36.37">
  <defs>
    <style>
      .b {
        fill: #fff;
      }
    </style>
  </defs>
  <path class="b" d="M37.05,32.03l-.53,3.74h19.39l-2.28-6.08h-6.52l2.26-2.34c3.51-3.62,5.65-6.07,5.65-9.6v-.15c-.08-4.92-3.9-8.36-9.28-8.36s-9.08,3.37-9.33,8.39l-.03.54h5.95l.07-.43c.29-1.8,1.51-2.8,3.43-2.8s3.12,1.03,3.18,2.69c0,.04,0,.07,0,.1v.02c0,1.64-1.45,3.2-4.23,6.04l-7.73,8.22h0Z"/>
  <path class="b" d="M31.75,18.19c0-4.84-2.55-9.09-6.37-11.49l2.44-3.92c-2.8-1.75-6.1-2.77-9.64-2.77C8.14,0,0,8.14,0,18.19s8.14,18.18,18.18,18.18,18.18-8.14,18.18-18.18h-4.61ZM18.18,28.98c-5.96,0-10.79-4.83-10.79-10.79s4.83-10.79,10.79-10.79,10.79,4.83,10.79,10.79-4.83,10.79-10.79,10.79Z"/>
  <path class="b" d="M125.89,15.71c-1.23-1.99-2.88-3.57-4.93-4.72s-4.35-1.73-6.88-1.73-4.82.58-6.9,1.73c-2.07,1.15-3.72,2.73-4.96,4.72-1.23,2-1.85,4.31-1.85,6.87s.61,4.84,1.85,6.85c1.23,2.01,2.88,3.59,4.96,4.74,2.07,1.15,4.37,1.73,6.9,1.73s4.82-.58,6.88-1.73,3.7-2.74,4.93-4.74c1.23-2.01,1.85-4.26,1.85-6.85s-.61-4.88-1.85-6.87ZM119.66,26.23c-.54,1.07-1.29,1.89-2.24,2.48-.95.59-2.07.89-3.34.89s-2.4-.3-3.36-.89c-.97-.6-1.72-1.42-2.27-2.48-.55-1.06-.82-2.28-.82-3.65s.27-2.58.82-3.63c.55-1.04,1.31-1.88,2.27-2.48.96-.61,2.09-.91,3.36-.91s2.39.31,3.34.91c.95.61,1.69,1.44,2.24,2.48.54,1.05.82,2.26.82,3.63s-.27,2.59-.82,3.65Z"/>
  <path class="b" d="M130.54,35.35V9.82h6.55v6.22l-.7-1.03c.37-1.96,1.28-3.42,2.71-4.35,1.44-.93,3.15-1.4,5.15-1.4,2.12,0,3.98.54,5.59,1.61,1.61,1.07,2.61,2.52,3.01,4.33l-2.01.19c.84-2.09,2.04-3.63,3.6-4.63,1.56-1,3.38-1.5,5.47-1.5,1.84,0,3.47.41,4.89,1.22,1.42.81,2.53,1.94,3.34,3.39s1.22,3.14,1.22,5.07v16.41h-7.01v-14.92c0-1-.18-1.85-.54-2.57-.36-.72-.87-1.28-1.52-1.69-.66-.4-1.45-.61-2.39-.61s-1.69.2-2.36.61c-.67.41-1.18.96-1.54,1.69-.36.72-.54,1.58-.54,2.57v14.92h-7.01v-14.92c0-1-.18-1.85-.54-2.57-.36-.72-.87-1.28-1.52-1.69-.66-.4-1.45-.61-2.39-.61s-1.69.2-2.36.61c-.67.41-1.18.96-1.54,1.69-.36.72-.54,1.58-.54,2.57v14.92h-7.02Z"/>
  <path class="b" d="M172.68,35.35V9.82h6.55v6.22l-.7-1.03c.37-1.96,1.28-3.42,2.71-4.35,1.43-.93,3.15-1.4,5.14-1.4,2.12,0,3.99.54,5.59,1.61,1.6,1.07,2.61,2.52,3.01,4.33l-2.01.19c.84-2.09,2.04-3.63,3.6-4.63,1.56-1,3.38-1.5,5.47-1.5,1.84,0,3.47.41,4.89,1.22,1.42.81,2.53,1.94,3.34,3.39.81,1.45,1.22,3.14,1.22,5.07v16.41h-7.01v-14.92c0-1-.18-1.85-.54-2.57s-.87-1.28-1.52-1.69c-.66-.4-1.45-.61-2.39-.61s-1.69.2-2.36.61c-.67.41-1.18.96-1.54,1.69-.36.72-.54,1.58-.54,2.57v14.92h-7.01v-14.92c0-1-.18-1.85-.54-2.57-.36-.72-.87-1.28-1.52-1.69-.66-.4-1.45-.61-2.39-.61s-1.69.2-2.36.61c-.67.41-1.18.96-1.54,1.69-.36.72-.54,1.58-.54,2.57v14.92h-7.02Z"/>
  <path class="b" d="M227.12,35.91c-2.71,0-5.06-.6-7.06-1.8-1.99-1.2-3.54-2.81-4.63-4.84-1.09-2.03-1.64-4.27-1.64-6.74s.57-4.83,1.71-6.82c1.14-1.99,2.67-3.57,4.61-4.72,1.93-1.15,4.12-1.73,6.55-1.73,2.03,0,3.82.32,5.38.96,1.56.64,2.88,1.54,3.95,2.69,1.07,1.15,1.89,2.49,2.45,4,.56,1.51.84,3.15.84,4.93,0,.5-.02.99-.07,1.47-.05.48-.13.9-.26,1.24h-19.13v-5.15h15.15l-3.32,2.43c.31-1.34.3-2.53-.04-3.58-.34-1.04-.94-1.87-1.8-2.48-.86-.61-1.91-.91-3.15-.91s-2.26.3-3.13.89c-.88.59-1.52,1.47-1.96,2.62-.44,1.15-.61,2.55-.51,4.21-.12,1.43.04,2.69.51,3.79.47,1.09,1.18,1.94,2.15,2.55.96.61,2.14.91,3.51.91,1.25,0,2.31-.25,3.2-.75.89-.5,1.58-1.18,2.08-2.06l5.61,2.66c-.5,1.25-1.28,2.34-2.36,3.28-1.07.93-2.34,1.66-3.81,2.17-1.47.51-3.07.77-4.82.77h0Z"/>
  <path class="b" d="M242.09,35.35V9.82h6.55v6.12l-.47-.89c.56-2.15,1.49-3.61,2.78-4.37,1.29-.77,2.83-1.15,4.61-1.15h1.5v6.08h-2.2c-1.72,0-3.1.53-4.16,1.57-1.06,1.04-1.59,2.52-1.59,4.42v13.75h-7.01Z"/>
  <path class="b" d="M271.37,35.91c-2.55,0-4.85-.58-6.9-1.75-2.04-1.17-3.66-2.77-4.86-4.8-1.2-2.03-1.8-4.3-1.8-6.82s.59-4.79,1.77-6.8c1.18-2.01,2.8-3.59,4.86-4.74,2.06-1.15,4.36-1.73,6.92-1.73,1.9,0,3.66.33,5.29.99,1.62.66,3.01,1.57,4.16,2.74,1.15,1.17,1.98,2.55,2.48,4.14l-6.08,2.62c-.44-1.28-1.17-2.29-2.22-3.04-1.04-.75-2.26-1.12-3.63-1.12-1.22,0-2.3.3-3.25.89-.95.59-1.7,1.42-2.25,2.48-.55,1.06-.82,2.28-.82,3.65s.27,2.59.82,3.65c.55,1.06,1.29,1.88,2.25,2.48.95.59,2.04.89,3.25.89,1.4,0,2.62-.37,3.65-1.12,1.03-.75,1.76-1.76,2.2-3.04l6.08,2.66c-.47,1.5-1.28,2.84-2.43,4.02-1.15,1.18-2.54,2.11-4.16,2.78-1.62.67-3.4,1.01-5.33,1.01v-.03Z"/>
  <path class="b" d="M298.41,35.91c-2.71,0-5.06-.6-7.06-1.8-1.99-1.2-3.54-2.81-4.63-4.84-1.1-2.03-1.64-4.27-1.64-6.74s.57-4.83,1.71-6.82c1.14-1.99,2.67-3.57,4.6-4.72,1.93-1.15,4.12-1.73,6.55-1.73,2.03,0,3.82.32,5.38.96,1.56.64,2.88,1.54,3.95,2.69,1.07,1.15,1.89,2.49,2.45,4,.56,1.51.84,3.15.84,4.93,0,.5-.02.99-.07,1.47-.05.48-.13.9-.26,1.24h-19.13v-5.15h15.15l-3.32,2.43c.31-1.34.3-2.53-.04-3.58-.34-1.04-.94-1.87-1.8-2.48-.86-.61-1.91-.91-3.15-.91s-2.26.3-3.13.89c-.88.59-1.53,1.47-1.96,2.62-.44,1.15-.6,2.55-.51,4.21-.12,1.43.04,2.69.51,3.79.47,1.09,1.18,1.94,2.15,2.55.96.61,2.14.91,3.51.91,1.25,0,2.31-.25,3.2-.75.89-.5,1.58-1.18,2.08-2.06l5.61,2.66c-.5,1.25-1.28,2.34-2.37,3.28-1.07.93-2.34,1.66-3.81,2.17-1.47.51-3.07.77-4.82.77h0Z"/>
  <path class="b" d="M76.76,27.53c-5.16-2.98-6.93-9.58-3.95-14.74,2.98-5.16,9.58-6.93,14.74-3.95,1.83,1.06,3.22,2.57,4.14,4.31l2.45-1.31,4.07-2.17c-1.54-2.91-3.9-5.44-6.96-7.22-8.69-5.02-19.81-2.04-24.84,6.65-5.02,8.69-2.04,19.81,6.65,24.84,8.69,5.02,19.81,2.05,24.84-6.65l-6.39-3.69c-2.98,5.16-9.58,6.93-14.74,3.95h0Z"/>
</svg>
