<?xml version="1.0" encoding="UTF-8"?>
<svg id="a" data-name="Layer_1" xmlns="http://www.w3.org/2000/svg" viewBox="0 0 30.6 19.91">
  <defs>
    <style>
      .b {
        fill: #fff;
      }
    </style>
  </defs>
  <path class="b" d="M20.28,17.53l-.29,2.05h10.61l-1.25-3.33h-3.57l1.23-1.28c1.92-1.98,3.09-3.32,3.09-5.25v-.07h0c-.04-2.7-2.13-4.59-5.08-4.59s-4.97,1.85-5.11,4.59l-.02.3h3.26l.04-.24c.16-.99.83-1.53,1.88-1.53s1.71.56,1.74,1.47c0,.02,0,.04,0,.06h0c0,.91-.79,1.76-2.32,3.32l-4.23,4.5h0Z"/>
  <path class="b" d="M17.38,9.96c0-2.65-1.39-4.98-3.49-6.29l1.33-2.15c-1.53-.96-3.34-1.52-5.28-1.52C4.45,0,0,4.46,0,9.96s4.45,9.95,9.95,9.95,9.95-4.45,9.95-9.95h-2.52ZM15.86,9.96c0,3.26-2.64,5.91-5.91,5.91s-5.91-2.64-5.91-5.91,2.64-5.91,5.91-5.91,5.91,2.64,5.91,5.91Z"/>
</svg>