<?xml version="1.0" encoding="UTF-8"?>
<svg id="a" data-name="Layer_1" xmlns="http://www.w3.org/2000/svg" viewBox="0 0 316.94 55.04">
  <defs>
    <style>
      .b {
        fill: #fff;
      }
    </style>
  </defs>
  <g>
    <path class="b" d="M92.4,23.92h-.95c-1.64,0-2.38-.84-2.38-2.64V6.67C89.07,1.74,85.47,0,81.91,0h-32.25c-.57,0-1.02.46-1.02,1.02,0,0,0,0,0,.01v5.12c0,.57.45,1.03,1.01,1.04,0,0,0,0,.01,0h29.44c.95,0,1.48.35,1.48,1.6v14.49c-.27,2.06,1.18,3.95,3.24,4.22.04,0,.08.01.13.01-2.07.27-3.55,2.16-3.31,4.24v14.51c0,1.28-.54,1.59-1.48,1.59h-29.44c-.57,0-1.02.46-1.02,1.02,0,0,0,0,0,.01v5.12c0,.57.45,1.03,1.01,1.04,0,0,0,0,.01,0h32.2c3.51,0,7.12-1.74,7.12-6.67v-14.64c0-1.78.74-2.64,2.38-2.64h.95c.57,0,1.02-.47,1.02-1.04v-5.12c0-.55-.43-1-.97-1.02Z"/>
    <path class="b" d="M49.64,43.51h8.43c.56,0,1.01-.45,1.01-1.01h0v-24.73h3.26c4.01,0,5.46,2.3,5.46,5.53s-1.46,5.48-5.46,5.48h-.37c-.33.04-.57.32-.55.65v4.99c0,.35.1.69.28.99,0,0,4.99,7.28,5.12,7.53.21.36.59.58,1,.58h8.42c.46,0,.81-.38.44-.97s-5.89-8.47-5.89-8.47c3.89-2.15,6.21-6.33,5.99-10.76,0-7.38-5.12-13.07-13.98-13.07h-13.17c-.56,0-1.01.45-1.01,1.01h0v5.12c0,.56.45,1.01,1.01,1.01h.59v19.04h-.59c-.56,0-1.01.45-1.01,1.01h0v5.12c.03.54.47.96,1.01.96Z"/>
    <path class="b" d="M44.31.2H11.61c-3.55,0-7.21,1.73-7.21,6.64v14.58c0,1.78-.74,2.62-2.39,2.62h-.97C.46,24.05,0,24.51,0,25.08v5.12c0,.57.46,1.02,1.02,1.02,0,0,0,0,.01,0h.97c1.65,0,2.39.84,2.39,2.62v14.54c0,4.9,3.66,6.64,7.21,6.64h32.7c.57,0,1.03-.45,1.04-1.01,0,0,0,0,0-.01v-5.12c0-.57-.46-1.02-1.02-1.02,0,0,0,0-.01,0H14.51c-.95,0-1.5-.33-1.5-1.57v-14.46c.22-2.1-1.3-3.98-3.4-4.21,2.07-.18,3.6-2.01,3.42-4.08,0-.05,0-.1-.02-.15v-14.44c0-1.28.55-1.59,1.5-1.59h29.79c.57,0,1.04-.46,1.04-1.04h0V1.28c.03-.56-.41-1.05-.97-1.07-.02,0-.04,0-.07,0Z"/>
    <path class="b" d="M17.2,43.51h26.58c.56,0,1.01-.45,1.01-1.01h0v-7.08c0-.56-.44-1.02-1-1.02,0,0,0,0-.01,0h-5.39c-.56,0-1.01.47-1,1.02,0,0,0,0,0,0v.6h-7.23l14.54-24.79c.18-.33.06-.74-.26-.92-.07-.04-.14-.06-.22-.08h-26.57c-.56,0-1.01.45-1.01,1.01,0,0,0,0,0,.01v4.33h0v2.75c0,.56.45,1.01,1.01,1.01h5.39c.56,0,1-.46,1.01-1.01v-.61h7.15l-14.5,24.79c-.15.39.04.83.43.98.02,0,.04.02.07.02Z"/>
  </g>
  <g>
    <path class="b" d="M114.61,15.36v5.48h9.25l-11.13,18.47c-.18.31-.12.37.12.37h20.48v-5.48h-10.24l11.13-18.47c.18-.29.1-.37-.12-.37h-19.49Z"/>
    <polygon class="b" points="215.25 31.66 224.22 31.66 224.22 26.48 215.25 26.48 215.25 20.84 226.01 20.84 226.01 15.36 208.61 15.36 208.61 39.67 226.52 39.67 226.52 34.2 215.25 34.2 215.25 31.66"/>
    <path class="b" d="M154.02,14.28l-11.97,25.39h6.4l5.45-12.94,2.56,5.82h-1.28l-1.98,4.99h5.49l.93,2.12h6.74l-11.93-25.39c-.1-.2-.32-.2-.42,0Z"/>
    <path class="b" d="M276.88,14.28l-11.97,25.39h6.4l5.44-12.94,2.56,5.82h-1.28l-1.98,4.99h5.5l.93,2.12h6.74l-11.93-25.39c-.12-.2-.32-.2-.42,0Z"/>
    <path class="b" d="M191,26.88l-15.17-12.63c-.38-.33-.5-.14-.5,0v24.8h6.08v-12.17l15.18,12.58c.38.33.5.23.5-.06V14.64h-6.09v12.23Z"/>
    <polygon class="b" points="310.11 15.55 304.63 25.47 299.13 15.55 291.97 15.55 301.28 31.48 301.28 39.89 307.78 39.89 307.78 31.29 316.94 15.55 310.11 15.55"/>
    <path class="b" d="M257.24,24.9c0-5.39-3.63-9.55-10.08-9.55h-9.11v24.32h6.4v-18.81h2.37c2.89,0,3.95,1.69,3.95,4.04,0,2.05-.81,3.56-2.91,3.92v6.94l2.35,3.92h6.95l-4.26-6.91c2.82-1.59,4.5-4.63,4.34-7.86Z"/>
  </g>
</svg>
