<?xml version="1.0" encoding="UTF-8"?>
<svg id="a" data-name="Layer 1" xmlns="http://www.w3.org/2000/svg" viewBox="0 0 400 300">
  <defs>
    <style>
      .c {
        fill: #fff;
      }
    </style>
  </defs>
  <path class="c" d="M38.72,188.82l32.43-77.78h-32.43v77.78Z"/>
  <path class="c" d="M94.09,111.04h32.43v77.78l-32.43-77.78Z"/>
  <path class="c" d="M82.58,139.74l20.69,49.08h-13.56l-6.19-15.63h-15.14l14.2-33.45Z"/>
  <path class="c" d="M147.21,128.72l-1.49,4.61c-.02.07-.07.14-.13.19-.06.05-.14.07-.22.07h-3.61c-.22,0-.28-.12-.25-.31l6.24-17.97c.21-.61.31-1.25.31-1.9,0-.05.01-.11.05-.15.04-.04.09-.07.14-.07h4.98c.15,0,.22.03.25.19l7.07,19.94c.07.16.03.28-.16.28h-4.06c-.07,0-.15,0-.21-.05-.06-.04-.11-.1-.13-.17l-1.61-4.64h-7.18ZM153.26,124.82c-.62-2.06-1.87-5.83-2.46-8.05h-.03c-.5,2.09-1.61,5.51-2.43,8.05h4.92Z"/>
  <path class="c" d="M161.47,125.98c0-4.46,3.33-8.19,9.03-8.19.25,0,.54.03,1.03.06v-6.14s0-.06,0-.09c0-.03.03-.05.05-.07.02-.02.05-.04.07-.05.03,0,.06-.01.09,0h3.92c.16,0,.18.06.18.19v18.41c0,.76.04,1.52.13,2.28,0,.16-.03.21-.22.28-1.94.82-4.03,1.25-6.14,1.25-4.61,0-8.15-2.62-8.15-7.91ZM171.53,121.55c-.37-.12-.76-.17-1.15-.16-2.4,0-4.46,1.47-4.46,4.36,0,3.09,1.78,4.42,4.15,4.42.5.02.99-.04,1.46-.18v-8.45Z"/>
  <path class="c" d="M194.02,125.76c0,4.89-3.18,8.13-7.67,8.13-5.33,0-7.69-4.02-7.69-8.05,0-4.42,2.96-8.05,7.76-8.05s7.6,3.77,7.6,7.97ZM183.05,125.79c0,2.74,1.28,4.49,3.37,4.49,1.81,0,3.18-1.56,3.18-4.42,0-2.43-1-4.46-3.37-4.46-1.8,0-3.18,1.62-3.18,4.39Z"/>
  <path class="c" d="M200.83,111.49c.25,0,.31.03.31.25v6.39c.85-.23,1.73-.35,2.62-.34,4.58,0,7.47,3.22,7.47,7.41,0,5.83-4.61,8.69-9.35,8.69-1.66,0-3.31-.23-4.89-.72-.06-.03-.1-.08-.13-.13-.03-.05-.05-.12-.05-.18v-21.15c0-.15.06-.21.21-.21h3.8ZM202.98,121.46c-.62,0-1.24.08-1.84.25v8.45c.38.09.77.13,1.15.12,2.36,0,4.51-1.44,4.51-4.67,0-2.85-1.61-4.15-3.82-4.15h0Z"/>
  <path class="c" d="M217.75,126.98c.15,1.77,1.4,3.22,4.46,3.22,1.31.02,2.62-.22,3.83-.71.09-.06.19-.03.19.16v2.95c0,.22-.06.31-.22.38-1.5.67-3.13.98-4.77.9-5.85,0-7.91-4.02-7.91-7.88,0-4.3,2.65-8.22,7.54-8.22s6.57,3.65,6.57,6.73c.02.7-.03,1.4-.16,2.09,0,.06-.03.12-.08.17-.05.05-.11.07-.17.08-1.07.1-2.15.15-3.22.13l-6.07.02ZM221.8,123.95c.52.02,1.04,0,1.56-.06v-.21c0-.34-.09-.67-.22-.97-.14-.31-.34-.58-.58-.81-.25-.23-.54-.41-.85-.52-.32-.12-.65-.17-.99-.15-1.96,0-2.81,1.47-2.99,2.74h4.08Z"/>
  <path class="c" d="M142.77,163.95c-.08-.06-.14-.13-.18-.22-.04-.09-.05-.18-.04-.28v-3.7c0-.16.12-.25.25-.16,1.69,1.05,3.65,1.61,5.64,1.61,2.37,0,3.3-.81,3.3-1.9,0-.99-.72-1.71-2.83-2.61l-1.56-.65c-3.83-1.61-4.89-3.55-4.89-5.98,0-3.37,2.56-6.05,7.52-6.05,1.96,0,3.76.25,4.86.81.07.04.12.1.16.17.03.07.04.15.03.23v3.48c0,.12-.1.28-.28.16-1.49-.74-3.14-1.09-4.8-1.03-2.4,0-3.22.81-3.22,1.84s.65,1.61,2.99,2.56l1.15.47c4.15,1.71,5.3,3.68,5.3,6.2,0,3.76-3.05,6.14-7.85,6.14-1.9.08-3.8-.29-5.53-1.07Z"/>
  <path class="c" d="M173.58,156.91c0,4.89-3.18,8.13-7.67,8.13-5.33,0-7.69-4.02-7.69-8.05,0-4.42,2.96-8.05,7.76-8.05s7.6,3.77,7.6,7.97ZM162.61,156.94c0,2.74,1.28,4.49,3.37,4.49,1.81,0,3.18-1.56,3.18-4.42,0-2.43-1-4.46-3.37-4.46-1.8,0-3.18,1.62-3.18,4.39Z"/>
  <path class="c" d="M176.38,142.89c0-.16.06-.25.31-.25h3.7c.22,0,.31.09.31.25v17.45c0,.87.28,1.18,1.03,1.18.18,0,.36,0,.54-.03.12,0,.16.06.16.22v2.68c0,.25-.03.31-.22.38-.62.22-1.27.31-1.93.28-2.24,0-3.93-.84-3.93-4.3l.02-17.86Z"/>
  <path class="c" d="M198.21,161.27c0,1.08.06,2.15.19,3.22.03.19-.06.25-.28.25h-3.3c-.25,0-.31-.06-.37-.22-.07-.28-.16-.69-.19-.97-1.19,1.01-2.71,1.54-4.27,1.5-3.11,0-5.27-1.71-5.27-6.01v-9.55c0-.21.06-.25.28-.25h3.8c.19,0,.22.06.22.25v9.04c0,1.68.72,2.77,2.43,2.77.9.03,1.77-.29,2.43-.9v-10.9c0-.18.1-.25.31-.25h3.76c.22,0,.25.06.25.25v11.78Z"/>
  <path class="c" d="M209.99,164.2c0,.19-.03.34-.22.41-.89.31-1.83.46-2.77.43-2.71,0-4.3-1.34-4.3-4.46v-7.73h-1.87c-.19-.03-.25-.09-.25-.28v-3.05c0-.21.06-.28.28-.28h1.87c.04-1.26.14-2.51.31-3.76,0-.07.04-.14.09-.19.05-.05.12-.08.19-.09l3.65-.47c.16-.03.25-.03.25.18-.1.97-.16,2.81-.16,4.33h2.87c.19,0,.25.06.25.25v3.15c0,.16-.07.19-.22.22h-2.93v6.67c0,1.37.4,1.99,1.68,1.99.36,0,.72-.05,1.07-.12.13,0,.22.03.22.22l-.02,2.57Z"/>
  <path class="c" d="M212.45,145.17c0-.32.05-.63.17-.93.12-.29.3-.56.53-.78.23-.22.5-.4.8-.51.3-.11.61-.17.93-.15.32-.02.64.03.94.14.3.11.57.29.8.52.23.23.4.5.52.8.11.3.16.62.14.94.02.32-.04.64-.15.94-.12.3-.29.57-.52.8-.23.23-.5.4-.8.52-.3.11-.62.16-.94.14-.32.02-.65-.03-.95-.14-.3-.11-.58-.29-.8-.52-.23-.23-.4-.51-.52-.81-.11-.3-.16-.63-.13-.95ZM212.67,149.49c0-.16.06-.25.25-.25h3.83c.19,0,.25.06.25.25v14.96c0,.18-.03.28-.28.28h-3.76c-.21,0-.31-.1-.31-.28l.02-14.96Z"/>
  <path class="c" d="M235.16,156.91c0,4.89-3.18,8.13-7.67,8.13-5.33,0-7.69-4.02-7.69-8.05,0-4.42,2.96-8.05,7.76-8.05s7.6,3.77,7.6,7.97ZM224.19,156.94c0,2.74,1.28,4.49,3.37,4.49,1.81,0,3.18-1.56,3.18-4.42,0-2.43-1-4.46-3.37-4.46-1.78,0-3.18,1.62-3.18,4.39Z"/>
  <path class="c" d="M237.94,152.86c0-1.07-.07-2.68-.13-3.37-.03-.16.03-.25.22-.25h3.27c.09-.01.17,0,.25.05.07.05.13.12.16.2.13.33.21.68.25,1.03,1.24-1.04,2.8-1.61,4.42-1.61,2.4,0,5.23,1.25,5.23,6.26v9.26c0,.18-.06.28-.28.28h-3.76c-.21,0-.31-.1-.31-.28v-8.86c0-1.87-.81-2.87-2.43-2.87-.95-.02-1.88.33-2.59.97v10.81c0,.16-.09.25-.28.25h-3.76c-.22,0-.28-.1-.28-.28v-11.59Z"/>
  <path class="c" d="M262.82,144.6c0-.18.03-.25.18-.25,1.28-.03,3.76-.1,6.11-.1,6.29,0,8.47,3.49,8.47,6.89,0,5.05-3.9,7.19-8.69,7.19h-1.78v6.14c0,.16-.06.25-.25.25h-3.83c-.16,0-.21-.1-.21-.25v-19.88ZM267.12,154.51h1.75c2.46,0,4.42-.75,4.42-3.3,0-1.96-1.34-3.22-4.05-3.22-1,0-1.84,0-2.15.06l.03,6.46Z"/>
  <path class="c" d="M291.82,161.27c0,.81,0,1.46.07,2.21,0,.06,0,.12-.07.16-2.14.92-4.46,1.4-6.79,1.4-3.46,0-6.29-1.61-6.29-5.2,0-3.3,2.9-5.05,7.04-5.05.61-.02,1.23,0,1.84.06v-.22c0-.59-.38-1.96-2.99-1.96-1.41-.01-2.82.27-4.11.84-.03.02-.06.03-.09.03-.03,0-.07,0-.09-.02-.03-.02-.05-.04-.07-.07-.02-.03-.03-.06-.03-.09v-3.15c-.01-.07,0-.14.04-.2.04-.06.1-.1.17-.11,1.54-.67,3.21-1,4.89-.97,4.49,0,6.48,2.77,6.48,6.32v6.01ZM287.61,158.05c-.52-.07-1.04-.1-1.56-.09-2.21,0-3.12.71-3.12,1.84,0,1.03.78,1.87,2.74,1.87.66,0,1.31-.09,1.93-.28v-3.33Z"/>
  <path class="c" d="M298.95,149.24c.09,0,.17.01.24.07.07.05.12.13.13.21.2.56.32,1.15.34,1.74.61-.73,1.36-1.31,2.22-1.71s1.79-.62,2.74-.62c.19,0,.25.06.25.25v3.82c0,.16-.06.22-.28.22-2.24-.1-4.05.59-4.7,1.34l-.03,9.91c0,.19-.06.25-.28.25h-3.76c-.25,0-.31-.1-.31-.28v-10.74c0-1.34-.03-3.15-.16-4.24,0-.16.03-.22.19-.22h3.41Z"/>
  <path class="c" d="M315.96,164.2c0,.19-.03.34-.21.41-.89.31-1.83.46-2.78.43-2.68,0-4.29-1.34-4.29-4.46v-7.73h-1.87c-.18-.03-.25-.09-.25-.28v-3.05c0-.21.07-.28.28-.28h1.87c.03-1.26.14-2.51.31-3.76.01-.07.04-.14.1-.19.05-.05.12-.08.19-.09l3.64-.47c.16-.03.25-.03.25.18-.09.97-.16,2.81-.16,4.33h2.87c.19,0,.25.06.25.25v3.15c0,.16-.06.19-.21.22h-2.93v6.67c0,1.37.41,1.99,1.69,1.99.36,0,.72-.05,1.07-.12.12,0,.21.03.21.22l-.02,2.57Z"/>
  <path class="c" d="M318.58,152.86c0-1.07-.07-2.68-.13-3.37-.03-.16.03-.25.22-.25h3.27c.09-.01.17,0,.25.05.07.05.13.12.16.2.13.33.21.68.25,1.03,1.24-1.04,2.81-1.61,4.42-1.61,2.4,0,5.23,1.25,5.23,6.26v9.26c0,.18-.06.28-.28.28h-3.76c-.21,0-.31-.1-.31-.28v-8.86c0-1.87-.81-2.87-2.43-2.87-.95-.02-1.88.33-2.59.97v10.81c0,.16-.09.25-.28.25h-3.76c-.22,0-.28-.1-.28-.28v-11.59Z"/>
  <path class="c" d="M339.48,158.13c.16,1.77,1.4,3.22,4.45,3.22,1.31.02,2.62-.22,3.83-.71.1-.06.19-.03.19.16v2.96c0,.22-.07.31-.22.38-1.5.67-3.13.98-4.77.9-5.85,0-7.91-4.02-7.91-7.88,0-4.3,2.65-8.23,7.52-8.23s6.57,3.65,6.57,6.73c.02.7-.03,1.4-.16,2.09,0,.06-.03.12-.08.17-.05.05-.11.07-.17.08-1.07.1-2.15.15-3.22.13l-6.04.02ZM343.53,155.1c.52.02,1.04,0,1.56-.06v-.21c0-.34-.08-.67-.22-.97-.14-.31-.34-.58-.58-.81-.25-.23-.54-.41-.85-.52-.32-.12-.65-.17-.99-.15-1.97,0-2.8,1.47-2.99,2.74h4.08Z"/>
  <path class="c" d="M355.36,149.24c.09,0,.17.01.24.07.07.05.12.13.13.21.2.56.32,1.15.34,1.74.61-.73,1.36-1.31,2.22-1.71s1.79-.62,2.73-.62c.18,0,.25.06.25.25v3.82c0,.16-.07.22-.28.22-2.24-.1-4.05.59-4.7,1.34l-.03,9.91c0,.19-.06.25-.28.25h-3.76c-.25,0-.31-.1-.31-.28v-10.74c0-1.34-.03-3.15-.16-4.24,0-.16.03-.22.19-.22h3.42Z"/>
  <path class="c" d="M147.47,184.5c-.12,0-.15-.05-.15-.16v-1.73c0-.09.05-.1.13-.1h3.88c.13,0,.15.03.15.13v5.58c0,.1,0,.13-.12.17-1.1.38-2.25.57-3.41.57-4,0-5.94-2.53-5.94-5.62,0-3.5,2.5-5.77,6.29-5.77.93-.05,1.86.09,2.73.41.09,0,.12.08.12.21v1.84c0,.12-.06.15-.15.1-.83-.36-1.73-.52-2.63-.49-2.64-.04-3.95,1.35-3.95,3.62,0,2.06,1.25,3.65,3.65,3.65.36.02.72-.02,1.07-.12v-2.23l-1.68-.08Z"/>
  <path class="c" d="M164.46,183.21c0,3.44-2.15,5.75-5.3,5.75-3.31,0-5.27-2.43-5.27-5.7s2.11-5.69,5.3-5.69c3.36,0,5.25,2.55,5.27,5.64ZM159.24,186.89c1.75,0,2.8-1.43,2.8-3.61s-1.07-3.62-2.88-3.62c-1.69,0-2.85,1.32-2.85,3.62,0,2.05,1.05,3.61,2.94,3.61Z"/>
  <path class="c" d="M167.28,188.8c-.13,0-.17-.07-.17-.18v-10.7c0-.1.03-.17.13-.17h2.09c.08,0,.12.05.12.13v8.79h4.83s.04,0,.06,0c.02,0,.04.02.05.03.01.02.02.03.02.05s0,.04,0,.06l-.31,1.84c0,.12-.09.13-.17.13h-6.66Z"/>
  <path class="c" d="M176.49,177.9c0-.09,0-.12.12-.13.54,0,1.79-.05,3.29-.05,4.03,0,6.01,2.26,6.01,5.37,0,4.03-3.1,5.73-5.98,5.73-1.11,0-2.8,0-3.34-.03-.07,0-.1-.05-.1-.17v-10.72ZM178.84,186.77c.34,0,.61.03,1,.03,2.21,0,3.66-1.33,3.66-3.68s-1.46-3.37-3.61-3.37h-1.07l.03,7.02Z"/>
</svg>