<?xml version="1.0" encoding="UTF-8"?>
<svg id="a" data-name="Layer 1" xmlns="http://www.w3.org/2000/svg" xmlns:xlink="http://www.w3.org/1999/xlink" viewBox="0 0 400 300">
  <defs>
    <style>
      .h {
        fill: url(#b);
      }

      .i {
        fill: url(#e);
      }

      .i, .j, .k, .l {
        isolation: isolate;
      }

      .i, .j, .m {
        opacity: .7;
      }

      .j {
        fill: url(#f);
      }

      .k {
        fill: url(#d);
      }

      .k, .l {
        opacity: .51;
      }

      .l {
        fill: url(#c);
      }

      .n {
        fill: #fff;
      }

      .o {
        opacity: .8;
      }
    </style>
    <linearGradient id="b" x1="48.63" y1="798.95" x2="106.18" y2="768.08" gradientTransform="translate(0 -627.54)" gradientUnits="userSpaceOnUse">
      <stop offset=".04" stop-color="#5c257e"/>
      <stop offset=".97" stop-color="#8c509a"/>
    </linearGradient>
    <linearGradient id="c" x1="105.9" y1="802.27" x2="76.49" y2="747.13" gradientTransform="translate(0 -627.54)" gradientUnits="userSpaceOnUse">
      <stop offset=".04" stop-color="#5c257e"/>
      <stop offset="1" stop-color="#fff"/>
    </linearGradient>
    <linearGradient id="d" x1="77.12" y1="817.63" x2="47.7" y2="762.48" xlink:href="#c"/>
    <linearGradient id="e" x1="53.01" y1="772.39" x2="75.92" y2="815.32" gradientTransform="translate(0 -627.54)" gradientUnits="userSpaceOnUse">
      <stop offset=".23" stop-color="#4f256f"/>
      <stop offset=".84" stop-color="#5c257e"/>
    </linearGradient>
    <linearGradient id="f" x1="81.82" y1="757.03" x2="104.72" y2="799.96" xlink:href="#e"/>
  </defs>
  <path class="n" d="M143.98,151.76c0-2.95-.77-5.04-2.26-6.19s-3.67-1.75-6.53-1.75c-1.75,0-3.42.13-4.95.43-1.54.26-3.03.64-4.48,1.11-.94-1.67-1.45-3.63-1.45-5.94,1.71-.56,3.59-.98,5.64-1.28s4.06-.47,5.94-.47c5.04,0,8.84,1.15,11.44,3.42,2.6,2.31,3.93,5.94,3.93,10.93v24.08c-1.75.38-3.89.81-6.41,1.24s-5.08.64-7.69.64-4.7-.21-6.66-.68-3.67-1.2-5.04-2.18c-1.37-1.02-2.43-2.31-3.2-3.84-.77-1.54-1.11-3.46-1.11-5.64s.43-4.06,1.32-5.68,2.09-2.99,3.59-4.06,3.25-1.88,5.21-2.39c1.96-.51,4.01-.81,6.19-.81,1.62,0,2.95.04,3.97.13,1.02.09,1.88.17,2.6.26l-.04-1.32h0ZM143.98,159.1c-.77-.09-1.71-.21-2.86-.3s-2.14-.17-2.95-.17c-3.12,0-5.51.6-7.13,1.75s-2.43,2.9-2.43,5.25c0,1.49.26,2.69.81,3.54.56.85,1.24,1.49,2.09,1.96.81.47,1.75.73,2.73.81,1.02.09,1.96.17,2.86.17,1.15,0,2.35-.04,3.59-.17,1.24-.13,2.31-.3,3.29-.56v-12.3h0Z"/>
  <path class="n" d="M162.17,122.13c.56-.09,1.15-.17,1.84-.21.68-.04,1.28-.09,1.84-.09s1.2.04,1.88.09c.68.04,1.32.13,1.88.21v55.04c-.56.09-1.2.17-1.88.21s-1.32.09-1.88.09-1.15-.04-1.84-.09c-.68-.04-1.28-.13-1.84-.21v-55.04ZM169.77,157.18l14.18-18.57c.64-.09,1.32-.17,1.96-.21s1.32-.09,2.05-.09c.77,0,1.45.04,2.14.09.68.04,1.37.13,2.09.21l-14.18,18.02,16.27,20.5c-.68.09-1.37.17-2.05.21-.64.04-1.32.09-2.05.09-.68,0-1.41-.04-2.09-.09-.68-.04-1.41-.13-2.09-.21l-16.23-19.94Z"/>
  <path class="n" d="M205.25,159.75c.09,4.23,1.2,7.26,3.29,9.22,2.09,1.96,5.17,2.95,9.22,2.95,3.54,0,6.96-.64,10.16-1.88.38.77.73,1.67.98,2.73.26,1.07.38,2.14.47,3.2-1.67.68-3.46,1.24-5.47,1.58-1.96.34-4.18.51-6.58.51-3.5,0-6.53-.47-9.05-1.45-2.52-.98-4.57-2.35-6.23-4.14-1.62-1.79-2.82-3.89-3.59-6.32-.77-2.43-1.11-5.12-1.11-7.99s.38-5.55,1.11-7.99c.73-2.48,1.84-4.65,3.37-6.49,1.49-1.84,3.42-3.29,5.68-4.36s5-1.62,8.11-1.62c2.65,0,5,.47,7,1.37,2.01.9,3.67,2.14,5.04,3.71,1.37,1.58,2.39,3.46,3.07,5.64s1.07,4.57,1.07,7.09c0,.73-.04,1.45-.09,2.22-.04.77-.09,1.45-.17,2.01h-26.3ZM224.42,154.19c0-1.41-.17-2.73-.56-4.01s-.94-2.39-1.67-3.37c-.73-.94-1.67-1.71-2.78-2.31s-2.48-.85-4.01-.85c-3.07,0-5.42.94-7.05,2.78-1.62,1.88-2.6,4.44-2.99,7.73h19.04v.04Z"/>
  <path class="n" d="M241.59,138.65c.56-.09,1.11-.17,1.62-.21.51-.04,1.07-.09,1.62-.09s1.07.04,1.54.09c.47.04.98.13,1.54.21.17.77.3,1.75.47,3.03s.21,2.35.21,3.2c.51-.85,1.15-1.71,1.92-2.56s1.67-1.62,2.69-2.31c1.02-.68,2.18-1.24,3.46-1.67,1.32-.43,2.73-.64,4.31-.64,4.44,0,7.69,1.28,9.78,3.8s3.16,6.28,3.16,11.23v24.38c-.56.09-1.2.17-1.88.21-.68.04-1.32.09-1.88.09s-1.15-.04-1.84-.09c-.68-.04-1.28-.13-1.84-.21v-22.38c0-3.54-.56-6.19-1.67-7.81-1.11-1.67-2.86-2.52-5.29-2.52-1.41,0-2.73.26-3.97.77-1.24.51-2.35,1.28-3.33,2.35-.94,1.07-1.71,2.43-2.31,4.1s-.85,3.71-.85,6.06v19.51c-.56.09-1.15.17-1.84.21-.68.04-1.28.09-1.84.09s-1.2-.04-1.88-.09c-.68-.04-1.32-.13-1.88-.21v-38.56h-.04Z"/>
  <path class="n" d="M290.65,159.75c.09,4.23,1.2,7.26,3.29,9.22s5.17,2.95,9.22,2.95c3.54,0,6.96-.64,10.16-1.88.38.77.73,1.67.98,2.73s.38,2.14.47,3.2c-1.67.68-3.46,1.24-5.47,1.58-1.96.34-4.18.51-6.58.51-3.5,0-6.53-.47-9.05-1.45-2.52-.98-4.57-2.35-6.23-4.14-1.62-1.79-2.82-3.89-3.59-6.32-.77-2.43-1.11-5.12-1.11-7.99s.34-5.55,1.11-7.99c.73-2.48,1.84-4.65,3.37-6.49,1.49-1.84,3.42-3.29,5.68-4.36,2.31-1.07,5-1.62,8.11-1.62,2.65,0,5,.47,7,1.37,2.01.9,3.67,2.14,5.04,3.71,1.37,1.58,2.39,3.46,3.07,5.64.68,2.18,1.07,4.57,1.07,7.09,0,.73-.04,1.45-.09,2.22-.04.77-.09,1.45-.17,2.01h-26.3ZM309.78,154.19c0-1.41-.17-2.73-.56-4.01-.38-1.28-.94-2.39-1.67-3.37-.73-.94-1.67-1.71-2.78-2.31s-2.48-.85-4.01-.85c-3.07,0-5.42.94-7.05,2.78-1.62,1.88-2.6,4.44-2.99,7.73h19.04v.04Z"/>
  <path class="n" d="M342.58,178.06c-3.03,0-5.64-.51-7.9-1.54-2.26-1.02-4.14-2.43-5.64-4.27-1.49-1.79-2.6-3.93-3.33-6.41s-1.11-5.12-1.11-7.94.38-5.51,1.11-7.94c.73-2.48,1.84-4.61,3.33-6.41,1.49-1.79,3.37-3.25,5.64-4.31s4.91-1.58,7.9-1.58,5.64.51,7.9,1.58,4.14,2.48,5.64,4.31c1.49,1.79,2.6,3.93,3.37,6.41.73,2.48,1.11,5.12,1.11,7.94s-.38,5.51-1.11,7.94c-.73,2.48-1.84,4.61-3.37,6.41-1.49,1.79-3.37,3.25-5.64,4.27-2.22,1.02-4.87,1.54-7.9,1.54ZM342.58,172.13c3.46,0,6.02-1.24,7.69-3.76,1.67-2.52,2.48-6.02,2.48-10.42s-.81-7.9-2.48-10.38c-1.67-2.48-4.23-3.71-7.69-3.71s-6.02,1.24-7.64,3.71c-1.62,2.48-2.43,5.98-2.43,10.38s.81,7.9,2.43,10.42,4.18,3.76,7.64,3.76Z"/>
  <path class="h" d="M92.27,183.15c.26.85.47,1.41.56,1.62.04,0-.04,0,0,0-1.28-18.15,9.27-25.32,12.98-37.23.04-.17.09-.38.13-.6.09-.26.13-.56.17-.81.6-3.33-.64-7.22-3.07-11.32,0-.04-.04-.04-.04-.09-.21-.34-.43-.68-.64-1.02-.38-.64-.85-1.28-1.28-1.92-.04-.04-.09-.13-.13-.21-.13-.17-.26-.34-.38-.51-.13-.17-.26-.34-.38-.56-.13-.17-.26-.34-.43-.51-.13-.17-.3-.34-.43-.56-.09-.13-.21-.26-.3-.38-3.93-4.83-9.05-9.56-14.43-13.79,0,0-.04-.04,0,0,.51,6.79.38,13.66-.47,19.09-.98,6.53-3.63,14.09-7.13,20.88-7.64-.9-15.37-2.9-21.39-5.72-5.04-2.35-10.76-5.98-16.18-10.21.04.56.09,1.15.13,1.71,0,.17.04.34.04.51.04.43.09.81.13,1.2,0,.17.04.38.04.56.04.43.09.81.13,1.2,0,.17.04.34.04.51.09.51.13,1.02.21,1.54v.17c.09.6.17,1.2.26,1.75,0,.04,0,.09.04.13.09.51.17,1.02.26,1.58,0,.13.04.21.04.3.09.47.17.94.26,1.41.04.09.04.17.04.26.13.56.21,1.07.34,1.62.38,1.71.85,3.37,1.32,4.95v.04c.81,2.65,1.79,5.12,2.86,7.26.17.3.34.64.47.94v.04c.13.26.3.56.47.81v.04c.17.3.34.56.51.81.04.04.04.09.09.09.21.34.47.68.68.98.04.04.09.09.13.17l.04.04c.26.34.56.68.81,1.02.21.21.38.43.6.64.09.09.17.17.26.26.13.13.26.26.38.38.09.09.17.17.3.26.13.13.26.21.38.3.09.09.21.17.3.21.13.09.26.21.38.3.09.09.21.13.3.21.13.09.26.17.43.26.09.04.21.13.3.17.17.09.3.17.47.21.09.04.17.09.26.13.26.13.51.21.73.3.17.04.3.13.43.17,12,3.59,23.96-1.07,38.39,9.95"/>
  <g class="o">
    <path class="l" d="M84.11,134.34c-.98,6.53-3.63,14.09-7.13,20.88,13.54,1.58,26.69-.47,28.95-8.33,2.48-8.58-8.71-21.78-21.35-31.64.47,6.87.34,13.62-.47,19.09Z"/>
    <path class="k" d="M55.63,149.5c-5.04-2.35-10.76-5.98-16.18-10.21,1.2,15.97,6.02,32.54,14.56,35.27,7.81,2.48,16.82-7.26,23.02-19.39-7.64-.81-15.37-2.86-21.39-5.68Z"/>
  </g>
  <g class="m">
    <path class="i" d="M66.39,164.61c-19.94-7.34-26.94-25.32-26.94-25.32.73,9.78,2.82,19.77,6.32,26.73.17.3.3.6.47.9,0,.04.04.04.04.09.17.26.3.56.47.81,0,.04.04.09.09.09.17.26.3.51.47.77.04.04.04.09.09.09.17.26.3.47.47.73.13.17.21.3.3.43.04.04.04.09.09.13.09.09.17.21.21.3.17.26.38.47.56.68,1.49,1.75,3.2,3.03,5.04,3.63.17.04.3.13.43.17,12,3.59,23.96-1.07,38.39,9.95-1.15-1.49-11.4-14.52-26.47-20.15Z"/>
    <path class="j" d="M105.93,146.89c2.48-8.58-8.71-21.78-21.35-31.64,0,0,11.02,15.8,6.11,36.42-3.8,15.93,1.71,31.85,2.14,33.05.04,0-.04,0,0,0-1.28-18.15,9.27-25.32,12.98-37.23,0-.17.04-.38.13-.6Z"/>
  </g>
</svg>