<?xml version="1.0" encoding="UTF-8"?>
<svg id="a" data-name="Layer 1" xmlns="http://www.w3.org/2000/svg" viewBox="0 0 400 300">
  <defs>
    <style>
      .c {
        fill-rule: evenodd;
      }

      .c, .d {
        fill: #fff;
      }
    </style>
  </defs>
  <path class="d" d="M350.05,169.01c-3.97,3.92-8.82,5.88-14.55,5.88s-10.57-1.96-14.55-5.88c-3.92-3.97-5.88-8.82-5.88-14.55s1.96-10.55,5.88-14.47c3.97-3.97,8.82-5.96,14.55-5.96s10.57,1.99,14.55,5.96c3.97,3.92,5.96,8.74,5.96,14.47s-1.99,10.57-5.96,14.55ZM328,162.12c2.01,2.01,4.51,3.02,7.51,3.02s5.49-1.01,7.5-3.02c2.01-2.01,3.02-4.56,3.02-7.66s-1.01-5.65-3.02-7.66c-2.01-2.01-4.51-3.02-7.5-3.02s-5.49,1.01-7.51,3.02c-1.96,2.01-2.94,4.56-2.94,7.66s.98,5.65,2.94,7.66Z"/>
  <path class="d" d="M282.19,158.56c1.34,4.85,4.98,7.27,10.91,7.27,3.82,0,6.71-1.29,8.67-3.87l8.05,4.64c-3.82,5.52-9.44,8.28-16.87,8.28-6.4,0-11.53-1.93-15.4-5.8-3.87-3.87-5.8-8.74-5.8-14.62s1.91-10.68,5.73-14.55c3.82-3.92,8.72-5.88,14.7-5.88,5.67,0,10.34,1.96,14,5.88,3.71,3.92,5.57,8.77,5.57,14.55,0,1.29-.13,2.66-.39,4.1h-29.17ZM282.03,150.83h19.73c-.57-2.63-1.75-4.59-3.56-5.88-1.75-1.29-3.77-1.93-6.03-1.93-2.68,0-4.9.7-6.65,2.09-1.75,1.34-2.91,3.25-3.48,5.73Z"/>
  <path class="d" d="M253.55,134.04c4.23,0,7.71,1.42,10.44,4.26,2.79,2.84,4.18,6.76,4.18,11.76v23.75h-9.98v-22.52c0-2.58-.7-4.54-2.09-5.88-1.39-1.39-3.25-2.09-5.57-2.09-2.58,0-4.64.8-6.19,2.4s-2.32,4-2.32,7.2v20.89h-9.98v-38.69h9.98v4.33c2.42-3.61,6.27-5.42,11.53-5.42Z"/>
  <path class="d" d="M198.45,158.56c1.34,4.85,4.98,7.27,10.91,7.27,3.82,0,6.71-1.29,8.67-3.87l8.05,4.64c-3.82,5.52-9.44,8.28-16.87,8.28-6.4,0-11.53-1.93-15.4-5.8-3.87-3.87-5.8-8.74-5.8-14.62s1.91-10.68,5.73-14.55c3.82-3.92,8.72-5.88,14.7-5.88,5.67,0,10.34,1.96,14,5.88,3.71,3.92,5.57,8.77,5.57,14.55,0,1.29-.13,2.66-.39,4.1h-29.17ZM198.3,150.83h19.73c-.57-2.63-1.75-4.59-3.56-5.88-1.75-1.29-3.77-1.93-6.04-1.93-2.68,0-4.9.7-6.65,2.09-1.75,1.34-2.91,3.25-3.48,5.73Z"/>
  <path class="d" d="M190.77,173.81h-11.61l-14.08-17.56v17.56h-9.98v-51.66h9.98v30l13.31-17.02h11.92l-15.55,19.11,16.02,19.58Z"/>
  <path class="d" d="M139.01,135.12h9.98v38.69h-9.98v-4.56c-2.99,3.77-7.2,5.65-12.61,5.65s-9.59-1.96-13.31-5.88c-3.66-3.97-5.49-8.82-5.49-14.55s1.83-10.55,5.49-14.47c3.71-3.97,8.15-5.96,13.31-5.96,5.42,0,9.62,1.88,12.61,5.65v-4.56ZM120.6,162.35c2.01,2.01,4.56,3.02,7.66,3.02s5.65-1.01,7.66-3.02c2.06-2.06,3.1-4.69,3.1-7.89s-1.03-5.8-3.1-7.81c-2.01-2.06-4.56-3.09-7.66-3.09s-5.65,1.03-7.66,3.09c-2.01,2.01-3.02,4.62-3.02,7.81s1.01,5.83,3.02,7.89Z"/>
  <path class="c" d="M52.43,125.11c-4.66,0-8.44,3.78-8.44,8.44v35.87c0,4.66,3.78,8.44,8.44,8.44h35.87c4.66,0,8.44-3.78,8.44-8.44v-35.87c0-4.66-3.78-8.44-8.44-8.44h-35.87ZM80,168.46s0,0,0,0h0s0,0,0,0ZM80,168.46c-.11-.71-.13-2.1,0-4.07.08-1.21.4-2.4.79-3.56.63-1.89,1.58-3.64,2.53-5.39.07-.12.13-.24.2-.36.05-.09.1-.18.14-.27.95-1.75,1.97-3.64,2.23-5.62.35-2.74-1.55-5.45-3.19-7.47-2.25-2.76-4.99-5.12-7.86-7.22.27,2.61.4,5.37.21,8.04-.18,2.52-.74,5-1.54,7.4-.44,1.32-.95,2.62-1.53,3.89-.18.4-.2.41-.64.37-.34-.03-.68-.07-1.01-.11-.71-.09-1.42-.19-2.13-.31-2.5-.44-4.99-1.11-7.31-2.14-2.74-1.22-5.32-2.82-7.74-4.59.28,2.68.77,5.35,1.53,7.94.69,2.37,1.59,4.79,3.1,6.78.75.99,1.7,1.88,2.9,2.29,1.07.37,2.22.53,3.34.63,1.11.1,2.23.13,3.35.17,1.27.04,2.55.07,3.81.21,3.22.36,6.21,1.5,8.85,3.38Z"/>
</svg>