<?xml version="1.0" encoding="UTF-8"?>
<svg id="a" data-name="Layer 1" xmlns="http://www.w3.org/2000/svg" viewBox="0 0 400 300">
  <defs>
    <style>
      .c {
        fill: #fff;
      }
    </style>
  </defs>
  <path class="c" d="M133.8,156.83c-1.22-1.7-3.35-3.08-5.96-3.08-4.79,0-8.19,3.62-8.19,8.56s3.46,8.56,8.19,8.56c2.23,0,4.31-.96,5.37-1.91.05-.05.11-.16.11-.27v-2.66c0-.16-.16-.32-.32-.32h-6.12c-.27,0-.43-.21-.43-.43v-3.99c0-.27.21-.43.43-.43h11.01v-5.9l-3.56,1.97c-.11.11-.37.05-.53-.11ZM82.21,159.59h6.54c1.86,0,3.03-1.06,3.03-2.71s-1.17-2.71-3.03-2.71h-6.54c-.21,0-.43.16-.43.43v4.68c.05.16.21.32.43.32ZM108.86,174.96c0,.21-.16.37-.37.37h-4.84c-.21,0-.37-.16-.37-.37v-25.37c0-.21.16-.37.37-.37h4.84c.21,0,.37.16.37.37v25.37ZM136.57,114.23l-47.81,35h1.22c4.95,0,7.5,3.19,7.5,6.65,0,2.71-1.44,4.73-3.3,5.58-.32.16-.32.59,0,.74,2.23.9,3.78,3.3,3.78,6.06,0,3.94-2.55,7.07-7.55,7.07h-13.72c-.21,0-.43-.16-.43-.43v-16.54l-35.48,25.96c-.69.48-.32,1.6.53,1.6h95.74c.48,0,.85-.37.85-.85v-13.14c-2.55,2.39-5.96,3.88-10.05,3.88-7.66,0-13.88-5.27-13.88-13.51s6.28-13.51,13.88-13.51c4.84,0,8.03,2.18,10.05,4.84v-38.67c.05-.74-.74-1.12-1.33-.74ZM82.21,170.44h6.75c2.07,0,3.3-1.12,3.3-2.98,0-1.65-1.17-2.98-3.3-2.98h-6.75c-.21,0-.43.16-.43.43v5.11c.05.27.21.43.43.43ZM165.72,169.65l-2.98-1.54c-.21-.11-.43-.05-.53.16-1.28,1.97-3.62,3.46-6.12,3.46-5,0-8.67-3.99-8.67-9.41s3.67-9.41,8.67-9.41c2.55,0,4.84,1.44,6.12,3.46.11.21.37.27.53.16l2.98-1.6c.21-.11.32-.43.16-.64-1.86-2.98-5-5.43-9.84-5.43-7.45,0-13.19,5.43-13.19,13.51s5.74,13.51,13.19,13.51c4.84,0,7.92-2.55,9.84-5.48.16-.32.11-.64-.16-.74ZM181.3,171.72c-5.11,0-8.35-4.04-8.35-9.41s3.24-9.41,8.35-9.41,8.35,4.04,8.35,9.41-3.3,9.41-8.35,9.41ZM177.74,149.22c-5.58,1.49-9.31,6.54-9.31,13.03,0,7.77,5.32,13.51,12.87,13.51,6.44,0,11.28-4.2,12.55-10.27,2.02-9.89-6.65-18.77-16.12-16.28ZM225.44,149.22h-5.74c-.27,0-.48.16-.59.37l-6.91,17.92-6.97-17.92c-.11-.21-.32-.37-.59-.37h-5.74c-.16,0-.32.16-.32.32v25.48c0,.16.16.32.32.32h3.94c.16,0,.32-.16.32-.32v-19.84l7.98,20c.05.11.11.16.21.16h1.65c.11,0,.16-.05.21-.16l7.92-20v19.84c0,.16.16.32.32.32h3.94c.16,0,.32-.16.32-.32v-25.48c.05-.16-.11-.32-.27-.32ZM283.9,149.22h-16.91c-.27,0-.48.21-.48.48v25.16c0,.27.21.48.48.48h16.91c.27,0,.48-.21.48-.48v-3.08c0-.27-.21-.48-.48-.48h-12.34c-.27,0-.48-.21-.48-.48v-6.33c0-.27.21-.48.48-.48h12.07c.27,0,.48-.21.48-.48v-3.08c0-.27-.21-.48-.48-.48h-12.07c-.27,0-.48-.21-.48-.48v-5.8c0-.27.21-.48.48-.48h12.34c.27,0,.48-.21.48-.48v-3.08c0-.21-.21-.43-.48-.43ZM301.71,161.56h-5.8c-.27,0-.48-.21-.48-.48v-7.34c0-.27.21-.48.48-.48h5.8c2.55,0,4.47,1.6,4.47,4.1s-1.86,4.2-4.47,4.2ZM305.33,164.91c2.93-.74,5.53-3.24,5.53-7.55,0-4.84-3.4-8.19-8.56-8.19h-10.96c-.27,0-.48.21-.48.48v25.16c0,.27.21.48.48.48h3.62c.27,0,.48-.21.48-.48v-8.78c0-.27.21-.48.48-.48h3.83c.16,0,.32.11.43.21l5.48,9.25c.11.16.21.21.43.21h4.2c.37,0,.59-.43.37-.69-1.22-1.91-4.52-7.23-5.58-8.99-.21-.21-.05-.53.27-.64ZM346.76,153.26h12.34c.27,0,.48-.21.48-.48v-3.08c0-.27-.21-.48-.48-.48h-16.91c-.27,0-.48.21-.48.48v25.16c0,.27.21.48.48.48h16.91c.27,0,.48-.21.48-.48v-3.08c0-.27-.21-.48-.48-.48h-12.34c-.27,0-.48-.21-.48-.48v-6.33c0-.27.21-.48.48-.48h12.07c.27,0,.48-.21.48-.48v-3.08c0-.27-.21-.48-.48-.48h-12.07c-.27,0-.48-.21-.48-.48v-5.8c0-.21.21-.43.48-.43ZM337.08,169.54l-2.98-1.54c-.21-.11-.43-.05-.53.16-1.28,1.97-3.62,3.46-6.12,3.46-5,0-8.67-3.99-8.67-9.41s3.67-9.41,8.67-9.41c2.55,0,4.84,1.44,6.12,3.46.11.21.37.27.53.16l2.98-1.6c.21-.11.32-.43.16-.64-1.86-2.98-5-5.43-9.84-5.43-7.45,0-13.19,5.43-13.19,13.51s5.74,13.51,13.19,13.51c4.84,0,7.92-2.55,9.84-5.48.16-.32.05-.64-.16-.74ZM259.22,149.22h-5.74c-.27,0-.48.16-.59.37l-6.91,17.92-6.97-17.92c-.11-.21-.32-.37-.59-.37h-5.74c-.16,0-.32.16-.32.32v25.48c0,.16.16.32.32.32h3.94c.16,0,.32-.16.32-.32v-19.84l7.98,20c.05.11.11.16.21.16h1.65c.11,0,.16-.05.21-.16l7.92-20v19.84c0,.16.16.32.32.32h3.94c.16,0,.32-.16.32-.32v-25.48c0-.16-.11-.32-.27-.32Z"/>
</svg>