<?xml version="1.0" encoding="UTF-8"?>
<svg id="a" data-name="Layer 1" xmlns="http://www.w3.org/2000/svg" viewBox="0 0 400 300">
  <defs>
    <style>
      .c {
        fill-rule: evenodd;
      }

      .c, .d {
        fill: #fff;
      }
    </style>
  </defs>
  <path class="d" d="M155.7,132.08v31.23h-4.99v-31.23h4.99Z"/>
  <path class="d" d="M245.92,150.46v12.93h-4.99v-12.14c.13-2.76-2.1-5.12-4.86-5.18-2.76-.13-5.12,2.1-5.18,4.86v12.47h-5.05v-12.14c.2-2.69-1.84-4.99-4.53-5.18h-.52c-2.76,0-5.05,2.3-4.99,5.05v12.2h-5.05v-21.46h4.99v2.49c1.57-1.84,3.94-2.95,6.36-2.89,2.89-.07,5.58,1.31,7.15,3.67,1.77-2.36,4.59-3.74,7.55-3.67,4.79-.2,8.86,3.54,9.05,8.33.07.2.07.39.07.66Z"/>
  <path class="d" d="M262.39,141.47v5.31c-4.86-.33-7.28,2.17-7.28,5.45v11.15h-4.99v-21.52h4.99v3.02c1.77-2.17,4.46-3.48,7.28-3.41Z"/>
  <path class="d" d="M285.09,154.39h-16.93c.66,2.95,3.35,5.05,6.43,4.92,2.49.07,4.86-1.25,6.04-3.48l4.2,1.77c-1.84,3.81-5.71,6.23-9.91,6.17-6.1.26-11.29-4.46-11.55-10.56v-.59c-.13-6.04,4.66-11.02,10.7-11.15h.46c5.97-.07,10.83,4.66,10.89,10.63-.13.72-.2,1.51-.33,2.3ZM268.16,150.59h12.4c-.72-2.76-3.22-4.72-6.04-4.72-2.95-.07-5.58,1.9-6.36,4.72Z"/>
  <path class="d" d="M310.42,141.86v21.46h-4.99v-2.89c-1.77,2.17-4.46,3.35-7.22,3.28-6.04,0-10.5-4.59-10.5-11.15s4.46-11.15,10.5-11.15c2.76-.07,5.45,1.18,7.22,3.28v-2.89l4.99.07ZM305.43,152.62c.13-3.54-2.62-6.5-6.1-6.63h-.2c-3.67.2-6.43,3.35-6.23,7.02.2,3.35,2.89,6.04,6.23,6.23,3.54,0,6.36-2.89,6.36-6.43-.07-.07-.07-.13-.07-.2Z"/>
  <path class="d" d="M313.96,152.62c-.13-6.04,4.66-11.02,10.7-11.15h.39c4.59-.13,8.73,2.62,10.5,6.89l-4.66,1.57c-.98-2.3-3.21-3.81-5.71-3.81-3.41,0-6.23,2.69-6.23,6.1v.39c-.13,3.48,2.49,6.36,5.97,6.56,2.69.13,5.18-1.51,6.17-4.07l4.53,1.77c-1.71,4.26-5.9,7.02-10.5,6.95-6.04.13-11.02-4.59-11.15-10.63v-.59Z"/>
  <path class="d" d="M359.49,150.91v12.47h-4.99v-11.68c.2-2.95-2.03-5.45-4.99-5.64h-.52c-3.02-.07-5.51,2.36-5.58,5.38v11.88h-4.99v-31.23h4.99v12.53c3.28-3.81,9.05-4.26,12.86-1.05,2.1,1.84,3.28,4.53,3.22,7.35Z"/>
  <path class="d" d="M129.19,143.37v-11.29h-4.99v31.23h4.99v-1.51c1.84,1.18,3.94,1.77,6.1,1.71,1.44,0,2.89-.26,4.2-.79,5.64-2.56,8.14-9.19,5.58-14.76-1.12-2.49-3.08-4.46-5.58-5.58-1.31-.52-2.76-.79-4.2-.79-2.1,0-4.26.59-6.1,1.77ZM134.77,159.12c-2.3,0-4.46-1.25-5.58-3.28-1.05-2.03-1.05-4.46,0-6.43,1.05-2.03,3.22-3.35,5.58-3.28,3.61.13,6.43,3.08,6.36,6.69-.13,3.41-2.89,6.23-6.36,6.3Z"/>
  <path class="d" d="M159.4,152.61c-.13-6.23,4.92-11.42,11.15-11.55,6.23-.13,11.42,4.92,11.55,11.15.13,6.23-4.92,11.42-11.15,11.55h-.2c-6.1.2-11.15-4.59-11.35-10.63v-.52ZM170.75,159.1c3.61.13,6.63-2.76,6.76-6.36.13-3.61-2.76-6.63-6.36-6.76s-6.63,2.76-6.76,6.36v.2c-.13,3.48,2.69,6.43,6.17,6.56h.2Z"/>
  <path class="d" d="M184.59,152.61c-.13-6.3,4.85-11.42,11.15-11.55,6.3-.13,11.42,4.86,11.55,11.15.13,6.3-4.86,11.42-11.15,11.55h-.2c-6.1.2-11.15-4.59-11.35-10.63v-.52ZM195.94,159.1c3.61.13,6.63-2.76,6.76-6.36.13-3.61-2.76-6.63-6.36-6.76-3.61-.13-6.63,2.76-6.76,6.36v.2c-.13,3.48,2.69,6.43,6.17,6.56h.2Z"/>
  <path class="c" d="M75.02,184.45c19.06,0,34.51-15.42,34.51-34.45s-15.45-34.45-34.51-34.45-34.51,15.42-34.51,34.45,15.45,34.45,34.51,34.45ZM82.07,142.84l-1.71,4.26c1.84,1.18,2.95,3.22,2.89,5.38-.07,3.41-2.95,6.04-6.3,5.97-3.41-.07-6.04-2.95-5.97-6.3.07-3.22,2.62-5.84,5.84-5.97l1.57-4.4c-5.77-.92-11.22,3.02-12.14,8.79-.07.52-.13,1.12-.13,1.64v11.09h4.86v-1.71c1.84,1.18,3.94,1.77,6.1,1.71,5.91.2,10.76-4.46,10.96-10.37v-.46c.13-4.07-2.23-7.87-5.97-9.65ZM71.04,139.04c-1.84.79-3.48,1.9-4.86,3.28v-10.24h4.86v6.96Z"/>
</svg>