<?xml version="1.0" encoding="UTF-8"?>
<svg id="a" data-name="Layer 1" xmlns="http://www.w3.org/2000/svg" viewBox="0 0 400 300">
  <defs>
    <style>
      .c {
        fill: #fff;
      }
    </style>
  </defs>
  <path class="c" d="M206.48,120.39l38.65-22.31c3.14-1.81,3.14-6.35,0-8.17l-41-23.67c-1.95-1.12-4.34-1.12-6.29,0l-42.18,24.35c-1.95,1.12-3.14,3.2-3.14,5.45v49.62c0,1.68.9,3.24,2.35,4.08l42.97,24.85c1.95,1.13,4.35,1.13,6.3,0l41.01-23.71c3.14-1.82,3.14-6.35,0-8.17l-38.65-22.31h0ZM200.98,70.77l40.22,23.22-40.22,23.22-40.22-23.22,40.22-23.22h0ZM198.23,168.42l-40.22-23.22v-46.44l40.22,23.22v46.44h0ZM203.73,125.15l37.47,21.63-37.47,21.63v-43.26h0Z"/>
  <g>
    <path class="c" d="M181,224.83c-.47,3.99-2.14,5.6-4.97,5.6-3.51,0-5.37-2.43-5.37-7.48v-.5h15.92c.13-1.28.18-2.39.18-3.56,0-7.6-3.85-11.87-10.75-11.87-7.41,0-11.43,4.49-11.43,12.63v2.33c0,8.14,3.99,12.61,11.25,12.61,6.33,0,10.15-2.99,11.04-8.99l-5.87-.76h0ZM175.95,211.15c3.14,0,4.72,2.04,4.72,6.43v.68h-10.01c.12-4.75,1.88-7.11,5.29-7.11h0Z"/>
    <path class="c" d="M64.46,224l6.26.78c-.73,6.41-4.5,9.82-11.02,9.82-7.41,0-11.25-4.77-11.25-13.91v-.1c0-8.94,3.93-13.61,11.27-13.61,6.62,0,10.17,3.52,10.7,10.17l-6.1.73c-.28-4.59-1.69-6.7-4.62-6.7-3.37,0-4.95,2.71-4.95,8.42v2.1c0,5.87,1.63,8.67,5.03,8.67,2.89,0,4.41-2.11,4.69-6.36h0Z"/>
    <path class="c" d="M84.74,206.98c-7.28,0-11.32,5.07-11.32,13.54v.55c0,8.41,4.04,13.54,11.32,13.54s11.32-5.13,11.32-13.54v-.55c0-8.47-4.04-13.54-11.32-13.54ZM89.77,221.97c0,5.71-1.67,8.42-5.03,8.42s-5.03-2.71-5.03-8.42v-2.35c0-5.71,1.63-8.44,5.03-8.44s5.03,2.74,5.03,8.44v2.35Z"/>
    <path class="c" d="M306.89,206.98c-7.28,0-11.32,5.07-11.32,13.54v.55c0,8.41,4.04,13.54,11.32,13.54s11.33-5.13,11.33-13.54v-.55c0-8.47-4.05-13.54-11.33-13.54ZM311.91,221.97c0,5.71-1.65,8.42-5.03,8.42s-5.02-2.71-5.02-8.42v-2.35c0-5.71,1.63-8.44,5.02-8.44s5.03,2.74,5.03,8.44v2.35Z"/>
    <rect class="c" x="321.55" y="199.8" width="6.13" height="34.17"/>
    <path class="c" d="M221.3,224l6.26.78c-.73,6.41-4.49,9.82-11.02,9.82-7.41,0-11.25-4.77-11.25-13.91v-.1c0-8.94,3.93-13.61,11.27-13.61,6.62,0,10.17,3.52,10.7,10.17l-6.1.73c-.28-4.59-1.69-6.7-4.62-6.7-3.37,0-4.95,2.71-4.95,8.42v2.1c0,5.87,1.63,8.67,5.03,8.67,2.89,0,4.41-2.11,4.69-6.36h0Z"/>
    <path class="c" d="M351.55,226.9c0,4.8-3.72,7.68-10.12,7.68-6.83,0-10.75-2.99-10.92-8.32l5.82-1.18c-.05,3.44,1.76,5.38,5.07,5.38,2.59,0,4.02-1.01,4.02-2.99s-1.28-2.86-4.64-4.12l-3.37-1.28c-3.36-1.28-6.25-3.74-6.25-7.41,0-4.87,3.39-7.68,9.54-7.68s10.01,2.79,10.04,7.68l-5.7,1.01c.12-3.12-1.43-4.5-4.27-4.5-2.48,0-3.86.93-3.86,2.62s1.2,2.78,4.57,3.99l3.36,1.23c3.37,1.24,6.7,3.14,6.7,7.89h0Z"/>
    <path class="c" d="M281.61,206.98c-7.28,0-11.32,5.07-11.32,13.54v.55c0,8.41,4.04,13.54,11.32,13.54s11.33-5.13,11.33-13.54v-.55c0-8.47-4.05-13.54-11.33-13.54ZM286.64,221.97c0,5.71-1.66,8.42-5.03,8.42s-5.02-2.71-5.02-8.42v-2.35c0-5.71,1.63-8.44,5.02-8.44s5.03,2.74,5.03,8.44v2.35Z"/>
    <path class="c" d="M265.03,229.73c1.13,0,2.54-.3,3.87-.88l-.35,4.47c-1.39.73-3.52,1.23-5.53,1.23-4.77,0-7.23-2.41-7.23-7.58v-25.33l6.13-1.83v7.81h6.91v4.44h-6.91v14.19c0,2.51,1.03,3.49,3.11,3.49h0Z"/>
    <path class="c" d="M246.68,224.83c-.47,3.99-2.13,5.6-4.97,5.6-3.52,0-5.37-2.43-5.37-7.48v-.5h15.92c.13-1.28.18-2.39.18-3.56,0-7.6-3.85-11.87-10.75-11.87-7.41,0-11.43,4.49-11.43,12.63v2.33c0,8.14,3.99,12.61,11.25,12.61,6.33,0,10.15-2.99,11.05-8.99l-5.88-.76h0ZM241.63,211.15c3.14,0,4.72,2.04,4.72,6.43v.68h-10.01c.12-4.75,1.88-7.11,5.29-7.11Z"/>
    <path class="c" d="M118.37,214.61c1.89-5.25,4.79-7.64,8.53-7.64h0c4.04,0,5.91,2.89,4.93,7.48l.5.15c1.89-5.25,4.79-7.64,8.53-7.64h0c4.04,0,5.91,2.89,4.93,7.48l.5.15c1.85-5.27,4.74-7.64,8.68-7.64,4.29,0,6.33,2.56,6.33,7.46v19.54h-6.13v-18.5c0-2.61-1.01-3.91-3.02-3.91-3.06,0-4.82,3.77-4.82,8.81v13.61h-6.1v-18.46c0-2.56-1.15-3.96-3.05-3.96-3.06,0-4.82,3.77-4.82,8.81v13.61h-6.1v-18.46c0-2.56-1.05-4-2.96-4h0v.04h-.01c-3.06,0-4.82,3.77-4.82,8.81v13.61h-6.1v-18.46c0-2.56-1.05-4-2.96-4-2.96,0-4.93,3.62-4.93,8.99v13.46h-6.13v-26.36h6.15c.06,1.61-.25,3.03-1.4,6.6l.5.23c2.36-5.4,4.8-7.46,8.38-7.46,4.04,0,5.9,2.89,4.93,7.48l.43.15h0Z"/>
    <path class="c" d="M204.77,212.35c-6.84.46-8.44,2.75-8.44,10.1v11.52h-6.13v-26.36h6.15c.06,1.86-.19,3.19-1.43,6.73l.5.23c1.71-3.99,3.71-7.66,9.78-7.78l-.43,5.56h0Z"/>
  </g>
</svg>