<?xml version="1.0" encoding="UTF-8"?>
<svg id="a" data-name="Layer 1" xmlns="http://www.w3.org/2000/svg" viewBox="0 0 400 300">
  <defs>
    <style>
      .c {
        fill-rule: evenodd;
      }

      .c, .d {
        fill: #fff;
      }
    </style>
  </defs>
  <path class="d" d="M98.85,150.74c1.81,0,2.85-.11,5.15-.6l.55,3.84c-1.75.49-3.73.71-5.7.71-8.83,0-11.35-5.54-11.35-11.96.05-6.31,3.84-11.57,11.3-11.57,1.97,0,3.67.22,5.7.77l-.77,3.84c-2.19-.49-3.45-.55-4.83-.55-4.66.05-6.96,3.56-7.07,7.57.05,4,1.54,7.95,7.02,7.95Z"/>
  <path class="d" d="M116.89,150.8c4.61-.05,6.14-3.78,6.14-7.84-.05-3.73-1.59-7.9-6.14-7.9-4.44.05-6.14,4.17-6.14,7.9-.05,4.22,1.81,7.84,6.14,7.84ZM116.89,131.22c7.24.05,10.47,5.43,10.47,11.74s-2.8,11.68-10.53,11.74c-7.57-.05-10.47-5.54-10.47-11.74s3.29-11.68,10.53-11.74Z"/>
  <path class="d" d="M157.36,154.25v-14.48c0-3.67-1.37-4.66-3.67-4.66-1.59,0-3.35.88-4.94,2.19.05.49.11,1.43.11,1.75v15.25h-4.5v-14.64c0-3.67-1.1-4.55-3.4-4.55-1.43,0-3.45.99-5.21,2.25v16.95h-4.44v-22.65h4.44v1.92c1.37-1.1,3.57-2.36,5.92-2.36,3.13-.05,4.94,1.04,5.98,2.74,1.86-1.75,4.61-2.69,6.69-2.74,7.35-.11,7.51,5.81,7.51,8.28v14.81h-4.5v-.05Z"/>
  <path class="d" d="M192.79,154.25v-14.48c0-3.67-1.37-4.66-3.67-4.66-1.59,0-3.35.88-4.94,2.19.05.49.11,1.43.11,1.75v15.25h-4.5v-14.64c0-3.67-1.1-4.55-3.4-4.55-1.43,0-3.46.99-5.21,2.25v16.95h-4.44v-22.65h4.44v1.92c1.37-1.1,3.56-2.36,5.92-2.36,3.13-.05,4.94,1.04,5.98,2.74,1.86-1.75,4.61-2.69,6.69-2.74,7.35-.11,7.51,5.81,7.51,8.28v14.81h-4.5v-.05Z"/>
  <path class="d" d="M205.29,140.32h9.93c-.16-4.61-2.47-5.54-4.61-5.54-3.35-.05-4.94,2.25-5.32,5.54ZM218.12,150.14l.66,3.67c-2.03.66-4.77.99-6.96.99-8.94,0-11.13-5.98-11.13-12.01s2.63-11.57,10.15-11.57c4.61,0,8.5,2.85,8.55,10.15l-.06,2.36h-14.26c.05,4.44,2.47,7.13,6.91,7.13,1.81.05,3.67-.16,6.14-.71Z"/>
  <path class="d" d="M235.84,135.77c-1.15-.27-2.19-.33-2.91-.33-2.8-.05-4.22,1.32-5.26,2.41v16.45h-4.44v-22.65h4.44v2.03c1.15-1.21,2.96-2.25,5.21-2.3.93-.05,2.47.11,3.73.6,0-.05-.77,3.78-.77,3.78Z"/>
  <path class="d" d="M248.89,150.74c1.81,0,2.85-.11,5.16-.6l.55,3.84c-1.76.49-3.73.71-5.7.71-8.83,0-11.35-5.54-11.35-11.96.05-6.31,3.89-11.57,11.3-11.57,1.97,0,3.67.22,5.7.77l-.77,3.84c-2.19-.49-3.45-.55-4.83-.55-4.66.05-6.96,3.56-7.07,7.57.05,4,1.54,7.95,7.02,7.95Z"/>
  <path class="d" d="M261.01,140.32h9.93c-.16-4.61-2.47-5.54-4.61-5.54-3.35-.05-4.94,2.25-5.32,5.54ZM273.84,150.14l.66,3.67c-2.03.66-4.77.99-6.96.99-8.94,0-11.13-5.98-11.13-12.01s2.63-11.57,10.15-11.57c4.61,0,8.5,2.85,8.55,10.15l-.05,2.36h-14.26c.05,4.44,2.47,7.13,6.91,7.13,1.81.05,3.67-.16,6.14-.71Z"/>
  <path class="d" d="M290.24,135.28h-6.14v10.97c0,2.3.27,3.89,2.63,4.22,1.32.11,2.63,0,3.89-.16l.27,3.84c-1.32.22-3.24.27-4,.27-5.26-.22-7.24-2.91-7.24-7.13v-12.06h-3.24v-3.13l3.24-.38v-5.15h4.44v5.05h6.14v3.67Z"/>
  <path class="d" d="M303.23,150.8c4.61-.05,6.14-3.78,6.14-7.84-.06-3.73-1.59-7.9-6.14-7.9-4.44.05-6.14,4.17-6.14,7.9-.06,4.22,1.81,7.84,6.14,7.84ZM303.23,131.22c7.24.05,10.47,5.43,10.47,11.74s-2.8,11.68-10.53,11.74c-7.57-.05-10.47-5.54-10.47-11.74.06-6.31,3.29-11.68,10.53-11.74Z"/>
  <path class="d" d="M327.31,150.8c4.61-.05,6.14-3.78,6.14-7.84-.05-3.73-1.59-7.9-6.14-7.9-4.44.05-6.14,4.17-6.14,7.9-.05,4.22,1.81,7.84,6.14,7.84ZM327.31,131.22c7.24.05,10.47,5.43,10.47,11.74s-2.8,11.68-10.53,11.74c-7.57-.05-10.47-5.54-10.47-11.74.05-6.31,3.29-11.68,10.53-11.74Z"/>
  <path class="d" d="M345.68,123.49h-4.33v30.77h4.33v-30.77Z"/>
  <path class="d" d="M350.18,149.87c2.52.66,4.94.99,6.42.99,1.75,0,3.57-.38,3.73-2.52.11-2.25-2.19-2.96-4.88-4.06-3.02-1.26-6.31-2.96-6.2-7.13.05-2.08,1.32-6.2,8.01-5.98,2.03.05,4.44.38,6.42.88l-.77,3.73c-2.36-.55-4.17-.82-5.87-.82-1.92,0-3.4.6-3.51,2.41-.06,1.54,1.15,2.36,4.17,3.56,3.02,1.26,7.29,2.85,7.07,7.62-.11,3.02-2.08,6.31-8.17,6.25-1.92-.05-5.04-.27-7.35-1.1l.93-3.84Z"/>
  <path class="d" d="M182.15,169c0,1.43-.49,2.52-1.43,3.29-.93.77-2.36,1.15-4.17,1.15h-1.15l-1.04,4.99h-1.48l2.69-12.61h2.85c1.21,0,2.19.27,2.8.82.6.49.93,1.32.93,2.36ZM175.68,172.19h1.15c1.26,0,2.19-.27,2.85-.77.66-.55.99-1.32.99-2.3,0-.71-.22-1.26-.6-1.54-.38-.33-1.04-.49-1.86-.49h-1.43l-1.1,5.1Z"/>
  <path class="d" d="M184.07,178.44h-1.43l2.85-13.44h1.43l-2.85,13.44Z"/>
  <path class="d" d="M192.18,168.78c.55,0,.99.16,1.43.44.44.27.71.71.99,1.21h.11l.6-1.48h1.1l-2.03,9.49h-1.15l.22-1.81h-.06c-1.04,1.32-2.14,1.97-3.24,1.97-.82,0-1.43-.27-1.86-.88-.44-.55-.66-1.37-.66-2.36,0-1.21.22-2.3.6-3.35.38-1.04.99-1.81,1.7-2.41.6-.55,1.37-.82,2.25-.82ZM190.54,177.39c.55,0,1.1-.27,1.65-.82.55-.55.99-1.21,1.37-2.08.33-.88.49-1.7.49-2.58,0-.6-.16-1.04-.49-1.43-.33-.33-.77-.55-1.26-.55-.6,0-1.15.27-1.7.77-.49.49-.93,1.15-1.21,2.03-.27.82-.44,1.75-.44,2.69,0,.66.11,1.15.38,1.48.33.33.71.49,1.21.49Z"/>
  <path class="d" d="M200.08,177.4c.33,0,.71-.05,1.26-.22v1.1c-.22.05-.44.16-.71.22-.27.05-.49.11-.71.11-.71,0-1.26-.16-1.65-.49-.38-.33-.55-.88-.55-1.54,0-.38.06-.82.16-1.32l1.1-5.21h-1.48l.11-.66,1.59-.66,1.1-1.97h.82l-.49,2.19h2.36l-.22,1.1h-2.36l-1.1,5.21c-.11.49-.16.88-.16,1.15,0,.33.11.55.27.77.11.16.33.22.66.22Z"/>
  <path class="d" d="M201.51,182.66c-.38,0-.77-.05-1.1-.16v-1.21c.38.11.71.16.99.16.44,0,.77-.16.99-.55.22-.38.44-.88.55-1.54l1.97-9.38h-1.65l.11-.6,1.76-.55.22-.88c.27-1.15.66-1.97,1.1-2.47.49-.49,1.15-.71,2.08-.71.22,0,.49.05.82.11s.6.16.77.22l-.38,1.1c-.44-.16-.82-.27-1.21-.27-.49,0-.88.16-1.15.44-.27.27-.49.77-.66,1.54l-.22.93h2.08l-.22,1.1h-2.03l-2.03,9.49c-.22,1.1-.55,1.86-1.04,2.41-.38.6-1.04.82-1.76.82Z"/>
  <path class="d" d="M213.46,168.84c1.1,0,1.97.33,2.58.99.66.66.93,1.54.93,2.69s-.22,2.08-.6,3.07c-.44.99-.99,1.7-1.7,2.25-.71.55-1.54.77-2.41.77-1.1,0-1.97-.33-2.58-.99-.6-.66-.93-1.54-.93-2.69s.22-2.14.66-3.07c.44-.99.99-1.7,1.7-2.25.71-.55,1.54-.77,2.36-.77ZM215.55,172.24c0-.66-.16-1.21-.55-1.59-.38-.44-.82-.6-1.48-.6-.6,0-1.21.22-1.7.66-.49.44-.88,1.04-1.15,1.75-.27.77-.38,1.59-.38,2.52,0,.77.16,1.32.55,1.75.38.44.88.6,1.59.6.6,0,1.15-.22,1.59-.66.49-.44.88-1.04,1.1-1.81.27-.71.44-1.59.44-2.63Z"/>
  <path class="d" d="M224.37,168.78c.38,0,.77.05,1.04.11l-.33,1.32c-.33-.05-.6-.11-.93-.11-.55,0-1.04.16-1.48.49-.44.33-.88.82-1.21,1.43-.33.6-.6,1.32-.77,2.03l-.93,4.33h-1.43l2.03-9.49h1.21l-.16,1.75h.11c.44-.55.77-.93,1.04-1.21.27-.22.55-.44.88-.55.22-.05.55-.11.93-.11Z"/>
  <path class="d" d="M230.9,178.44l1.26-5.98c.11-.55.16-.93.16-1.15,0-.38-.11-.71-.27-.93-.16-.22-.49-.33-.93-.33-.49,0-.93.16-1.43.49-.44.33-.88.82-1.21,1.48-.33.66-.6,1.43-.82,2.3l-.88,4.11h-1.43l2.03-9.49h1.21l-.16,1.75h.11c.49-.71.99-1.15,1.48-1.48.49-.27.99-.44,1.54-.44.66,0,1.15.16,1.48.55.33.38.55.88.6,1.59h.05c.49-.71,1.04-1.26,1.59-1.59.55-.33,1.1-.55,1.7-.55.71,0,1.32.22,1.7.6.38.38.6.99.6,1.7,0,.38-.06.88-.16,1.54l-1.26,5.81h-1.48l1.26-5.98c.11-.6.16-1.04.16-1.26,0-.38-.11-.66-.27-.88-.22-.22-.49-.33-.93-.33-.49,0-.93.16-1.37.49-.44.33-.88.82-1.21,1.43-.33.6-.6,1.32-.77,2.19l-.93,4.33h-1.43Z"/>
  <path class="d" d="M256.13,170.81c0,1.48-.33,2.85-.93,4-.6,1.15-1.48,2.03-2.58,2.69-1.1.6-2.47.93-3.95.93h-3.02l2.69-12.61h2.96c1.59,0,2.8.44,3.62,1.32.82.88,1.21,2.03,1.21,3.67ZM248.78,177.12c1.15,0,2.19-.27,3.07-.77.88-.55,1.54-1.26,2.03-2.25.49-.99.71-2.08.71-3.29s-.27-2.19-.88-2.8c-.6-.66-1.48-.93-2.63-.93h-1.54l-2.14,10.09h1.37v-.05Z"/>
  <path class="d" d="M262.27,168.84c1.1,0,1.97.33,2.58.99.66.66.93,1.54.93,2.69s-.22,2.08-.6,3.07c-.44.99-.99,1.7-1.7,2.25-.71.55-1.54.77-2.41.77-1.1,0-1.97-.33-2.58-.99-.6-.66-.93-1.54-.93-2.69s.22-2.14.66-3.07c.44-.99.99-1.7,1.7-2.25.71-.55,1.48-.77,2.36-.77ZM264.3,172.24c0-.66-.16-1.21-.55-1.59-.38-.44-.82-.6-1.48-.6-.6,0-1.21.22-1.7.66-.49.44-.88,1.04-1.15,1.75-.27.77-.38,1.59-.38,2.52,0,.77.16,1.32.55,1.75.38.44.88.6,1.59.6.6,0,1.15-.22,1.59-.66.49-.44.88-1.04,1.1-1.81.33-.71.44-1.59.44-2.63Z"/>
  <path class="d" d="M270.99,178.6c-1.1,0-1.97-.33-2.58-.93-.6-.6-.93-1.48-.93-2.63s.22-2.19.66-3.18c.44-.99,1.04-1.75,1.75-2.3.77-.55,1.59-.82,2.52-.82.77,0,1.54.16,2.3.44l-.38,1.21c-.71-.27-1.32-.44-1.92-.44-.66,0-1.26.22-1.75.66-.55.44-.93,1.04-1.26,1.86-.33.77-.44,1.65-.44,2.58,0,.71.16,1.32.55,1.7.38.38.93.6,1.59.6.44,0,.82-.05,1.15-.16.33-.11.71-.27,1.1-.38v1.26c-.66.33-1.48.55-2.36.55Z"/>
  <path class="d" d="M278.5,168.95l-1.32,6.03c-.11.49-.16.93-.16,1.21,0,.82.44,1.26,1.26,1.26.49,0,.99-.16,1.48-.49.49-.33.93-.82,1.32-1.48.38-.66.66-1.43.88-2.36l.88-4.11h1.43l-1.97,9.49h-1.21l.16-1.75h-.11c-.55.71-1.1,1.21-1.59,1.48-.49.27-1.04.44-1.59.44-.71,0-1.32-.22-1.76-.6-.44-.38-.66-.99-.66-1.7,0-.38.05-.88.16-1.48l1.26-5.87h1.54v-.05Z"/>
  <path class="d" d="M290.84,178.44l1.26-5.98c.11-.55.16-.93.16-1.15,0-.38-.11-.71-.27-.93-.16-.22-.49-.33-.93-.33-.49,0-.93.16-1.43.49-.44.33-.88.82-1.21,1.48-.33.66-.6,1.43-.82,2.3l-.88,4.11h-1.43l2.03-9.49h1.21l-.16,1.75h.11c.49-.71.99-1.15,1.48-1.48.49-.27.99-.44,1.54-.44.66,0,1.15.16,1.48.55.33.38.55.88.6,1.59h.06c.49-.71,1.04-1.26,1.59-1.59.55-.33,1.1-.55,1.7-.55.71,0,1.32.22,1.7.6.38.38.6.99.6,1.7,0,.38-.05.88-.16,1.54l-1.26,5.81h-1.43l1.26-5.98c.11-.6.16-1.04.16-1.26,0-.38-.11-.66-.27-.88-.22-.22-.49-.33-.93-.33-.49,0-.93.16-1.37.49-.44.33-.88.82-1.21,1.43-.33.6-.6,1.32-.77,2.19l-.93,4.33h-1.48Z"/>
  <path class="d" d="M304.5,178.6c-1.04,0-1.92-.33-2.52-.93-.6-.6-.93-1.48-.93-2.63s.22-2.14.66-3.13c.44-.99.99-1.75,1.7-2.3.71-.55,1.48-.82,2.36-.82s1.54.16,1.97.55c.44.38.66.93.66,1.59,0,1.04-.49,1.86-1.43,2.47-.93.6-2.3.88-4.11.88h-.27l-.05.71c0,.77.16,1.37.55,1.75.33.44.88.66,1.65.66.38,0,.71-.05,1.1-.16.38-.11.88-.27,1.43-.55v1.26c-.55.27-1.04.44-1.43.55-.33.05-.77.11-1.32.11ZM305.7,169.99c-.6,0-1.15.27-1.7.82-.55.55-.93,1.32-1.21,2.25h.11c1.32,0,2.3-.16,3.02-.49.71-.33,1.04-.82,1.04-1.48,0-.33-.11-.55-.33-.77-.11-.22-.44-.33-.93-.33Z"/>
  <path class="d" d="M315.3,178.44l1.26-5.98c.11-.6.16-.99.16-1.26,0-.38-.11-.66-.33-.88-.22-.22-.55-.33-.99-.33-.49,0-.99.16-1.48.49-.49.33-.93.82-1.26,1.48-.38.66-.66,1.43-.82,2.3l-.88,4.11h-1.43l2.03-9.49h1.21l-.16,1.75h.11c.55-.71,1.1-1.21,1.59-1.48.49-.27,1.04-.44,1.59-.44.71,0,1.32.22,1.76.6.44.38.66.99.66,1.7,0,.44-.06.99-.22,1.54l-1.26,5.81h-1.54v.05Z"/>
  <path class="d" d="M322.65,177.4c.33,0,.71-.05,1.26-.22v1.1c-.22.05-.44.16-.71.22-.27.05-.49.11-.71.11-.71,0-1.26-.16-1.65-.49-.38-.33-.55-.88-.55-1.54,0-.38.06-.82.16-1.32l1.1-5.21h-1.48l.11-.66,1.59-.66,1.1-1.97h.82l-.49,2.19h2.36l-.22,1.1h-2.36l-1.1,5.21c-.11.49-.16.88-.16,1.15,0,.33.11.55.27.77.11.16.33.22.66.22Z"/>
  <path class="d" d="M330.49,168.78c.55,0,.99.16,1.43.44.44.27.71.71.99,1.21h.11l.6-1.48h1.1l-2.03,9.49h-1.21l.22-1.81h-.05c-1.04,1.32-2.14,1.97-3.24,1.97-.82,0-1.43-.27-1.86-.88-.44-.55-.66-1.37-.66-2.36,0-1.21.22-2.3.6-3.35.38-1.04.99-1.81,1.7-2.41.66-.55,1.43-.82,2.3-.82ZM328.84,177.39c.55,0,1.1-.27,1.64-.82.55-.55.99-1.21,1.37-2.08.33-.88.49-1.7.49-2.58,0-.6-.16-1.04-.49-1.43-.33-.33-.77-.55-1.26-.55-.6,0-1.15.27-1.7.77-.49.49-.93,1.15-1.21,2.03-.27.82-.44,1.75-.44,2.69,0,.66.11,1.15.38,1.48.33.33.71.49,1.21.49Z"/>
  <path class="d" d="M338.39,177.4c.33,0,.71-.05,1.26-.22v1.1c-.22.05-.44.16-.71.22-.27.05-.49.11-.71.11-.71,0-1.26-.16-1.65-.49-.38-.33-.55-.88-.55-1.54,0-.38.06-.82.16-1.32l1.1-5.21h-1.48l.11-.66,1.59-.66,1.1-1.97h.82l-.49,2.19h2.36l-.22,1.1h-2.36l-1.1,5.21c-.11.49-.16.88-.16,1.15,0,.33.11.55.27.77.11.16.33.22.66.22Z"/>
  <path class="d" d="M342.66,178.44h-1.43l2.03-9.49h1.43l-2.03,9.49ZM343.65,166.54c0-.33.11-.6.27-.77.16-.22.44-.33.71-.33.49,0,.77.27.77.77,0,.33-.11.6-.27.82-.22.22-.44.33-.66.33s-.44-.05-.55-.22c-.22-.16-.27-.38-.27-.6Z"/>
  <path class="d" d="M350.78,168.84c1.1,0,1.97.33,2.58.99.66.66.93,1.54.93,2.69s-.22,2.08-.6,3.07c-.44.99-.99,1.7-1.7,2.25-.71.55-1.54.77-2.41.77-1.1,0-1.97-.33-2.58-.99-.6-.66-.93-1.54-.93-2.69s.22-2.14.66-3.07c.44-.99.99-1.7,1.7-2.25.66-.55,1.48-.77,2.36-.77ZM352.81,172.24c0-.66-.16-1.21-.55-1.59-.38-.44-.82-.6-1.48-.6-.6,0-1.21.22-1.7.66-.49.44-.88,1.04-1.15,1.75-.27.77-.38,1.59-.38,2.52,0,.77.16,1.32.55,1.75.38.44.88.6,1.59.6.6,0,1.15-.22,1.59-.66.44-.44.88-1.04,1.1-1.81.27-.71.44-1.59.44-2.63Z"/>
  <path class="d" d="M361.42,178.44l1.26-5.98c.11-.6.16-.99.16-1.26,0-.38-.11-.66-.33-.88-.22-.22-.55-.33-.99-.33-.49,0-.99.16-1.48.49-.49.33-.93.82-1.26,1.48-.38.66-.66,1.43-.82,2.3l-.88,4.11h-1.43l2.03-9.49h1.21l-.16,1.75h.11c.55-.71,1.1-1.21,1.59-1.48.49-.27,1.04-.44,1.59-.44.71,0,1.32.22,1.76.6.44.38.66.99.66,1.7,0,.44-.05.99-.22,1.54l-1.26,5.81h-1.54v.05Z"/>
  <path class="c" d="M55.32,117.55c.63-.28,1.37-.27,2.03,0h.01s19.16,8.95,19.16,8.95h0c.49.25.82.74.82,1.33s-.34,1.08-.82,1.32h0s0,0,0,0c-15.64,7.3-16.78,7.84-18.07,8.45-.2.09-.4.19-.66.31-.2.11-.31.16-.4.2,0,0-.02,0-.02,0-.05.02-.05.02-.08.04l-.07.05h-.03s0,.02,0,.02c-.02,0-.04.01-.06.02-.19.1-.24.16-.26.21-.04.08-.07.21-.07.55v5.44h.09v.06c.16.04.33.11.51.19l19.14,8.94h0c.49.25.82.74.82,1.33s-.34,1.08-.82,1.32h0s-19.16,8.95-19.16,8.95h-.01c-.15.07-.31.11-.47.14v.07h-.5c-.09,0-.18,0-.26-.01h-.33v-.05c-.14-.03-.28-.08-.42-.13h-.01s-19.21-9.01-19.21-9.01h0c-.49-.25-.82-.74-.82-1.33,0,0,0,0,0-.01h-.04v-26.69c-.04-.13-.05-.26-.05-.4,0-.57.33-1.15.96-1.39l19.13-8.88h0ZM36.28,129.25v24.29l19-8.85h0s0,0,0,0l.07-.03h.01c.14-.06.28-.1.42-.14v-5.51c0-.24,0-.47.06-.69-.19-.03-.38-.09-.57-.16h-.01s-18.99-8.9-18.99-8.9ZM56.81,137.28c-.18.04-.36.07-.49.08-.19,0-.39-.04-.6-.12l-19.17-8.98c-.17-.09-.27-.25-.27-.43h-.05c0-.19.1-.38.33-.47h.02s19.15-8.9,19.15-8.9c.35-.16.81-.17,1.24,0l19.12,8.93c.17.09.27.25.27.43s-.1.34-.27.43c-15.63,7.3-16.77,7.84-18.07,8.45-.2.1-.41.19-.68.32h-.02s-.02.02-.02.02c-.17.1-.25.13-.29.15,0,0-.01,0-.02,0-.05.02-.11.04-.18.09ZM55.68,145.6l-19.1,8.9c-.17.09-.27.25-.27.43s.1.34.27.43l19.17,8.98s.02,0,.04.01v-18.79s-.07.02-.11.04ZM56.88,164.36s.06-.02.09-.03l19.12-8.93c.17-.09.27-.25.27-.43s-.1-.34-.27-.43l-19.14-8.94h0s-.04-.02-.07-.03v18.79Z"/>
</svg>