<?xml version="1.0" encoding="UTF-8"?>
<svg id="a" data-name="Layer 1" xmlns="http://www.w3.org/2000/svg" viewBox="0 0 400 300">
  <defs>
    <style>
      .c {
        fill-rule: evenodd;
      }

      .c, .d {
        fill: #fff;
      }

      .e {
        fill: #5e8e3e;
      }
    </style>
  </defs>
  <path class="e" d="M110.19,121.53c-.31-.05-6.47-.1-6.47-.1,0,0-5.19-5.03-5.7-5.55-.21-.21-.46-.31-.72-.31v76.76l23.16-5.75s-9.45-63.88-9.5-64.34c-.1-.46-.46-.67-.77-.72Z"/>
  <path class="c" d="M110.19,121.53c.31.05.72.26.77.72.05.41,9.5,64.34,9.5,64.34l-23.16,5.75-53.45-9.24s6.37-49.34,6.62-51.04c.31-2.31.41-2.36,2.82-3.13.04-.04,1.76-.57,4.49-1.4,1.11-.34,2.38-.73,3.78-1.16.51-3.7,2.31-8.47,4.72-12.27,3.44-5.44,7.6-8.47,11.81-8.58,2.16-.05,3.95.67,5.39,2.21.1.15.21.26.31.36h0c.21-.05.46-.05.67-.05,3.29,0,5.96,1.85,7.8,5.39.57,1.08.98,2.16,1.23,3.03,1.64-.51,2.62-.82,2.62-.82.41-.1,1.39-.26,1.9.26.51.51,5.7,5.55,5.7,5.55,0,0,6.16.05,6.47.1ZM88.76,117.91c.74-.23,1.43-.45,2.08-.64-.67-2.16-2.21-5.75-5.44-6.37.98,2.57,1.23,5.55,1.28,7.65.73-.22,1.42-.44,2.08-.64ZM81.74,120.09c.73-.23,1.46-.45,2.16-.67,0-2.31-.21-5.75-1.39-8.16-1.23.51-2.26,1.39-3.03,2.21-2,2.16-3.65,5.44-4.52,8.73,2.31-.73,4.59-1.43,6.77-2.11ZM80.67,109c-.72-.46-1.54-.67-2.52-.67-6.47.21-12.12,10.32-13.66,17.1.22-.07.45-.14.67-.21,2.11-.66,4.35-1.35,6.67-2.05.82-4.31,2.88-8.73,5.55-11.6,1.03-1.13,2.16-2,3.29-2.57ZM81.8,143.51l2.67-10.06s-2.31-1.18-6.93-.77c-11.76.77-17.1,8.99-16.59,17.1.35,5.39,3.54,7.66,6.34,9.64,2.19,1.55,4.13,2.94,4.29,5.5.1,1.44-.77,3.44-3.23,3.59-3.75.21-8.47-3.34-8.47-3.34l-1.8,7.65s4.67,4.98,13.2,4.47c7.09-.46,12.02-6.11,11.5-14.43-.4-6.36-4.88-9.24-8.42-11.51-2.32-1.49-4.24-2.72-4.36-4.51-.05-.87,0-4.16,5.24-4.47,3.59-.26,6.57,1.13,6.57,1.13Z"/>
  <path class="d" d="M151.84,154.9c-2.67-1.44-4.06-2.67-4.06-4.36,0-2.16,1.9-3.54,4.93-3.54,3.49,0,6.57,1.44,6.57,1.44l2.46-7.5s-2.26-1.75-8.88-1.75c-9.24,0-15.66,5.29-15.66,12.73,0,4.21,2.98,7.45,6.98,9.76,3.23,1.85,4.36,3.13,4.36,5.08s-1.59,3.59-4.62,3.59c-4.47,0-8.68-2.31-8.68-2.31l-2.62,7.5s3.9,2.62,10.42,2.62c9.5,0,16.33-4.67,16.33-13.09.05-4.57-3.39-7.8-7.55-10.17ZM189.73,139.09c-4.67,0-8.37,2.21-11.19,5.6l-.15-.05,4.06-21.26h-10.58l-10.27,54.07h10.58l3.54-18.49c1.39-6.98,4.98-11.3,8.37-11.3,2.36,0,3.29,1.59,3.29,3.9,0,1.44-.15,3.23-.46,4.67l-4.01,21.16h10.58l4.16-21.87c.46-2.31.77-5.08.77-6.88,0-5.9-3.18-9.55-8.68-9.55ZM222.34,139.09c-12.73,0-21.16,11.5-21.16,24.34,0,8.22,5.08,14.79,14.58,14.79,12.48,0,20.95-11.19,20.95-24.34-.05-7.55-4.52-14.79-14.38-14.79ZM217.1,170.1c-3.59,0-5.13-3.08-5.13-6.88,0-6.06,3.13-15.97,8.88-15.97,3.75,0,4.98,3.24,4.98,6.37,0,6.52-3.13,16.48-8.73,16.48ZM263.72,139.09c-7.14,0-11.19,6.26-11.19,6.26h-.15l.62-5.7h-9.35c-.46,3.85-1.28,9.65-2.16,14.02l-7.34,38.72h10.58l2.93-15.66h.21s2.16,1.39,6.21,1.39c12.43,0,20.54-12.73,20.54-25.62.05-7.03-3.13-13.4-10.89-13.4ZM253.61,170.26c-2.77,0-4.36-1.54-4.36-1.54l1.75-9.91c1.23-6.57,4.67-10.99,8.37-10.99,3.23,0,4.21,2.98,4.21,5.85,0,6.83-4.06,16.59-9.96,16.59ZM289.76,123.94c-3.39,0-6.06,2.67-6.06,6.16,0,3.13,2,5.29,4.98,5.29h.15c3.29,0,6.16-2.21,6.21-6.16,0-3.08-2.05-5.29-5.29-5.29ZM274.97,177.45h10.58l7.19-37.48h-10.68l-7.09,37.48ZM319.64,139.86h-7.34l.36-1.75c.62-3.59,2.77-6.83,6.26-6.83,1.9,0,3.39.51,3.39.51l2.05-8.27s-1.85-.92-5.75-.92-7.5,1.08-10.37,3.54c-3.59,3.08-5.29,7.5-6.16,11.96l-.31,1.75h-4.93l-1.54,7.96h4.93l-5.6,29.63h10.58l5.6-29.63h7.29l1.54-7.96ZM345.11,139.96s-6.62,16.69-9.6,25.78h-.15c-.21-2.93-2.62-25.78-2.62-25.78h-11.09l6.37,34.45c.15.77.05,1.23-.21,1.75-1.23,2.36-3.29,4.67-5.75,6.37-2,1.44-4.21,2.36-6.01,2.98l2.93,8.99c2.16-.46,6.57-2.21,10.37-5.75,4.83-4.52,9.29-11.5,13.86-21l12.94-27.78h-11.04Z"/>
</svg>