<?xml version="1.0" encoding="UTF-8"?>
<svg id="a" data-name="zr-logo" xmlns="http://www.w3.org/2000/svg" viewBox="0 0 72.96 43.01">
  <defs>
    <style>
      .b {
        fill: #fff;
      }
    </style>
  </defs>
  <path class="b" d="M72.2,18.69h-.74c-1.28,0-1.86-.66-1.86-2.06V5.21C69.6,1.36,66.78,0,64,0h-25.2c-.44,0-.8.36-.8.8,0,0,0,0,0,.01v4c0,.44.35.8.79.81,0,0,0,0,.01,0h23c.74,0,1.16.27,1.16,1.25v11.32c-.21,1.61.92,3.09,2.53,3.3.03,0,.07,0,.1.01-1.62.21-2.77,1.69-2.59,3.31v11.34c0,1-.42,1.24-1.16,1.24h-23c-.44,0-.8.36-.8.8,0,0,0,0,0,.01v4c0,.44.35.8.79.81,0,0,0,0,.01,0h25.16c2.74,0,5.56-1.36,5.56-5.21v-11.44c0-1.39.58-2.06,1.86-2.06h.74c.44,0,.8-.37.8-.81v-4c0-.43-.33-.78-.76-.8Z"/>
  <path class="b" d="M38.79,34h6.59c.44,0,.79-.35.79-.79h0V13.89h2.55c3.13,0,4.27,1.8,4.27,4.32s-1.14,4.28-4.27,4.28h-.29c-.25.03-.44.25-.43.51v3.9c0,.27.07.54.22.77,0,0,3.9,5.69,4,5.88.16.28.46.45.78.45h6.58c.36,0,.63-.3.34-.76s-4.6-6.62-4.6-6.62c3.04-1.68,4.85-4.94,4.68-8.41,0-5.77-4-10.21-10.92-10.21h-10.29c-.44,0-.79.35-.79.79h0v4c0,.44.35.79.79.79h.46v14.88h-.46c-.44,0-.79.35-.79.79h0v4c.02.42.37.75.79.75Z"/>
  <path class="b" d="M34.62.16H9.07C6.3.16,3.44,1.51,3.44,5.35v11.39c0,1.39-.58,2.05-1.87,2.05h-.76C.36,18.79,0,19.15,0,19.6v4c0,.44.36.8.8.8,0,0,0,0,.01,0h.76c1.29,0,1.87.66,1.87,2.05v11.36c0,3.83,2.86,5.19,5.63,5.19h25.55c.44,0,.8-.35.81-.79,0,0,0,0,0-.01v-4c0-.44-.36-.8-.8-.8,0,0,0,0-.01,0H11.34c-.74,0-1.17-.26-1.17-1.23v-11.3c.17-1.64-1.02-3.11-2.66-3.29,1.62-.14,2.81-1.57,2.67-3.19,0-.04,0-.08-.01-.11V7c0-1,.43-1.24,1.17-1.24h23.28c.45,0,.81-.36.81-.81h0V1c.02-.44-.32-.82-.76-.84-.02,0-.03,0-.05,0Z"/>
  <path class="b" d="M13.44,34h20.77c.44,0,.79-.35.79-.79h0v-5.53c0-.44-.34-.79-.78-.8,0,0,0,0-.01,0h-4.21c-.44,0-.79.36-.78.8,0,0,0,0,0,0v.47h-5.65l11.36-19.37c.14-.26.05-.58-.21-.72-.05-.03-.11-.05-.17-.06H13.79c-.44,0-.79.35-.79.79,0,0,0,0,0,.01v3.38h0v2.15c0,.44.35.79.79.79h4.21c.43,0,.78-.36.79-.79v-.48h5.59l-11.33,19.37c-.12.3.03.65.34.76.02,0,.03.01.05.02Z"/>
</svg>