<?xml version="1.0" encoding="UTF-8"?>
<svg id="a" data-name="Layer_1" xmlns="http://www.w3.org/2000/svg" viewBox="0 0 400 300">
  <defs>
    <style>
      .c {
        fill: #fff;
      }
    </style>
  </defs>
  <path class="c" d="M358.74,177c0-3.49-1.96-4.75-5.19-4.75h-24.49c-11.5,0-15.56-7.36-16.07-12.45h33.97c9.91,0,12.85-7.41,12.85-12.16,0-5.09-3.18-12.16-12.85-12.16h-18.36c-16.73,0-22.2,11.77-22.2,21.36,0,10.51,6.26,21.36,22.15,21.36h30.19v-1.21ZM329.11,141.45h17.01c5.89,0,7.29,3.78,7.29,6.25,0,2.18-1.31,6.25-7.29,6.25h-33.13c.42-4.31,3.83-12.49,16.12-12.49ZM259.81,175.5c-1.73,2.47-2.94,3.34-4.49,3.34-2.15,0-2.94-1.21-4.49-3.34-3.69-5.23-28.27-40-28.27-40h3.79c4.11,0,5.28,1.5,6.96,3.97.75,1.07,22.1,32.3,22.1,32.3,0,0,21.36-31.19,22.2-32.45,1.59-2.32,2.8-3.83,6.92-3.83h3.32s-25,35.74-28.04,40ZM98.69,178.21c-2.57,0-4.21-1.31-4.67-4.17l-.84-4.65c-1.4,2.66-6.54,8.81-17.71,8.81h-12.85c-17.48,0-22.43-12.3-22.43-21.36,0-10.22,5.93-21.36,22.43-21.36h12.85c12.52,0,19.44,7.55,21.12,16.76,1.4,7.7,4.67,25.96,4.67,25.96h-2.57ZM74.02,141.45h-10.98c-12.34,0-16.54,8.14-16.54,15.4s4.21,15.4,16.54,15.4h10.98c12.9,0,16.64-8.48,16.64-15.4,0-6.2-3.36-15.4-16.64-15.4ZM296.22,130.6c1.82,0,3.22-1.16,3.22-3.39v-1.4c0-2.23-1.45-3.39-3.22-3.39s-3.22,1.11-3.22,3.39v1.4c-.05,2.23,1.4,3.39,3.22,3.39ZM293.04,135.5h1.5c2.94,0,4.81,1.36,4.81,5.52v37.19h-1.59c-3.22,0-4.77-1.79-4.77-5.38.05-.53.05-37.34.05-37.34ZM110.93,141.06c2.71-2.66,7.57-5.57,15.23-5.57h12.85c17.48,0,22.43,12.3,22.43,21.36,0,10.22-5.93,21.36-22.43,21.36h-12.85c-12.52,0-21.54-8.38-21.54-21.36v-35.69h1.96c2.8,0,4.35,1.5,4.35,4.21v15.69ZM127.57,172.25h10.98c12.34,0,16.54-8.14,16.54-15.4s-4.21-15.4-16.54-15.4h-10.98c-12.9,0-16.64,8.48-16.64,15.4,0,6.2,3.32,15.4,16.64,15.4ZM174.11,141.06c2.71-2.66,7.57-5.57,15.23-5.57h12.85c17.48,0,22.43,12.3,22.43,21.36,0,10.22-5.93,21.36-22.43,21.36h-12.85c-12.52,0-21.54-8.38-21.54-21.36v-35.69h1.96c2.8,0,4.35,1.5,4.35,4.21v15.69ZM190.75,172.25h10.98c12.34,0,16.54-8.14,16.54-15.4s-4.21-15.4-16.54-15.4h-10.98c-12.9,0-16.64,8.48-16.64,15.4,0,6.2,3.36,15.4,16.64,15.4Z"/>
</svg>