<?xml version="1.0" encoding="UTF-8"?>
<svg id="a" data-name="Layer_1" xmlns="http://www.w3.org/2000/svg" viewBox="0 0 400 300">
  <defs>
    <style>
      .c {
        fill: #fff;
      }
    </style>
  </defs>
  <path class="c" d="M167.55,146.3v3.58c.34-.69,2.48-4.39,6.88-4.39h1.35v6.13h-1.35c-3.95,0-6.21,3-6.21,6.7v13.75h-7.11v-25.77h6.43Z"/>
  <path class="c" d="M241.14,158.9c0-3.93-3.16-7.05-7.11-7.05s-7,3-7,6.82c-.11,3.93,2.93,7.28,7,7.28h7.11v-7.05ZM241.7,149.42v-3.12h6.43v35.02h-7.11v-9.13h-7.34c-7.45,0-13.32-6.01-13.32-13.41s6.09-13.41,12.87-13.41c5.64,0,8.46,4.04,8.46,4.04Z"/>
  <path class="c" d="M154.01,146.3v25.89h-7.11v-25.89h7.11ZM154.01,136.71v6.24h-7.11v-6.24h7.11Z"/>
  <path class="c" d="M127.37,142.95c-4.51,0-8.24,3.58-8.24,7.97v3.7h12.75v-11.67h-4.51ZM132,172.19v-11.79h-12.75v11.67h-7.22v-20.57c0-8.21,6.88-14.79,15.35-14.79h11.74v35.37h-7.11v.12Z"/>
  <path class="c" d="M215.41,136.71v6.24h-7.11v-6.24h7.11ZM215.41,146.3v25.89h-7.11v-25.89h7.11Z"/>
  <path class="c" d="M293.96,136.71v6.24h-7.11v-6.24h7.11ZM293.96,146.3v25.89h-7.11v-25.89h7.11Z"/>
  <path class="c" d="M254.46,146.3h7.11v14.45c0,3.93,2.82,6.01,5.64,6.01s5.76-1.85,5.76-6.01v-14.45h7.11v25.89h-6.55v-3.12l-.11.12c-2.03,2.43-4.96,3.81-8.35,3.81-5.42,0-10.61-4.62-10.61-11.21v-15.49Z"/>
  <path class="c" d="M194.3,136.71v29.24h9.25v6.24h-16.37v-35.48h7.11Z"/>
  <path class="c" d="M319.69,159.59c0,3.93-3.16,7.05-7.11,7.05s-6.88-3-7-6.82c-.11-3.93,2.93-7.28,7-7.28h7.11v7.05ZM320.37,168.95v3.12h6.43v-35.37h-7.11v9.48h-7.34c-7.45,0-13.32,6.01-13.32,13.41s6.1,13.41,12.87,13.41c5.53,0,8.47-4.04,8.47-4.04Z"/>
  <path class="c" d="M338.66,156.82h14.45c-1.02-3.24-3.39-5.43-7-5.43s-6.32,2.31-7.45,5.43ZM346.22,173c-7.9,0-14.33-6.12-14.33-13.75s6.43-13.75,14.33-13.75,13.77,6.13,13.77,13.75c0,.69,0,1.5-.11,2.31h-21.22c1.02,3.24,3.84,5.55,7.45,5.55,3.38,0,5.42-1.04,7.11-3.12l5.08,3.35c-2.71,3.47-6.88,5.66-12.08,5.66Z"/>
  <path class="c" d="M70.6,118.68h-30.59v31.32c0,17.34,13.66,31.32,30.59,31.32s30.59-13.99,30.59-31.32-13.66-31.32-30.59-31.32ZM92.27,172.19h-21.67c-11.96,0-21.67-9.94-21.67-22.19s9.71-22.19,21.67-22.19,21.67,9.94,21.67,22.19v22.19ZM70.6,136.71c7.11,0,12.98,5.89,12.98,13.29v13.18h-12.98c-7.11,0-12.98-5.89-12.98-13.29s5.87-13.18,12.98-13.18Z"/>
</svg>