<?xml version="1.0" encoding="UTF-8"?>
<svg id="a" data-name="Layer_1" xmlns="http://www.w3.org/2000/svg" viewBox="0 0 400 300">
  <defs>
    <style>
      .x {
        fill: #fff;
      }
    </style>
  </defs>
  <g id="b" data-name="Group_35">
    <g>
      <g id="c" data-name="Group_6">
        <g id="d" data-name="Group_5">
          <path id="e" data-name="Path_25" class="x" d="M135.53,132.71c.44-.24.88-.52,1.33-.76,1.61-.52,2.33-2.49,4.22-2.33,1.73-1.93,4.26-2.37,6.23-3.9.12-.4.32-.72.64-1.01,1.25-.97-.84-1.69-.84-1.69-.6-.84-1.53-.08-1.53-.08-.44.28-.92.52-1.41.72-.24.92-1.21,1.01-1.93,1.41-1.09.92-2.29,1.77-3.54,2.41-.88,1.33-2.45,1.57-3.46,2.57-.68.44-1.29,1.09-1.65,1.85,0,0-2.41,2.25.8,1.01l1.21-.24-.08.04Z"/>
          <path id="f" data-name="Path_26" class="x" d="M132.52,136.33s-.12.16-.16.24c0,0-.08.08-.12.08-1.49,1.21-2.73,2.65-3.66,4.34-1.01,1.81-2.37,3.34-4.06,4.5-1.41,0-2.17,1.45-3.38,2.01-.32-.08-.44-.48-.6-.72-.44-.84-.6-1.81-.44-2.73.76-.16,1.45-.52,2.01-1.05.76-.68,1.53-1.33,2.25-2.05,2.33-2.17,4.58-4.5,6.88-6.52,0,0,1.77-.84,1.37,1.85"/>
          <path id="g" data-name="Path_27" class="x" d="M132.03,131.22c-2.61,1.05-5.75,1.05-7.8,3.18-.97.52-2.61-.4-3.26.84.16.32.04.8.08,1.13l-.97-.08.24,1.89c2.33.32,3.54-2.69,5.79-2.94l.32.32v.64c-.36.24-.84-.36-1.25,0-1.17,1.21-2.57,2.17-4.1,2.82-.36.2-.36.92-.72.97l-.36,2.61c1.29.32,2.25-.72,3.18-1.61.24-.2.48-.4.72-.6,2.57-2.25,4.95-4.67,7.16-7.28,0,0,.68.4.97-1.89"/>
          <path id="h" data-name="Path_28" class="x" d="M186.89,130.74c.08,3.26-1.25,6.39-3.66,8.61-2.37.6-4.71,2.37-7.16.92-1.53-.84-3.38.08-4.5-1.65-.52-.16-1.29-.04-1.49-.76.32-.72,1.29-.76,1.85-1.29,2.82.36,6.35,2.57,8.81.12,1.05-.48,2.65-.6,2.77-2.09-.08-.97.32-1.93,1.05-2.53.88,0,.97-1.09,1.25-1.85,0,0-.08-2.65.92-2.25,0,0,.92.97,0,1.61l.12,1.21.04-.04Z"/>
          <path id="i" data-name="Path_29" class="x" d="M166.14,117.19c-.84.8-1.81,1.57-2.21,2.01-3.5,1.53-7.44,1.69-11.06.44-.48-.84.88-1.17.08-1.97.28-.32.44-.6.92-.44.48,1.33,1.97.68,2.98.84,1.45.52,2.65-.52,3.98-.32.92-.44,1.41-.44,2.29-.88.2,0,.36,0,.56-.12,0,0,3.02-1.97,2.41.44"/>
          <path id="j" data-name="Path_30" class="x" d="M240.9,112.56c-1.61-1.49-2.98.6-2.98.6-.52.36-.92.84-1.17,1.41-2.21,1.05-3.14,3.94-5.39,4.83-1.33,1.37-3.02,2.25-4.5,3.78-3.26.6-6.47,1.49-9.57,2.61-2.25.88-4.62,1.29-6.84,2.09-2.69,1.81-5.79,2.41-8.41,4.22-.44.4-1.49.6-1.21,1.49.4.64,1.21.12,1.73.44s1.69.24,1.65,1.13c-.56.52-1.77.48-1.65,1.57,1.05.64,2.17,1.21,3.34,1.69,1.45,1.01,3.02,1.85,4.62,2.53,2.73,1.17,5.63,2.01,8.32,3.26,2.25.36,4.42,1.01,6.47,1.93,2.53.72,5.31,1.53,8,2.09,1.69.68.08,2.09.4,3.34-.04.84-.76,1.49-.4,2.33-1.17,2.05-1.57,4.42-1.17,6.76-.64.28-.36.97-.2,1.37-.56,1.33-.92,2.69-1.05,4.14-.32-.08-.48.2-.52.4-.24,2.01-.44,3.58-.64,5.55,1.33.48,2.77.36,3.98-.32-.72-1.49.44-2.77.32-4.3.48-.92.12-1.77.4-2.86.97-3.74,1.49-7.6,1.57-11.46-.16-.64-.64-1.09.24-1.61l.44.44c-.36,1.37.24,2.86-.12,4.14.4,2.82.56,5.67.52,8.49,1.85,1.01-.56,2.98,1.29,3.98-.04.64.2,1.29.68,1.69,1.09.08,2.13-.4,2.77-1.25.28-2.57-1.21-4.42-1.25-6.84-.6-1.69-.28-3.26-1.25-4.75,0-1.45-.6-2.9-.72-4.34-.76-.64-.4-1.89-.32-2.73-.28-1.53-.16-3.7-2.09-4.42-3.26-.6-6.47-1.45-9.61-2.49-1.93-.4-3.82-1.49-5.87-1.81-.72-.28-1.45-.52-2.17-.76-1.85-.4-3.62-1.05-5.31-1.89-.44-.12-.88-.28-1.33-.4-.08-.08-.2-.12-.28-.16-.68-.36-4.75-1.69-5.43-2.13-.72-1.17.6-1.17.6-1.17.24-.08,3.74,1.69,3.98,1.69.6.08.84.44,1.37.56.68.24,1.37.44,2.05.56,2.37,1.29,4.95,2.29,7.56,2.94.8.24,1.61.48,2.41.76.16.32.97.28,1.37.52,1.73.4,3.42.97,5.03,1.69,1.05-.52,1.61.68,2.53.72,1.53.76,3.7.04,4.95,1.49,1.25,1.85.92,4.38,1.89,6.39-.84,1.61,1.57,2.29.72,3.9.4.88.84,2.17,1.89,2.41.64.12,1.29-.12,1.69-.6.16-1.09-.56-1.85-.84-2.77.28-1.73-1.21-3.26-1.13-4.95,0-1.33-.56-2.57-1.49-3.46-.56-1.13-1.81-2.33-1.05-3.74-.4-.36-1.09.08-1.57-.2-1.37-.68-2.82-1.09-4.34-1.17-1.25-.72-2.57-1.29-3.94-1.69-1.41-.4-2.86-.68-4.34-.8v-.28c-1.37.56-2.69-1.21-4.14-1.49-.88-.8-2.65-.04-3.62-1.05-.92.12-1.89-.12-2.65-.68-1.05-.12-2.77.12-3.3-1.09-1.05-.36-2.17-.56-3.26-.56-.24-.12-.52-.24-.8-.36-.2-.16-.44-.24-.72-.32-.72,0-1.69-.36-1.53-.68.08-.16,1.93-.6,2.09-.72.28,0,.52-.12.72-.24h.04c3.54-1.37,7.2-2.37,10.58-4.02,2.57.12,4.87-1.01,7.48-1.05,2.82-2.01,4.95-5.31,8.12-6.72,1.33-1.05,2.29-3.98,4.3-3.06.8-.24,1.25.32,2.01.12.56-.68,1.45-1.45,1.29-2.37.12-.8-1.33-2.29-1.33-2.29M237,72.99c.2.2.28.48.32.76-.2,3.18.2,6.35,1.17,9.37.97,3.94,1.81,7.76,2.61,11.78.36,1.81-2.77,1.89-1.89,3.7.28,1.65-.72,2.17-1.69,3.38.48.36.97.76,1.41,1.17.48.92,1.61,1.37,2.57.97,0,0,1.73-.48,1.53-2.01-.04-1.29.28-2.53,1.01-3.62-.4-1.09.36-2.25-.52-3.18,0-2.25-.52-4.46-1.49-6.47.16-1.49-.64-2.65-.52-4.02-.97-3.58-1.65-7.24-2.09-10.94l.44-.64c1.17-.32,1.45,1.25,2.49,1.49.52,1.81,2.37,2.57,3.18,4.14,2.77,2.49,5.35,5.23,7.68,8.2,3.1,2.69,5.99,5.67,8.65,8.81.88.88,2.13,0,3.06.76,1.45-.8,4.46-.28,4.18-2.86.32-.36.8-.52,1.29-.52,1.21.68,2.69,0,3.86-.4,3.18-.24,6.35-.76,9.45-1.49.68-.04.88-.64.76-1.29-.24-.48-.72-.8-1.25-.84-3.1,1.05-6.31,1.65-9.57,1.77l-.32-.2c.32-.92,1.69-.32,2.33-.92,2.25-.12,4.5-.6,6.6-1.41,1.45-1.41,3.5,1.13,4.42-1.37.48-1.09,3.66-.92,2.13-2.49-.97-.12-1.93-.4-2.53.72-1.93-.4-2.94,1.57-4.75,1.49-.16-.04-.44-.2-.32-.44,2.25-1.33,4.95-1.81,7.16-3.34.08-.44-.12-.76-.52-.76-3.3,1.01-6.47,2.29-9.57,3.78-.92.56-1.77,1.69-2.98,1.69-1.77,1.17-3.9,1.41-5.43,3.02-.97.2-1.73-.2-2.53.32-.92-.56-1.73-1.29-2.33-2.17-3.18-3.46-7.44-6.52-10.74-10.21-3.18-2.05-6.11-4.46-8.73-7.24l-1.85-1.57c-.76-.12-1.53.16-1.97.8-.04,0-.08.12-.12.16-.08,0-.16.08-.24.08h-.56c-.2,0-.4-.08-.6-.12-.24-.08-.44-.2-.64-.36-.48.12-.97.16-1.45.08,0,0-1.37-.52-.97.92.16.52.12,1.09-.08,1.57M263.9,93.38c-.64.12-.44-.68-.97-.84-2.01-1.53-3.74-3.86-5.67-5.59-.97-.76-1.61-2.01-2.77-2.61-3.18-2.61-5.87-6.15-8.93-8.61-.76-1.17-1.65-2.17-2.73-3.06-.08-.36.08-.76.4-.97.48,0,1.01.2.97.76,2.37,3.42,5.71,4.75,8.85,9.09.52-.12.48.28.6.68,3.54,3.5,7.48,6.84,11.06,10.34.16.56-.56.56-.84.84"/>
          <path id="k" data-name="Path_31" class="x" d="M206.76,83.41c1.57-.36,3.62-2.09,4.79-.28.16.08.32-.08.44-.24.48.12.48.64.6,1.05.28.12.36-.2.52-.28,0-1.05.8-1.45,1.49-2.21,1.25-.6,2.53-1.09,3.86-1.49-.12-.64-.36-1.01-1.05-1.13,0,.2-.28.36-.4.52-1.53.04-1.93,1.93-3.46,1.65l-.12-.84c1.21-.88,2.05-2.21,2.41-3.66-.48-.84-1.69,0-2.41-.12-.84-.97-2.17-1.41-3.46-1.13-1.33-1.45-2.41-3.3-4.5-3.46-.72-.56-1.17-1.49-1.17-2.41.48-1.17,1.45.2,2.25.2,3.98,1.37,7.24,4.95,11.66,5.39.84,1.53,2.82,1.33,4.34,1.69,1.05,1.17,2.65.56,4.22.72,1.85.88,4.34.44,6.31,1.13.52.52.48,1.97,1.57,1.61.4,1.61,1.61,2.65,2.21,4.1,1.57,1.21.88,3.42,1.05,5.03.44,1.05-.16,2.13.76,2.94.04,1.85-.97,3.58-2.61,4.42-.72,1.89-3.1,1.21-4.67,1.81-1.13,1.09-2.45,1.29-3.46,2.53-1.05,1.41-1.61,3.14-1.57,4.91.08,1.05-.04,2.13-.36,3.14-.48,1.29-.72,2.65-.68,4.06-.52,1.53,0,3.9-2.13,4.38-.36-.24-1.13-.4-.97-1.05-1.05-.48.16-1.65-.84-2.25l.44-3.14c.28-.64.52-1.29.68-1.93.32-2.86,1.33-5.55,3.02-7.88,0-.6-.64-.8-1.29-.68l-4.1,3.14c-1.13,1.61-1.77,3.5-1.89,5.43-.16,1.61-.8,3.14-1.89,4.34-.28,2.13,1.01,4.1.08,5.99-.72.2-1.65.92-2.41.16-1.13-3.22-.76-6.72.97-9.65.24-.28.44-.56.6-.88,1.13-2.09,1.01-4.87,3.58-5.87,0-.4,0-.84-.44-.97l-1.65.97c-.68.36-1.53.08-2.09.6-1.21,1.57-2.13,3.34-2.73,5.23-2.37,3.02-1.45,7.6-2.53,11.18l-1.05,1.17c-.52.24-1.13.08-1.49-.32-.68-2.33.4-4.42.28-6.76.12-1.69.72-3.26,1.69-4.62v-.64c.28-1.81,2.33-2.86,3.26-4.5l-.32-.6c-.68-.04-.76.76-1.13,1.13-1.45,1.09-2.65,2.45-3.58,3.98-.44.68-.88,1.41-1.33,2.05-1.33,1.89-2.17,4.1-2.49,6.39-1.05,1.53.32,3.86-1.17,4.95-.68.32-1.49.32-2.21,0-.72-.88-.04-2.01.08-2.94.28-1.77.44-3.54.52-5.35,1.09-1.81,2.33-3.54,3.74-5.11.68-.76,1.41-1.49,2.17-2.17v-1.13c-.64-.24-1.25.64-1.69,1.05-.56.76-1.17,1.49-1.77,2.25-3.3,4.06-7,8.16-6.19,14.04-.56.72-1.49.68-2.33.8-1.01-.2-1.09-1.37-1.17-2.25.84-2.45.28-5.59,2.49-7.36-.16-2.17,2.21-2.82,2.94-4.54.6,0,.72-.48,1.01-.76.16-.16.4-.2.56-.08-.12-.97.6-1.57.72-2.41-.2-.24-.2-.68-.72-.52-1.33.84-2.53,1.85-3.62,3.02-2.77,3.02-4.71,6.68-5.63,10.66-.6,1.45-.48,3.18-1.69,4.42-.8.24-1.69.08-2.33-.44-.04-3.06.68-6.03,2.09-8.73.52-.76-.2-2.01.6-2.61.97-1.05,1.89-2.13,2.77-3.3.97-.88,2.9-.68,3.18-2.17-.08-1.49-2.49-.68-2.49-.68-.4.4-1.77.28-1.77.28-.32-.16-.72-.16-1.09,0-1.13.64-2.33,1.05-3.62,1.13-.44.44-.88.92-1.25,1.45-.84,1.21-1.13,2.77-.76,4.22-.24,1.81-.36,3.66-.32,5.47.36,1.49.52,3.02.52,4.54l.08,1.65,1.21.6c-.48.44-.84.97-1.05,1.57-.6,1.17-1.05,2.37-1.33,3.62-.68.72-1.25,1.57-1.57,2.49,0,2.17-2.69,2.25-4.1,3.14-2.41-.52-4.54-.68-6.92-1.37-1.25-1.17-2.94-1.09-4.42-1.65-2.94-.36-4.99-2.77-7.48-4.34-2.37-1.13-4.62-2.49-6.76-4.06-.8-.48-1.81-.6-2.57-1.09-.12.12-.24.16-.4.2-.68-1.65-2.45-2.57-4.22-2.17-.24.08-.48.16-.68.32-1.81,1.29-3.86,2.25-5.99,2.86-.48.2-1.41.56-1.77-.2.56-1.73,1.33-3.38,2.29-4.91,4.58-1.93,9.29.36,13.15,2.29,1.57,1.41,3.38,2.49,5.39,3.14,2.61,2.05,5.39,3.94,8.28,5.63,1.65.08,3.22.56,4.62,1.37,1.49.2,2.98.56,4.42,1.05.68-.08,1.85.36,2.33-.52,1.13-2.21,4.06-3.02,3.98-5.79,2.33-3.18-.4-6.56-.16-10.01.68-.88.84-2.05.44-3.06.64-1.69.8-3.34,1.37-4.99.16-.52,1.65-1.77,1.29-2.53-1.53-.8-2.29,2.45-3.58,2.01-1.25-.56.68-1.45-.4-2.21,0,0-2.01,1.89-2.9,2.69-.24.2-.4.36-.4.36l-.84.16c-1.53,1.65-3.86,1.65-5.03,3.82-.84.08-1.65.32-2.41.64-1.05.6-2.25.92-3.46.97-.84,0-1.69.28-2.33.8-.8.36-1.65.56-2.49.6-1.85,1.13-3.86.52-5.87.52-1.13-.2-.4-1.65-1.49-1.97-.8-1.93-1.45-3.9-1.97-5.95-.2-.92-.36-1.85-.44-2.77-2.05-2.69-.6-6.52-2.94-8.93-1.05-.4-1.45-1.61-1.69-2.61-1.41-.88-1.05-2.53-2.25-3.38-.76-2.09-2.29-3.54-3.18-5.59l-.64-.24c-1.69.92-.92,3.26-1.25,4.95-.84.88-.12,2.13-.16,3.26-.24,3.5-1.13,6.76-1.73,10.09-.76,1.57-.12,3.7-.92,5.23-.16.36-.44.64-.72.88-.64.28-1.41.08-1.81-.52,0-.12,0-.24.04-.36.48-3.18.76-6.35.8-9.53,1.01-1.21.6-2.94,1.17-4.3.24-1.37.92-3.02.16-4.22-1.29.8-1.49,2.57-1.77,4.06-.44,2.49-1.29,4.91-2.53,7.16-.36.84-.6,2.01-1.69,2.09-1.69-.64.24-2.45.16-3.78,1.77-1.37.97-3.86,1.17-5.71.4-2.29,2.45-3.62,3.02-5.87-.84-.88-1.81.28-2.82.2-1.77,3.46-5.43,1.69-7.88,3.54-1.05,1.49-2.9,1.45-3.82,1.81-.76-.76-.76-1.37,0-2.61,1.05.24,2.13,0,2.94-.76,2.05-.68,3.98-1.73,5.67-3.1,1.49-1.25,3.42-1.37,4.95-2.49.4-.08,1.33.28,1.45-.52-1.77-2.17,1.73-.97,2.09-2.41.68-2.01,2.94-1.49,4.34-2.33.6-.16,1.61-.48,2.09.08,1.97.68,2.37,2.82,2.73,4.5-.16.48-.36,1.41-1.13,1.17-.52-1.01-1.05-2.05-1.61-3.06-.48.16-1.09-.08-1.37.52-.32,1.25,1.09.88,1.45,1.81,0,1.73,1.81,2.09,2.94,2.94l1.49,2.86c1.13,2.57,2.57,5.19,3.46,7.8,2.01,3.86,3.46,8,4.22,12.27-.32,1.73,1.41,2.82,2.41,3.82,2.05.32,4.14-.32,5.71-1.73,1.97-.44,3.94-1.01,5.87-1.65,1.97-1.29,3.82-2.69,5.63-4.22.2-1.09.32-2.21.28-3.3-.44-2.45-1.93-.52-2.57-1.89-1.01-1.21,1.45-1.37.6-2.61-1.61-2.53-4.95-1.93-7.24-3.34-1.41-1.57-2.57-3.3-3.5-5.19-.84-.88-2.17-.72-3.34-.97-1.61-.6-2.37-2.65-4.22-2.61-2.05-2.41-4.87-2.94-6.96-5.27-.52-.24-1.81-.16-1.45-1.25-1.61-1.41-3.78-2.65-5.39-4.22-.8-.32-1.45.04-2.09-.52-.2-1.73-2.41-1.41-3.7-2.01-1.41-2.25-4.58-1.29-5.35-3.9-2.82-.44-5.51-1.37-8.04-2.65-1.05-.32-2.01-.92-2.77-1.77-.04-.68.2-1.33.68-1.81,1.97,1.21,3.78,1.77,5.75,2.82,1.25.2,2.45.56,3.58,1.05,3.42.4,5.63,3.62,8.73,4.87,1.85-.56,2.53,1.45,3.98,2.09,1.13.32,1.97,1.81,3.14,2.21,1.37,1.25,3.22,1.77,4.67,2.94,1.33,1.41,2.45,3.98,4.75,3.66,1.73.56,2.29,2.41,3.66,3.38,1.73-.52,2.9.84,4.22,1.57.2.8.97,1.29,1.65,1.81.84.64,1.61,1.33,1.05,2.69.88.92.48-1.21,1.57-1.05.24.12.24.4.24.64h1.69c1.25,1.09,2.29,2.37,3.18,3.78.6.8,1.37-.64,1.89.44,1.73.12,2.37,2.05,4.06,2.17,1.61-.24,3.22,0,4.67.76,1.17.08,1.13,1.41,1.65,2.09,1.61-.76,3.42-1.05,5.19-.84.4.08.56.36.8.64,1.17.48,2.37.72,3.62.72,1.17.08,2.33.08,3.5,0,1.13-.16,2.25-.2,3.38-.12,2.45-.28,3.18.4,3.42.8.28.16.52.4.72.68.52-.52.52-1.73,1.57-1.61.04.12.24.2.2.32.28.12.44-.12.6-.32,1.57,0,2.21-1.69,3.7-1.97.64-.24,1.13-1.33,1.89-.97,1.45-1.25,3.26-.2,4.95-.52,2.86-.84,6.03-.72,8.32-2.94.8-.32,1.89.16,2.41-.76,1.25-.24,2.45-.68,3.58-1.37,1.61-.8,1.21-2.82,1.57-4.34h.12v-1.25c-.97-1.25-.24-3.34-1.49-4.34-2.13.12-2.05-3.06-4.3-2.73-1.49.2-3.02-.44-4.5-.2-2.69,1.89-6.84,2.86-7.6,6.64-.68.48-1.69,1.05-1.17,2.09-.28.48-.8.72-1.37.68-1.09-.52-.6-1.97-.72-2.86.36-.72.52-1.53.44-2.33l-.6.08c-.84.88-1.77.24-2.33-.52-1.53.97-2.61,2.37-4.22,2.77-1.25-.32-2.45-.88-3.46-1.73-.84.36-1.77-.6-2.45,0-.92-1.09-1.73-2.29-2.41-3.54l.12-.12c-.28-.04-.88-.4-.64-.84.12,0,.32-.04.44,0-1.33-1.53-2.05-3.54-2.01-5.59-1.17-1.69-1.09-3.9-2.13-5.67-2.05-2.73-3.54-5.83-4.42-9.13.4-.76.97-1.77,2.05-1.49,1.73,1.25,3.9,1.33,5.71,2.41.16.4.84,1.21,0,1.49-1.13-.48-2.77.56-3.58-.97-.44,0-.84.16-1.13.52.08.68.52,1.25,1.13,1.49.48,1.81,1.97,3.3,2.41,5.03,1.13.56.36,2.13,1.49,2.73-.4,1.01.64,1.73.32,2.86,1.05.64.88,2.01,1.65,2.86.76,2.73,2.49,5.11,4.91,6.64.48-.12.92-.28,1.33-.52,0,0-.08-.04-.12-.08.52-.24,1.05-.4,1.61-.48"/>
          <path id="l" data-name="Path_32" class="x" d="M203.18,79.95s-.2-.16-.32-.2c0-.24-.08-.6.08-.84,1.05-1.69,1.93.56,3.26.32,0-1.69-1.01-3.22-2.53-3.9-.16-1.09-1.73-1.29-2.01-2.41-1.01.04-1.25-1.57-2.29-1.37-.56.32-1.45.56-1.57,1.29,1.05,2.77,2.29,5.43,3.78,7.96,0,0,2.45,1.25,1.57-.8"/>
        </g>
      </g>
      <path id="m" data-name="Path_33" class="x" d="M168.15,193.48v13.39l8.08-13.39s-8.08,0-8.08,0Z"/>
      <g id="n" data-name="Group_7">
        <path id="o" data-name="Path_34" class="x" d="M222.8,215.48h9.53c2.29.04,4.58,0,6.88-.16.84-.2,1.29-.84,1.53-.76s.12.4.12.4v2.9c0,2.05.12,1.25.12,2.82,0,0,.12.32-.12.36s0-.24-1.25-.68c-2.41-.28-4.83-.4-7.28-.28h-9.57v15h13.55c1.69,0,3.38-.2,5.03-.64.8-.28,1.53-1.09,1.73-1.01s.12.4.12.4c-.12,1.53-.28,2.94-.52,4.75l-.12,1.37h-22.72c-2.09,0-2.21.16-3.78.16,0,0-.32.12-.4-.12s.12-.08.64-1.25c.52-1.77.76-3.66.64-5.51,0-3.58,0-9.65-.04-15.48-.04-5.83.04-10.38.04-13.91.12-1.85-.08-3.74-.64-5.55-.52-1.17-.72-1.01-.64-1.25s.4-.12.4-.12c1.53,0,1.65.16,3.78.16h22.16v5.63s.12.32-.12.4-.68-.52-1.49-.8c-1.61-.44-3.3-.64-4.99-.64h-12.67v13.71l.08.12Z"/>
        <path id="p" data-name="Path_35" class="x" d="M72.43,196.94s10.7,24.77,15.44,35.59c.92,2.13,1.97,4.22,3.22,6.19,1.01,1.21,1.17,1.17,1.17,1.17,0,0-3.74-.12-5.63-.12-.97.08-1.97.12-2.94.12.4-1.17.32-2.49-.24-3.58-.12-.28-.97-2.25-1.29-3.14-3.26-7.52-10.5-24.37-10.5-24.37-.44-1.17-.08-1.17-.64,0,0,0-7.24,16.85-10.5,24.37-.36.88-1.21,2.86-1.33,3.14-.56,1.13-.68,2.41-.24,3.58-.84,0-1.73,0-2.57-.12-1.89,0-5.59.12-5.59.12,0,0,.16,0,1.13-1.17,1.25-1.97,2.29-4.06,3.22-6.19,4.79-10.82,15.48-35.63,15.48-35.63.52-1.29,1.13-1.37,1.81,0"/>
        <path id="q" data-name="Path_36" class="x" d="M192.88,202v31.05c.12,1.85-.08,3.74-.6,5.51-.56,1.17-.72,1.01-.68,1.25s.4.12.4.12c1.53,0,1.85-.16,3.94-.16,1.89,0,2.25.12,3.7.12,0,0,.32.12.4-.12s-.52-.64-.8-1.49c-.4-1.73-.56-3.5-.52-5.27v-31.01h6.23c2.05,0,4.14.16,6.15.56.8.32,1.25.88,1.45.84s.12-.4.12-.4v-5.87h-34.99c0,1.85-.48,4.62-.48,6.11,0,0-.08.32.12.4s.64-.48,1.49-.8c2.17-.44,4.34-.68,6.56-.68l7.48-.12.04-.04Z"/>
        <path id="r" data-name="Path_37" class="x" d="M294.27,218.93v11.86c.08,2.61-.12,5.27-.68,7.8-.56,1.17-.72,1.01-.68,1.25s.4.12.4.12c1.53,0,1.89-.16,3.94-.16,1.89,0,2.45.12,3.9.12,0,0,.32.12.4-.12s-.52-.64-.8-1.49c-.4-1.69-.6-3.42-.52-5.15v-14.24s13.07-20.39,14-20.55c.84-.08,1.61-.52,2.05-1.21h-5.55c-1.89,0-3.9-.24-3.86-.12.32,1.17.12,2.45-.56,3.46-.76,1.33-8.16,12.87-8.65,13.39-.48-.48-8.08-11.9-8.85-13.23-.68-1.05-.88-2.29-.52-3.5.04-.16-2.57.12-4.46.12s-5.63-.12-5.63-.12c0,0,.44.04,1.61,1.09s14.44,20.67,14.44,20.67"/>
        <path id="s" data-name="Path_38" class="x" d="M333.2,218.17s13.23,19.59,14.4,20.63,1.61,1.09,1.61,1.09c0,0-3.74-.08-5.63-.08s-4.54.24-4.5.08c.36-1.17.16-2.45-.52-3.5-.76-1.33-8.2-12.59-8.69-13.07-.48.48-7.84,11.74-8.61,13.07-.68,1.01-.88,2.29-.52,3.5.04.16-2.09-.08-3.98-.08s-5.63.08-5.63.08c0,0,.44-.04,1.61-1.09s14.24-20.35,14.24-20.35c-4.38-7-9.17-13.75-14.24-20.23-1.37-.72-1.17-1.09-1.17-1.09,0,0,3.34.12,5.19.12s4.5-.24,4.46-.12c-.36,1.17-.16,2.45.52,3.5.76,1.33,8.04,12.35,8.53,12.83.48-.48,7.6-11.34,8.36-12.67.72-1.09.97-2.41.64-3.66-.04-.12,2.41.12,4.26.12s5.15-.12,5.15-.12c-.68.4-1.37.88-1.97,1.45-1.21,1.05-13.59,19.63-13.59,19.63"/>
        <path id="t" data-name="Path_39" class="x" d="M261.53,220.54s10.74,15.24,11.58,16.49c1.45,2.29,3.98,3.7,6.72,3.7,1.13,0,2.29-.04,3.42-.2,0,0-.28,0-1.41-1.09-2.17-2.01-12.99-17.45-12.99-17.45,4.62-1.97,9.85-5.07,9.57-12.27-.32-10.34-7.36-12.95-18.18-12.67-1.33.04-4.26.04-5.87.04-2.09,0-2.77-.16-4.3-.16,0,0-.32-.08-.4.12s.48.68.48.68c.76,2.9,1.09,5.91.88,8.89v26.42c.12,1.85-.08,3.74-.64,5.51-.52,1.17-.72,1.01-.64,1.25s.4.12.4.12c1.53,0,2.09-.16,4.18-.16,1.89,0,2.09.12,3.58.12,0,0,.32.12.4-.12s-.48-.64-.8-1.49c-.4-1.73-.56-3.5-.52-5.27,0,0,.04-28.19.04-31.01,0-1.97.97-2.13,3.42-2.17,8.28-.12,11.94,4.22,11.98,10.26.04,6.72-3.58,9.85-10.94,10.38"/>
        <path id="u" data-name="Path_40" class="x" d="M104.65,220.54s10.74,15.24,11.58,16.49c1.45,2.29,3.98,3.7,6.72,3.7,1.13,0,2.29-.08,3.42-.2,0,0-.28,0-1.41-1.09-2.17-2.01-12.99-17.45-12.99-17.45,4.58-1.97,9.81-5.07,9.57-12.27-.32-10.34-7.4-12.95-18.18-12.67-1.33.04-4.26.04-5.83.04-2.09,0-2.77-.16-4.3-.16,0,0-.32-.08-.4.12s.52.68.52.68c.76,2.9,1.09,5.91.88,8.89v26.42c.12,1.85-.08,3.74-.6,5.51-.56,1.17-.72,1.01-.68,1.25s.4.12.4.12c1.53,0,2.09-.16,4.18-.16,1.89,0,2.09.12,3.54.12,0,0,.32.12.4-.12s-.48-.64-.8-1.49c-.4-1.73-.56-3.5-.52-5.27v-31.01c0-1.97.97-2.13,3.42-2.17,8.28-.12,11.94,4.22,11.98,10.26.04,6.72-3.58,9.85-10.94,10.38"/>
        <path id="v" data-name="Path_41" class="x" d="M165.25,230.96c-4.06,4.26-9.81,6.52-15.68,6.11-9.85-.4-17.61-8.57-17.53-18.42-.84-9.45,6.15-17.78,15.6-18.62.92-.08,1.81-.08,2.73,0,5.31.16,10.26,2.65,13.55,6.8.36.64.64,1.33.72,2.09h.4v-.68c-.12-1.69-.68-3.86-.97-5.75-.16-1.33-.16-2.69,0-4.02-.48,0-.92,0-1.41-.04-3.94-1.01-7.96-1.61-12.02-1.85-14.56-.2-24.09,7.96-24.41,22.16-.28,13.19,9.41,22.24,24.09,22.24,4.46-.08,8.93-.6,13.27-1.57,0,0,.8-2.17,1.45-3.82.84-2.21,1.29-3.86,1.29-3.86l-1.01-.6-.08-.16Z"/>
      </g>
    </g>
  </g>
</svg>