<?xml version="1.0" encoding="UTF-8"?>
<svg id="a" data-name="Layer_1" xmlns="http://www.w3.org/2000/svg" viewBox="0 0 400 300">
  <defs>
    <style>
      .e {
        fill: #fff;
      }
    </style>
  </defs>
  <g id="b" data-name="Logos_x2F_-BD-full-logo">
    <path id="c" data-name="Fill-1" class="e" d="M354.57,135.28c.53,0,1.1.11,1.1.69,0,.55-.35.81-1.02.81h-.75v-1.51h.67ZM356.25,138.78l-1.25-1.69c.58-.03,1.1-.52,1.1-1.13,0-.7-.47-1.05-1.43-1.05h-1.17v3.86h.4v-1.65h.6l1.21,1.65h.54ZM354.77,133.78c1.68,0,2.96,1.39,2.96,3.06s-1.27,3.07-2.96,3.07-2.97-1.39-2.97-3.07,1.28-3.06,2.97-3.06h0ZM354.77,140.27c1.8,0,3.39-1.51,3.39-3.43s-1.59-3.43-3.39-3.43-3.4,1.51-3.4,3.43,1.59,3.43,3.4,3.43h0ZM358.13,149.8c2.01,0,3.46,1.6,3.46,4.91s-1.45,4.9-3.46,4.9-3.38-1.6-3.38-4.9,1.41-4.91,3.38-4.91h0ZM361.71,147.11c-1.59-1.64-3.77-2.1-5.93-2.1-6.65.12-8.59,5.71-8.59,9.93,0,5.89,4.64,9.46,8.78,9.46,2.69,0,5.01-1.03,6.16-2.89h.07v2.13h6.81v-27.14h-7.3v10.61ZM331.77,163.64v-10.19c0-1.67,1.21-3.19,2.96-3.19s2.48.83,2.48,2.7v10.68h7.3v-12.24c-.15-4.34-3.46-6.39-6.47-6.39-2.64,0-5.25.84-6.31,3.81h-.07v-3.04h-7.18v17.87h7.3ZM272.47,163.64v-10.95c0-1.9,1.18-2.43,2.35-2.43s2.32.54,2.32,2.43v10.95h7.3v-10.95c0-1.9,1.18-2.43,2.36-2.43s2.32.54,2.32,2.43v10.95h7.3v-10.95c0-6.15-3.46-7.68-7.34-7.68-2.13,0-4.57.99-5.67,3.2-1.1-2.13-2.93-3.2-5.44-3.2-1.83,0-4.49.77-5.74,3.35h-.07v-2.58h-7v17.87h7.31ZM229.86,143.16h7.3v-6.55h-7.3v6.55ZM229.86,163.65h7.3v-17.47h-7.3v17.47ZM199.64,136.5h11.67c10.46,0,16.05,4.18,16.05,13.57s-5.59,13.58-16.05,13.58h-11.67v-27.14ZM207.4,158.09h4.37c5.17,0,7.38-3.04,7.38-8.03,0-6.27-3.46-8.02-7.38-8.02h-4.37v16.04ZM321.77,154.72c0,5.44-3.74,9.7-11.32,9.7s-11.31-4.26-11.31-9.7,3.73-9.7,11.31-9.7,11.32,4.26,11.32,9.7h0ZM306.83,154.72c0,3.69,1.3,5.52,3.62,5.52s3.62-1.83,3.62-5.52-1.3-5.51-3.62-5.51-3.62,1.82-3.62,5.51h0ZM251.06,149.76c2.02,0,3.46,1.6,3.46,4.89s-1.44,4.88-3.46,4.88-3.42-1.58-3.42-4.88,1.41-4.89,3.42-4.89h0ZM262.17,163.64c-.97-1.05-1.14-2.46-1.14-4.4v-.59s-.02,0-.02,0v-12.89h-6.49v1.61c-1.35-1.6-3.56-2.38-5.66-2.38-5.41,0-9.16,4.48-9.16,9.69s3.81,9.73,9.23,9.73c2.14,0,4.8-.9,5.8-2.97h.03c0,1,.07,1.7.39,2.22h7.02ZM175.61,163.64v-4.79l2.28-2.21,3.65,7h8.21l-6.77-11.63,6.12-6.24h-8.74l-4.72,5.25v-14.52h-7.3v27.14h7.26ZM165.77,152.09c-.76-4.49-5.09-7.08-10.18-7.08-7.23,0-10.88,5.1-10.88,9.58,0,6.32,4.71,9.81,10.72,9.81,2.55,0,5.06-.45,6.96-1.59,1.9-1.15,3.19-2.97,3.38-5.7h-7.29c-.16,1.56-.69,2.81-2.89,2.81-1.6,0-3.2-.84-3.2-5.48,0-3.23,1.21-4.95,3.11-4.95.84,0,1.45.23,1.9.69.42.46.69,1.11.84,1.9h7.52ZM111.11,163.65h7.3v-27.14h-7.3v27.14ZM83.12,136.5h14.34c6.61,0,9.84,2.44,9.84,6.46,0,3.54-1.48,5.25-4.94,6.16v.08c3.77.49,6.12,2.78,6.12,6.69,0,3.42-1.9,7.75-11.14,7.75h-14.22v-27.14ZM90.88,141.89v5.18h5.09c2.85,0,3.57-.99,3.57-2.66,0-1.52-.72-2.52-3.57-2.52h-5.09ZM90.88,152.32v5.93h4.64c4.14,0,5.21-.92,5.21-2.97,0-2.28-1.03-2.97-3.61-2.97h-6.24ZM132.23,149.79c2.01,0,3.46,1.59,3.46,4.89s-1.45,4.89-3.46,4.89-3.42-1.59-3.42-4.89,1.41-4.89,3.42-4.89h0ZM143.34,163.67c-.97-1.05-1.14-2.45-1.14-4.4v-.6s-.01,0-.02,0v-12.89h-6.48v1.61c-1.35-1.6-3.56-2.38-5.66-2.38-5.41,0-9.15,4.47-9.15,9.69s3.81,9.73,9.22,9.73c2.14,0,4.81-.91,5.8-2.97h.03c0,1,.07,1.7.39,2.22h7.02ZM50.63,121.73l-19.65,28.27,19.7,28.27,6.39-9.19-13.48-19.28,13.29-19.12-6.24-8.95ZM49.85,150l10.22-14.72,10.26,14.72-10.21,14.69-10.27-14.69Z"/>
  </g>
</svg>