<?xml version="1.0" encoding="UTF-8"?>
<svg xmlns="http://www.w3.org/2000/svg" xmlns:xlink="http://www.w3.org/1999/xlink" version="1.1" viewBox="0 0 400 400">
  <defs>
    <style>
      .cls-1 {
        fill: none;
      }

      .cls-2 {
        fill: #fff;
      }

      .cls-3 {
        clip-path: url(#clippath);
      }
    </style>
    <clipPath id="clippath">
      <path class="cls-1" d="M144.5,117.9c-45.4,30.6-57.4,92.2-26.8,137.6,30.6,45.4,92.2,57.4,137.6,26.8,45.4-30.6,57.4-92.2,26.8-137.6h0c-30.6-45.4-92.2-57.4-137.6-26.8ZM214.2,228.6c-2.4,5.3-7.8,8.6-13.6,8.4h-19.7c-.2,0-.3-.1-.3-.3h0s0,0,0-.1l11-28.4c0-.2.2-.3.4-.3h19.1c2.7-.2,5.2,1.1,6.5,3.5.7,1.6.6,3.4,0,4.9-.9,2.4-2.7,4.4-5,5.6,2.2,1.5,2.9,4.4,1.6,6.7ZM247.4,236.5h0s0,0,0,.1c0,.2-.1.3-.3.3h-7.4c-.2,0-.4-.1-.4-.3l-3.5-11h-7.1l-4.3,11c0,.2-.3.3-.4.3h-6.5c-.2,0-.3-.1-.3-.3,0,0,0,0,0,0l11-28.4c0-.2.2-.3.4-.3h18.6c6.9,0,8.8,4.3,6.8,9.5-1.6,4.5-5.7,7.7-10.5,8.2l3.9,10.9ZM290.2,217.4c-2.3,6-7,8.5-13.9,8.5h-11.5l-4.2,10.7h0c0,.2-.2.3-.5.3h0s-6.5,0-6.5,0c-.2,0-.3-.1-.3-.3,0,0,0,0,0-.1l11-28.4c0-.2.2-.3.4-.3h18.8c6.2,0,8.8,3.9,6.6,9.5ZM290.4,183.5c.2,0,.4,0,.6,0h0c.8,4.2,1.2,8.4,1.4,12.7h-35.6c-2.2-31.4-29.4-55.1-60.8-53-31.4,2.2-55.1,29.4-53,60.8,1.2,17.7,10.6,33.8,25.4,43.6l-13.8,33.2c-33.5-18.7-52-56.2-46.4-94.2h.3c26.8-1.2,32.5-6.1,7-23.6-.2,0-.3-.2-.5-.3h0c4.7-10.7,11.3-20.4,19.6-28.5,0,0,.2.1.2.2,22.1,15.2,29.6,14.7,19.8-14.6,0-.2-.1-.4-.2-.5,10.2-5.8,21.4-9.5,33-11.1,0,0,0,.2,0,.3,8.4,25.5,14.7,29.6,24.6.3,0-.2.1-.4.2-.6,11,1.5,21.7,5,31.5,10.2,0,0,0,.2-.1.3-8.1,25.6-5.4,32.6,19.7,14.7.2-.1.3-.3.5-.4,8,7.7,14.6,16.8,19.5,26.8,0,0-.2.1-.2.2-21.6,15.9-23.6,23.1,7.3,23.5Z"/>
    </clipPath>
  </defs>
  <!-- Generator: Adobe Illustrator 28.7.1, SVG Export Plug-In . SVG Version: 1.2.0 Build 142)  -->
  <g>
    <g id="Layer_1">
      <path class="cls-1" d="M283.5,207.9h-18.8c-.2,0-.3.1-.4.3l-11,28.4s0,0,0,.1c0,.2.1.3.3.3h6.5c.2,0,.4-.2.5-.3h0l4.2-10.7h11.5c7,0,11.6-2.5,13.9-8.5,2.2-5.7-.4-9.5-6.6-9.5ZM283,217c-.8,1.9-2.7,3.1-4.7,3h-11.4l2.4-6.1h11.3c2.3,0,3.2,1.1,2.4,3.1Z"/>
      <path class="cls-1" d="M283.1,160c0,0,.2,0,.2-.2-4.8-10-11.4-19.1-19.5-26.8-.2.1-.3.2-.5.4-25.2,17.9-27.9,10.9-19.7-14.7,0,0,0-.2.1-.3-9.8-5.3-20.5-8.7-31.5-10.2,0,.2-.1.4-.2.6-9.8,29.3-16.1,25.2-24.6-.3,0,0,0-.2,0-.3-11.6,1.6-22.8,5.3-33,11.1,0,.2.1.4.2.5,9.8,29.3,2.3,29.8-19.8,14.6,0,0-.1-.1-.2-.2-8.3,8.2-14.9,17.9-19.6,28.5h0c.2.1.3.2.5.3,25.4,17.5,19.8,22.4-7,23.6h-.3c-5.5,38,12.9,75.5,46.4,94.2l13.8-33.2c-26.3-17.4-33.6-52.8-16.2-79.1,17.4-26.3,52.8-33.6,79.1-16.2,14.9,9.8,24.3,26,25.5,43.8h35.6c-.2-4.3-.7-8.5-1.4-12.7h0c-.2,0-.4,0-.6,0-30.9-.4-28.9-7.6-7.3-23.5Z"/>
      <path class="cls-1" d="M217.6,216.3c.7-1.6.7-3.4,0-4.9-1.3-2.3-3.8-3.7-6.5-3.5h-19.1c-.2,0-.3.1-.4.3l-11,28.4s0,0,0,.1c0,.2.1.3.3.3h19.7c5.8.3,11.2-3.1,13.6-8.4,1.3-2.3.6-5.2-1.6-6.7,2.3-1.2,4-3.2,4.9-5.6ZM207.3,227.7c-.9,2.1-3.1,3.3-5.3,3.1h-11.9l2.6-6.6h11.9c2.5,0,3.5,1.4,2.7,3.4ZM210.4,216.8c-.7,1.7-2.3,2.9-4.1,3.1h-12l2.4-6.1h11.7c1.9,0,2.7,1.2,2,3h0Z"/>
      <path class="cls-1" d="M254,217.4c2-5.2.2-9.5-6.8-9.5h-18.6c-.2,0-.4.1-.4.3l-11,28.4s0,0,0,0c0,.2.1.3.3.3h6.5c.2,0,.4-.1.4-.3l4.3-11h7.1l3.5,11c0,.2.3.3.4.3h7.4c.2,0,.3-.1.3-.3,0,0,0,0,0-.1h0l-3.9-10.9c4.8-.5,8.9-3.7,10.5-8.2ZM246.9,217c-.8,1.9-2.7,3-4.7,2.9h-11.3l2.4-6h11.3c2.3,0,3.2,1.1,2.4,3.1h0Z"/>
      <path class="cls-2" d="M285.8,142.1c-32-47.4-96.4-60-143.9-27.9-47.4,32-60,96.4-27.9,143.9,19.3,28.6,51.5,45.7,86,45.7h0c57.3,0,103.6-46.5,103.5-103.8,0-20.6-6.2-40.7-17.7-57.8ZM256.5,284.1c-46.4,31.3-109.3,19-140.6-27.3-31.3-46.4-19-109.3,27.3-140.6,46.4-31.3,109.3-19,140.6,27.3,31.3,46.4,19,109.3-27.3,140.6,0,0,0,0,0,0h0Z"/>
      <path class="cls-2" d="M208.4,213.9h-11.7l-2.4,6.1h12c1.9-.2,3.4-1.4,4.1-3.1.7-1.7-.1-3-2-3Z"/>
      <path class="cls-2" d="M204.6,224.3h-11.9l-2.6,6.6h11.8c2.3.2,4.4-1,5.3-3.1.8-2-.2-3.4-2.7-3.4Z"/>
      <path class="cls-2" d="M244.5,213.9h-11.3l-2.4,6h11.3c2,.1,3.9-1,4.7-2.9.8-2,0-3.1-2.4-3.1Z"/>
      <path class="cls-2" d="M280.6,213.9h-11.3l-2.4,6.1h11.4c2.1,0,3.9-1.1,4.7-3,.8-2,0-3.1-2.4-3.1Z"/>
      <g class="cls-3">
        <path class="cls-2" d="M255.3,282.3c-45.4,30.6-107,18.6-137.6-26.8-30.6-45.4-18.6-107,26.8-137.6,45.4-30.6,107-18.6,137.6,26.8,30.6,45.4,18.6,107-26.8,137.6h0Z"/>
      </g>
    </g>
  </g>
</svg>