<?xml version="1.0" encoding="UTF-8"?>
<svg id="a" data-name="Layer_1" xmlns="http://www.w3.org/2000/svg" viewBox="0 0 400 300">
  <defs>
    <style>
      .c {
        fill: #fff;
      }
    </style>
  </defs>
  <path class="c" d="M152.02,132.9c-4.61,0-7.82,1.97-9.07,2.92v-2.18h-3.3v46.06h3.3v-15.34c1.07.65,3.69,1.93,7.36,1.93,9.19,0,15.61-7.12,15.61-17.32,0-9.62-5.59-16.07-13.89-16.07ZM150.5,163.2c-2.67,0-5.21-.73-7.54-2.17h-.02v-21.88s.05-.04.08-.07c2.53-2.09,5.47-3.14,8.73-3.14,6.41,0,10.73,5.16,10.73,12.83,0,8.78-4.71,14.43-11.99,14.43ZM184.49,132.9c-8.89,0-14.41,6.52-14.41,16.99s5.71,16.41,14.55,16.41c6.59,0,10.69-2.74,11.36-3.25l-1.69-2.89c-.95.68-4.63,2.84-9.46,2.84-6.9,0-11.22-4.91-11.32-12.87h23.07c.07-.67.16-1.73.16-2.27,0-9.08-4.81-14.95-12.25-14.95M184.49,135.87c6.04,0,8.79,5.56,8.88,11.16h-19.7c.47-6.59,4.9-11.16,10.83-11.16M88.74,132.9c-9.22,0-14.2,6.45-14.2,16.77s5.02,16.76,14.2,16.76,14.13-6.69,14.13-16.76c0-10.78-5.38-16.77-14.13-16.77ZM88.74,163.47c-6.71,0-10.76-6.24-10.76-13.8s4.09-13.81,10.76-13.81c6.22,0,10.7,5.71,10.7,13.81s-4.32,13.8-10.7,13.8ZM121.09,132.9c-9.22,0-14.2,6.45-14.2,16.77s5.02,16.76,14.2,16.76,14.13-6.69,14.13-16.76c0-10.78-5.39-16.77-14.13-16.77ZM121.09,163.47c-6.71,0-10.77-6.24-10.77-13.8s4.1-13.81,10.77-13.81c6.22,0,10.7,5.71,10.7,13.81s-4.32,13.79-10.7,13.8ZM216.59,136.14c-.55-.07-1.26-.12-2.15-.12-2.82,0-6.62,1.1-9.47,6.19v23.52h-3.3v-32.09h3.3v4.16c3.05-4.13,6.87-5.04,9.6-5.04,1.14,0,2.17.2,2.83.35l-.81,3.02h0ZM72.52,162.41c-.85.66-4.57,3.99-12.41,4.01-12.31.03-19.85-9.6-19.85-23.16s8.04-22.96,19.86-22.96c7.23,0,11.24,3.15,11.81,3.56l-1.59,2.88c-1.22-.87-4.87-3.01-9.9-3.01-10.03,0-16.47,7.6-16.7,19.08-.22,12.04,6.39,20.19,16.7,20.19,2.71,0,6.4-.49,10.36-3.34l1.73,2.75ZM249.8,121.09h3.58l-15.63,44.64h-4.6l-15.69-44.64h3.91l14.21,41.43,14.21-41.43ZM258.61,128.72c-1.29,0-2.34-1.06-2.34-2.35s1.03-2.27,2.34-2.27,2.28,1.01,2.28,2.27-1,2.35-2.28,2.35ZM256.96,133.64h3.3v32.09h-3.3v-32.08h0ZM359.74,145.28v20.44h-3.3v-19.18c0-4.14,0-6.88-1.9-8.78-1.15-1.15-3.02-1.76-5.39-1.76-2.96,0-6.21,1.17-9.79,3.37v26.35h-3.3v-32.09h3.3v2.45c1.35-.86,5.22-3.18,10.05-3.18,3.32,0,5.78.86,7.54,2.59,2.4,2.41,2.79,4.85,2.79,9.79M316.25,132.9c-9.22,0-14.19,6.45-14.19,16.77s5.01,16.76,14.19,16.76,14.13-6.69,14.13-16.76c0-10.78-5.37-16.77-14.13-16.77ZM316.25,163.46c-6.7,0-10.76-6.23-10.76-13.79s4.09-13.81,10.76-13.81c6.23,0,10.7,5.71,10.7,13.81s-4.31,13.79-10.7,13.79ZM286.96,157.03c0,5.81-4.37,9.41-11.39,9.41-6.45,0-10.11-2.74-10.48-3.01l1.61-2.79c1.01.7,4.4,2.76,8.62,2.76,5.14,0,8.21-2.27,8.21-6.1,0-2.3-1.42-4.58-5.52-6.08-.73-.27-4.2-1.53-5.06-1.84-5.07-1.85-6.52-4.74-6.52-8.25,0-4.83,4.22-8.22,10.26-8.22s8.88,2.28,9.38,2.6l-1.63,2.75c-.46-.33-3.57-2.38-7.48-2.38-3.45,0-7.17,1.62-7.17,5.18.02,3.02,2.28,4.54,4.86,5.46.95.34,2.96,1.08,4,1.45,6.08,2.19,8.31,5.03,8.31,9.07M294.57,128.73c-1.3,0-2.34-1.06-2.34-2.35s1.02-2.27,2.34-2.27,2.27,1.01,2.27,2.27-1,2.35-2.27,2.35ZM292.92,133.64h3.3v32.09h-3.3v-32.09Z"/>
</svg>