<?xml version="1.0" encoding="UTF-8"?>
<svg xmlns="http://www.w3.org/2000/svg" version="1.1" viewBox="0 0 400 400">
  <defs>
    <style>
      .cls-1 {
        fill: #fff;
      }
    </style>
  </defs>
  <!-- Generator: Adobe Illustrator 28.7.1, SVG Export Plug-In . SVG Version: 1.2.0 Build 142)  -->
  <g>
    <g id="Layer_1">
      <g id="Calque_2">
        <g id="Calque_1-2">
          <path class="cls-1" d="M83.3,196.7l-4.5,24.7c4.3-2.5,8.1-5.7,11.3-9.4.3-.3.5-.8.5-1.2,1-7.5,4.1-14.6,8.8-20.5.1-.2.2-.4.2-.6,0-.8.2-1.6.2-2.5.2-2.9,0-5.8-.4-8.7-6,4.3-11.1,9.6-15.2,15.8-.5.7-.8,1.5-.9,2.4"/>
          <path class="cls-1" d="M69.6,196.7l4.5,24.7c-4.3-2.5-8.1-5.7-11.3-9.4-.3-.4-.5-.8-.5-1.2-1-7.5-4.1-14.6-8.8-20.5-.1-.2-.2-.4-.3-.6,0-.8-.2-1.6-.2-2.5-.2-2.9,0-5.8.4-8.7,6,4.3,11.1,9.6,15.2,15.8.5.7.8,1.5.9,2.4"/>
          <path class="cls-1" d="M152,185.5h-17.3l-12.3,29h20.8c8,0,18-6.2,20.6-14.5,2.7-8.5-3.8-14.5-11.8-14.5M154.2,200h0c-1.4,3.4-5.4,6.2-8.8,6.2h-9.5l5.2-12.3h9.5c3.4,0,5,2.8,3.6,6.2"/>
          <polygon class="cls-1" points="259.6 185.5 249.8 185.5 237.6 214.5 247.3 214.5 259.6 185.5"/>
          <polygon class="cls-1" points="347 185.5 337.3 185.5 325 214.5 334.7 214.5 347 185.5"/>
          <polygon class="cls-1" points="236.6 185.5 219.4 204.4 215.7 185.5 206.6 185.5 212.4 214.5 221.4 214.5 247.8 185.5 236.6 185.5"/>
          <polygon class="cls-1" points="287.4 185.5 279.9 203.2 272.9 185.5 263.2 185.5 250.9 214.5 260.7 214.5 267.9 197.4 274.7 214.5 284.9 214.5 297.2 185.5 287.4 185.5"/>
          <path class="cls-1" d="M197.5,206.2h-19c-3.4,0-4-2.6-4-2.6h24.1l3-7.1h-24.2c1.8-1.6,4-2.6,6.1-2.6h19.2l3.5-8.3h-20.6c-4,0-8.5,1.5-12.4,4.2-4.1,2.8-7.1,6.5-8.4,10.4-1.1,3.6-.7,6.9,1.2,9.6,2.2,3,6.2,4.8,10.6,4.8h17.4l3.5-8.4Z"/>
          <path class="cls-1" d="M306.1,206.2c-3.4,0-5-2.8-3.6-6.2s5.4-6.2,8.8-6.2h18.8l3.5-8.3h-20.8c-8,0-18,6.2-20.6,14.5-2.7,8.5,3.8,14.5,11.8,14.5h17.3l3.5-8.4h-18.8Z"/>
        </g>
      </g>
    </g>
  </g>
</svg>