<?xml version="1.0" encoding="UTF-8"?>
<svg id="a" data-name="Layer_1" xmlns="http://www.w3.org/2000/svg" viewBox="0 0 400 300">
  <defs>
    <style>
      .f {
        fill: #fff;
      }
    </style>
  </defs>
  <g id="b" data-name="Layer_1">
    <g id="c" data-name="Calque_2">
      <g id="d" data-name="Calque_1-2">
        <path class="f" d="M72.33,146.44l-4.92,27.03c4.71-2.74,8.86-6.24,12.37-10.29.33-.33.55-.88.55-1.31,1.09-8.21,4.49-15.98,9.63-22.44.11-.22.22-.44.22-.66,0-.88.22-1.75.22-2.74.22-3.17,0-6.35-.44-9.52-6.57,4.71-12.15,10.51-16.63,17.29-.55.77-.88,1.64-.98,2.63"/>
        <path class="f" d="M57.33,146.44l4.92,27.03c-4.71-2.74-8.86-6.24-12.37-10.29-.33-.44-.55-.88-.55-1.31-1.09-8.21-4.49-15.98-9.63-22.44-.11-.22-.22-.44-.33-.66,0-.88-.22-1.75-.22-2.74-.22-3.17,0-6.35.44-9.52,6.57,4.71,12.15,10.51,16.63,17.29.55.77.88,1.64.98,2.63"/>
        <path class="f" d="M147.51,134.19h-18.93l-13.46,31.74h22.76c8.76,0,19.7-6.79,22.54-15.87,2.95-9.3-4.16-15.87-12.91-15.87M149.92,150.05h0c-1.53,3.72-5.91,6.79-9.63,6.79h-10.4l5.69-13.46h10.4c3.72,0,5.47,3.06,3.94,6.79"/>
        <polygon class="f" points="265.27 134.19 254.54 134.19 241.19 165.92 251.81 165.92 265.27 134.19"/>
        <polygon class="f" points="360.92 134.19 350.3 134.19 336.84 165.92 347.46 165.92 360.92 134.19"/>
        <polygon class="f" points="240.1 134.19 221.27 154.87 217.23 134.19 207.27 134.19 213.61 165.92 223.46 165.92 252.36 134.19 240.1 134.19"/>
        <polygon class="f" points="295.69 134.19 287.49 153.56 279.83 134.19 269.21 134.19 255.75 165.92 266.47 165.92 274.35 147.21 281.8 165.92 292.96 165.92 306.42 134.19 295.69 134.19"/>
        <path class="f" d="M197.31,156.84h-20.79c-3.72,0-4.38-2.85-4.38-2.85h26.38l3.28-7.77h-26.48c1.97-1.75,4.38-2.85,6.68-2.85h21.01l3.83-9.08h-22.54c-4.38,0-9.3,1.64-13.57,4.6-4.49,3.06-7.77,7.11-9.19,11.38-1.2,3.94-.77,7.55,1.31,10.51,2.41,3.28,6.79,5.25,11.6,5.25h19.04l3.83-9.19h0Z"/>
        <path class="f" d="M316.16,156.84c-3.72,0-5.47-3.06-3.94-6.79,1.53-3.72,5.91-6.79,9.63-6.79h20.57l3.83-9.08h-22.76c-8.76,0-19.7,6.79-22.54,15.87-2.95,9.3,4.16,15.87,12.91,15.87h18.93l3.83-9.19h-20.57l.11.11Z"/>
      </g>
    </g>
  </g>
</svg>