<?xml version="1.0" encoding="UTF-8"?>
<svg id="a" data-name="Layer_1" xmlns="http://www.w3.org/2000/svg" viewBox="0 0 400 300">
  <defs>
    <style>
      .c {
        fill: #fff;
      }
    </style>
  </defs>
  <path class="c" d="M273.76,127.17c-22.58,0-27.66,13.56-27.66,22.83s5.08,22.83,27.66,22.83,27.66-13.47,27.66-22.83-5.08-22.83-27.66-22.83ZM273.76,168.6c-8.39,0-14.48-7.15-14.48-18.6-.34-24.82,29.28-24.81,28.93,0,0,11.45-6.09,18.6-14.48,18.6h.02Z"/>
  <path class="c" d="M124.17,128.28c-3.46.17-8.1.67-10.5.65-2.21,0-10.69-.65-12.35-.74-.91.04-.72.93-.74,1.56,0,.36.29.65.65.65,5.06.46,5.71,2.76,6.09,6.41.3,6.14.3,20.07,0,26.21-.36,3.84-1.1,5.95-6.09,6.41-.82.04-.63,1.05-.65,1.56,0,.19.19.74.74.65.55,0,10.04-.74,12.35-.74,2.49,0,11.15.65,12.44.74.36,0,.65-.27.65-.65v-.91c0-.36-.29-.65-.65-.65-7.08-.38-5.99-6.2-6.26-11.64.02-3.69-.11-17.69.19-21,.29-2.76-.29-5.86,6.09-6.41.36,0,.65-.36.65-.65v-.91c-.27-1.16-1.39-.42-2.59-.55l-.02.02Z"/>
  <path class="c" d="M87.95,128.54c-16,.29-31.46,1.03-46.83-.36-.91-.13-.72,1.01-.74,1.56,0,.36.29.65.65.65,7.34.51,5.9,6.22,6.28,11.64-.04,3.67.13,17.71-.19,21-.36,4.32-1.65,6.05-6.09,6.41-.36,0-.65.36-.65.65v.91c0,.36.36.74.74.65,1.2-.1,9.49-.74,12.35-.74,2.4,0,9.85.55,12.35.74.91-.1.72-.93.74-1.56,0-.36-.29-.65-.65-.65-5.54-.46-5.71-2.93-6.09-6.41-.17-1.77-.21-5.9-.19-7.88,0-1.46.55-2.28,2.95-2.28,4.79.1,10.42,1.65,10.69,6.33,0,.55.19.82,1.39.74.84-.1.74-.27.74-1.1-.46-5.92-.48-9.4,0-15.41.1-.74-.1-1.01-.74-1.1-1.2-.1-1.39.19-1.39.74-.29,4.85-6.09,6.33-10.98,6.33-1.29,0-2.68-.27-2.68-2.21,0-4.68,0-6.24.19-10.54-.29-3.77,1.86-3.92,4.98-4.03,15.05-.3,21.91,5.9,21.67,11,.06.82,1.1.61,1.65.65.95-.04.57-.99.65-1.65.1-1.92.19-9.72.19-12.29,0-.36.19-1.75-1.01-1.75l.02-.04Z"/>
  <path class="c" d="M359.21,128.37c-3.04.1-4.98.74-7.55.74-2.3,0-5.99-.55-8.94-.74-.36-.1-.74.1-.74.65.02.55-.19,1.5.65,1.56,6.09.46,5.8,3.39,6.09,6.41.34,2.95.11,12,.19,15.31,0,.36-.29.65-.91.19l-28.02-23.38c-.55-.46-.93-.65-1.75-.65-3.33,0-7.57.25-10.98-.19-.93-.13-.72,1.01-.74,1.56,0,.27.27.65.65.65,5.16.36,5.71,2.76,6.09,6.41.3,6.13.3,19.92,0,26.04-.36,3.94-1.1,6.05-6.09,6.41-.82-.02-.63,1.05-.65,1.56,0,.36.36.65.74.65,2.21-.1,5.9-.74,8.2-.74,2.68,0,6.54.74,8.2.74.36,0,.74-.27.74-.65-.02-.55.19-1.5-.65-1.56-6.81-.23-6.11-6.18-6.26-11.64v-14.21c0-.74.55-.36.65-.27,4.41,3.58,33.56,28.06,33.56,28.06.84.65,1.39.46,1.39-.36.08-3.77-.19-31.05.19-34.11.29-3.02.29-5.95,6.09-6.41.82-.06.63-.8.65-1.56,0-.27-.27-.65-.74-.46l-.04-.02Z"/>
  <path class="c" d="M184.17,155.69c-.46.08-1.39-.25-1.48.46-1.1,7.25-3.69,9.63-12.17,10.44-2.85.27-3.14.36-5.99.27-4.15-.1-6.09-1.01-5.99-8.07v-16.76c.44-5.44-1.22-11.05,6.26-11.64.82-.04.63-1.05.65-1.56,0-.19-.29-.74-.74-.65-1.1.19-9.23.74-12.17.74-2.68,0-10.23-.65-12.35-.74-.36,0-.74.27-.74.65,0,.55-.19,1.56.65,1.56,5.44.46,5.71,3.02,6.09,6.41.32,3.21.13,18.28.19,21.91,0,2.11-.1,3.84-.19,5.23-.36,3.77-.91,5.04-6.09,5.5-.36,0-.65.36-.65.65v.91c0,.36.46.74.74.65,13.49-.89,28.71-1.33,42.4-.1,1.1.1,2.04-.19,2.04-1.75-.19-3.29-.19-5.69.19-13.47,0-.55-.19-.65-.65-.65h.02Z"/>
  <path class="c" d="M219.47,144.22c-14.1-2.21-20.37-3.67-20.37-7.42,0-2.28,3.41-4.68,12.17-4.68,7.32.1,14.95,1.94,17.98,7.88.57,1.01,1.58.76,2.49.65.65-.19.74-.46.74-1.1-.36-3.29-.46-5.5.1-8.26.82-2.47-5.9-2.61-10.33-3.31-11.45-1.62-29.69-.46-30.23,13.01,1.33,15.88,22.2,11.2,31.71,16.49,4.6,2.57,3.79,6.33.36,8.62-4.6,2.93-14.1,3.94-20.83,0-2.4-1.37-5.71-4.03-7-7.51-.55-1.37-1.2-2.76-1.75-3.12-.89-.38-2.43-.68-2.4.65.19,1.56.91,5.4-.36,9.26-1.37,3.27,13.33,7.36,22.12,7.25,10.42,0,16.13-3.58,19.37-6.6,5.08-4.85,6.35-11.45,1.48-16.04-2.59-2.21-5.54-4.22-15.22-5.78l-.04.02Z"/>
</svg>