<?xml version="1.0" encoding="UTF-8"?>
<svg id="a" data-name="Layer_1" xmlns="http://www.w3.org/2000/svg" viewBox="0 0 400 300">
  <defs>
    <style>
      .c {
        fill: #fff;
      }
    </style>
  </defs>
  <path class="c" d="M45.8,172v-23.76h-4.8v-8.08h4.8v-1.12c0-8.56,4.56-11.84,13.04-11.84.48,0,3.6.24,3.6.24l6.64.56v8l-5.04-.4s-1.2-.08-1.6-.08c-2.8,0-3.44,1.68-3.44,3.6l.08,1.04h8.56v8.08h-8.4v23.76h-13.44ZM72.6,139.84h13.12v32.16h-13.12v-32.16ZM72.6,128.16h13.12v8.56h-13.12v-8.56ZM88.76,128.8l14.32,43.2h11.2l13.92-43.2h-10.64l-6.72,22.8-6.56-22.8h-15.52Z"/>
  <path class="c" d="M145.08,137.84c3.84,0,5.36,2.8,5.36,7.04v.4h-10.72v-.48c0-4.72,2.32-6.96,5.36-6.96M144.92,127.92c-14.08,0-20.72,11.92-20.72,22.88s6.8,22,21.44,22c11.36,0,17.84-6.64,19.76-15.28l-14-1.04c-.48,3.28-2.16,5.28-5.68,5.28-4.4,0-5.92-2.96-5.92-6.88v-1.2h25.6v-2.48c0-11.04-5.52-23.28-20.48-23.28h0Z"/>
  <path class="c" d="M193.4,154.56h6.48c3.04,0,5.28,1.36,5.28,4,0,1.44-1.28,3.76-4.48,3.76h-7.28v-7.76M193.4,138.08h5.84c3.28,0,5.04,1.04,5.04,3.68,0,1.44-1.04,3.6-3.84,3.6h-6.4l-.64-7.28h0ZM180.6,128.8v43.2h22.08c6.88,0,10.48-1.36,12.8-3.84,1.52-1.68,3.12-4.72,3.12-8.64,0-6.08-4.48-9.12-9.04-10,4.48-.88,7.84-4.56,7.84-9.36,0-2-.72-5.44-3.12-7.68-2.4-2.32-4.8-3.68-10.96-3.68h-22.72,0ZM220.84,172v-43.2h34.08v9.92h-20.4v6.32h16.56v9.6h-16.56v7.04h20.4v10.32h-34.08ZM259.08,172v-43.2h14v32.56h17.76v10.64h-31.76Z"/>
  <path class="c" d="M288.12,134.48c2.48,0,5.12,1.92,5.12,4.88,0,2.72-2.16,4.96-5.2,4.96-2.8,0-5.12-2.24-5.12-4.88s2.16-4.96,5.2-4.96M288.04,127.76c-7.12,0-12.16,5.6-12.16,11.6,0,6.56,5.36,11.68,12.24,11.68,5.76,0,12.16-4.32,12.16-11.68,0-6.4-5.44-11.6-12.24-11.6h0Z"/>
  <path class="c" d="M300.6,128.8l12.08,43.2h12.24l5.92-24.08,6.32,24.08h11.76l12.08-43.2h-10.72l-6.32,25.12-6.72-25.04-10.96-.08-6.24,25.12-6.32-25.12h-13.12Z"/>
</svg>