<?xml version="1.0" encoding="UTF-8"?><svg id="Layer_1" xmlns="http://www.w3.org/2000/svg" viewBox="0 0 400 400"><defs><style>.cls-1{fill:#fff;}</style></defs><path class="cls-1" d="m252.04,245.9h0c.37-.19.74-.19,1.12-.37,2.42-.93,3.72-2.42,3.91-4.65h0v-.56c0-3.54-2.42-6.05-6.24-6.05h-14.43v4.65h2.23v14.06h-2.23v4.65h10.33v-4.65h-1.86v-5.31h1.86l3.17,5.31h-1.12v4.65h9.4v-4.65h-1.86l-4.28-7.08Zm-4.65-2.05h-2.42v-4.84h2.42c2.23,0,3.17.74,3.17,2.42,0,1.68-1.12,2.42-3.17,2.42h0Z"/><path class="cls-1" d="m228.02,245.34c2.98-.74,4.28-2.42,4.28-4.84,0-3.91-2.61-6.24-7.73-6.24h-11.64v4.65h2.42v14.06h-2.42v4.65h12.57c4.84,0,7.54-2.42,7.54-6.61.19-3.07-1.49-4.93-5.03-5.68Zm-6.42-6.33h1.86c1.86,0,2.79.74,2.79,2.23s-.93,2.23-2.79,2.23h-1.86v-4.47Zm1.86,14.06h-1.86v-5.68h1.86c2.23,0,3.35.93,3.35,2.79.09,1.96-1.12,2.89-3.35,2.89Z"/><path class="cls-1" d="m280.81,236.68c-2.23-1.86-5.03-2.98-8.29-2.98s-6.05.93-8.29,2.98c-1.3,1.12-2.42,2.61-3.17,4.1-.74,1.49-1.12,3.35-1.12,5.03s.37,3.54,1.12,5.03c.74,1.49,1.86,2.98,3.17,4.1,2.23,1.86,5.03,2.98,8.29,2.98s6.05-.93,8.29-2.98c1.3-1.12,2.42-2.61,3.17-4.1.74-1.49,1.12-3.35,1.12-5.03s-.37-3.35-1.12-5.03c-.74-1.58-1.86-2.89-3.17-4.1Zm-8.29,15.83c-3.35,0-6.05-2.61-6.05-6.61,0-3.72,2.61-6.61,6.05-6.61s6.05,2.61,6.05,6.61-2.7,6.61-6.05,6.61Z"/><path class="cls-1" d="m299.99,242.92l-2.05-.37c-2.23-.37-3.17-1.12-3.17-2.23s1.12-2.05,2.42-2.05c1.68,0,2.98,1.12,4.28,3.35h5.03v-7.35h-5.03l.19,2.05c-1.3-1.68-3.17-2.61-5.49-2.61-4.47,0-7.91,3.17-7.91,7.54,0,4.1,2.61,6.42,8.1,7.35l2.42.37c1.86.37,2.79,1.12,2.79,2.23s-.93,2.05-2.61,2.05c-2.05,0-3.54-1.12-5.31-3.54h-5.49v7.91h5.03l-.19-2.42c1.68,1.86,3.91,2.79,6.8,2.79,4.84,0,8.1-3.17,8.1-7.73.09-4-2.51-6.24-7.91-7.35Z"/><path class="cls-1" d="m287.7,148.05l-33.05,9.4v5.68l33.05-12.94v-2.14Z"/><path class="cls-1" d="m179.15,196.93c-3.54-2.98-7.91-4.1-12.94-3.17-3.17.56-6.24,1.86-8.66,3.72h0c-2.05,1.49-3.91,3.17-5.49,5.31-3.91,4.84-5.87,10.15-5.87,15.83,0,5.31,1.68,9.4,5.31,12.38,3.54,2.98,7.91,4.1,12.94,3.17,5.49-1.12,10.33-3.91,14.06-8.84,3.91-4.84,5.87-10.15,5.87-15.83.09-5.31-1.68-9.4-5.21-12.57Zm-9.22,26.63c-3.35,2.05-8.29-.74-10.52-6.24-2.42-5.49-1.68-11.45,1.86-13.5,3.35-2.05,8.29.74,10.52,6.24,2.51,5.4,1.68,11.45-1.86,13.5Z"/><path class="cls-1" d="m151.68,195.53l54.65-19.55v5.68l28.77-11.26v-7.73l-20.48,5.87,1.3-7.91-51.3,18.81,1.3-8.47-22.9,9.4v-26.72l-13.31,4.28v28.3l-12.2,5.03v-40.03l-17.69,5.03v7.35l4.28-1.3v34.17l-25.32,10.71v2.61l25.32-6.98v42.27c11.64-3.72,13.31-12.2,13.31-17.69v-28.21l12.2-3.35v44.13c11.64-3.72,13.31-12.2,13.31-13.69v-34.17l8.84-2.42-.09,5.87Z"/><path class="cls-1" d="m293.19,196.93v11.82c11.64-3.72,13.31-12.2,13.31-17.5v-28.95c-11.64,3.72-13.31,12.2-13.31,17.5v6.8c-.93,2.42-2.23,4.65-3.72,6.98q-.19.19-.37.37c-.37.56-.93,1.12-1.49,1.68l-.19.19c-4.84,5.03-10.89,6.8-14.99,3.17,10.89-6.42,16.57-12.57,16.57-18.43,0-3.35-1.68-5.87-5.31-7.54-3.17-1.49-6.61-1.86-9.96-1.12-5.31.93-9.78,3.72-13.5,8.29-3.72,4.47-5.68,9.59-5.68,14.8,0,5.49,1.86,9.78,5.49,13.13,3.54,3.17,8.1,4.28,13.5,3.35,5.03-.93,9.78-3.35,14.06-7.35,1.86-1.96,3.91-4.56,5.59-7.17Zm-23.09-2.33c-1.86,0-2.98-3.17-2.42-7.35.56-4.19,2.61-7.73,4.47-7.73s2.98,3.17,2.42,7.35c-.37,4.19-2.42,7.73-4.47,7.73h0Z"/><path class="cls-1" d="m314.23,160.81c-4.65.93-6.61,5.87-6.05,9.96.37,3.72,2.79,6.8,6.8,6.05,3.91-.74,6.24-5.03,6.24-9.03-.19-4.38-2.89-7.91-6.98-6.98Z"/><path class="cls-1" d="m218.25,223.93c8.47-1.49,12.75-8.29,12.75-20.3.74-.19,1.3-.19,1.86-.37,1.86-.37,3.54-1.12,5.31-2.23v18.62c11.64-3.72,13.31-12.2,13.31-17.69v-59.96l-17.69,5.03v7.35l4.28-1.3v42.64c-.93,1.3-1.86,2.05-2.98,2.23-2.79.56-4.28-.93-4.28-4.47v-4.47c0-2.98-1.12-4.1-3.17-3.72-1.68.37-3.17,1.3-4.1,2.98s-1.49,3.54-1.49,5.49c0,4.1,1.3,6.8,3.72,8.47v2.23c0,3.72-1.3,5.87-3.72,6.24-1.86.37-2.98-1.3-2.98-4.84v-20.48l-12.57,4.28v18.81c0,3.54-1.12,5.49-3.17,5.87-2.23.37-3.54-1.12-3.54-4.84v-25.42l-17.69,5.03v7.35l5.03-1.49v3.35h0v17.5c0,3.54.74,6.42,2.23,8.84,1.86,2.79,4.28,3.91,7.73,3.35,5.31-.93,9.03-4.28,10.89-9.96,1.58,4.75,5.12,6.8,10.24,5.87Z"/></svg>
