<?xml version="1.0" encoding="UTF-8"?>
<svg xmlns="http://www.w3.org/2000/svg" version="1.1" viewBox="0 0 400 300">
  <defs>
    <style>
      .cls-1 {
        fill: #fff;
      }
    </style>
  </defs>
  <!-- Generator: Adobe Illustrator 28.7.1, SVG Export Plug-In . SVG Version: 1.2.0 Build 142)  -->
  <g>
    <g id="Layer_1">
      <g>
        <path class="cls-1" d="M268.7,210.6h0c.5-.3,1-.3,1.5-.5,3.2-1.2,4.9-3.2,5.2-6.1h0v-.7c0-4.7-3.2-8-8.2-8h-19v6.1h2.9v18.6h-2.9v6.1h13.6v-6.1h-2.5v-7h2.5l4.2,7h-1.5v6.1h12.4v-6.1h-2.5l-5.6-9.3h0ZM262.6,207.9h-3.2v-6.4h3.2c2.9,0,4.2,1,4.2,3.2s-1.5,3.2-4.2,3.2h0Z"/>
        <path class="cls-1" d="M237,209.9c3.9-1,5.6-3.2,5.6-6.4,0-5.2-3.4-8.2-10.2-8.2h-15.4v6.1h3.2v18.6h-3.2v6.1h16.6c6.4,0,10-3.2,10-8.7.3-4.1-2-6.5-6.6-7.5h0ZM228.5,201.5h2.5c2.5,0,3.7,1,3.7,2.9s-1.2,2.9-3.7,2.9h-2.5v-5.9h0ZM231,220.1h-2.5v-7.5h2.5c2.9,0,4.4,1.2,4.4,3.7.1,2.6-1.5,3.8-4.4,3.8Z"/>
        <path class="cls-1" d="M306.7,198.4c-2.9-2.5-6.6-3.9-10.9-3.9s-8,1.2-10.9,3.9c-1.7,1.5-3.2,3.4-4.2,5.4-1,2-1.5,4.4-1.5,6.6s.5,4.7,1.5,6.6c1,2,2.5,3.9,4.2,5.4,2.9,2.5,6.6,3.9,10.9,3.9s8-1.2,10.9-3.9c1.7-1.5,3.2-3.4,4.2-5.4,1-2,1.5-4.4,1.5-6.6s-.5-4.4-1.5-6.6c-1-2.1-2.5-3.8-4.2-5.4h0ZM295.7,219.3c-4.4,0-8-3.4-8-8.7s3.4-8.7,8-8.7,8,3.4,8,8.7-3.6,8.7-8,8.7Z"/>
        <path class="cls-1" d="M332,206.7l-2.7-.5c-2.9-.5-4.2-1.5-4.2-2.9s1.5-2.7,3.2-2.7,3.9,1.5,5.6,4.4h6.6v-9.7h-6.6l.3,2.7c-1.7-2.2-4.2-3.4-7.2-3.4-5.9,0-10.4,4.2-10.4,10s3.4,8.5,10.7,9.7l3.2.5c2.5.5,3.7,1.5,3.7,2.9s-1.2,2.7-3.4,2.7-4.7-1.5-7-4.7h-7.2v10.4h6.6l-.3-3.2c2.2,2.5,5.2,3.7,9,3.7,6.4,0,10.7-4.2,10.7-10.2.1-5.3-3.3-8.2-10.4-9.7h0Z"/>
        <path class="cls-1" d="M315.8,81.4l-43.6,12.4v7.5l43.6-17.1v-2.8h0Z"/>
        <path class="cls-1" d="M172.5,146c-4.7-3.9-10.4-5.4-17.1-4.2-4.2.7-8.2,2.5-11.4,4.9h0c-2.7,2-5.2,4.2-7.2,7-5.2,6.4-7.7,13.4-7.7,20.9s2.2,12.4,7,16.3c4.7,3.9,10.4,5.4,17.1,4.2,7.2-1.5,13.6-5.2,18.6-11.7,5.2-6.4,7.7-13.4,7.7-20.9.1-7-2.2-12.4-6.9-16.6h0ZM160.3,181.1c-4.4,2.7-10.9-1-13.9-8.2-3.2-7.2-2.2-15.1,2.5-17.8,4.4-2.7,10.9,1,13.9,8.2,3.3,7.1,2.2,15.1-2.5,17.8Z"/>
        <path class="cls-1" d="M136.2,144.1l72.1-25.8v7.5l38-14.9v-10.2l-27,7.7,1.7-10.4-67.7,24.8,1.7-11.2-30.2,12.4v-35.3l-17.6,5.6v37.4l-16.1,6.6v-52.8l-23.3,6.6v9.7l5.6-1.7v45.1l-33.4,14.1v3.4l33.4-9.2v55.8c15.4-4.9,17.6-16.1,17.6-23.3v-37.2l16.1-4.4v58.2c15.4-4.9,17.6-16.1,17.6-18.1v-45.1l11.7-3.2v7.7c-.1,0-.1,0-.1,0Z"/>
        <path class="cls-1" d="M323,146v15.6c15.4-4.9,17.6-16.1,17.6-23.1v-38.2c-15.4,4.9-17.6,16.1-17.6,23.1v9c-1.2,3.2-2.9,6.1-4.9,9.2-.2.2-.3.3-.5.5-.5.7-1.2,1.5-2,2.2l-.3.3c-6.4,6.6-14.4,9-19.8,4.2,14.4-8.5,21.9-16.6,21.9-24.3s-2.2-7.7-7-10c-4.2-2-8.7-2.5-13.1-1.5-7,1.2-12.9,4.9-17.8,10.9-4.9,5.9-7.5,12.7-7.5,19.5s2.5,12.9,7.2,17.3c4.7,4.2,10.7,5.6,17.8,4.4,6.6-1.2,12.9-4.4,18.6-9.7,2.5-2.6,5.2-6,7.4-9.5h0ZM292.5,142.9c-2.5,0-3.9-4.2-3.2-9.7.7-5.5,3.4-10.2,5.9-10.2s3.9,4.2,3.2,9.7c-.5,5.5-3.2,10.2-5.9,10.2h0Z"/>
        <path class="cls-1" d="M350.8,98.3c-6.1,1.2-8.7,7.7-8,13.1.5,4.9,3.7,9,9,8,5.2-1,8.2-6.6,8.2-11.9-.3-5.8-3.8-10.4-9.2-9.2h0Z"/>
        <path class="cls-1" d="M224.1,181.6c11.2-2,16.8-10.9,16.8-26.8,1-.3,1.7-.3,2.5-.5,2.5-.5,4.7-1.5,7-2.9v24.6c15.4-4.9,17.6-16.1,17.6-23.3v-79.1l-23.3,6.6v9.7l5.6-1.7v56.3c-1.2,1.7-2.5,2.7-3.9,2.9-3.7.7-5.6-1.2-5.6-5.9v-5.9c0-3.9-1.5-5.4-4.2-4.9-2.2.5-4.2,1.7-5.4,3.9s-2,4.7-2,7.2c0,5.4,1.7,9,4.9,11.2v2.9c0,4.9-1.7,7.7-4.9,8.2-2.5.5-3.9-1.7-3.9-6.4v-27l-16.6,5.6v24.8c0,4.7-1.5,7.2-4.2,7.7-2.9.5-4.7-1.5-4.7-6.4v-33.6l-23.3,6.6v9.7l6.6-2v4.4h0v23.1c0,4.7,1,8.5,2.9,11.7,2.5,3.7,5.6,5.2,10.2,4.4,7-1.2,11.9-5.6,14.4-13.1,2.1,6.3,6.8,9,13.5,7.7h0Z"/>
      </g>
    </g>
  </g>
</svg>