<?xml version="1.0" encoding="UTF-8"?>
<svg id="a" data-name="Layer_1" xmlns="http://www.w3.org/2000/svg" viewBox="0 0 400 300">
  <defs>
    <style>
      .c {
        fill: #fff;
      }
    </style>
  </defs>
  <path class="c" d="M119.07,149.87l-12.98-20.44h-9.94v33.96l-11.9-33.96h-11.61l-9.76,27.85h-13.36v-27.85h-10.65v36.95h31.69l1.68-6.1h12.11l1.72,6.1h20.11v-20.29l12.91,20.29h10.04v-36.95h-10.06v20.44M74.55,152.29l3.77-13.29,3.8,13.29h-7.57M191.1,144.79c-2.08-1.1-5.5-2.19-10.29-3.26-1.93-.42-3.16-.88-3.69-1.36-.49-.38-.78-.96-.8-1.58,0-.8.35-1.55.97-2.05.83-.62,1.85-.92,2.88-.84,1.31-.08,2.6.32,3.64,1.13.88.76,1.45,1.96,1.73,3.63l10.33-.63c-.45-3.83-1.87-6.62-4.24-8.38s-5.83-2.63-10.36-2.63c-3.69,0-6.6.48-8.72,1.45-1.94.83-3.59,2.21-4.74,3.98-1.03,1.61-1.58,3.47-1.58,5.38-.08,2.71,1.04,5.32,3.07,7.13,2.05,1.86,5.47,3.36,10.28,4.49,2.93.67,4.81,1.39,5.61,2.14.75.64,1.19,1.58,1.21,2.57-.01,1.03-.47,2-1.27,2.66-.85.77-2.05,1.15-3.62,1.15-1.89.1-3.7-.74-4.84-2.24-.79-1.21-1.27-2.59-1.38-4.03l-8.85.58c.38-2.07.56-4.17.53-6.27.01-2.42-.3-4.82-.94-7.16-.58-2.17-1.61-4.18-3.02-5.92-1.41-1.71-3.22-3.05-5.27-3.91-2.13-.91-4.92-1.36-8.38-1.36h-17.54v36.95h17.54c2.38-.04,4.74-.38,7.04-1.01,1.98-.54,3.8-1.54,5.31-2.93,1.59-1.43,2.85-3.18,3.71-5.13.6,2.28,1.76,4.37,3.39,6.08,2.32,2.42,6.5,3.63,12.53,3.63,3.44,0,6.28-.52,8.54-1.55,2.17-.96,4-2.54,5.27-4.55,1.25-1.96,1.9-4.23,1.89-6.56.03-1.92-.46-3.81-1.41-5.47-1.09-1.77-2.66-3.19-4.52-4.1M154.22,154.43c-.47,1.18-1.33,2.16-2.45,2.78-1.05.53-2.81.8-5.27.8h-2.89v-20.21h2.94c3.06,0,5.25.72,6.57,2.17,1.32,1.45,1.98,4.13,1.98,8.04,0,2.96-.29,5.1-.88,6.42M196.9,139.89h4.89c-.06,1.1-.46,2.15-1.14,3-.68.85-1.93,1.7-3.75,2.55l2.23,4.21c2.91-1.28,4.97-2.77,6.18-4.47,1.21-1.7,1.81-4.01,1.81-6.94v-7.94h-10.22v9.58M230.14,150.73h17.89v-7.54h-17.89v-5.87h19.29v-7.89h-30.82v36.96h31.37v-8.37h-19.84v-7.28M275.81,149.87l-14.01-20.45h-10.74v36.96h10.81v-20.3l13.93,20.3h10.84v-36.96h-10.84v20.45M323.48,147.78c.01-2.42-.29-4.83-.91-7.16-.56-2.16-1.56-4.17-2.94-5.92-1.37-1.71-3.13-3.05-5.14-3.91-2.07-.91-4.79-1.36-8.16-1.36h-17.08v36.97h17.08c2.32-.04,4.62-.38,6.85-1.01,1.94-.54,3.72-1.55,5.18-2.94,1.65-1.52,2.93-3.39,3.77-5.47.91-2.18,1.36-5.25,1.36-9.19M311.06,154.43c-.45,1.17-1.29,2.16-2.39,2.78-1.02.53-2.72.8-5.13.8h-2.82v-20.21h2.87c2.98,0,5.11.72,6.4,2.17,1.29,1.45,1.93,4.13,1.93,8.05,0,2.96-.29,5.1-.86,6.42M353.45,170.83l-2.08-5.93c-.27-.66-.9-1.11-1.61-1.14h-.19c-.69-.02-1.27-.52-1.37-1.2l-2.84-20.98c0-.07,0-.15-.04-.24h.94c.27,0,.48-.22.48-.48v-3.37c0-.27-.22-.48-.48-.48h-1.12v-6.87c.25-.04.44-.1.47-.15.08-.48.12-.97.09-1.45v-.41c0-.66-.11-1.53-.24-1.58l-1.34-.58-4.15-1.75c-.72-.26-1.51-.26-2.23,0l-4,1.73c-.52.18-1.02.42-1.48.72-.09.48-.12.97-.11,1.45v.4c0,.66.11,1.53.24,1.58.19.05.38.07.57.08v6.82h-1.05c-.27,0-.48.22-.48.48v3.37c0,.27.22.48.48.48h1.37c0,.09-.03.19-.04.28l-2.63,21.27c-3.74-.61-7.59.23-11.65,4.09v5.51c15.55-16.11,27.54,13.2,41.99,0,0-1.72.18-3.9.18-5.62-2.61,2.55-5.17,3.7-7.68,3.97M341.62,130.21v6.78h-2.02v-6.78h2.02M336.49,130.21h1.76v6.78h-1.76v-6.78M340.7,141.34c.55.15.96.6,1.05,1.15l2.89,19.9c.1.56-.27,1.09-.83,1.19-.07.01-.15.02-.23.01h-8.3c-.58,0-1.06-.46-1.06-1.04,0-.05,0-.11.01-.16l2.63-19.9c.09-.56.5-1.01,1.05-1.15h2.78M347.38,168.05c.7.04,1.32.49,1.58,1.14l.48,1.41c-2.3-.57-4.52-1.43-6.61-2.55h4.55"/>
  <path class="c" d="M339.26,148.59h1.09c.27,0,.48-.22.48-.48v-3.29c0-.27-.22-.48-.48-.48h-1.09c-.27,0-.48.22-.48.48v3.3c0,.26.22.47.48.47M337.37,154.19h1.08c.27,0,.48.22.48.48v3.29c0,.27-.22.48-.48.48h-1.08c-.27,0-.48-.22-.48-.48v-3.29c0-.27.22-.48.48-.48"/>
</svg>