<?xml version="1.0" encoding="UTF-8"?>
<svg id="a" data-name="Layer_1" xmlns="http://www.w3.org/2000/svg" viewBox="0 0 400 300">
  <defs>
    <style>
      .c {
        fill: #fff;
      }
    </style>
  </defs>
  <path class="c" d="M375.11,140.5h-6.32l1.67-4.63h-10.35l-1.68,4.63h-6.33l-2.21,6.1h6.32l-7.83,21.65h10.35l7.83-21.65h6.32l2.22-6.1Z"/>
  <path class="c" d="M265.05,131.25h-24c-2.54,0-5.35,2.07-6.27,4.63l-10.05,27.75c-.92,2.56.39,4.63,2.93,4.63h33.2l1.98-5.4h-20.97s-3.12-.01-3.12-.01c-1.61,0-2.63-1.37-2.3-2.93l3.32-9.2s.02-.04.02-.06l1.88-5.19,1.26-3.49c.47-1.27,1.87-2.31,3.14-2.31h12.49c1.27,0,1.93,1.03,1.46,2.31l-1.67,4.63h10.36l2.19-6.1c1.87-5.12-.75-9.26-5.84-9.26Z"/>
  <path class="c" d="M347.46,135.9h4.02l1.67-4.61h-11.99s-.04,0-.07,0c-2.54,0-5.34,2.06-6.27,4.61,0,.02,0,.03-.01.04l-1.65,4.57h-6.32l-2.2,6.08h6.31l-7.83,21.61h10.33l7.83-21.61h6.32l2.2-6.08h-6.32l.84-2.31c.46-1.27,1.87-2.31,3.14-2.31Z"/>
  <path class="c" d="M320.31,140.5h-21.49l-2.24,6.09h13.44c1.27,0,1.92,1.04,1.46,2.32l-4.16,11.63c-.47,1.27-1.87,2.31-3.14,2.31h-8.22c-1.26,0-1.91-1.02-1.47-2.29l.65-1.86c.47-1.26,1.87-2.29,3.13-2.29h8.57l1.83-4.99h-16.68c-2.54,0-5.36,2.12-6.3,4.67l-2.68,7.51c-.92,2.55.39,4.62,2.92,4.62h13.41c1.78,0,3.22-.69,5.99-2.31l-.84,2.31h10.35l8.37-23.11c.92-2.55-.38-4.62-2.92-4.62Z"/>
  <path class="c" d="M170.24,140.5h-6.32l1.68-4.63h-10.36l-1.68,4.63h-6.33l-2.21,6.1h6.32l-7.83,21.65h10.36l7.83-21.65h6.33l2.21-6.1Z"/>
  <path class="c" d="M82.7,131.25h-7.47c-1.8,0-2.88.19-4.18,1.71l-18.68,19.82-4.17-19.82c-.21-1.5-1.22-1.72-3.02-1.72h-6.93l-13.36,37h10.32l5.87-16.19,3.72,16.19h4.56l15.85-16.28-5.89,16.28h10.03l13.4-37h-.05Z"/>
  <path class="c" d="M176.77,140.5c-2.54,0-5.36,2.07-6.28,4.63l-6.7,18.51c-.92,2.56.39,4.63,2.93,4.63h27.78l1.96-5.41h-19.72c-1.27,0-1.93-1.03-1.47-2.31l4.21-11.63c.47-1.27,1.87-2.32,3.14-2.32h6.92c1.27,0,1.93,1.04,1.47,2.32l-.88,2.52h-9.65l-1.77,5h20.01l2.39-6.68c1.85-5.11-.77-9.25-5.85-9.25h-18.48Z"/>
  <path class="c" d="M222.62,140.52c-1.77,0-3.22.69-5.98,2.31l.84-2.31h-10.34l-10.03,27.72h10.34l7.02-19.33c.47-1.27,1.87-2.31,3.14-2.31h10.36l2.19-6.08h-7.52Z"/>
  <path class="c" d="M111.22,140.5h-28.96l-2.23,6.09h20.91c1.27,0,1.93,1.04,1.46,2.32l-4.17,11.63c-.47,1.27-1.87,2.31-3.14,2.31h-8.22c-1.26,0-1.91-1.02-1.47-2.29l.64-1.86c.47-1.26,1.86-2.29,3.12-2.29h8.57l1.83-4.99h-16.68c-2.54,0-5.36,2.12-6.3,4.67l-2.68,7.51c-.92,2.55.39,4.62,2.92,4.62h13.41c1.78,0,3.22-.69,5.99-2.31l-.84,2.31h10.35l8.37-23.11c.93-2.55-.38-4.62-2.92-4.62Z"/>
  <path class="c" d="M142.92,157.55c0-3.54-2.47-6.07-6.45-6.07h-10.54c-.63,0-.96-.52-.73-1.15l-.04.09.95-2.83c.28-.56.92-1,1.5-1h15.13l2.21-6.09h-22.04c-2.54,0-5.35,2.07-6.27,4.62l-2.31,6.68c-.92,2.54.37,4.59,2.87,4.62h0s13.94,0,13.94,0c1.27,0,1.93,1.03,1.46,2.31l-.68,1.81c-.47,1.27-1.86,2.3-3.13,2.3h-18.58l-1.95,5.39h26.72c2.54,0,5.36-2.06,6.27-4.62.93-2.56,1.67-5.08,1.66-6.07Z"/>
  <path class="c" d="M289.01,140.52c-1.77,0-3.22.69-5.99,2.31l.84-2.31h-10.34l-10.03,27.72h10.34l7.03-19.33c.47-1.27,1.87-2.31,3.13-2.31h10.36l2.19-6.08h-7.51Z"/>
</svg>