<svg width="400" height="400" viewBox="0 0 400 400" fill="none" xmlns="http://www.w3.org/2000/svg">
<g clip-path="url(#clip0_10696_1582)">
<path d="M340 192.401H334.944L336.278 188.701H328.004L326.664 192.401H321.602L319.833 197.28H324.889L318.631 214.588H326.91L333.169 197.28H338.225L340 192.401Z" fill="white"/>
<path d="M252.009 185.006H251.992H232.821C230.789 185.006 228.544 186.662 227.805 188.706L219.772 210.893C219.033 212.937 220.081 214.594 222.114 214.594H248.654L250.24 210.278H233.474V210.267H230.983C229.695 210.267 228.882 209.168 229.145 207.927L231.802 200.571C231.808 200.554 231.814 200.543 231.819 200.526L233.319 196.375L234.327 193.585C234.699 192.566 235.822 191.735 236.835 191.735H246.821C247.835 191.735 248.362 192.561 247.989 193.585L246.65 197.286H254.929L256.676 192.407C258.17 188.313 256.074 185.006 252.009 185.006Z" fill="white"/>
<path d="M317.898 188.723H321.11L322.444 185.034H312.859V185.04C312.842 185.04 312.825 185.034 312.807 185.034C310.78 185.034 308.536 186.685 307.797 188.723C307.791 188.735 307.791 188.746 307.786 188.758L306.463 192.413H301.413L299.655 197.275H304.699L298.441 214.554H306.703L312.962 197.275H318.012L319.77 192.413H314.72L315.39 190.568C315.756 189.555 316.884 188.723 317.898 188.723Z" fill="white"/>
<path d="M296.191 192.407H279.007L277.215 197.28H287.962C288.976 197.28 289.497 198.112 289.13 199.131L285.804 208.428C285.431 209.447 284.309 210.278 283.296 210.278H276.722C275.714 210.278 275.193 209.464 275.548 208.451L276.064 206.965C276.442 205.957 277.558 205.137 278.566 205.137H285.42L286.886 201.146H273.55C271.517 201.146 269.261 202.843 268.517 204.881L266.375 210.887C265.637 212.925 266.685 214.582 268.712 214.582H279.436C280.856 214.582 282.013 214.03 284.229 212.732L283.559 214.582H289.216H291.833L298.527 196.102C299.265 194.064 298.223 192.407 296.191 192.407Z" fill="white"/>
<path d="M176.203 192.401H171.147L172.487 188.701H164.207L162.867 192.401H157.805L156.036 197.28H161.092L154.833 214.588H163.113L169.372 197.28H174.433L176.203 192.401Z" fill="white"/>
<path d="M106.214 185.006H100.242C98.7992 185.006 97.9403 185.159 96.8982 186.372L81.9648 202.222L78.6323 186.378C78.4605 185.182 77.6532 185.006 76.2217 185.006H70.6904H70.6847L60 214.588H68.2511L72.9407 201.641L75.9182 214.588H79.5656L92.2372 201.573L87.5247 214.588H95.5411L106.254 185.006H106.214Z" fill="white"/>
<path d="M181.425 192.401C179.392 192.401 177.142 194.058 176.403 196.102L171.044 210.904C170.305 212.948 171.353 214.605 173.386 214.605H195.597L197.166 210.278H181.396C180.377 210.278 179.856 209.453 180.223 208.428L183.589 199.131C183.962 198.112 185.084 197.28 186.097 197.28H191.629C192.648 197.28 193.169 198.112 192.803 199.131L192.098 201.146H184.385L182.971 205.143H198.969L200.882 199.802C202.359 195.715 200.263 192.407 196.204 192.407C196.198 192.407 196.192 192.407 196.187 192.407L181.425 192.401Z" fill="white"/>
<path d="M218.083 192.418C216.668 192.418 215.512 192.971 213.301 194.263L213.971 192.418H205.703L197.681 214.582H205.949L211.561 199.125C211.933 198.106 213.055 197.28 214.069 197.28H222.348L224.095 192.418H218.083Z" fill="white"/>
<path d="M129.015 192.407H105.859L104.073 197.28H120.793C121.812 197.28 122.333 198.112 121.961 199.131L118.628 208.428C118.256 209.447 117.134 210.278 116.12 210.278H109.547C108.539 210.278 108.018 209.464 108.373 208.451L108.888 206.965C109.266 205.957 110.377 205.137 111.385 205.137H118.239L119.705 201.146H106.369C104.336 201.146 102.08 202.843 101.336 204.881L99.1943 210.887C98.4556 212.925 99.5035 214.582 101.53 214.582H112.255C113.675 214.582 114.832 214.03 117.048 212.732L116.378 214.582H122.035H124.652L131.346 196.102C132.09 194.064 131.042 192.407 129.015 192.407Z" fill="white"/>
<path d="M154.364 206.037C154.358 203.207 152.389 201.186 149.211 201.186H140.782C140.278 201.186 140.015 200.77 140.198 200.264L140.169 200.338L140.925 198.077C141.148 197.628 141.658 197.28 142.122 197.28H154.221L155.99 192.407H138.371C136.339 192.407 134.094 194.064 133.355 196.102L131.506 201.442C130.773 203.469 131.798 205.109 133.802 205.137V205.143H144.95C145.964 205.143 146.491 205.968 146.119 206.993L145.575 208.439C145.202 209.453 144.086 210.278 143.072 210.278H128.219L126.656 214.588H148.02C150.052 214.588 152.308 212.937 153.036 210.893C153.78 208.843 154.37 206.828 154.364 206.037Z" fill="white"/>
<path d="M271.168 192.418C269.754 192.418 268.597 192.971 266.381 194.263L267.051 192.418H258.783L250.761 214.582H259.029L264.646 199.125C265.018 198.106 266.141 197.28 267.148 197.28H275.428L277.175 192.418H271.168Z" fill="white"/>
</g>
<defs>
<clipPath id="clip0_10696_1582">
<rect width="280" height="30" fill="white" transform="translate(60 185)"/>
</clipPath>
</defs>
</svg>
