<svg id="Layer_1" data-name="Layer 1" xmlns="http://www.w3.org/2000/svg" viewBox="0 0 400 400"><defs><style>.cls-1{fill:#fff;}</style></defs><path class="cls-1" d="M87.24,191.77l-1.4-1.53-1.46-1.12-.91-.84-.69-.69-.7-.77-.35-.49h-.07l-.28-.7-.14-.83V184l.14-1,.63-1.81.7-2.16.34-1.33.14-1.39-.14-1.19-.34-.9-.56-.77-.63-.7-1-.76-2-.84-2.44-.63-1.81-.14-3.77-.21-2.09.07-2.37.49-1.74.49-2.24,1-1.67,1.18-1.6,1.4-1.75,2-1.25,1.88-1.4,2.93-1,2.65-.56,2.16-.35.7-1,1.32-.48.84-.42.91-.42,1.39-.14,1v1l.14.63.21.49.21.28v.07l.35.28.28.07h.34l.35-.14.28-.35.07-.56.07-1v-1l.28-.56.35-.21h.84l.62.14.84.35.84.49,1,.83.77.7,1.19,1.4.69,1,.7,1.26.56,1.46-.07.42-.56.77-1.32,1.53-1,.84-.84.56-.69.07h-.7l-.7-.21-1-.56-.76-.56-.56-.63-.42-.62-.28-.63-.14-.63L52,198.61l-.07-.56-.28-.28-.34-.07-.42.14-.28.35-.21.42-.07.41v1.4l.21,1,.35.91.42.84.55.76.63.77,1,.91,1.11.91,1.19,1,1,1.05,1.05,1.25,1,1.68.62,1.11.7,1.4.07.48.63.91.7.63,1,.56,1.4.21h.69l.77.07.28.14.21.2.14.42v1l.21.35.42.07.69-.07.49-.28.21-.42.07-.42.07-.63.07-.48.07-.21.14-.14h.7l.14.21.07.35.07,1,.28.56.34.28.14.07h1.4l.7-.35h.06l.42-.63.28-.91v-.06l.07-1.05.21-1,.14-.42h.07l3.91-2.23,3.41-2.23,1.82-1.46,1.53-1.33,1.12-1.18c0-.07.07-.07.07-.14l1.46-2,.91-1.81.48-1,.28-1.12.21-1.46v-2.45l-.69-2.71ZM69.11,210.53l-.42.35-.49.07.07-.07-.42-.07-.21-.07-.83-.77-1.12-.49-.91-.07H62.69l-.56.14-.62.21h-.42l-.42-.14-.21-.21-.14-.27-.07-1.26.21-.84.63-1.81.83-1.88.49-.91.49-.63,6.28,7.95A1,1,0,0,1,69.11,210.53Zm7.81-4.95a7.36,7.36,0,1,1,7.32-7.39A7.38,7.38,0,0,1,76.92,205.58Z"/><path class="cls-1" d="M123.85,198.47a17.31,17.31,0,0,0-6.83-2.86L110.11,194a26.82,26.82,0,0,1-5.23-1.6,3.5,3.5,0,0,1-1.95-3.14,3.89,3.89,0,0,1,1.95-3.56,9.31,9.31,0,0,1,5.23-1.25,10.67,10.67,0,0,1,4.88,1,5.71,5.71,0,0,1,3.21,5h8c-.14-4.19-1.67-7.4-4.67-9.63a18,18,0,0,0-10.74-3.27c-5,0-8.86,1.18-11.44,3.48a11.49,11.49,0,0,0-3.9,8.79c0,3.9,1.32,6.69,4,8.51,1.61,1.11,4.47,2.09,8.65,3l4.25,1a21,21,0,0,1,5.44,1.81,3.38,3.38,0,0,1,1.75,3q0,3.34-3.56,4.61a14.24,14.24,0,0,1-4.81.62c-3.35,0-5.65-.83-7-2.44a8.5,8.5,0,0,1-1.53-4H94.7a11.63,11.63,0,0,0,4.46,9.69c3,2.3,7,3.49,12.28,3.49s9-1.19,11.78-3.56a11.2,11.2,0,0,0,4.19-9C127.41,203,126.22,200.28,123.85,198.47Z"/><polygon class="cls-1" points="155.79 189.05 146.3 189.05 136.68 200 136.68 178.73 129.15 178.73 129.15 218.06 136.68 218.06 136.68 208.86 139.82 205.58 146.86 218.06 156.14 218.06 145.33 199.93 155.79 189.05"/><path class="cls-1" d="M175.94,204.74h0a12.62,12.62,0,0,1-.84,4.53,5.3,5.3,0,0,1-5.3,3.14c-2,0-3.41-.76-4.11-2.23a9.63,9.63,0,0,1-.56-3.76V188.84h-7.81v17.58a18,18,0,0,0,1.26,7.6c1.46,3.13,4.39,4.67,8.71,4.67a14.66,14.66,0,0,0,3.91-.56,10.57,10.57,0,0,0,3.49-2.16,5.81,5.81,0,0,0,1-1.19c.28-.41.49-.69.56-.83v4.11h7.39V188.91h-7.74v15.83Z"/><rect class="cls-1" x="186.82" y="178.66" width="7.6" height="39.4"/><rect class="cls-1" x="197.63" y="178.66" width="7.6" height="39.4"/><path class="cls-1" d="M221.76,194.63a4.5,4.5,0,0,1,4,1.74,7.56,7.56,0,0,1,1.12,2.93h7.88c-.42-4.18-1.82-7-4.12-8.71s-5.3-2.44-9-2.44c-4.33,0-7.67,1.39-10.11,4.18s-3.7,6.69-3.7,11.71a16.82,16.82,0,0,0,3.35,10.81c2.23,2.79,5.65,4.19,10.39,4.19s8.23-1.68,10.6-5a12.53,12.53,0,0,0,2.51-6.56h-7.81a6.93,6.93,0,0,1-1.4,3.77,4.56,4.56,0,0,1-3.83,1.46,5.1,5.1,0,0,1-5.16-3.62,14.47,14.47,0,0,1-.77-5.16,15.57,15.57,0,0,1,.77-5.37C217.43,196,219.18,194.63,221.76,194.63Z"/><path class="cls-1" d="M262.06,216a4.23,4.23,0,0,1-.48-2c-.07-1.33-.07-2.44-.07-3.35V197.28c0-3.49-1.26-5.93-3.77-7.18a18.13,18.13,0,0,0-8.51-1.89c-4.95,0-8.44,1.26-10.46,3.84a11.37,11.37,0,0,0-2.16,6.28h7.32a5.24,5.24,0,0,1,1.12-2.65c.77-.91,2-1.33,3.9-1.33a7.6,7.6,0,0,1,3.7.7,2.4,2.4,0,0,1,1.26,2.44,2.32,2.32,0,0,1-1.61,2.16,11.51,11.51,0,0,1-3.07.7l-2.58.28a17.44,17.44,0,0,0-6.76,1.88c-2.79,1.6-4.19,4.18-4.19,7.81a8,8,0,0,0,2.58,6.42,9.43,9.43,0,0,0,6.56,2.23,11,11,0,0,0,5.58-1.4,14.26,14.26,0,0,0,3.62-2.93c.07.7.14,1.26.21,1.75a15,15,0,0,0,.49,1.67H263V217A3,3,0,0,1,262.06,216Zm-8.15-9.28c-.07,2.51-.77,4.26-2.17,5.23a7.67,7.67,0,0,1-4.6,1.47,4.42,4.42,0,0,1-2.65-.84,3.47,3.47,0,0,1-1.11-2.79,3.42,3.42,0,0,1,1.81-3.21,10.71,10.71,0,0,1,3.49-1l1.74-.35a9.56,9.56,0,0,0,2-.56,7.92,7.92,0,0,0,1.47-.76Z"/><path class="cls-1" d="M288.42,190.59a10.78,10.78,0,0,0-7.32-2.38,10.08,10.08,0,0,0-5.93,1.75,13.58,13.58,0,0,0-2.79,3.21v-4.26H265v29.15h7.6V202.3a10.91,10.91,0,0,1,.77-4.46,5.33,5.33,0,0,1,5.3-3.28c2.09,0,3.49.77,4.25,2.23a7.67,7.67,0,0,1,.63,3.56v17.71h7.81V198.4C291.28,194.77,290.31,192.12,288.42,190.59Z"/><path class="cls-1" d="M342.05,188.77v.14l-6,21.48-6.34-21.48h-8V178.66h-7.81v14a9.12,9.12,0,0,0-8-4.46,11.26,11.26,0,0,0-9.21,4.25c-2.3,2.86-3.41,6.76-3.41,11.78a15.9,15.9,0,0,0,3.48,10.6,10.64,10.64,0,0,0,8.58,4.12,10.44,10.44,0,0,0,5.23-1.19,10.66,10.66,0,0,0,3.7-3.76v4h7.39V190.17l10.25,29.15a5,5,0,0,1-.49,1.74,3.52,3.52,0,0,1-1.25,1.88,3.77,3.77,0,0,1-1.75.63,11,11,0,0,1-2.16.07l-1-.07v6.14c.84.07,1.47.07,1.82.07h1.6c3.35,0,5.65-.7,6.77-2s2.65-4.74,4.6-10.32l10-28.66Zm-29.64,21.34a5.42,5.42,0,0,1-4.88,2.37,5.3,5.3,0,0,1-4.81-2.44,11.67,11.67,0,0,1-1.6-6.48,12.09,12.09,0,0,1,1.53-6.28,5.35,5.35,0,0,1,4.88-2.51,5.94,5.94,0,0,1,3.84,1.39c1.81,1.54,2.72,4.12,2.72,7.68A10.7,10.7,0,0,1,312.41,210.11Z"/><path class="cls-1" d="M347.77,216.25c0-.63-.35-.91-1.12-.91H345.4v3.21h.49v-1.4h.55l.84,1.4h.56l-.91-1.4A.85.85,0,0,0,347.77,216.25Zm-1.33.49H346v-1.05h.62c.35,0,.7.07.7.49S346.86,216.74,346.44,216.74Z"/><path class="cls-1" d="M346.51,214.16a2.74,2.74,0,0,0-2.79,2.72,2.76,2.76,0,1,0,2.79-2.72Zm0,5.09a2.34,2.34,0,1,1,2.23-2.37A2.24,2.24,0,0,1,346.51,219.25Z"/></svg>