<?xml version="1.0" encoding="UTF-8"?>
<svg id="a" data-name="Layer_1" xmlns="http://www.w3.org/2000/svg" viewBox="0 0 400 300">
  <defs>
    <style>
      .c {
        fill: #fff;
      }
    </style>
  </defs>
  <path class="c" d="M53.38,151.31c-2.14-1.19-5.06-1.29-6.99-1.34-.8-.02-1.43-.05-1.85-.13-.72-.15-1.9-.83-2.16-1.83-.12-.46-.07-1.18.81-1.93,1.02-.87,2.24-1.31,3.63-1.31,1.14,0,2.37.3,3.64.89.07.03,1.42.7,2.32,1.8.51.63,1.15.97,1.78.97.27,0,.52-.07.73-.19.6-.34,1-.98,1.07-1.72.09-.93-.36-1.88-1.22-2.61-1.82-1.54-5.5-2.43-7.46-2.49h-.5c-3.9,0-6.82,1.5-8.45,4.33-1.18,2.06-.74,3.68-.16,4.68,1.08,1.88,3.55,3.1,6.29,3.11,4.6.03,5.91.28,7.09,1.37,1.39,1.29,3.05,3.34,3,5.8-.05,2.65-2.13,4-6.21,4h-.32c-5.98-.1-6.64-3.38-6.99-5.13l-.02-.08c-.33-1.63-.91-1.94-1.93-1.94h-.02c-.25,0-.74.08-1.14.61-.38.51-.9,1.8-.08,4.7.63,2.24,2.68,3.55,4.29,4.25,2.09.92,4.37,1.24,5.81,1.24h.15c1.52-.02,9.17-.42,10.23-5.9.55-2.81-.36-5.24-1.21-6.79-1.02-1.86-2.59-3.5-4.16-4.38h0Z"/>
  <path class="c" d="M212.31,151.31c-2.14-1.19-5.06-1.29-6.99-1.34-.8-.02-1.43-.05-1.85-.13-.72-.15-1.9-.83-2.16-1.83-.12-.46-.07-1.18.81-1.93,1.02-.87,2.24-1.31,3.63-1.31,1.14,0,2.37.3,3.64.89.07.03,1.42.7,2.32,1.8.51.63,1.15.97,1.78.97.27,0,.52-.07.73-.19.6-.34,1-.98,1.07-1.72.08-.93-.36-1.88-1.22-2.61-1.82-1.54-5.5-2.43-7.46-2.49h-.5c-3.9,0-6.82,1.5-8.45,4.33-1.18,2.06-.74,3.68-.16,4.68,1.08,1.88,3.55,3.1,6.29,3.11,4.59.03,5.91.28,7.09,1.37,1.39,1.29,3.05,3.34,3,5.8-.05,2.65-2.13,4-6.21,4h-.32c-5.98-.1-6.64-3.38-6.99-5.13l-.02-.08c-.33-1.63-.91-1.94-1.94-1.94h-.02c-.25,0-.74.08-1.14.61-.38.51-.9,1.8-.08,4.7.63,2.24,2.68,3.55,4.29,4.25,2.09.92,4.37,1.24,5.81,1.24h.15c1.52-.02,9.17-.42,10.23-5.9.55-2.81-.36-5.24-1.21-6.79-1.02-1.86-2.59-3.5-4.16-4.38h0Z"/>
  <path class="c" d="M93.92,144.23s-.04-.02-.06-.02c-.1-.04-.37-.11-.71-.2-1.01-.27-2.89-.76-4.14-1.47-1.59-.89-4.73-1.13-4.9-1.14-.98.03-3.24.36-5.43,1.32-3.09,1.36-5.14,3.5-6.09,6.35-1.46,4.41-1.6,10.82,1.37,15.18,2.05,3,5.26,4.64,9.55,4.86.42.02.85.03,1.26.03,2.69,0,5.06-.5,7.02-1.49,1.72-.87,3.2-2.14,4.35-3.77,1.78-2.5,2.9-5.9,3.42-10.39.33-2.83-.43-5.21-2.25-7.05-.93-.94-2.11-1.71-3.39-2.21h0ZM95.82,154.03c-.89,7.66-4.42,11.39-10.8,11.39-.3,0-.6,0-.91-.02-3.15-.17-5.51-1.37-7.01-3.58-2.17-3.19-2.07-7.85-1.02-11.05.7-2.11,2.2-3.68,4.48-4.68,1.61-.71,3.26-.94,3.98-.96h.02c.1,0,2.41.16,3.61.85.86.49,2.19.84,2.9,1.02.27.07.45.12.54.15l.04.02c1.12.44,4.73,2.24,4.19,6.87h0Z"/>
  <path class="c" d="M133.2,142.8c-.07-.53-.76-.64-1.33-.64-.72,0-1.51.17-1.86.28-.66.2-.59,2.9-.43,3.8.15.81.17,11.37.12,13.87l-.05.65c0,2.24-4.55,4.7-8.83,4.81h-.1c-.92,0-1.72-.33-2.37-.99-1.98-2-1.99-6.29-1.99-6.47,0-.05.04-5.31.18-10.54.1-3.66-.33-4.51-.52-4.7-.05-.05-.08-.06-.09-.06l-.07.03-.07-.07c-.18-.17-.47-.25-.88-.25-.28,0-.6.04-.99.12-.53.11-1.07.74-1.07,4.59,0,.28.05,6.95-.02,8.12,0,.14-.03.35-.06.61-.2,1.88-.73,6.87,1.59,9.87,1.42,1.82,4.16,2.96,7.15,2.96s5.61-1.03,7.73-2.9l.26-.24-.02.35s-.07,1.16.52,1.8c.26.28.61.41,1.06.41h.11c1.83-.09,2.08-2.14,2.08-4.34,0-2.06.19-10.28.2-10.36,0,0-.02-1.59-.1-5.97,0-.04,0-3.59-.15-4.73h0Z"/>
  <path class="c" d="M160.09,141.89c-.07,0-.16,0-.24,0-2.27,0-6.72,2.85-6.76,2.89l-.22.15v-.27c0-2.03-1-2.05-1.04-2.05h-.79c-1.53,0-2.11,1.57-2.12,1.98,0,.26,0,1.36.02,2.42,0,1.1.02,2.24,0,2.56-.02.53-.32,10.51-.29,15.21.02,3.5,1.25,3.88,1.78,3.88.15,0,.25-.03.25-.03h.02c2.82-.5,2.41-4.03,2.19-5.92l-.02-.12c-.16-1.38-.12-4.8-.1-7.81,0-1.1.02-2.13.02-2.98,0-2.94,2.63-4.42,4.73-5.6.24-.13.46-.26.68-.39.6-.35,1.19-.53,1.74-.53,1.2,0,2.01.81,2.54,1.35l.1.1c.08.08.2.12.35.12.59,0,1.49-.59,1.93-1.26.2-.3.39-.74.21-1.16-.51-1.19-2.6-2.24-4.98-2.5v-.02Z"/>
  <path class="c" d="M333.55,141.83c-.62,0-1.02.06-1.02.06h-.03c-.07,0-.16,0-.24,0-2.27,0-6.72,2.85-6.76,2.89l-.23.15v-.27c0-1.98-.94-2.45-1.08-2.5h-.8s-.06-.02-.15-.02c-.29,0-1.01.17-1.35,1.72-.47,2.13-.55,5.68-.55,5.72-.02.53-.32,10.51-.29,15.21.02,3.5,1.25,3.88,1.78,3.88.15,0,.25-.03.25-.03h.02c2.4-.42,2.31-2.4,2.21-4.69-.02-.45-.04-.91-.04-1.37,0-.83-.02-2.36-.03-4.13-.02-2.28-.04-4.86-.04-6.64,0-3.55,2.47-4.81,4.86-6.01l.26-.13c.38-.2,1.77-.84,3.43-.84,1.15,0,2.2.31,3.12.92,2.45,1.64,1.81,8.14,1.3,13.37-.1,1.04-.2,2.02-.26,2.88-.33,4.57,1.17,5.56,1.37,5.68h1.02c.54,0,.96-.15,1.22-.44.5-.55.4-1.54.33-2.13-.02-.16-.03-.3-.03-.41,0-.1,0-.2,0-.33-.04-.78-.14-2.85.23-12.57.12-3.33-.63-5.87-2.27-7.56-1.98-2.05-4.75-2.36-6.23-2.36l.02-.02Z"/>
  <path class="c" d="M278.3,141.48h-.02c-.41-.07-.85-.11-1.28-.11-4.57,0-8.91,4.02-8.95,4.06l-.13.12-.09-.15c-2.13-3.44-6.16-3.81-7.8-3.81-.55,0-.9.04-.9.04h-.02c-2.35,0-6.87,3.11-6.92,3.14l-.23.15v-.28c0-1.98-.93-2.5-1.08-2.57h-.75c-1.53,0-2.11,1.57-2.12,1.98-.02.26,0,1.49,0,2.68.02,1.23.02,2.5.02,2.82-.02.7-.22,11.02-.2,15.62.02,3.5,1.25,3.88,1.78,3.88.15,0,.25-.03.25-.03h0c1.2-.21,1.92-1.04,2.17-2.55.22-1.27.04-2.74-.07-3.71l-.02-.2c-.16-1.38-.12-4.8-.1-7.81,0-1.1.02-2.13.02-2.98,0-2.55,1.98-3.51,3.9-4.45.52-.25,1.06-.51,1.54-.8.29-.18,2.04-.76,3.79-.76,2.33,0,3.56,1.02,3.59,2.95,0,.1.45,10.62.29,13.09-.23,3.58.06,6.06.76,6.81.15.16.31.24.5.24h1.68c.09-.02,1.5-.44,1.29-5.35-.08-1.96-.2-9.29-.07-11.84.11-2.48,3.1-6.92,8.62-6.95h.02c1.13,0,2.07.38,2.81,1.15,2.16,2.21,2.03,7,1.98,8.81v.38c-.02.92-.29,2.93-.56,4.88-.23,1.63-.44,3.17-.45,3.77v.02c-.02.94-.06,2.91.83,3.81.32.33.72.48,1.22.48.79,0,1.35-.18,1.68-.54.33-.37.28-.81.28-.82v-.04c0-.07.07-.91.63-11.02.71-12.6-2.72-13.2-7.9-14.12v.02Z"/>
  <path class="c" d="M181.19,151.71v-.27c0-1.29.15-5.86.18-6.56.03-.55-.1-1.56-.58-2.06-.2-.22-.45-.33-.75-.33l-1.08.05h-.07c-.37,0-1.58.16-1.58,2.24,0,2.24.11,7.42.17,10.51.02.98.03,1.79.05,2.27.03,1.76.04,6.14-.07,6.7-.07.33-.13,2.77.78,3.89.29.37.64.54,1.07.54.55,0,1.04-.25,1.44-.74.85-1.04,1.23-3.12.88-4.84-.3-1.46-.45-5.29-.44-11.39h0Z"/>
  <path class="c" d="M179.73,130.87c-.75,0-1.46.45-1.69.77v.02s-.86,1.01-.76,2.08c.06.53.33.99.83,1.38.71.54,1.33.83,1.87.83.6,0,.99-.34,1.3-.61l.05-.04c.37-.32,1.45-1.5.1-3.42-.46-.66-1.03-.98-1.69-.98v-.02Z"/>
  <path class="c" d="M305.21,151.71v-.27c0-1.29.15-5.86.18-6.56.03-.55-.1-1.56-.58-2.06-.2-.22-.45-.33-.75-.33l-1.08.05h-.08c-.37,0-1.58.16-1.58,2.24,0,2.24.11,7.42.17,10.51.02.98.04,1.79.05,2.27.03,1.76.04,6.14-.07,6.7-.07.33-.13,2.77.78,3.89.29.37.64.54,1.07.54.55,0,1.04-.25,1.45-.74.85-1.04,1.23-3.12.88-4.84-.3-1.46-.45-5.29-.44-11.39h0Z"/>
  <path class="c" d="M303.74,130.87c-.75,0-1.46.45-1.69.77v.02s-.86,1.01-.76,2.08c.06.53.33.99.83,1.38.71.54,1.33.83,1.87.83.6,0,.99-.34,1.3-.61l.05-.04c.37-.32,1.45-1.5.1-3.42-.46-.66-1.03-.98-1.69-.98v-.02Z"/>
  <path class="c" d="M361.28,151.71v-.27c0-1.29.15-5.86.18-6.56.03-.55-.1-1.56-.58-2.06-.2-.22-.45-.33-.75-.33l-1.08.05h-.07c-.37,0-1.58.16-1.58,2.24,0,2.24.11,7.42.17,10.51.02.98.03,1.79.05,2.27.03,1.76.04,6.14-.07,6.7-.07.33-.13,2.77.78,3.89.29.37.64.54,1.07.54.55,0,1.04-.25,1.45-.74.85-1.04,1.23-3.12.88-4.84-.3-1.46-.45-5.29-.44-11.39h0Z"/>
  <path class="c" d="M358.19,135.12c.71.54,1.33.83,1.87.83.6,0,.99-.34,1.31-.61l.04-.04c.37-.32,1.45-1.5.1-3.42-.46-.66-1.03-.98-1.7-.98-.75,0-1.46.45-1.69.77v.02s-.86,1.01-.76,2.08c.05.53.33.99.83,1.38v-.02Z"/>
</svg>