<?xml version="1.0" encoding="UTF-8"?>
<svg id="a" data-name="Layer_1" xmlns="http://www.w3.org/2000/svg" viewBox="0 0 400 300">
  <defs>
    <style>
      .c {
        fill: #fff;
      }
    </style>
  </defs>
  <path class="c" d="M311.16,127.8h-18.8v44.46h18.8v-44.46Z"/>
  <path class="c" d="M39.91,127.8v17.22h13.67v27.18h18.85v-27.18h13.67v-17.22h-46.18Z"/>
  <path class="c" d="M118.15,141.97h-9.75v-14.18h-18.8v44.41h18.8v-14.73h9.75v14.73h18.8v-44.41h-18.8v14.18Z"/>
  <path class="c" d="M281.19,144.16c-.46-.25-.91-.51-1.37-.71l7.47-15.7h-26.01c-4.83,0-8.03.66-10.36,2.03-2.29,1.32-4.12,3.15-5.44,5.49-1.32,2.29-2.03,4.83-2.03,7.57s.66,5.28,2.03,7.57c1.32,2.29,3.15,4.12,5.49,5.49.46.25.91.51,1.37.71l-7.47,15.7h26.52c4.42,0,7.57-.66,9.86-2.03,2.29-1.32,4.12-3.15,5.49-5.49,1.32-2.29,2.03-4.83,2.03-7.57s-.66-5.23-2.03-7.57c-1.37-2.29-3.25-4.17-5.54-5.49Z"/>
  <path class="c" d="M229.01,127.8h-24.85l-15.6,44.46h18.9l2.34-7.62h13.67l2.34,7.62h18.9l-15.7-44.46ZM213.36,152.95l3.25-10.57,3.25,10.57h-6.5Z"/>
  <path class="c" d="M169.72,172.2h18.8l-9.2-16.77c3.61-1.88,7.77-6.6,7.77-13.72s-5.69-13.97-17.73-13.97h-28.25v44.46h18.8v-13.87h2.13l7.67,13.87ZM159.91,140.24h3.66c2.13,0,3.66,1.52,3.66,3.4s-1.47,3.4-3.61,3.4h-3.66v-6.81h-.05Z"/>
  <path class="c" d="M337.23,127.14c-12.65,0-22.86,10.21-22.86,22.86s10.21,22.86,22.86,22.86,22.86-10.21,22.86-22.86-10.21-22.86-22.86-22.86ZM340.94,153.71h-7.42v-7.42h7.42v7.42Z"/>
</svg>