<?xml version="1.0" encoding="UTF-8"?>
<svg id="a" data-name="Layer_1" xmlns="http://www.w3.org/2000/svg" viewBox="0 0 400 300">
  <defs>
    <style>
      .c {
        fill: #fff;
        fill-rule: evenodd;
      }
    </style>
  </defs>
  <polygon class="c" points="150.74 160.31 198.08 160.31 204.49 149.74 157.09 149.74 150.74 160.31"/>
  <polygon class="c" points="160 144.98 199.47 144.98 205.56 134.59 166.29 134.59 160 144.98"/>
  <polygon class="c" points="144.27 119.12 119.74 160.25 146.11 160.25 170.84 119.12 144.27 119.12"/>
  <polygon class="c" points="138.91 119.06 109.3 119.06 87.22 131.36 96.2 144.44 138.91 119.06"/>
  <polygon class="c" points="73.92 119.12 42.72 119.12 59.64 144.52 50.26 160.31 86.35 160.31 93.69 148.02 73.92 119.12"/>
  <polygon class="c" points="169.06 129.9 216.4 129.9 222.95 119.12 175.61 119.12 169.06 129.9"/>
  <polygon class="c" points="318.87 119.12 230.15 119.12 223.6 129.9 312.52 129.9 318.87 119.12"/>
  <polygon class="c" points="326.73 119.12 301.88 160.31 335.73 160.31 360.26 119.12 326.73 119.12"/>
  <polygon class="c" points="235.57 160.31 271.99 160.31 287.4 134.59 250.78 134.59 235.57 160.31"/>
  <polygon class="c" points="39.74 178.03 52.11 178.03 53.17 176.25 43.32 176.25 46.62 170.95 56.47 170.95 57.53 169.17 45.24 169.17 39.74 178.03"/>
  <polygon class="c" points="104.13 175.92 96.73 175.92 101.09 169.17 98.65 169.17 93.16 177.57 98.12 177.57 95.94 180.94 98.38 180.94 100.57 177.57 105.53 177.57 110.94 169.17 108.5 169.17 104.13 175.92"/>
  <polygon class="c" points="149.55 178.03 161.92 178.03 162.98 176.25 153.13 176.25 156.36 170.95 166.29 170.95 167.34 169.17 155.05 169.17 149.55 178.03"/>
  <polygon class="c" points="212.96 169.17 210.78 169.17 205.95 178.03 216.86 178.03 217.78 176.25 209.06 176.25 212.96 169.17"/>
  <path class="c" d="M256.4,178.03h12.38l1.11-1.78h-9.9l1.13-1.79h9.9l3.24-5.28h-12.38l-5.48,8.86ZM263.27,170.95h7.43l-1.11,1.79h-7.43l1.11-1.79Z"/>
  <polygon class="c" points="314.96 174.46 324.83 174.46 323.76 176.25 313.85 176.25 312.78 178.03 325.15 178.03 328.39 172.67 318.54 172.67 319.59 170.95 329.44 170.95 330.57 169.17 318.2 169.17 314.96 174.46"/>
</svg>