<svg id="Layer_1" data-name="Layer 1" xmlns="http://www.w3.org/2000/svg" viewBox="0 0 400 400"><defs><style>.cls-1{fill:#fff;fill-rule:evenodd;}</style></defs><polygon class="cls-1" points="160.2 208.33 198.45 208.33 203.63 199.79 165.33 199.79 160.2 208.33"/><polygon class="cls-1" points="167.68 195.94 199.57 195.94 204.49 187.55 172.76 187.55 167.68 195.94"/><polygon class="cls-1" points="154.97 175.05 135.15 208.28 156.46 208.28 176.44 175.05 154.97 175.05"/><polygon class="cls-1" points="150.64 175 126.71 175 108.87 184.94 116.13 195.51 150.64 175"/><polygon class="cls-1" points="98.13 175.05 72.92 175.05 86.59 195.57 79.01 208.33 108.17 208.33 114.1 198.4 98.13 175.05"/><polygon class="cls-1" points="175 183.76 213.25 183.76 218.54 175.05 180.29 175.05 175 183.76"/><polygon class="cls-1" points="296.05 175.05 224.36 175.05 219.07 183.76 290.92 183.76 296.05 175.05"/><polygon class="cls-1" points="302.4 175.05 282.32 208.33 309.67 208.33 329.49 175.05 302.4 175.05"/><polygon class="cls-1" points="228.74 208.33 258.17 208.33 270.62 187.55 241.03 187.55 228.74 208.33"/><polygon class="cls-1" points="70.51 222.65 80.5 222.65 81.36 221.21 73.4 221.21 76.07 216.93 84.03 216.93 84.88 215.49 74.95 215.49 70.51 222.65"/><polygon class="cls-1" points="122.54 220.94 116.56 220.94 120.08 215.49 118.11 215.49 113.67 222.28 117.68 222.28 115.92 225 117.89 225 119.66 222.28 123.67 222.28 128.04 215.49 126.07 215.49 122.54 220.94"/><polygon class="cls-1" points="159.24 222.65 169.23 222.65 170.09 221.21 162.13 221.21 164.74 216.93 172.76 216.93 173.61 215.49 163.68 215.49 159.24 222.65"/><polygon class="cls-1" points="210.47 215.49 208.71 215.49 204.81 222.65 213.62 222.65 214.37 221.21 207.32 221.21 210.47 215.49"/><path class="cls-1" d="M245.57,222.65h10l.9-1.44h-8l.91-1.45h8l2.62-4.27H250Zm5.55-5.72h6l-.9,1.45h-6Z"/><polygon class="cls-1" points="292.89 219.76 300.86 219.76 300 221.21 291.99 221.21 291.13 222.65 301.12 222.65 303.74 218.32 295.78 218.32 296.63 216.93 304.59 216.93 305.5 215.49 295.51 215.49 292.89 219.76"/></svg>